G04 Layer_Color=32896*
%FSAX24Y24*%
%MOIN*%
G70*
G01*
G75*
%ADD47C,0.0050*%
%ADD51C,0.0039*%
G36*
X021562Y024940D02*
X021589Y024935D01*
X021614Y024930D01*
X021636Y024923D01*
X021645Y024919D01*
X021654Y024916D01*
X021662Y024913D01*
X021667Y024910D01*
X021672Y024908D01*
X021676Y024906D01*
X021678Y024905D01*
X021679D01*
X021702Y024889D01*
X021722Y024873D01*
X021739Y024855D01*
X021753Y024839D01*
X021764Y024824D01*
X021773Y024812D01*
X021776Y024807D01*
X021777Y024804D01*
X021780Y024802D01*
Y024801D01*
X021792Y024776D01*
X021799Y024751D01*
X021806Y024728D01*
X021810Y024707D01*
X021812Y024688D01*
X021813Y024681D01*
Y024674D01*
X021815Y024670D01*
Y024665D01*
Y024663D01*
Y024662D01*
X021813Y024628D01*
X021809Y024596D01*
X021804Y024569D01*
X021800Y024557D01*
X021797Y024546D01*
X021794Y024536D01*
X021790Y024528D01*
X021787Y024520D01*
X021785Y024513D01*
X021783Y024508D01*
X021781Y024505D01*
X021780Y024502D01*
Y024501D01*
X021764Y024478D01*
X021748Y024459D01*
X021730Y024441D01*
X021714Y024427D01*
X021699Y024416D01*
X021687Y024408D01*
X021682Y024405D01*
X021679Y024403D01*
X021677Y024402D01*
X021676D01*
X021649Y024391D01*
X021624Y024382D01*
X021600Y024377D01*
X021577Y024372D01*
X021559Y024370D01*
X021551Y024369D01*
X021545D01*
X021539Y024368D01*
X021531D01*
X021508Y024369D01*
X021488Y024371D01*
X021467Y024376D01*
X021448Y024381D01*
X021430Y024387D01*
X021413Y024393D01*
X021398Y024401D01*
X021384Y024408D01*
X021372Y024416D01*
X021361Y024424D01*
X021351Y024430D01*
X021343Y024436D01*
X021337Y024441D01*
X021333Y024446D01*
X021330Y024448D01*
X021329Y024449D01*
X021315Y024465D01*
X021303Y024482D01*
X021292Y024498D01*
X021282Y024516D01*
X021275Y024533D01*
X021268Y024551D01*
X021263Y024567D01*
X021258Y024583D01*
X021255Y024598D01*
X021253Y024612D01*
X021251Y024624D01*
X021249Y024635D01*
X021248Y024643D01*
Y024650D01*
Y024654D01*
Y024655D01*
X021249Y024678D01*
X021252Y024700D01*
X021256Y024720D01*
X021260Y024740D01*
X021267Y024757D01*
X021273Y024775D01*
X021281Y024790D01*
X021288Y024804D01*
X021295Y024816D01*
X021303Y024828D01*
X021310Y024837D01*
X021316Y024846D01*
X021320Y024851D01*
X021325Y024857D01*
X021327Y024859D01*
X021328Y024860D01*
X021343Y024874D01*
X021360Y024886D01*
X021376Y024897D01*
X021394Y024907D01*
X021411Y024914D01*
X021428Y024921D01*
X021444Y024927D01*
X021460Y024931D01*
X021475Y024934D01*
X021489Y024936D01*
X021501Y024939D01*
X021512Y024940D01*
X021521Y024941D01*
X021533D01*
X021562Y024940D01*
D02*
G37*
G36*
X016743D02*
X016770Y024935D01*
X016795Y024930D01*
X016817Y024923D01*
X016826Y024919D01*
X016835Y024916D01*
X016842Y024913D01*
X016848Y024910D01*
X016853Y024908D01*
X016857Y024906D01*
X016859Y024905D01*
X016860D01*
X016883Y024889D01*
X016903Y024873D01*
X016920Y024855D01*
X016934Y024839D01*
X016945Y024824D01*
X016954Y024812D01*
X016957Y024807D01*
X016958Y024804D01*
X016961Y024802D01*
Y024801D01*
X016973Y024776D01*
X016980Y024751D01*
X016987Y024728D01*
X016991Y024707D01*
X016993Y024688D01*
X016994Y024681D01*
Y024674D01*
X016995Y024670D01*
Y024665D01*
Y024663D01*
Y024662D01*
X016994Y024628D01*
X016990Y024596D01*
X016985Y024569D01*
X016981Y024557D01*
X016978Y024546D01*
X016975Y024536D01*
X016971Y024528D01*
X016968Y024520D01*
X016966Y024513D01*
X016964Y024508D01*
X016962Y024505D01*
X016961Y024502D01*
Y024501D01*
X016945Y024478D01*
X016929Y024459D01*
X016911Y024441D01*
X016895Y024427D01*
X016880Y024416D01*
X016868Y024408D01*
X016863Y024405D01*
X016860Y024403D01*
X016858Y024402D01*
X016857D01*
X016830Y024391D01*
X016805Y024382D01*
X016781Y024377D01*
X016758Y024372D01*
X016740Y024370D01*
X016732Y024369D01*
X016726D01*
X016720Y024368D01*
X016712D01*
X016689Y024369D01*
X016669Y024371D01*
X016648Y024376D01*
X016629Y024381D01*
X016611Y024387D01*
X016594Y024393D01*
X016579Y024401D01*
X016565Y024408D01*
X016553Y024416D01*
X016542Y024424D01*
X016532Y024430D01*
X016524Y024436D01*
X016518Y024441D01*
X016513Y024446D01*
X016511Y024448D01*
X016510Y024449D01*
X016496Y024465D01*
X016484Y024482D01*
X016473Y024498D01*
X016463Y024516D01*
X016456Y024533D01*
X016449Y024551D01*
X016444Y024567D01*
X016439Y024583D01*
X016436Y024598D01*
X016434Y024612D01*
X016431Y024624D01*
X016430Y024635D01*
X016429Y024643D01*
Y024650D01*
Y024654D01*
Y024655D01*
X016430Y024678D01*
X016433Y024700D01*
X016437Y024720D01*
X016441Y024740D01*
X016448Y024757D01*
X016454Y024775D01*
X016462Y024790D01*
X016469Y024804D01*
X016476Y024816D01*
X016484Y024828D01*
X016491Y024837D01*
X016497Y024846D01*
X016501Y024851D01*
X016506Y024857D01*
X016508Y024859D01*
X016509Y024860D01*
X016524Y024874D01*
X016541Y024886D01*
X016557Y024897D01*
X016575Y024907D01*
X016592Y024914D01*
X016609Y024921D01*
X016625Y024927D01*
X016641Y024931D01*
X016656Y024934D01*
X016670Y024936D01*
X016682Y024939D01*
X016693Y024940D01*
X016701Y024941D01*
X016713D01*
X016743Y024940D01*
D02*
G37*
G36*
X024091Y024939D02*
X024110Y024936D01*
X024127Y024933D01*
X024143Y024930D01*
X024157Y024925D01*
X024170Y024921D01*
X024182Y024917D01*
X024192Y024911D01*
X024201Y024907D01*
X024208Y024902D01*
X024214Y024899D01*
X024219Y024896D01*
X024222Y024894D01*
X024223Y024893D01*
X024225Y024892D01*
X024234Y024883D01*
X024243Y024873D01*
X024251Y024863D01*
X024256Y024852D01*
X024267Y024832D01*
X024274Y024814D01*
X024277Y024798D01*
X024278Y024790D01*
X024279Y024784D01*
X024280Y024779D01*
Y024776D01*
Y024773D01*
Y024772D01*
X024279Y024758D01*
X024277Y024745D01*
X024275Y024732D01*
X024270Y024720D01*
X024260Y024699D01*
X024248Y024682D01*
X024237Y024667D01*
X024226Y024658D01*
X024221Y024653D01*
X024219Y024651D01*
X024217Y024650D01*
X024216Y024649D01*
X024206Y024643D01*
X024193Y024637D01*
X024178Y024630D01*
X024161Y024625D01*
X024144Y024618D01*
X024125Y024613D01*
X024087Y024602D01*
X024068Y024596D01*
X024051Y024592D01*
X024035Y024588D01*
X024021Y024584D01*
X024009Y024582D01*
X024001Y024580D01*
X023995Y024578D01*
X023993D01*
X023980Y024575D01*
X023970Y024571D01*
X023961Y024568D01*
X023955Y024566D01*
X023950Y024563D01*
X023947Y024561D01*
X023945Y024559D01*
X023938Y024551D01*
X023935Y024542D01*
X023934Y024535D01*
Y024533D01*
Y024532D01*
X023935Y024523D01*
X023937Y024516D01*
X023940Y024509D01*
X023944Y024504D01*
X023947Y024499D01*
X023950Y024496D01*
X023952Y024494D01*
X023954Y024493D01*
X023966Y024486D01*
X023979Y024482D01*
X023993Y024477D01*
X024006Y024475D01*
X024018Y024474D01*
X024029Y024473D01*
X024038D01*
X024056Y024474D01*
X024072Y024476D01*
X024086Y024479D01*
X024097Y024484D01*
X024105Y024487D01*
X024112Y024490D01*
X024116Y024493D01*
X024117Y024494D01*
X024127Y024502D01*
X024135Y024513D01*
X024142Y024523D01*
X024147Y024534D01*
X024150Y024544D01*
X024152Y024552D01*
X024155Y024556D01*
Y024558D01*
X024300Y024536D01*
X024290Y024509D01*
X024278Y024484D01*
X024265Y024463D01*
X024251Y024446D01*
X024238Y024431D01*
X024226Y024422D01*
X024222Y024417D01*
X024219Y024415D01*
X024217Y024414D01*
X024216Y024413D01*
X024203Y024405D01*
X024190Y024397D01*
X024160Y024387D01*
X024131Y024379D01*
X024102Y024373D01*
X024089Y024371D01*
X024077Y024370D01*
X024066Y024369D01*
X024056D01*
X024049Y024368D01*
X024038D01*
X024016Y024369D01*
X023995Y024370D01*
X023975Y024373D01*
X023957Y024377D01*
X023940Y024380D01*
X023925Y024385D01*
X023911Y024390D01*
X023899Y024395D01*
X023888Y024400D01*
X023878Y024405D01*
X023870Y024410D01*
X023864Y024413D01*
X023858Y024417D01*
X023855Y024419D01*
X023853Y024420D01*
X023852Y024422D01*
X023841Y024432D01*
X023831Y024443D01*
X023822Y024454D01*
X023815Y024465D01*
X023809Y024476D01*
X023804Y024487D01*
X023796Y024507D01*
X023792Y024525D01*
X023791Y024533D01*
X023790Y024538D01*
X023788Y024544D01*
Y024548D01*
Y024551D01*
Y024552D01*
X023791Y024576D01*
X023796Y024598D01*
X023803Y024616D01*
X023811Y024631D01*
X023820Y024643D01*
X023827Y024652D01*
X023832Y024657D01*
X023834Y024659D01*
X023844Y024665D01*
X023854Y024673D01*
X023866Y024678D01*
X023879Y024685D01*
X023905Y024696D01*
X023933Y024706D01*
X023957Y024713D01*
X023968Y024716D01*
X023978Y024719D01*
X023985Y024721D01*
X023991Y024722D01*
X023995Y024723D01*
X023996D01*
X024017Y024729D01*
X024035Y024733D01*
X024052Y024737D01*
X024066Y024742D01*
X024079Y024745D01*
X024090Y024748D01*
X024099Y024752D01*
X024108Y024754D01*
X024114Y024757D01*
X024120Y024759D01*
X024124Y024760D01*
X024126Y024763D01*
X024131Y024764D01*
X024132Y024765D01*
X024136Y024769D01*
X024139Y024773D01*
X024144Y024782D01*
X024146Y024789D01*
Y024790D01*
Y024791D01*
X024145Y024798D01*
X024144Y024803D01*
X024137Y024813D01*
X024132Y024818D01*
X024131Y024820D01*
X024129D01*
X024119Y024826D01*
X024107Y024830D01*
X024093Y024832D01*
X024079Y024835D01*
X024067Y024836D01*
X024057Y024837D01*
X024048D01*
X024031Y024836D01*
X024017Y024835D01*
X024005Y024831D01*
X023995Y024828D01*
X023987Y024825D01*
X023982Y024823D01*
X023979Y024820D01*
X023978Y024819D01*
X023969Y024813D01*
X023962Y024805D01*
X023956Y024798D01*
X023951Y024789D01*
X023948Y024782D01*
X023946Y024777D01*
X023944Y024772D01*
Y024771D01*
X023807Y024796D01*
X023816Y024822D01*
X023828Y024843D01*
X023840Y024862D01*
X023853Y024876D01*
X023864Y024888D01*
X023874Y024897D01*
X023880Y024901D01*
X023881Y024904D01*
X023882D01*
X023893Y024910D01*
X023905Y024916D01*
X023932Y024925D01*
X023959Y024932D01*
X023986Y024936D01*
X023999Y024937D01*
X024011Y024939D01*
X024022Y024940D01*
X024031Y024941D01*
X024072D01*
X024091Y024939D01*
D02*
G37*
G36*
X018139Y024380D02*
X017993D01*
Y025136D01*
X018139D01*
Y024380D01*
D02*
G37*
G36*
X017845D02*
X017699D01*
Y024525D01*
X017845D01*
Y024380D01*
D02*
G37*
G36*
X018684Y015726D02*
X018732Y015720D01*
X018775Y015713D01*
X018812Y015705D01*
X018828Y015700D01*
X018843Y015696D01*
X018854Y015692D01*
X018865Y015689D01*
X018873Y015685D01*
X018878Y015683D01*
X018882Y015681D01*
X018884D01*
X018921Y015663D01*
X018952Y015642D01*
X018980Y015620D01*
X019002Y015600D01*
X019021Y015581D01*
X019032Y015567D01*
X019041Y015555D01*
X019043Y015554D01*
Y015552D01*
X019062Y015520D01*
X019075Y015487D01*
X019084Y015455D01*
X019089Y015428D01*
X019093Y015404D01*
X019097Y015385D01*
Y015378D01*
Y015372D01*
Y015370D01*
Y015368D01*
X019095Y015341D01*
X019091Y015313D01*
X019086Y015289D01*
X019078Y015265D01*
X019060Y015220D01*
X019038Y015182D01*
X019028Y015165D01*
X019017Y015152D01*
X019008Y015139D01*
X018999Y015128D01*
X018991Y015120D01*
X018986Y015115D01*
X018982Y015111D01*
X018980Y015109D01*
X018964Y015096D01*
X018943Y015083D01*
X018923Y015070D01*
X018899Y015059D01*
X018852Y015037D01*
X018804Y015019D01*
X018780Y015011D01*
X018760Y015004D01*
X018740Y014998D01*
X018723Y014993D01*
X018710Y014989D01*
X018699Y014985D01*
X018691Y014983D01*
X018690D01*
X018660Y014976D01*
X018634Y014969D01*
X018610Y014963D01*
X018588Y014958D01*
X018569Y014952D01*
X018553Y014948D01*
X018538Y014943D01*
X018525Y014939D01*
X018514Y014937D01*
X018504Y014933D01*
X018492Y014930D01*
X018484Y014926D01*
X018482D01*
X018458Y014917D01*
X018440Y014908D01*
X018423Y014898D01*
X018410Y014889D01*
X018401Y014882D01*
X018395Y014876D01*
X018392Y014872D01*
X018390Y014871D01*
X018380Y014858D01*
X018373Y014845D01*
X018369Y014832D01*
X018366Y014821D01*
X018364Y014809D01*
X018362Y014800D01*
Y014795D01*
Y014793D01*
X018364Y014767D01*
X018371Y014745D01*
X018382Y014722D01*
X018393Y014704D01*
X018406Y014689D01*
X018416Y014678D01*
X018423Y014671D01*
X018427Y014669D01*
X018453Y014652D01*
X018482Y014639D01*
X018514Y014630D01*
X018543Y014624D01*
X018571Y014621D01*
X018593Y014617D01*
X018614D01*
X018656Y014619D01*
X018693Y014626D01*
X018725Y014635D01*
X018753Y014647D01*
X018775Y014658D01*
X018790Y014667D01*
X018799Y014674D01*
X018802Y014676D01*
X018827Y014702D01*
X018845Y014730D01*
X018862Y014761D01*
X018873Y014793D01*
X018882Y014821D01*
X018889Y014843D01*
X018891Y014850D01*
Y014858D01*
X018893Y014861D01*
Y014863D01*
X019145Y014839D01*
X019139Y014800D01*
X019132Y014763D01*
X019121Y014728D01*
X019112Y014697D01*
X019099Y014667D01*
X019086Y014639D01*
X019073Y014615D01*
X019060Y014593D01*
X019047Y014574D01*
X019034Y014558D01*
X019023Y014543D01*
X019012Y014530D01*
X019004Y014521D01*
X018997Y014515D01*
X018993Y014511D01*
X018991Y014510D01*
X018965Y014489D01*
X018938Y014473D01*
X018908Y014458D01*
X018877Y014445D01*
X018847Y014436D01*
X018815Y014426D01*
X018754Y014413D01*
X018727Y014408D01*
X018701Y014404D01*
X018678Y014402D01*
X018658Y014400D01*
X018641Y014399D01*
X018617D01*
X018558Y014400D01*
X018504Y014406D01*
X018456Y014413D01*
X018436Y014417D01*
X018416Y014423D01*
X018399Y014426D01*
X018384Y014430D01*
X018371Y014434D01*
X018360Y014437D01*
X018351Y014441D01*
X018345Y014443D01*
X018342Y014445D01*
X018340D01*
X018299Y014465D01*
X018266Y014487D01*
X018234Y014510D01*
X018210Y014534D01*
X018192Y014554D01*
X018177Y014573D01*
X018169Y014584D01*
X018166Y014585D01*
Y014587D01*
X018145Y014624D01*
X018129Y014660D01*
X018118Y014695D01*
X018110Y014728D01*
X018107Y014754D01*
X018105Y014767D01*
X018103Y014776D01*
Y014784D01*
Y014789D01*
Y014793D01*
Y014795D01*
X018105Y014839D01*
X018110Y014878D01*
X018119Y014913D01*
X018129Y014943D01*
X018138Y014967D01*
X018147Y014983D01*
X018153Y014995D01*
X018155Y014998D01*
X018175Y015028D01*
X018199Y015054D01*
X018223Y015076D01*
X018245Y015095D01*
X018266Y015109D01*
X018282Y015120D01*
X018293Y015128D01*
X018295Y015130D01*
X018297D01*
X018316Y015139D01*
X018334Y015148D01*
X018379Y015165D01*
X018425Y015180D01*
X018469Y015194D01*
X018490Y015200D01*
X018510Y015206D01*
X018529Y015211D01*
X018543Y015215D01*
X018556Y015219D01*
X018566Y015220D01*
X018573Y015222D01*
X018575D01*
X018608Y015231D01*
X018638Y015239D01*
X018666Y015246D01*
X018691Y015254D01*
X018712Y015261D01*
X018732Y015269D01*
X018749Y015276D01*
X018764Y015281D01*
X018777Y015287D01*
X018786Y015293D01*
X018795Y015296D01*
X018801Y015300D01*
X018810Y015306D01*
X018812Y015307D01*
X018825Y015320D01*
X018834Y015333D01*
X018839Y015346D01*
X018843Y015359D01*
X018847Y015368D01*
X018849Y015378D01*
Y015383D01*
Y015385D01*
X018847Y015404D01*
X018843Y015418D01*
X018836Y015433D01*
X018828Y015444D01*
X018821Y015454D01*
X018814Y015459D01*
X018810Y015463D01*
X018808Y015465D01*
X018782Y015481D01*
X018754Y015492D01*
X018725Y015502D01*
X018697Y015507D01*
X018673Y015511D01*
X018653Y015513D01*
X018634D01*
X018595Y015511D01*
X018562Y015505D01*
X018534Y015498D01*
X018512Y015491D01*
X018493Y015483D01*
X018480Y015476D01*
X018473Y015470D01*
X018471Y015468D01*
X018453Y015450D01*
X018436Y015428D01*
X018423Y015405D01*
X018414Y015381D01*
X018406Y015361D01*
X018403Y015344D01*
X018399Y015331D01*
Y015330D01*
Y015328D01*
X018140Y015337D01*
X018142Y015370D01*
X018147Y015400D01*
X018155Y015430D01*
X018164Y015455D01*
X018173Y015481D01*
X018184Y015505D01*
X018195Y015526D01*
X018206Y015546D01*
X018219Y015563D01*
X018231Y015578D01*
X018242Y015591D01*
X018251Y015602D01*
X018258Y015609D01*
X018264Y015615D01*
X018268Y015618D01*
X018269Y015620D01*
X018293Y015639D01*
X018319Y015655D01*
X018347Y015670D01*
X018377Y015683D01*
X018406Y015692D01*
X018436Y015702D01*
X018495Y015715D01*
X018523Y015718D01*
X018547Y015722D01*
X018571Y015724D01*
X018591Y015726D01*
X018608Y015728D01*
X018630D01*
X018684Y015726D01*
D02*
G37*
G36*
X017420Y015487D02*
X016822D01*
X017498Y014656D01*
Y014423D01*
X016455D01*
Y014639D01*
X017185D01*
X016483Y015502D01*
Y015703D01*
X017420D01*
Y015487D01*
D02*
G37*
G36*
X017892Y014423D02*
X017633D01*
Y015703D01*
X017892D01*
Y014423D01*
D02*
G37*
G36*
X016291D02*
X015317D01*
Y014639D01*
X016032D01*
Y014987D01*
X015389D01*
Y015204D01*
X016032D01*
Y015487D01*
X015341D01*
Y015703D01*
X016291D01*
Y014423D01*
D02*
G37*
G36*
X025944Y015726D02*
X025992Y015720D01*
X026034Y015713D01*
X026071Y015705D01*
X026088Y015700D01*
X026103Y015696D01*
X026114Y015692D01*
X026125Y015689D01*
X026132Y015685D01*
X026138Y015683D01*
X026142Y015681D01*
X026144D01*
X026181Y015663D01*
X026212Y015642D01*
X026240Y015620D01*
X026262Y015600D01*
X026281Y015581D01*
X026292Y015567D01*
X026301Y015555D01*
X026303Y015554D01*
Y015552D01*
X026321Y015520D01*
X026334Y015487D01*
X026343Y015455D01*
X026349Y015428D01*
X026353Y015404D01*
X026356Y015385D01*
Y015378D01*
Y015372D01*
Y015370D01*
Y015368D01*
X026355Y015341D01*
X026351Y015313D01*
X026345Y015289D01*
X026338Y015265D01*
X026319Y015220D01*
X026297Y015182D01*
X026288Y015165D01*
X026277Y015152D01*
X026268Y015139D01*
X026258Y015128D01*
X026251Y015120D01*
X026245Y015115D01*
X026242Y015111D01*
X026240Y015109D01*
X026223Y015096D01*
X026203Y015083D01*
X026182Y015070D01*
X026158Y015059D01*
X026112Y015037D01*
X026064Y015019D01*
X026040Y015011D01*
X026020Y015004D01*
X025999Y014998D01*
X025983Y014993D01*
X025970Y014989D01*
X025958Y014985D01*
X025951Y014983D01*
X025949D01*
X025920Y014976D01*
X025894Y014969D01*
X025870Y014963D01*
X025847Y014958D01*
X025829Y014952D01*
X025812Y014948D01*
X025797Y014943D01*
X025784Y014939D01*
X025773Y014937D01*
X025764Y014933D01*
X025751Y014930D01*
X025744Y014926D01*
X025742D01*
X025718Y014917D01*
X025699Y014908D01*
X025683Y014898D01*
X025670Y014889D01*
X025660Y014882D01*
X025655Y014876D01*
X025651Y014872D01*
X025649Y014871D01*
X025640Y014858D01*
X025633Y014845D01*
X025629Y014832D01*
X025625Y014821D01*
X025623Y014809D01*
X025622Y014800D01*
Y014795D01*
Y014793D01*
X025623Y014767D01*
X025631Y014745D01*
X025642Y014722D01*
X025653Y014704D01*
X025666Y014689D01*
X025675Y014678D01*
X025683Y014671D01*
X025686Y014669D01*
X025712Y014652D01*
X025742Y014639D01*
X025773Y014630D01*
X025803Y014624D01*
X025831Y014621D01*
X025853Y014617D01*
X025873D01*
X025916Y014619D01*
X025953Y014626D01*
X025984Y014635D01*
X026012Y014647D01*
X026034Y014658D01*
X026049Y014667D01*
X026058Y014674D01*
X026062Y014676D01*
X026086Y014702D01*
X026105Y014730D01*
X026121Y014761D01*
X026132Y014793D01*
X026142Y014821D01*
X026149Y014843D01*
X026151Y014850D01*
Y014858D01*
X026153Y014861D01*
Y014863D01*
X026405Y014839D01*
X026399Y014800D01*
X026392Y014763D01*
X026380Y014728D01*
X026371Y014697D01*
X026358Y014667D01*
X026345Y014639D01*
X026332Y014615D01*
X026319Y014593D01*
X026306Y014574D01*
X026293Y014558D01*
X026282Y014543D01*
X026271Y014530D01*
X026264Y014521D01*
X026256Y014515D01*
X026253Y014511D01*
X026251Y014510D01*
X026225Y014489D01*
X026197Y014473D01*
X026168Y014458D01*
X026136Y014445D01*
X026107Y014436D01*
X026075Y014426D01*
X026014Y014413D01*
X025986Y014408D01*
X025960Y014404D01*
X025938Y014402D01*
X025918Y014400D01*
X025901Y014399D01*
X025877D01*
X025818Y014400D01*
X025764Y014406D01*
X025716Y014413D01*
X025696Y014417D01*
X025675Y014423D01*
X025659Y014426D01*
X025644Y014430D01*
X025631Y014434D01*
X025620Y014437D01*
X025610Y014441D01*
X025605Y014443D01*
X025601Y014445D01*
X025599D01*
X025559Y014465D01*
X025525Y014487D01*
X025494Y014510D01*
X025470Y014534D01*
X025451Y014554D01*
X025436Y014573D01*
X025429Y014584D01*
X025425Y014585D01*
Y014587D01*
X025405Y014624D01*
X025388Y014660D01*
X025377Y014695D01*
X025370Y014728D01*
X025366Y014754D01*
X025364Y014767D01*
X025362Y014776D01*
Y014784D01*
Y014789D01*
Y014793D01*
Y014795D01*
X025364Y014839D01*
X025370Y014878D01*
X025379Y014913D01*
X025388Y014943D01*
X025398Y014967D01*
X025407Y014983D01*
X025412Y014995D01*
X025414Y014998D01*
X025435Y015028D01*
X025459Y015054D01*
X025483Y015076D01*
X025505Y015095D01*
X025525Y015109D01*
X025542Y015120D01*
X025553Y015128D01*
X025555Y015130D01*
X025557D01*
X025575Y015139D01*
X025594Y015148D01*
X025638Y015165D01*
X025684Y015180D01*
X025729Y015194D01*
X025749Y015200D01*
X025770Y015206D01*
X025788Y015211D01*
X025803Y015215D01*
X025816Y015219D01*
X025825Y015220D01*
X025833Y015222D01*
X025834D01*
X025868Y015231D01*
X025897Y015239D01*
X025925Y015246D01*
X025951Y015254D01*
X025971Y015261D01*
X025992Y015269D01*
X026008Y015276D01*
X026023Y015281D01*
X026036Y015287D01*
X026045Y015293D01*
X026055Y015296D01*
X026060Y015300D01*
X026070Y015306D01*
X026071Y015307D01*
X026084Y015320D01*
X026094Y015333D01*
X026099Y015346D01*
X026103Y015359D01*
X026107Y015368D01*
X026108Y015378D01*
Y015383D01*
Y015385D01*
X026107Y015404D01*
X026103Y015418D01*
X026095Y015433D01*
X026088Y015444D01*
X026081Y015454D01*
X026073Y015459D01*
X026070Y015463D01*
X026068Y015465D01*
X026042Y015481D01*
X026014Y015492D01*
X025984Y015502D01*
X025957Y015507D01*
X025933Y015511D01*
X025912Y015513D01*
X025894D01*
X025855Y015511D01*
X025821Y015505D01*
X025794Y015498D01*
X025772Y015491D01*
X025753Y015483D01*
X025740Y015476D01*
X025733Y015470D01*
X025731Y015468D01*
X025712Y015450D01*
X025696Y015428D01*
X025683Y015405D01*
X025673Y015381D01*
X025666Y015361D01*
X025662Y015344D01*
X025659Y015331D01*
Y015330D01*
Y015328D01*
X025399Y015337D01*
X025401Y015370D01*
X025407Y015400D01*
X025414Y015430D01*
X025424Y015455D01*
X025433Y015481D01*
X025444Y015505D01*
X025455Y015526D01*
X025466Y015546D01*
X025479Y015563D01*
X025490Y015578D01*
X025501Y015591D01*
X025511Y015602D01*
X025518Y015609D01*
X025523Y015615D01*
X025527Y015618D01*
X025529Y015620D01*
X025553Y015639D01*
X025579Y015655D01*
X025607Y015670D01*
X025636Y015683D01*
X025666Y015692D01*
X025696Y015702D01*
X025755Y015715D01*
X025783Y015718D01*
X025807Y015722D01*
X025831Y015724D01*
X025851Y015726D01*
X025868Y015728D01*
X025890D01*
X025944Y015726D01*
D02*
G37*
G36*
X015097Y014423D02*
X014838D01*
Y014958D01*
X014754D01*
X014728Y014956D01*
X014706Y014954D01*
X014688Y014950D01*
X014673Y014948D01*
X014664Y014945D01*
X014658Y014943D01*
X014656D01*
X014641Y014935D01*
X014627Y014928D01*
X014614Y014919D01*
X014601Y014911D01*
X014591Y014902D01*
X014584Y014895D01*
X014580Y014891D01*
X014578Y014889D01*
X014571Y014880D01*
X014562Y014871D01*
X014541Y014843D01*
X014519Y014813D01*
X014495Y014780D01*
X014475Y014750D01*
X014466Y014735D01*
X014458Y014724D01*
X014451Y014715D01*
X014445Y014708D01*
X014443Y014702D01*
X014442Y014700D01*
X014256Y014423D01*
X013945D01*
X014103Y014672D01*
X014119Y014698D01*
X014136Y014724D01*
X014151Y014747D01*
X014166Y014767D01*
X014179Y014785D01*
X014190Y014804D01*
X014212Y014832D01*
X014229Y014854D01*
X014240Y014869D01*
X014249Y014878D01*
X014251Y014880D01*
X014271Y014902D01*
X014295Y014922D01*
X014318Y014939D01*
X014340Y014956D01*
X014358Y014969D01*
X014373Y014978D01*
X014384Y014985D01*
X014386Y014987D01*
X014388D01*
X014356Y014993D01*
X014329Y015000D01*
X014303Y015008D01*
X014277Y015017D01*
X014255Y015026D01*
X014234Y015035D01*
X014214Y015045D01*
X014197Y015056D01*
X014182Y015065D01*
X014169Y015074D01*
X014158Y015083D01*
X014151Y015091D01*
X014144Y015096D01*
X014138Y015102D01*
X014136Y015104D01*
X014134Y015106D01*
X014119Y015124D01*
X014107Y015143D01*
X014084Y015183D01*
X014069Y015222D01*
X014060Y015261D01*
X014053Y015294D01*
X014051Y015307D01*
Y015320D01*
X014049Y015330D01*
Y015339D01*
Y015343D01*
Y015344D01*
X014051Y015385D01*
X014058Y015424D01*
X014068Y015457D01*
X014077Y015487D01*
X014088Y015511D01*
X014097Y015530D01*
X014101Y015535D01*
X014105Y015541D01*
X014107Y015542D01*
Y015544D01*
X014129Y015576D01*
X014153Y015602D01*
X014177Y015622D01*
X014201Y015641D01*
X014223Y015652D01*
X014240Y015661D01*
X014251Y015666D01*
X014253Y015668D01*
X014255D01*
X014273Y015674D01*
X014293Y015679D01*
X014340Y015689D01*
X014390Y015694D01*
X014438Y015700D01*
X014462D01*
X014482Y015702D01*
X014503D01*
X014519Y015703D01*
X015097D01*
Y014423D01*
D02*
G37*
G36*
X022429Y024380D02*
X022283D01*
Y024654D01*
X022282Y024678D01*
X022281Y024699D01*
X022279Y024718D01*
X022277Y024732D01*
X022275Y024744D01*
X022272Y024752D01*
X022270Y024757D01*
Y024758D01*
X022265Y024770D01*
X022258Y024781D01*
X022252Y024790D01*
X022244Y024798D01*
X022239Y024803D01*
X022233Y024807D01*
X022230Y024810D01*
X022229Y024811D01*
X022218Y024817D01*
X022207Y024822D01*
X022196Y024825D01*
X022186Y024827D01*
X022177Y024828D01*
X022171Y024829D01*
X022164D01*
X022153Y024828D01*
X022142Y024827D01*
X022134Y024825D01*
X022126Y024823D01*
X022121Y024819D01*
X022115Y024817D01*
X022113Y024816D01*
X022112Y024815D01*
X022104Y024810D01*
X022099Y024803D01*
X022089Y024791D01*
X022087Y024785D01*
X022084Y024782D01*
X022082Y024779D01*
Y024778D01*
X022081Y024772D01*
X022079Y024767D01*
X022077Y024752D01*
X022076Y024733D01*
X022075Y024714D01*
X022074Y024697D01*
Y024689D01*
Y024683D01*
Y024676D01*
Y024672D01*
Y024670D01*
Y024669D01*
Y024380D01*
X021928D01*
Y024701D01*
Y024728D01*
X021929Y024749D01*
X021930Y024768D01*
X021931Y024783D01*
X021934Y024794D01*
X021935Y024803D01*
X021936Y024808D01*
Y024810D01*
X021939Y024823D01*
X021943Y024835D01*
X021948Y024846D01*
X021953Y024855D01*
X021958Y024863D01*
X021961Y024869D01*
X021963Y024873D01*
X021964Y024874D01*
X021973Y024884D01*
X021983Y024894D01*
X021993Y024901D01*
X022003Y024908D01*
X022011Y024913D01*
X022019Y024918D01*
X022023Y024920D01*
X022025Y024921D01*
X022041Y024928D01*
X022057Y024932D01*
X022071Y024936D01*
X022086Y024939D01*
X022098Y024940D01*
X022107Y024941D01*
X022116D01*
X022134Y024940D01*
X022151Y024937D01*
X022168Y024933D01*
X022183Y024928D01*
X022211Y024914D01*
X022224Y024907D01*
X022236Y024899D01*
X022246Y024890D01*
X022256Y024883D01*
X022264Y024876D01*
X022271Y024870D01*
X022276Y024864D01*
X022280Y024860D01*
X022282Y024858D01*
X022283Y024857D01*
Y025136D01*
X022429D01*
Y024380D01*
D02*
G37*
G36*
X023079D02*
X022945D01*
Y024460D01*
X022932Y024443D01*
X022918Y024429D01*
X022905Y024418D01*
X022893Y024408D01*
X022882Y024401D01*
X022874Y024395D01*
X022868Y024392D01*
X022866Y024391D01*
X022848Y024383D01*
X022832Y024378D01*
X022817Y024373D01*
X022803Y024371D01*
X022791Y024369D01*
X022781Y024368D01*
X022773D01*
X022756Y024369D01*
X022738Y024371D01*
X022723Y024375D01*
X022708Y024380D01*
X022679Y024392D01*
X022667Y024399D01*
X022655Y024406D01*
X022645Y024413D01*
X022636Y024419D01*
X022629Y024426D01*
X022622Y024431D01*
X022617Y024437D01*
X022613Y024440D01*
X022611Y024442D01*
X022610Y024443D01*
X022598Y024459D01*
X022588Y024474D01*
X022579Y024491D01*
X022571Y024509D01*
X022564Y024528D01*
X022559Y024545D01*
X022551Y024580D01*
X022548Y024596D01*
X022546Y024612D01*
X022545Y024625D01*
X022544Y024637D01*
X022542Y024647D01*
Y024653D01*
Y024659D01*
Y024660D01*
X022544Y024685D01*
X022546Y024708D01*
X022549Y024730D01*
X022552Y024749D01*
X022558Y024768D01*
X022563Y024785D01*
X022570Y024801D01*
X022575Y024815D01*
X022582Y024827D01*
X022588Y024838D01*
X022594Y024847D01*
X022598Y024854D01*
X022603Y024860D01*
X022606Y024864D01*
X022608Y024866D01*
X022609Y024867D01*
X022622Y024881D01*
X022635Y024892D01*
X022648Y024901D01*
X022663Y024910D01*
X022677Y024917D01*
X022690Y024923D01*
X022716Y024932D01*
X022729Y024934D01*
X022740Y024936D01*
X022750Y024939D01*
X022759Y024940D01*
X022765Y024941D01*
X022775D01*
X022792Y024940D01*
X022808Y024937D01*
X022824Y024934D01*
X022839Y024929D01*
X022866Y024917D01*
X022889Y024902D01*
X022899Y024896D01*
X022908Y024888D01*
X022915Y024882D01*
X022922Y024876D01*
X022927Y024871D01*
X022930Y024867D01*
X022933Y024865D01*
X022934Y024864D01*
Y025136D01*
X023079D01*
Y024380D01*
D02*
G37*
G36*
X016041Y024940D02*
X016059Y024937D01*
X016075Y024933D01*
X016092Y024928D01*
X016120Y024913D01*
X016133Y024905D01*
X016145Y024897D01*
X016156Y024889D01*
X016166Y024881D01*
X016174Y024874D01*
X016180Y024867D01*
X016186Y024861D01*
X016190Y024857D01*
X016192Y024854D01*
X016193Y024853D01*
Y024929D01*
X016327D01*
Y024380D01*
X016181D01*
Y024646D01*
Y024673D01*
X016179Y024697D01*
X016178Y024716D01*
X016176Y024732D01*
X016174Y024743D01*
X016172Y024752D01*
X016170Y024757D01*
Y024758D01*
X016165Y024770D01*
X016159Y024781D01*
X016153Y024790D01*
X016146Y024798D01*
X016141Y024803D01*
X016136Y024807D01*
X016133Y024810D01*
X016132Y024811D01*
X016121Y024817D01*
X016111Y024822D01*
X016101Y024825D01*
X016092Y024827D01*
X016084Y024828D01*
X016077Y024829D01*
X016062D01*
X016053Y024827D01*
X016046Y024826D01*
X016039Y024824D01*
X016035Y024822D01*
X016031Y024819D01*
X016029Y024818D01*
X016028Y024817D01*
X016023Y024813D01*
X016017Y024807D01*
X016010Y024795D01*
X016007Y024791D01*
X016005Y024787D01*
X016004Y024783D01*
Y024782D01*
X016003Y024778D01*
X016001Y024771D01*
X015999Y024756D01*
X015998Y024740D01*
X015996Y024722D01*
X015995Y024706D01*
Y024693D01*
Y024687D01*
Y024683D01*
Y024681D01*
Y024679D01*
Y024380D01*
X015850D01*
Y024642D01*
Y024670D01*
X015848Y024693D01*
X015847Y024712D01*
X015845Y024729D01*
X015842Y024741D01*
X015841Y024749D01*
X015839Y024754D01*
Y024756D01*
X015834Y024769D01*
X015828Y024780D01*
X015822Y024789D01*
X015815Y024796D01*
X015810Y024803D01*
X015805Y024807D01*
X015802Y024810D01*
X015801Y024811D01*
X015791Y024817D01*
X015780Y024822D01*
X015770Y024825D01*
X015761Y024827D01*
X015754Y024828D01*
X015748Y024829D01*
X015743D01*
X015729Y024828D01*
X015716Y024825D01*
X015705Y024819D01*
X015696Y024814D01*
X015689Y024807D01*
X015685Y024803D01*
X015682Y024799D01*
X015681Y024798D01*
X015678Y024792D01*
X015675Y024787D01*
X015672Y024771D01*
X015669Y024754D01*
X015667Y024736D01*
X015666Y024720D01*
X015665Y024706D01*
Y024700D01*
Y024696D01*
Y024694D01*
Y024693D01*
Y024380D01*
X015520D01*
Y024730D01*
X015521Y024757D01*
X015522Y024781D01*
X015524Y024801D01*
X015528Y024816D01*
X015531Y024828D01*
X015533Y024837D01*
X015534Y024842D01*
X015535Y024843D01*
X015544Y024861D01*
X015554Y024875D01*
X015565Y024887D01*
X015575Y024898D01*
X015584Y024906D01*
X015592Y024911D01*
X015596Y024914D01*
X015599Y024916D01*
X015615Y024924D01*
X015633Y024930D01*
X015649Y024934D01*
X015665Y024937D01*
X015680Y024940D01*
X015690Y024941D01*
X015700D01*
X015718Y024940D01*
X015734Y024937D01*
X015749Y024934D01*
X015763Y024930D01*
X015774Y024925D01*
X015782Y024922D01*
X015788Y024920D01*
X015790Y024919D01*
X015805Y024910D01*
X015819Y024899D01*
X015833Y024888D01*
X015845Y024877D01*
X015854Y024867D01*
X015861Y024860D01*
X015865Y024854D01*
X015868Y024852D01*
X015877Y024867D01*
X015888Y024882D01*
X015899Y024893D01*
X015909Y024902D01*
X015918Y024910D01*
X015925Y024914D01*
X015930Y024918D01*
X015932Y024919D01*
X015947Y024927D01*
X015963Y024932D01*
X015978Y024935D01*
X015992Y024939D01*
X016004Y024940D01*
X016014Y024941D01*
X016023D01*
X016041Y024940D01*
D02*
G37*
G36*
X020136Y024939D02*
X020153Y024937D01*
X020168Y024934D01*
X020184Y024932D01*
X020197Y024929D01*
X020209Y024924D01*
X020220Y024921D01*
X020229Y024918D01*
X020237Y024913D01*
X020244Y024910D01*
X020250Y024908D01*
X020255Y024905D01*
X020258Y024904D01*
X020259Y024901D01*
X020260D01*
X020279Y024885D01*
X020294Y024866D01*
X020307Y024847D01*
X020318Y024828D01*
X020326Y024811D01*
X020329Y024803D01*
X020331Y024796D01*
X020333Y024791D01*
X020335Y024787D01*
X020336Y024784D01*
Y024783D01*
X020206Y024759D01*
X020200Y024772D01*
X020195Y024783D01*
X020189Y024793D01*
X020183Y024801D01*
X020178Y024806D01*
X020174Y024810D01*
X020172Y024812D01*
X020171Y024813D01*
X020162Y024818D01*
X020152Y024823D01*
X020141Y024825D01*
X020131Y024827D01*
X020123Y024828D01*
X020116Y024829D01*
X020109D01*
X020090Y024828D01*
X020073Y024826D01*
X020060Y024824D01*
X020049Y024820D01*
X020042Y024816D01*
X020036Y024814D01*
X020033Y024812D01*
X020032Y024811D01*
X020024Y024803D01*
X020019Y024794D01*
X020015Y024784D01*
X020012Y024775D01*
X020011Y024765D01*
X020010Y024757D01*
Y024753D01*
Y024751D01*
Y024736D01*
X020018Y024733D01*
X020027Y024730D01*
X020048Y024723D01*
X020072Y024718D01*
X020095Y024712D01*
X020117Y024707D01*
X020127Y024705D01*
X020136Y024704D01*
X020142Y024702D01*
X020148Y024701D01*
X020151Y024700D01*
X020152D01*
X020178Y024695D01*
X020202Y024689D01*
X020222Y024684D01*
X020238Y024678D01*
X020252Y024673D01*
X020260Y024670D01*
X020266Y024667D01*
X020268Y024666D01*
X020282Y024659D01*
X020294Y024650D01*
X020305Y024640D01*
X020313Y024631D01*
X020320Y024624D01*
X020325Y024617D01*
X020328Y024613D01*
X020329Y024611D01*
X020337Y024596D01*
X020342Y024582D01*
X020346Y024569D01*
X020348Y024556D01*
X020350Y024545D01*
X020351Y024536D01*
Y024531D01*
Y024529D01*
X020350Y024516D01*
X020349Y024504D01*
X020343Y024481D01*
X020336Y024461D01*
X020327Y024444D01*
X020318Y024431D01*
X020311Y024422D01*
X020305Y024415D01*
X020303Y024414D01*
Y024413D01*
X020283Y024397D01*
X020261Y024387D01*
X020240Y024379D01*
X020218Y024373D01*
X020199Y024370D01*
X020190Y024369D01*
X020184D01*
X020177Y024368D01*
X020170D01*
X020152Y024369D01*
X020135Y024371D01*
X020119Y024373D01*
X020106Y024377D01*
X020095Y024380D01*
X020086Y024383D01*
X020081Y024384D01*
X020079Y024385D01*
X020064Y024393D01*
X020048Y024401D01*
X020035Y024411D01*
X020023Y024419D01*
X020013Y024427D01*
X020006Y024434D01*
X020001Y024438D01*
X019999Y024439D01*
X019998Y024435D01*
X019996Y024429D01*
X019995Y024425D01*
X019994Y024424D01*
Y024423D01*
X019990Y024413D01*
X019988Y024404D01*
X019986Y024396D01*
X019984Y024391D01*
X019982Y024387D01*
X019980Y024382D01*
X019979Y024381D01*
Y024380D01*
X019836D01*
X019843Y024394D01*
X019848Y024407D01*
X019853Y024419D01*
X019857Y024430D01*
X019859Y024439D01*
X019861Y024447D01*
X019862Y024451D01*
Y024452D01*
X019865Y024466D01*
X019866Y024484D01*
X019868Y024501D01*
Y024519D01*
X019869Y024534D01*
Y024547D01*
Y024553D01*
Y024556D01*
Y024558D01*
Y024559D01*
X019867Y024729D01*
Y024746D01*
X019868Y024761D01*
X019869Y024776D01*
X019870Y024789D01*
X019871Y024801D01*
X019873Y024812D01*
X019874Y024822D01*
X019877Y024829D01*
X019879Y024837D01*
X019880Y024842D01*
X019883Y024852D01*
X019885Y024857D01*
X019886Y024859D01*
X019895Y024871D01*
X019905Y024883D01*
X019916Y024893D01*
X019928Y024901D01*
X019938Y024908D01*
X019947Y024912D01*
X019952Y024916D01*
X019953Y024917D01*
X019954D01*
X019964Y024921D01*
X019974Y024924D01*
X019997Y024931D01*
X020021Y024935D01*
X020044Y024937D01*
X020066Y024940D01*
X020074D01*
X020082Y024941D01*
X020118D01*
X020136Y024939D01*
D02*
G37*
G36*
X020880Y024808D02*
X020687Y024810D01*
X020659D01*
X020647Y024811D01*
X020631D01*
X020624Y024812D01*
X020620D01*
X020631Y024801D01*
X020642Y024789D01*
X020655Y024775D01*
X020667Y024761D01*
X020678Y024749D01*
X020687Y024740D01*
X020693Y024732D01*
X020694Y024731D01*
X020695Y024730D01*
X020900Y024495D01*
Y024380D01*
X020410D01*
Y024508D01*
X020653D01*
X020665Y024507D01*
X020678D01*
X020690Y024506D01*
X020700D01*
X020704Y024505D01*
X020710D01*
X020636Y024584D01*
X020426Y024826D01*
Y024929D01*
X020880D01*
Y024808D01*
D02*
G37*
G36*
X024250Y020170D02*
X015580D01*
Y021204D01*
X024250D01*
Y020170D01*
D02*
G37*
G36*
X021136Y024380D02*
X020990D01*
Y025136D01*
X021136D01*
Y024380D01*
D02*
G37*
G36*
X018915Y025149D02*
X018934Y025147D01*
X018951Y025144D01*
X018966Y025140D01*
X018977Y025135D01*
X018986Y025132D01*
X018991Y025130D01*
X018993Y025129D01*
X019007Y025120D01*
X019019Y025111D01*
X019027Y025101D01*
X019035Y025093D01*
X019040Y025085D01*
X019044Y025078D01*
X019046Y025074D01*
X019047Y025073D01*
X019051Y025059D01*
X019055Y025042D01*
X019058Y025025D01*
X019059Y025008D01*
X019060Y024993D01*
X019061Y024981D01*
Y024976D01*
Y024972D01*
Y024970D01*
Y024969D01*
Y024929D01*
X019142D01*
Y024815D01*
X019061D01*
Y024380D01*
X018916D01*
Y024815D01*
X018808D01*
Y024929D01*
X018916D01*
Y024967D01*
X018915Y024981D01*
X018914Y024993D01*
X018912Y025003D01*
X018909Y025011D01*
X018907Y025017D01*
X018905Y025020D01*
X018903Y025023D01*
Y025024D01*
X018896Y025029D01*
X018890Y025033D01*
X018874Y025037D01*
X018868Y025038D01*
X018862Y025039D01*
X018857D01*
X018833Y025038D01*
X018822Y025037D01*
X018812Y025035D01*
X018803Y025034D01*
X018796Y025031D01*
X018791Y025030D01*
X018790D01*
X018771Y025132D01*
X018793Y025139D01*
X018815Y025143D01*
X018836Y025146D01*
X018855Y025148D01*
X018870Y025149D01*
X018882Y025151D01*
X018893D01*
X018915Y025149D01*
D02*
G37*
G36*
X018538Y024940D02*
X018556Y024937D01*
X018575Y024933D01*
X018591Y024929D01*
X018608Y024923D01*
X018622Y024917D01*
X018636Y024909D01*
X018648Y024902D01*
X018659Y024895D01*
X018669Y024887D01*
X018678Y024881D01*
X018684Y024875D01*
X018690Y024871D01*
X018694Y024866D01*
X018696Y024864D01*
X018697Y024863D01*
X018709Y024848D01*
X018720Y024831D01*
X018730Y024815D01*
X018739Y024798D01*
X018745Y024779D01*
X018751Y024761D01*
X018760Y024728D01*
X018763Y024711D01*
X018765Y024697D01*
X018766Y024684D01*
X018767Y024673D01*
X018768Y024663D01*
Y024655D01*
Y024651D01*
Y024650D01*
X018767Y024629D01*
X018766Y024608D01*
X018763Y024590D01*
X018760Y024572D01*
X018756Y024555D01*
X018751Y024540D01*
X018746Y024525D01*
X018741Y024512D01*
X018737Y024500D01*
X018731Y024490D01*
X018727Y024482D01*
X018724Y024474D01*
X018719Y024469D01*
X018717Y024464D01*
X018716Y024462D01*
X018715Y024461D01*
X018701Y024444D01*
X018686Y024430D01*
X018670Y024418D01*
X018652Y024407D01*
X018635Y024399D01*
X018617Y024391D01*
X018600Y024384D01*
X018583Y024380D01*
X018567Y024376D01*
X018552Y024373D01*
X018538Y024371D01*
X018526Y024369D01*
X018516D01*
X018509Y024368D01*
X018503D01*
X018471Y024370D01*
X018442Y024375D01*
X018416Y024381D01*
X018395Y024389D01*
X018385Y024393D01*
X018377Y024396D01*
X018369Y024400D01*
X018364Y024403D01*
X018360Y024406D01*
X018355Y024407D01*
X018354Y024410D01*
X018353D01*
X018332Y024427D01*
X018314Y024446D01*
X018298Y024466D01*
X018286Y024486D01*
X018276Y024504D01*
X018273Y024511D01*
X018270Y024518D01*
X018268Y024523D01*
X018266Y024528D01*
X018264Y024530D01*
Y024531D01*
X018409Y024555D01*
X018414Y024541D01*
X018420Y024528D01*
X018425Y024518D01*
X018432Y024509D01*
X018436Y024502D01*
X018440Y024498D01*
X018444Y024496D01*
X018445Y024495D01*
X018454Y024488D01*
X018463Y024484D01*
X018473Y024481D01*
X018482Y024478D01*
X018490Y024477D01*
X018496Y024476D01*
X018502D01*
X018519Y024477D01*
X018536Y024482D01*
X018551Y024487D01*
X018563Y024494D01*
X018573Y024500D01*
X018579Y024506D01*
X018585Y024510D01*
X018586Y024511D01*
X018597Y024525D01*
X018604Y024542D01*
X018611Y024559D01*
X018615Y024575D01*
X018617Y024590D01*
X018619Y024601D01*
X018620Y024605D01*
Y024608D01*
Y024611D01*
Y024612D01*
X018257D01*
Y024642D01*
X018259Y024670D01*
X018262Y024696D01*
X018267Y024720D01*
X018272Y024743D01*
X018278Y024763D01*
X018284Y024781D01*
X018291Y024798D01*
X018297Y024812D01*
X018304Y024825D01*
X018309Y024835D01*
X018315Y024843D01*
X018319Y024850D01*
X018322Y024855D01*
X018325Y024858D01*
X018326Y024859D01*
X018339Y024873D01*
X018354Y024886D01*
X018369Y024897D01*
X018385Y024906D01*
X018401Y024914D01*
X018417Y024921D01*
X018433Y024927D01*
X018448Y024931D01*
X018462Y024934D01*
X018475Y024936D01*
X018487Y024939D01*
X018497Y024940D01*
X018506Y024941D01*
X018518D01*
X018538Y024940D01*
D02*
G37*
G36*
X017340D02*
X017361Y024937D01*
X017381Y024934D01*
X017399Y024929D01*
X017416Y024923D01*
X017433Y024917D01*
X017447Y024910D01*
X017460Y024902D01*
X017472Y024896D01*
X017482Y024888D01*
X017491Y024882D01*
X017498Y024876D01*
X017504Y024871D01*
X017508Y024867D01*
X017510Y024865D01*
X017511Y024864D01*
X017523Y024849D01*
X017534Y024834D01*
X017544Y024817D01*
X017553Y024800D01*
X017559Y024782D01*
X017565Y024765D01*
X017574Y024731D01*
X017577Y024714D01*
X017579Y024700D01*
X017580Y024687D01*
X017581Y024675D01*
X017582Y024666D01*
Y024659D01*
Y024654D01*
Y024653D01*
X017581Y024629D01*
X017579Y024605D01*
X017576Y024584D01*
X017571Y024564D01*
X017566Y024545D01*
X017559Y024528D01*
X017554Y024512D01*
X017546Y024498D01*
X017540Y024485D01*
X017534Y024474D01*
X017528Y024465D01*
X017522Y024458D01*
X017518Y024451D01*
X017515Y024447D01*
X017512Y024444D01*
X017511Y024443D01*
X017497Y024430D01*
X017483Y024418D01*
X017468Y024408D01*
X017451Y024400D01*
X017436Y024392D01*
X017420Y024387D01*
X017404Y024381D01*
X017389Y024378D01*
X017375Y024375D01*
X017362Y024372D01*
X017350Y024370D01*
X017340Y024369D01*
X017332Y024368D01*
X017320D01*
X017300Y024369D01*
X017283Y024370D01*
X017265Y024372D01*
X017249Y024376D01*
X017234Y024379D01*
X017221Y024383D01*
X017208Y024388D01*
X017197Y024393D01*
X017186Y024397D01*
X017177Y024402D01*
X017169Y024406D01*
X017163Y024410D01*
X017158Y024413D01*
X017155Y024415D01*
X017153Y024417D01*
X017152D01*
X017141Y024427D01*
X017130Y024438D01*
X017111Y024462D01*
X017096Y024486D01*
X017085Y024510D01*
X017076Y024532D01*
X017073Y024542D01*
X017070Y024549D01*
X017068Y024556D01*
X017067Y024561D01*
X017065Y024565D01*
Y024566D01*
X017208Y024590D01*
X017212Y024570D01*
X017218Y024553D01*
X017224Y024538D01*
X017230Y024528D01*
X017237Y024519D01*
X017241Y024513D01*
X017245Y024510D01*
X017246Y024509D01*
X017257Y024501D01*
X017268Y024496D01*
X017279Y024491D01*
X017290Y024489D01*
X017299Y024487D01*
X017307Y024486D01*
X017314D01*
X017333Y024488D01*
X017351Y024493D01*
X017365Y024498D01*
X017378Y024506D01*
X017388Y024513D01*
X017394Y024519D01*
X017400Y024523D01*
X017401Y024525D01*
X017406Y024534D01*
X017412Y024543D01*
X017420Y024564D01*
X017426Y024587D01*
X017429Y024610D01*
X017432Y024631D01*
X017433Y024640D01*
Y024648D01*
X017434Y024654D01*
Y024660D01*
Y024663D01*
Y024664D01*
Y024679D01*
X017433Y024695D01*
X017430Y024708D01*
X017428Y024721D01*
X017426Y024732D01*
X017424Y024742D01*
X017417Y024759D01*
X017412Y024772D01*
X017406Y024781D01*
X017403Y024787D01*
X017402Y024789D01*
X017389Y024802D01*
X017375Y024811D01*
X017361Y024817D01*
X017347Y024823D01*
X017334Y024825D01*
X017324Y024826D01*
X017318Y024827D01*
X017316D01*
X017302Y024826D01*
X017288Y024824D01*
X017277Y024820D01*
X017268Y024816D01*
X017260Y024812D01*
X017255Y024808D01*
X017251Y024806D01*
X017250Y024805D01*
X017241Y024796D01*
X017234Y024787D01*
X017228Y024776D01*
X017223Y024766D01*
X017220Y024756D01*
X017217Y024748D01*
X017216Y024744D01*
Y024742D01*
X017073Y024768D01*
X017084Y024799D01*
X017097Y024825D01*
X017111Y024847D01*
X017126Y024865D01*
X017139Y024880D01*
X017148Y024889D01*
X017153Y024893D01*
X017156Y024895D01*
X017157Y024897D01*
X017158D01*
X017182Y024911D01*
X017209Y024922D01*
X017235Y024930D01*
X017260Y024935D01*
X017272Y024937D01*
X017283Y024939D01*
X017293Y024940D01*
X017302D01*
X017308Y024941D01*
X017318D01*
X017340Y024940D01*
D02*
G37*
G36*
X023473D02*
X023491Y024937D01*
X023510Y024933D01*
X023526Y024929D01*
X023543Y024923D01*
X023557Y024917D01*
X023571Y024909D01*
X023583Y024902D01*
X023594Y024895D01*
X023604Y024887D01*
X023612Y024881D01*
X023619Y024875D01*
X023625Y024871D01*
X023629Y024866D01*
X023631Y024864D01*
X023632Y024863D01*
X023644Y024848D01*
X023655Y024831D01*
X023665Y024815D01*
X023674Y024798D01*
X023680Y024779D01*
X023686Y024761D01*
X023694Y024728D01*
X023698Y024711D01*
X023700Y024697D01*
X023701Y024684D01*
X023702Y024673D01*
X023703Y024663D01*
Y024655D01*
Y024651D01*
Y024650D01*
X023702Y024629D01*
X023701Y024608D01*
X023698Y024590D01*
X023694Y024572D01*
X023691Y024555D01*
X023686Y024540D01*
X023681Y024525D01*
X023676Y024512D01*
X023672Y024500D01*
X023666Y024490D01*
X023662Y024482D01*
X023658Y024474D01*
X023654Y024469D01*
X023652Y024464D01*
X023651Y024462D01*
X023650Y024461D01*
X023635Y024444D01*
X023621Y024430D01*
X023605Y024418D01*
X023587Y024407D01*
X023570Y024399D01*
X023552Y024391D01*
X023535Y024384D01*
X023517Y024380D01*
X023502Y024376D01*
X023487Y024373D01*
X023473Y024371D01*
X023461Y024369D01*
X023451D01*
X023444Y024368D01*
X023438D01*
X023406Y024370D01*
X023376Y024375D01*
X023351Y024381D01*
X023329Y024389D01*
X023320Y024393D01*
X023312Y024396D01*
X023304Y024400D01*
X023299Y024403D01*
X023294Y024406D01*
X023290Y024407D01*
X023289Y024410D01*
X023288D01*
X023267Y024427D01*
X023249Y024446D01*
X023233Y024466D01*
X023221Y024486D01*
X023211Y024504D01*
X023208Y024511D01*
X023205Y024518D01*
X023203Y024523D01*
X023200Y024528D01*
X023199Y024530D01*
Y024531D01*
X023344Y024555D01*
X023349Y024541D01*
X023355Y024528D01*
X023360Y024518D01*
X023367Y024509D01*
X023371Y024502D01*
X023375Y024498D01*
X023379Y024496D01*
X023380Y024495D01*
X023388Y024488D01*
X023398Y024484D01*
X023408Y024481D01*
X023417Y024478D01*
X023425Y024477D01*
X023431Y024476D01*
X023437D01*
X023454Y024477D01*
X023470Y024482D01*
X023486Y024487D01*
X023498Y024494D01*
X023508Y024500D01*
X023514Y024506D01*
X023520Y024510D01*
X023521Y024511D01*
X023532Y024525D01*
X023539Y024542D01*
X023546Y024559D01*
X023550Y024575D01*
X023552Y024590D01*
X023553Y024601D01*
X023555Y024605D01*
Y024608D01*
Y024611D01*
Y024612D01*
X023192D01*
Y024642D01*
X023194Y024670D01*
X023197Y024696D01*
X023202Y024720D01*
X023207Y024743D01*
X023212Y024763D01*
X023219Y024781D01*
X023226Y024798D01*
X023232Y024812D01*
X023239Y024825D01*
X023244Y024835D01*
X023250Y024843D01*
X023254Y024850D01*
X023257Y024855D01*
X023259Y024858D01*
X023261Y024859D01*
X023274Y024873D01*
X023289Y024886D01*
X023304Y024897D01*
X023320Y024906D01*
X023336Y024914D01*
X023352Y024921D01*
X023368Y024927D01*
X023383Y024931D01*
X023397Y024934D01*
X023410Y024936D01*
X023422Y024939D01*
X023432Y024940D01*
X023441Y024941D01*
X023453D01*
X023473Y024940D01*
D02*
G37*
G36*
X024687Y015984D02*
X024428D01*
Y017265D01*
X024687D01*
Y015984D01*
D02*
G37*
G36*
X020281Y023810D02*
X020298Y023809D01*
X020332Y023803D01*
X020361Y023794D01*
X020374Y023790D01*
X020386Y023784D01*
X020397Y023780D01*
X020405Y023775D01*
X020414Y023770D01*
X020421Y023767D01*
X020426Y023763D01*
X020429Y023760D01*
X020432Y023759D01*
X020433Y023758D01*
X020445Y023747D01*
X020456Y023736D01*
X020466Y023723D01*
X020474Y023709D01*
X020487Y023681D01*
X020498Y023653D01*
X020502Y023639D01*
X020505Y023627D01*
X020508Y023616D01*
X020509Y023606D01*
X020511Y023598D01*
Y023592D01*
X020513Y023588D01*
Y023587D01*
X020368Y023572D01*
X020366Y023594D01*
X020362Y023613D01*
X020357Y023629D01*
X020352Y023641D01*
X020347Y023651D01*
X020343Y023658D01*
X020340Y023662D01*
X020339Y023663D01*
X020328Y023672D01*
X020316Y023678D01*
X020304Y023684D01*
X020292Y023687D01*
X020282Y023689D01*
X020273Y023691D01*
X020265D01*
X020249Y023689D01*
X020235Y023686D01*
X020223Y023682D01*
X020212Y023677D01*
X020204Y023673D01*
X020198Y023669D01*
X020194Y023665D01*
X020193Y023664D01*
X020185Y023653D01*
X020178Y023641D01*
X020174Y023629D01*
X020170Y023617D01*
X020168Y023606D01*
X020167Y023596D01*
Y023591D01*
Y023590D01*
Y023589D01*
X020168Y023572D01*
X020171Y023557D01*
X020177Y023542D01*
X020182Y023529D01*
X020188Y023517D01*
X020193Y023508D01*
X020197Y023503D01*
X020198Y023500D01*
X020202Y023494D01*
X020209Y023486D01*
X020217Y023476D01*
X020226Y023468D01*
X020246Y023447D01*
X020265Y023426D01*
X020285Y023406D01*
X020294Y023398D01*
X020303Y023391D01*
X020309Y023384D01*
X020314Y023380D01*
X020317Y023377D01*
X020318Y023376D01*
X020340Y023355D01*
X020359Y023335D01*
X020378Y023317D01*
X020394Y023300D01*
X020410Y023284D01*
X020423Y023269D01*
X020435Y023255D01*
X020445Y023242D01*
X020453Y023231D01*
X020461Y023222D01*
X020468Y023214D01*
X020472Y023206D01*
X020476Y023202D01*
X020479Y023198D01*
X020481Y023195D01*
Y023194D01*
X020495Y023169D01*
X020506Y023143D01*
X020515Y023119D01*
X020521Y023097D01*
X020526Y023077D01*
X020527Y023070D01*
X020528Y023063D01*
X020529Y023058D01*
X020530Y023053D01*
Y023051D01*
Y023050D01*
X020022D01*
Y023184D01*
X020310D01*
X020302Y023199D01*
X020292Y023211D01*
X020287Y023216D01*
X020284Y023221D01*
X020282Y023223D01*
X020281Y023224D01*
X020276Y023228D01*
X020272Y023234D01*
X020259Y023246D01*
X020245Y023260D01*
X020231Y023274D01*
X020216Y023287D01*
X020204Y023298D01*
X020200Y023302D01*
X020197Y023306D01*
X020194Y023307D01*
X020193Y023308D01*
X020169Y023331D01*
X020150Y023349D01*
X020133Y023367D01*
X020120Y023380D01*
X020110Y023391D01*
X020104Y023399D01*
X020099Y023404D01*
X020098Y023405D01*
X020084Y023424D01*
X020072Y023441D01*
X020062Y023458D01*
X020055Y023472D01*
X020048Y023484D01*
X020044Y023494D01*
X020041Y023499D01*
X020040Y023501D01*
X020034Y023519D01*
X020029Y023536D01*
X020026Y023553D01*
X020024Y023568D01*
X020023Y023580D01*
X020022Y023590D01*
Y023596D01*
Y023599D01*
X020023Y023615D01*
X020025Y023631D01*
X020027Y023647D01*
X020032Y023661D01*
X020043Y023686D01*
X020053Y023708D01*
X020060Y023718D01*
X020065Y023725D01*
X020071Y023733D01*
X020076Y023739D01*
X020081Y023743D01*
X020083Y023747D01*
X020085Y023748D01*
X020086Y023750D01*
X020098Y023760D01*
X020112Y023770D01*
X020126Y023778D01*
X020141Y023784D01*
X020169Y023795D01*
X020198Y023803D01*
X020211Y023805D01*
X020223Y023807D01*
X020234Y023809D01*
X020244Y023810D01*
X020251Y023811D01*
X020262D01*
X020281Y023810D01*
D02*
G37*
G36*
X024180Y015984D02*
X023695D01*
X023645Y015986D01*
X023598Y015987D01*
X023560Y015991D01*
X023528Y015997D01*
X023502Y016002D01*
X023482Y016006D01*
X023476Y016008D01*
X023471D01*
X023469Y016010D01*
X023467D01*
X023426Y016024D01*
X023389Y016041D01*
X023360Y016058D01*
X023334Y016074D01*
X023313Y016089D01*
X023299Y016100D01*
X023289Y016108D01*
X023286Y016111D01*
X023254Y016147D01*
X023226Y016184D01*
X023202Y016223D01*
X023184Y016258D01*
X023169Y016291D01*
X023162Y016304D01*
X023158Y016315D01*
X023154Y016326D01*
X023150Y016334D01*
X023149Y016337D01*
Y016339D01*
X023136Y016384D01*
X023125Y016430D01*
X023117Y016474D01*
X023113Y016517D01*
X023112Y016537D01*
X023110Y016556D01*
Y016571D01*
X023108Y016585D01*
Y016596D01*
Y016604D01*
Y016609D01*
Y016611D01*
X023110Y016676D01*
X023115Y016733D01*
X023117Y016761D01*
X023121Y016785D01*
X023125Y016809D01*
X023128Y016830D01*
X023134Y016848D01*
X023138Y016865D01*
X023141Y016880D01*
X023143Y016891D01*
X023147Y016900D01*
X023149Y016907D01*
X023150Y016911D01*
Y016913D01*
X023167Y016957D01*
X023187Y016998D01*
X023208Y017033D01*
X023228Y017063D01*
X023245Y017087D01*
X023260Y017105D01*
X023269Y017117D01*
X023271Y017120D01*
X023273D01*
X023304Y017150D01*
X023336Y017174D01*
X023369Y017194D01*
X023399Y017211D01*
X023424Y017224D01*
X023447Y017233D01*
X023454Y017235D01*
X023460Y017237D01*
X023463Y017239D01*
X023465D01*
X023500Y017248D01*
X023539Y017254D01*
X023580Y017259D01*
X023619Y017261D01*
X023654Y017263D01*
X023669Y017265D01*
X024180D01*
Y015984D01*
D02*
G37*
G36*
X021694D02*
X021138D01*
X021107Y015986D01*
X021051D01*
X021029Y015987D01*
X020994D01*
X020981Y015989D01*
X020963D01*
X020955Y015991D01*
X020948D01*
X020911Y015997D01*
X020877Y016006D01*
X020848Y016015D01*
X020822Y016026D01*
X020802Y016036D01*
X020787Y016045D01*
X020777Y016050D01*
X020774Y016052D01*
X020748Y016073D01*
X020728Y016095D01*
X020707Y016115D01*
X020692Y016137D01*
X020679Y016156D01*
X020670Y016171D01*
X020665Y016180D01*
X020663Y016184D01*
X020650Y016215D01*
X020639Y016245D01*
X020631Y016274D01*
X020628Y016300D01*
X020624Y016322D01*
X020622Y016339D01*
Y016350D01*
Y016352D01*
Y016354D01*
X020624Y016395D01*
X020631Y016432D01*
X020642Y016463D01*
X020653Y016493D01*
X020665Y016515D01*
X020676Y016532D01*
X020683Y016543D01*
X020685Y016546D01*
X020711Y016576D01*
X020739Y016600D01*
X020770Y016620D01*
X020798Y016635D01*
X020824Y016648D01*
X020846Y016657D01*
X020853Y016659D01*
X020859Y016661D01*
X020863Y016663D01*
X020865D01*
X020835Y016680D01*
X020809Y016696D01*
X020787Y016717D01*
X020768Y016733D01*
X020755Y016750D01*
X020744Y016763D01*
X020737Y016772D01*
X020735Y016776D01*
X020718Y016806D01*
X020705Y016833D01*
X020698Y016861D01*
X020691Y016887D01*
X020687Y016909D01*
X020685Y016926D01*
Y016937D01*
Y016939D01*
Y016941D01*
X020687Y016970D01*
X020691Y017000D01*
X020698Y017024D01*
X020705Y017046D01*
X020713Y017065D01*
X020720Y017080D01*
X020724Y017087D01*
X020726Y017091D01*
X020740Y017115D01*
X020757Y017135D01*
X020774Y017154D01*
X020789Y017170D01*
X020803Y017181D01*
X020815Y017191D01*
X020822Y017196D01*
X020824Y017198D01*
X020846Y017213D01*
X020870Y017224D01*
X020892Y017233D01*
X020913Y017241D01*
X020931Y017246D01*
X020944Y017250D01*
X020953Y017252D01*
X020957D01*
X020989Y017255D01*
X021024Y017259D01*
X021061Y017261D01*
X021098Y017263D01*
X021131Y017265D01*
X021694D01*
Y015984D01*
D02*
G37*
G36*
X022888D02*
X021914D01*
Y016200D01*
X022629D01*
Y016548D01*
X021986D01*
Y016765D01*
X022629D01*
Y017048D01*
X021938D01*
Y017265D01*
X022888D01*
Y015984D01*
D02*
G37*
G36*
X018494Y023810D02*
X018515Y023806D01*
X018535Y023802D01*
X018554Y023797D01*
X018571Y023789D01*
X018589Y023781D01*
X018603Y023772D01*
X018617Y023765D01*
X018629Y023756D01*
X018640Y023747D01*
X018649Y023740D01*
X018657Y023732D01*
X018663Y023727D01*
X018668Y023722D01*
X018670Y023719D01*
X018671Y023718D01*
X018684Y023699D01*
X018696Y023678D01*
X018706Y023656D01*
X018715Y023633D01*
X018722Y023607D01*
X018729Y023582D01*
X018734Y023557D01*
X018737Y023533D01*
X018741Y023510D01*
X018743Y023488D01*
X018745Y023469D01*
X018746Y023451D01*
X018747Y023437D01*
Y023426D01*
Y023423D01*
Y023419D01*
Y023418D01*
Y023417D01*
X018746Y023380D01*
X018744Y023346D01*
X018741Y023315D01*
X018735Y023286D01*
X018730Y023259D01*
X018724Y023235D01*
X018718Y023214D01*
X018710Y023194D01*
X018704Y023178D01*
X018697Y023164D01*
X018692Y023152D01*
X018685Y023142D01*
X018681Y023134D01*
X018677Y023129D01*
X018675Y023125D01*
X018674Y023124D01*
X018660Y023109D01*
X018645Y023095D01*
X018629Y023083D01*
X018613Y023073D01*
X018598Y023064D01*
X018581Y023058D01*
X018566Y023051D01*
X018552Y023047D01*
X018537Y023043D01*
X018525Y023040D01*
X018513Y023039D01*
X018504Y023037D01*
X018496D01*
X018490Y023036D01*
X018485D01*
X018465Y023037D01*
X018447Y023039D01*
X018429Y023042D01*
X018413Y023047D01*
X018396Y023052D01*
X018382Y023058D01*
X018369Y023064D01*
X018357Y023071D01*
X018346Y023077D01*
X018337Y023084D01*
X018329Y023089D01*
X018322Y023095D01*
X018317Y023099D01*
X018313Y023102D01*
X018311Y023105D01*
X018310Y023106D01*
X018298Y023119D01*
X018287Y023134D01*
X018278Y023149D01*
X018271Y023165D01*
X018263Y023180D01*
X018258Y023195D01*
X018250Y023226D01*
X018247Y023239D01*
X018245Y023252D01*
X018243Y023263D01*
X018242Y023273D01*
X018241Y023282D01*
Y023287D01*
Y023292D01*
Y023293D01*
X018242Y023313D01*
X018245Y023332D01*
X018248Y023351D01*
X018251Y023367D01*
X018257Y023383D01*
X018262Y023398D01*
X018267Y023412D01*
X018274Y023424D01*
X018281Y023435D01*
X018286Y023445D01*
X018292Y023452D01*
X018297Y023460D01*
X018300Y023465D01*
X018304Y023469D01*
X018306Y023471D01*
X018307Y023472D01*
X018319Y023484D01*
X018332Y023495D01*
X018345Y023505D01*
X018358Y023512D01*
X018371Y023519D01*
X018384Y023524D01*
X018408Y023533D01*
X018419Y023536D01*
X018430Y023539D01*
X018439Y023540D01*
X018447Y023541D01*
X018453Y023542D01*
X018462D01*
X018477Y023541D01*
X018492Y023539D01*
X018505Y023536D01*
X018518Y023532D01*
X018541Y023521D01*
X018560Y023510D01*
X018576Y023498D01*
X018582Y023493D01*
X018588Y023487D01*
X018592Y023483D01*
X018595Y023481D01*
X018596Y023478D01*
X018598Y023477D01*
X018595Y023500D01*
X018593Y023522D01*
X018591Y023542D01*
X018588Y023559D01*
X018584Y023575D01*
X018581Y023589D01*
X018578Y023601D01*
X018574Y023612D01*
X018570Y023622D01*
X018568Y023629D01*
X018565Y023636D01*
X018563Y023640D01*
X018560Y023645D01*
X018558Y023647D01*
X018557Y023649D01*
X018545Y023663D01*
X018532Y023673D01*
X018519Y023681D01*
X018507Y023685D01*
X018496Y023688D01*
X018487Y023689D01*
X018482Y023691D01*
X018480D01*
X018468Y023689D01*
X018455Y023687D01*
X018446Y023684D01*
X018438Y023681D01*
X018431Y023676D01*
X018427Y023673D01*
X018424Y023671D01*
X018423Y023670D01*
X018415Y023661D01*
X018410Y023651D01*
X018404Y023640D01*
X018401Y023630D01*
X018399Y023621D01*
X018396Y023613D01*
X018395Y023609D01*
Y023606D01*
X018255Y023622D01*
X018263Y023654D01*
X018274Y023682D01*
X018286Y023706D01*
X018298Y023727D01*
X018310Y023742D01*
X018314Y023747D01*
X018320Y023753D01*
X018323Y023756D01*
X018327Y023759D01*
X018328Y023762D01*
X018329D01*
X018340Y023770D01*
X018351Y023778D01*
X018375Y023790D01*
X018399Y023799D01*
X018421Y023804D01*
X018440Y023809D01*
X018449Y023810D01*
X018457D01*
X018462Y023811D01*
X018471D01*
X018494Y023810D01*
D02*
G37*
G36*
X026190Y015984D02*
X025908D01*
X025653Y016941D01*
X025401Y015984D01*
X025122D01*
X024813Y017265D01*
X025074D01*
X025270Y016369D01*
X025492Y017265D01*
X025803D01*
X026036Y016384D01*
X026229Y017265D01*
X026493D01*
X026190Y015984D01*
D02*
G37*
G36*
X019110D02*
X018871D01*
Y016828D01*
X018351Y015984D01*
X018092D01*
Y017265D01*
X018330D01*
Y016402D01*
X018860Y017265D01*
X019110D01*
Y015984D01*
D02*
G37*
G36*
X019698Y023810D02*
X019717Y023807D01*
X019735Y023803D01*
X019752Y023799D01*
X019767Y023792D01*
X019781Y023786D01*
X019793Y023779D01*
X019805Y023771D01*
X019815Y023764D01*
X019825Y023757D01*
X019833Y023751D01*
X019838Y023744D01*
X019844Y023740D01*
X019847Y023735D01*
X019849Y023733D01*
X019850Y023732D01*
X019863Y023713D01*
X019874Y023692D01*
X019884Y023669D01*
X019893Y023645D01*
X019899Y023619D01*
X019906Y023593D01*
X019910Y023568D01*
X019915Y023543D01*
X019917Y023519D01*
X019919Y023497D01*
X019921Y023476D01*
X019922Y023459D01*
X019923Y023445D01*
Y023434D01*
Y023429D01*
Y023426D01*
Y023425D01*
Y023424D01*
X019922Y023384D01*
X019920Y023348D01*
X019917Y023315D01*
X019912Y023284D01*
X019908Y023257D01*
X019903Y023231D01*
X019896Y023210D01*
X019890Y023190D01*
X019884Y023174D01*
X019877Y023158D01*
X019872Y023146D01*
X019867Y023136D01*
X019863Y023130D01*
X019860Y023124D01*
X019858Y023121D01*
X019857Y023120D01*
X019844Y023105D01*
X019829Y023093D01*
X019815Y023081D01*
X019800Y023072D01*
X019786Y023063D01*
X019770Y023057D01*
X019756Y023051D01*
X019742Y023047D01*
X019729Y023042D01*
X019717Y023040D01*
X019706Y023038D01*
X019697Y023037D01*
X019689D01*
X019683Y023036D01*
X019679D01*
X019659Y023037D01*
X019640Y023039D01*
X019622Y023043D01*
X019605Y023048D01*
X019590Y023053D01*
X019576Y023060D01*
X019564Y023067D01*
X019552Y023075D01*
X019542Y023082D01*
X019532Y023089D01*
X019524Y023096D01*
X019518Y023101D01*
X019514Y023106D01*
X019510Y023110D01*
X019508Y023112D01*
X019507Y023113D01*
X019494Y023132D01*
X019483Y023154D01*
X019472Y023177D01*
X019464Y023202D01*
X019457Y023227D01*
X019451Y023252D01*
X019446Y023278D01*
X019441Y023304D01*
X019439Y023328D01*
X019437Y023349D01*
X019435Y023370D01*
X019434Y023388D01*
X019433Y023402D01*
Y023413D01*
Y023417D01*
Y023421D01*
Y023422D01*
Y023423D01*
X019434Y023462D01*
X019436Y023498D01*
X019439Y023531D01*
X019445Y023562D01*
X019450Y023590D01*
X019456Y023615D01*
X019463Y023638D01*
X019470Y023658D01*
X019476Y023676D01*
X019483Y023691D01*
X019489Y023704D01*
X019495Y023715D01*
X019500Y023722D01*
X019504Y023728D01*
X019506Y023731D01*
X019507Y023732D01*
X019519Y023746D01*
X019532Y023758D01*
X019546Y023768D01*
X019561Y023778D01*
X019575Y023786D01*
X019589Y023791D01*
X019602Y023797D01*
X019616Y023801D01*
X019629Y023804D01*
X019640Y023806D01*
X019651Y023809D01*
X019660Y023810D01*
X019668Y023811D01*
X019679D01*
X019698Y023810D01*
D02*
G37*
G36*
X019094Y023786D02*
X019108Y023763D01*
X019123Y023741D01*
X019139Y023723D01*
X019152Y023709D01*
X019164Y023698D01*
X019168Y023694D01*
X019171Y023691D01*
X019174Y023689D01*
X019175Y023688D01*
X019199Y023671D01*
X019222Y023656D01*
X019242Y023644D01*
X019261Y023635D01*
X019276Y023628D01*
X019287Y023623D01*
X019292Y023622D01*
X019295Y023621D01*
X019296Y023619D01*
X019297D01*
Y023488D01*
X019258Y023504D01*
X019223Y023520D01*
X019206Y023529D01*
X019191Y023539D01*
X019177Y023547D01*
X019164Y023556D01*
X019152Y023565D01*
X019141Y023572D01*
X019132Y023579D01*
X019124Y023586D01*
X019118Y023591D01*
X019113Y023594D01*
X019111Y023596D01*
X019110Y023598D01*
Y023050D01*
X018965D01*
Y023811D01*
X019083D01*
X019094Y023786D01*
D02*
G37*
G36*
X019442Y024940D02*
X019460Y024936D01*
X019478Y024932D01*
X019492Y024928D01*
X019504Y024923D01*
X019514Y024919D01*
X019519Y024916D01*
X019521Y024914D01*
X019538Y024905D01*
X019551Y024894D01*
X019564Y024883D01*
X019574Y024872D01*
X019582Y024862D01*
X019588Y024854D01*
X019591Y024850D01*
X019592Y024848D01*
Y024929D01*
X019728D01*
Y024170D01*
X019583D01*
Y024448D01*
X019567Y024432D01*
X019553Y024419D01*
X019541Y024408D01*
X019529Y024401D01*
X019519Y024394D01*
X019513Y024389D01*
X019507Y024387D01*
X019506Y024385D01*
X019492Y024380D01*
X019478Y024376D01*
X019463Y024372D01*
X019450Y024370D01*
X019439Y024369D01*
X019431Y024368D01*
X019423D01*
X019406Y024369D01*
X019389Y024371D01*
X019373Y024375D01*
X019357Y024380D01*
X019330Y024392D01*
X019318Y024399D01*
X019306Y024406D01*
X019296Y024413D01*
X019288Y024419D01*
X019280Y024426D01*
X019273Y024431D01*
X019268Y024437D01*
X019265Y024440D01*
X019262Y024442D01*
X019261Y024443D01*
X019249Y024459D01*
X019239Y024475D01*
X019230Y024491D01*
X019222Y024509D01*
X019215Y024526D01*
X019210Y024544D01*
X019202Y024579D01*
X019199Y024594D01*
X019197Y024610D01*
X019196Y024623D01*
X019195Y024634D01*
X019194Y024643D01*
Y024651D01*
Y024655D01*
Y024657D01*
X019195Y024681D01*
X019197Y024705D01*
X019200Y024725D01*
X019203Y024746D01*
X019209Y024765D01*
X019214Y024782D01*
X019221Y024798D01*
X019226Y024812D01*
X019233Y024824D01*
X019239Y024835D01*
X019245Y024845D01*
X019249Y024851D01*
X019254Y024858D01*
X019257Y024862D01*
X019259Y024864D01*
X019260Y024865D01*
X019273Y024878D01*
X019286Y024890D01*
X019300Y024900D01*
X019314Y024909D01*
X019327Y024917D01*
X019341Y024922D01*
X019353Y024928D01*
X019366Y024931D01*
X019377Y024934D01*
X019388Y024936D01*
X019398Y024939D01*
X019406Y024940D01*
X019413Y024941D01*
X019422D01*
X019442Y024940D01*
D02*
G37*
G36*
X024807Y014961D02*
Y014423D01*
X024548D01*
Y014959D01*
X024080Y015703D01*
X024378D01*
X024672Y015196D01*
X024974Y015703D01*
X025275D01*
X024807Y014961D01*
D02*
G37*
G36*
X023948Y014423D02*
X023709D01*
Y015267D01*
X023189Y014423D01*
X022930D01*
Y015703D01*
X023169D01*
Y014841D01*
X023698Y015703D01*
X023948D01*
Y014423D01*
D02*
G37*
G36*
X020270D02*
X019297D01*
Y014639D01*
X020011D01*
Y014987D01*
X019369D01*
Y015204D01*
X020011D01*
Y015487D01*
X019321D01*
Y015703D01*
X020270D01*
Y014423D01*
D02*
G37*
G36*
X022747Y015487D02*
X022368D01*
Y014423D01*
X022108D01*
Y015487D01*
X021731D01*
Y015703D01*
X022747D01*
Y015487D01*
D02*
G37*
G36*
X021562Y014423D02*
X021303D01*
Y014983D01*
X020798D01*
Y014423D01*
X020539D01*
Y015703D01*
X020798D01*
Y015200D01*
X021303D01*
Y015703D01*
X021562D01*
Y014423D01*
D02*
G37*
G36*
X017818Y015984D02*
X017333D01*
X017283Y015986D01*
X017237Y015987D01*
X017198Y015991D01*
X017166Y015997D01*
X017140Y016002D01*
X017120Y016006D01*
X017114Y016008D01*
X017109D01*
X017107Y016010D01*
X017105D01*
X017064Y016024D01*
X017027Y016041D01*
X016998Y016058D01*
X016972Y016074D01*
X016951Y016089D01*
X016937Y016100D01*
X016927Y016108D01*
X016924Y016111D01*
X016892Y016147D01*
X016864Y016184D01*
X016840Y016223D01*
X016822Y016258D01*
X016807Y016291D01*
X016800Y016304D01*
X016796Y016315D01*
X016792Y016326D01*
X016789Y016334D01*
X016787Y016337D01*
Y016339D01*
X016774Y016384D01*
X016763Y016430D01*
X016755Y016474D01*
X016752Y016517D01*
X016750Y016537D01*
X016748Y016556D01*
Y016571D01*
X016746Y016585D01*
Y016596D01*
Y016604D01*
Y016609D01*
Y016611D01*
X016748Y016676D01*
X016753Y016733D01*
X016755Y016761D01*
X016759Y016785D01*
X016763Y016809D01*
X016766Y016830D01*
X016772Y016848D01*
X016776Y016865D01*
X016779Y016880D01*
X016781Y016891D01*
X016785Y016900D01*
X016787Y016907D01*
X016789Y016911D01*
Y016913D01*
X016805Y016957D01*
X016826Y016998D01*
X016846Y017033D01*
X016866Y017063D01*
X016883Y017087D01*
X016898Y017105D01*
X016907Y017117D01*
X016909Y017120D01*
X016911D01*
X016942Y017150D01*
X016974Y017174D01*
X017007Y017194D01*
X017037Y017211D01*
X017063Y017224D01*
X017085Y017233D01*
X017092Y017235D01*
X017098Y017237D01*
X017101Y017239D01*
X017103D01*
X017138Y017248D01*
X017177Y017254D01*
X017218Y017259D01*
X017257Y017261D01*
X017292Y017263D01*
X017307Y017265D01*
X017818D01*
Y015984D01*
D02*
G37*
G36*
X016028D02*
X015769D01*
Y016519D01*
X015685D01*
X015659Y016517D01*
X015637Y016515D01*
X015619Y016511D01*
X015604Y016509D01*
X015595Y016506D01*
X015589Y016504D01*
X015587D01*
X015572Y016496D01*
X015558Y016489D01*
X015545Y016480D01*
X015532Y016472D01*
X015523Y016463D01*
X015515Y016456D01*
X015511Y016452D01*
X015510Y016450D01*
X015502Y016441D01*
X015493Y016432D01*
X015473Y016404D01*
X015450Y016374D01*
X015426Y016341D01*
X015406Y016311D01*
X015397Y016297D01*
X015389Y016285D01*
X015382Y016276D01*
X015376Y016269D01*
X015374Y016263D01*
X015373Y016261D01*
X015187Y015984D01*
X014877D01*
X015034Y016234D01*
X015051Y016260D01*
X015067Y016285D01*
X015082Y016308D01*
X015097Y016328D01*
X015110Y016347D01*
X015121Y016365D01*
X015143Y016393D01*
X015160Y016415D01*
X015171Y016430D01*
X015180Y016439D01*
X015182Y016441D01*
X015202Y016463D01*
X015226Y016484D01*
X015249Y016500D01*
X015271Y016517D01*
X015289Y016530D01*
X015304Y016539D01*
X015315Y016546D01*
X015317Y016548D01*
X015319D01*
X015287Y016554D01*
X015260Y016561D01*
X015234Y016569D01*
X015208Y016578D01*
X015186Y016587D01*
X015165Y016596D01*
X015145Y016606D01*
X015128Y016617D01*
X015113Y016626D01*
X015100Y016635D01*
X015089Y016645D01*
X015082Y016652D01*
X015075Y016657D01*
X015069Y016663D01*
X015067Y016665D01*
X015065Y016667D01*
X015051Y016685D01*
X015038Y016704D01*
X015015Y016744D01*
X015001Y016783D01*
X014991Y016822D01*
X014984Y016856D01*
X014982Y016869D01*
Y016881D01*
X014980Y016891D01*
Y016900D01*
Y016904D01*
Y016906D01*
X014982Y016946D01*
X014989Y016985D01*
X014999Y017018D01*
X015008Y017048D01*
X015019Y017072D01*
X015028Y017091D01*
X015032Y017096D01*
X015036Y017102D01*
X015038Y017104D01*
Y017105D01*
X015060Y017137D01*
X015084Y017163D01*
X015108Y017183D01*
X015132Y017202D01*
X015154Y017213D01*
X015171Y017222D01*
X015182Y017228D01*
X015184Y017229D01*
X015186D01*
X015204Y017235D01*
X015224Y017241D01*
X015271Y017250D01*
X015321Y017255D01*
X015369Y017261D01*
X015393D01*
X015413Y017263D01*
X015434D01*
X015450Y017265D01*
X016028D01*
Y015984D01*
D02*
G37*
G36*
X014736D02*
X014477D01*
Y016528D01*
X013942D01*
Y016744D01*
X014477D01*
Y017048D01*
X013857D01*
Y017265D01*
X014736D01*
Y015984D01*
D02*
G37*
G36*
X020533D02*
X020259D01*
X020154Y016274D01*
X019639D01*
X019528Y015984D01*
X019249D01*
X019763Y017265D01*
X020037D01*
X020533Y015984D01*
D02*
G37*
%LPC*%
G36*
X021537Y024823D02*
X021531D01*
X021511Y024820D01*
X021492Y024816D01*
X021477Y024808D01*
X021463Y024801D01*
X021452Y024793D01*
X021443Y024785D01*
X021439Y024781D01*
X021436Y024779D01*
X021423Y024761D01*
X021413Y024741D01*
X021407Y024720D01*
X021401Y024700D01*
X021399Y024683D01*
X021398Y024674D01*
Y024667D01*
X021397Y024662D01*
Y024658D01*
Y024655D01*
Y024654D01*
X021399Y024626D01*
X021404Y024600D01*
X021409Y024579D01*
X021417Y024560D01*
X021424Y024547D01*
X021430Y024536D01*
X021434Y024531D01*
X021436Y024529D01*
X021452Y024514D01*
X021467Y024504D01*
X021483Y024497D01*
X021499Y024491D01*
X021512Y024488D01*
X021522Y024487D01*
X021526Y024486D01*
X021531D01*
X021552Y024488D01*
X021571Y024493D01*
X021587Y024499D01*
X021600Y024508D01*
X021612Y024516D01*
X021621Y024522D01*
X021625Y024526D01*
X021628Y024529D01*
X021641Y024546D01*
X021649Y024567D01*
X021656Y024588D01*
X021662Y024608D01*
X021664Y024626D01*
X021665Y024634D01*
Y024641D01*
X021666Y024647D01*
Y024651D01*
Y024653D01*
Y024654D01*
X021664Y024683D01*
X021659Y024708D01*
X021654Y024730D01*
X021646Y024747D01*
X021640Y024760D01*
X021633Y024771D01*
X021629Y024777D01*
X021628Y024779D01*
X021612Y024793D01*
X021596Y024804D01*
X021580Y024812D01*
X021564Y024817D01*
X021551Y024820D01*
X021541Y024822D01*
X021537Y024823D01*
D02*
G37*
G36*
X016718D02*
X016712D01*
X016692Y024820D01*
X016673Y024816D01*
X016658Y024808D01*
X016644Y024801D01*
X016633Y024793D01*
X016624Y024785D01*
X016619Y024781D01*
X016617Y024779D01*
X016604Y024761D01*
X016594Y024741D01*
X016588Y024720D01*
X016582Y024700D01*
X016580Y024683D01*
X016579Y024674D01*
Y024667D01*
X016578Y024662D01*
Y024658D01*
Y024655D01*
Y024654D01*
X016580Y024626D01*
X016585Y024600D01*
X016590Y024579D01*
X016598Y024560D01*
X016605Y024547D01*
X016611Y024536D01*
X016615Y024531D01*
X016617Y024529D01*
X016633Y024514D01*
X016648Y024504D01*
X016664Y024497D01*
X016680Y024491D01*
X016693Y024488D01*
X016703Y024487D01*
X016707Y024486D01*
X016712D01*
X016733Y024488D01*
X016752Y024493D01*
X016768Y024499D01*
X016781Y024508D01*
X016793Y024516D01*
X016802Y024522D01*
X016806Y024526D01*
X016809Y024529D01*
X016822Y024546D01*
X016830Y024567D01*
X016837Y024588D01*
X016842Y024608D01*
X016845Y024626D01*
X016846Y024634D01*
Y024641D01*
X016847Y024647D01*
Y024651D01*
Y024653D01*
Y024654D01*
X016845Y024683D01*
X016840Y024708D01*
X016835Y024730D01*
X016827Y024747D01*
X016821Y024760D01*
X016814Y024771D01*
X016810Y024777D01*
X016809Y024779D01*
X016793Y024793D01*
X016777Y024804D01*
X016760Y024812D01*
X016745Y024817D01*
X016732Y024820D01*
X016722Y024822D01*
X016718Y024823D01*
D02*
G37*
G36*
X014838Y015487D02*
X014541D01*
X014525Y015485D01*
X014484D01*
X014467Y015483D01*
X014456D01*
X014451Y015481D01*
X014449D01*
X014427Y015476D01*
X014406Y015468D01*
X014390Y015461D01*
X014377Y015452D01*
X014366Y015443D01*
X014356Y015437D01*
X014353Y015431D01*
X014351Y015430D01*
X014340Y015415D01*
X014330Y015396D01*
X014325Y015380D01*
X014319Y015363D01*
X014318Y015348D01*
X014316Y015337D01*
Y015330D01*
Y015326D01*
X014318Y015306D01*
X014319Y015287D01*
X014325Y015270D01*
X014329Y015256D01*
X014334Y015244D01*
X014340Y015237D01*
X014342Y015231D01*
X014343Y015230D01*
X014355Y015217D01*
X014366Y015206D01*
X014390Y015189D01*
X014399Y015183D01*
X014408Y015180D01*
X014414Y015176D01*
X014416D01*
X014425Y015174D01*
X014440Y015170D01*
X014454Y015169D01*
X014471Y015167D01*
X014510Y015165D01*
X014549Y015163D01*
X014586Y015161D01*
X014838D01*
Y015487D01*
D02*
G37*
G36*
X022816Y024829D02*
X022814D01*
X022794Y024827D01*
X022777Y024823D01*
X022762Y024816D01*
X022750Y024808D01*
X022739Y024801D01*
X022733Y024794D01*
X022727Y024790D01*
X022726Y024788D01*
X022720Y024779D01*
X022714Y024770D01*
X022705Y024749D01*
X022700Y024726D01*
X022695Y024705D01*
X022693Y024684D01*
X022692Y024675D01*
X022691Y024667D01*
Y024661D01*
Y024657D01*
Y024653D01*
Y024652D01*
Y024636D01*
X022692Y024622D01*
X022694Y024607D01*
X022697Y024594D01*
X022702Y024572D01*
X022709Y024555D01*
X022715Y024541D01*
X022721Y024531D01*
X022725Y024525D01*
X022726Y024523D01*
X022739Y024510D01*
X022753Y024500D01*
X022767Y024493D01*
X022780Y024488D01*
X022791Y024485D01*
X022800Y024484D01*
X022806Y024483D01*
X022808D01*
X022820Y024484D01*
X022831Y024485D01*
X022851Y024491D01*
X022868Y024500D01*
X022882Y024511D01*
X022894Y024522D01*
X022903Y024531D01*
X022908Y024537D01*
X022910Y024538D01*
Y024540D01*
X022918Y024557D01*
X022925Y024577D01*
X022929Y024598D01*
X022933Y024617D01*
X022935Y024636D01*
Y024645D01*
X022936Y024651D01*
Y024658D01*
Y024662D01*
Y024664D01*
Y024665D01*
X022935Y024695D01*
X022930Y024720D01*
X022925Y024741D01*
X022918Y024758D01*
X022913Y024771D01*
X022908Y024781D01*
X022903Y024787D01*
X022902Y024789D01*
X022888Y024802D01*
X022874Y024812D01*
X022858Y024819D01*
X022844Y024824D01*
X022832Y024827D01*
X022822Y024828D01*
X022816Y024829D01*
D02*
G37*
G36*
X020011Y024642D02*
X020010D01*
Y024613D01*
Y024595D01*
X020011Y024580D01*
X020012Y024568D01*
X020013Y024558D01*
X020014Y024552D01*
X020015Y024546D01*
X020017Y024544D01*
Y024543D01*
X020020Y024533D01*
X020025Y024523D01*
X020031Y024516D01*
X020036Y024508D01*
X020042Y024502D01*
X020046Y024498D01*
X020049Y024496D01*
X020050Y024495D01*
X020064Y024486D01*
X020078Y024481D01*
X020090Y024476D01*
X020102Y024473D01*
X020112Y024471D01*
X020119Y024470D01*
X020126D01*
X020138Y024471D01*
X020150Y024473D01*
X020160Y024476D01*
X020167Y024481D01*
X020175Y024485D01*
X020179Y024488D01*
X020183Y024490D01*
X020184Y024491D01*
X020191Y024500D01*
X020197Y024509D01*
X020200Y024518D01*
X020202Y024526D01*
X020205Y024533D01*
X020206Y024538D01*
Y024543D01*
Y024544D01*
X020205Y024555D01*
X020201Y024565D01*
X020197Y024573D01*
X020191Y024581D01*
X020187Y024587D01*
X020183Y024591D01*
X020179Y024593D01*
X020178Y024594D01*
X020170Y024599D01*
X020159Y024604D01*
X020146Y024608D01*
X020132Y024612D01*
X020119Y024615D01*
X020109Y024617D01*
X020105Y024618D01*
X020102Y024619D01*
X020100D01*
X020078Y024624D01*
X020060Y024628D01*
X020044Y024632D01*
X020032Y024636D01*
X020022Y024639D01*
X020015Y024640D01*
X020011Y024642D01*
D02*
G37*
G36*
X019292Y021070D02*
X019282D01*
X019274Y021069D01*
X019265Y021067D01*
X019255Y021066D01*
X019243Y021064D01*
X019231Y021061D01*
X019203Y021053D01*
X019189Y021048D01*
X019174Y021040D01*
X019160Y021032D01*
X019147Y021024D01*
X019132Y021013D01*
X019120Y021001D01*
X019119Y021000D01*
X019118Y020999D01*
X019115Y020995D01*
X019112Y020991D01*
X019103Y020980D01*
X019093Y020965D01*
X019083Y020946D01*
X019076Y020924D01*
X019069Y020900D01*
X019068Y020888D01*
X019067Y020875D01*
Y020874D01*
Y020871D01*
X019068Y020865D01*
X019069Y020859D01*
X019070Y020850D01*
X019072Y020840D01*
X019076Y020829D01*
X019080Y020817D01*
X019087Y020805D01*
X019093Y020792D01*
X019102Y020779D01*
X019113Y020766D01*
X019126Y020753D01*
X019140Y020740D01*
X019156Y020728D01*
X019176Y020716D01*
X019175D01*
X019173Y020714D01*
X019170D01*
X019165Y020712D01*
X019153Y020709D01*
X019139Y020702D01*
X019123Y020694D01*
X019105Y020683D01*
X019088Y020669D01*
X019072Y020652D01*
X019070Y020650D01*
X019066Y020643D01*
X019060Y020634D01*
X019053Y020619D01*
X019045Y020603D01*
X019040Y020582D01*
X019035Y020560D01*
X019033Y020535D01*
Y020534D01*
Y020531D01*
Y020525D01*
X019034Y020519D01*
X019035Y020510D01*
X019037Y020500D01*
X019040Y020488D01*
X019042Y020476D01*
X019050Y020450D01*
X019057Y020436D01*
X019064Y020420D01*
X019072Y020406D01*
X019082Y020392D01*
X019093Y020378D01*
X019106Y020365D01*
X019107Y020364D01*
X019109Y020361D01*
X019114Y020358D01*
X019119Y020354D01*
X019127Y020348D01*
X019135Y020343D01*
X019146Y020336D01*
X019156Y020330D01*
X019168Y020323D01*
X019183Y020317D01*
X019198Y020311D01*
X019213Y020306D01*
X019231Y020301D01*
X019248Y020298D01*
X019268Y020296D01*
X019288Y020295D01*
X019297D01*
X019305Y020296D01*
X019314Y020297D01*
X019324Y020298D01*
X019335Y020300D01*
X019348Y020302D01*
X019374Y020309D01*
X019402Y020320D01*
X019418Y020326D01*
X019431Y020334D01*
X019445Y020344D01*
X019458Y020354D01*
X019459Y020355D01*
X019461Y020357D01*
X019465Y020360D01*
X019469Y020365D01*
X019475Y020370D01*
X019480Y020378D01*
X019487Y020385D01*
X019493Y020395D01*
X019500Y020406D01*
X019507Y020417D01*
X019519Y020443D01*
X019529Y020474D01*
X019534Y020490D01*
X019536Y020508D01*
X019396Y020525D01*
Y020524D01*
Y020523D01*
X019395Y020517D01*
X019393Y020507D01*
X019389Y020495D01*
X019384Y020482D01*
X019378Y020467D01*
X019370Y020454D01*
X019360Y020442D01*
X019359Y020441D01*
X019354Y020438D01*
X019348Y020434D01*
X019340Y020429D01*
X019329Y020424D01*
X019317Y020419D01*
X019304Y020416D01*
X019289Y020415D01*
X019287D01*
X019281Y020416D01*
X019273Y020417D01*
X019262Y020419D01*
X019250Y020424D01*
X019238Y020429D01*
X019225Y020438D01*
X019213Y020449D01*
X019212Y020450D01*
X019208Y020455D01*
X019203Y020463D01*
X019197Y020473D01*
X019191Y020486D01*
X019186Y020502D01*
X019183Y020521D01*
X019182Y020542D01*
Y020543D01*
Y020544D01*
Y020550D01*
X019183Y020560D01*
X019185Y020573D01*
X019189Y020588D01*
X019195Y020602D01*
X019202Y020616D01*
X019212Y020629D01*
X019213Y020630D01*
X019218Y020635D01*
X019224Y020640D01*
X019232Y020646D01*
X019243Y020652D01*
X019255Y020656D01*
X019268Y020661D01*
X019283Y020662D01*
X019294D01*
X019302Y020661D01*
X019312Y020660D01*
X019324Y020658D01*
X019336Y020654D01*
X019350Y020651D01*
X019335Y020768D01*
X019325D01*
X019314Y020769D01*
X019301Y020770D01*
X019287Y020773D01*
X019271Y020778D01*
X019257Y020784D01*
X019244Y020793D01*
X019243Y020794D01*
X019238Y020799D01*
X019234Y020804D01*
X019227Y020813D01*
X019222Y020823D01*
X019217Y020835D01*
X019213Y020849D01*
X019212Y020865D01*
Y020867D01*
Y020872D01*
X019213Y020878D01*
X019215Y020887D01*
X019218Y020897D01*
X019222Y020907D01*
X019227Y020918D01*
X019235Y020926D01*
X019236Y020928D01*
X019240Y020930D01*
X019244Y020934D01*
X019252Y020938D01*
X019260Y020942D01*
X019270Y020946D01*
X019283Y020948D01*
X019296Y020949D01*
X019303D01*
X019309Y020948D01*
X019318Y020946D01*
X019328Y020943D01*
X019339Y020938D01*
X019350Y020932D01*
X019360Y020923D01*
X019361Y020922D01*
X019364Y020919D01*
X019368Y020912D01*
X019374Y020904D01*
X019379Y020894D01*
X019384Y020881D01*
X019388Y020865D01*
X019391Y020848D01*
X019525Y020870D01*
Y020871D01*
X019524Y020873D01*
Y020876D01*
X019523Y020882D01*
X019519Y020894D01*
X019515Y020910D01*
X019508Y020928D01*
X019502Y020946D01*
X019493Y020964D01*
X019483Y020980D01*
X019482Y020982D01*
X019478Y020987D01*
X019471Y020994D01*
X019462Y021004D01*
X019452Y021014D01*
X019438Y021025D01*
X019422Y021036D01*
X019405Y021046D01*
X019403D01*
X019402Y021047D01*
X019396Y021049D01*
X019385Y021053D01*
X019372Y021058D01*
X019355Y021062D01*
X019336Y021066D01*
X019315Y021069D01*
X019292Y021070D01*
D02*
G37*
G36*
X023725Y021055D02*
X023342D01*
Y020920D01*
X023616D01*
X023639Y020791D01*
X023638D01*
X023637Y020792D01*
X023630Y020795D01*
X023620Y020799D01*
X023608Y020804D01*
X023593Y020808D01*
X023577Y020812D01*
X023558Y020815D01*
X023539Y020816D01*
X023530D01*
X023523Y020815D01*
X023515Y020814D01*
X023505Y020813D01*
X023495Y020811D01*
X023483Y020807D01*
X023457Y020799D01*
X023443Y020793D01*
X023430Y020787D01*
X023416Y020778D01*
X023402Y020768D01*
X023389Y020757D01*
X023375Y020745D01*
X023374Y020744D01*
X023372Y020742D01*
X023369Y020737D01*
X023365Y020732D01*
X023360Y020725D01*
X023354Y020717D01*
X023348Y020707D01*
X023342Y020696D01*
X023335Y020684D01*
X023330Y020670D01*
X023323Y020654D01*
X023319Y020639D01*
X023314Y020622D01*
X023311Y020603D01*
X023309Y020583D01*
X023308Y020563D01*
Y020561D01*
Y020558D01*
Y020554D01*
X023309Y020547D01*
Y020538D01*
X023311Y020529D01*
X023312Y020518D01*
X023314Y020507D01*
X023321Y020481D01*
X023331Y020452D01*
X023337Y020437D01*
X023344Y020423D01*
X023352Y020408D01*
X023362Y020394D01*
X023363Y020393D01*
X023366Y020390D01*
X023370Y020385D01*
X023375Y020379D01*
X023383Y020371D01*
X023393Y020362D01*
X023404Y020354D01*
X023416Y020345D01*
X023430Y020335D01*
X023445Y020326D01*
X023462Y020318D01*
X023480Y020310D01*
X023500Y020303D01*
X023521Y020299D01*
X023544Y020296D01*
X023568Y020295D01*
X023578D01*
X023585Y020296D01*
X023594Y020297D01*
X023605Y020298D01*
X023616Y020299D01*
X023629Y020301D01*
X023655Y020308D01*
X023685Y020319D01*
X023699Y020324D01*
X023713Y020332D01*
X023726Y020341D01*
X023739Y020350D01*
X023740Y020352D01*
X023743Y020353D01*
X023746Y020356D01*
X023750Y020360D01*
X023755Y020367D01*
X023761Y020373D01*
X023767Y020381D01*
X023773Y020390D01*
X023781Y020401D01*
X023788Y020412D01*
X023800Y020438D01*
X023810Y020467D01*
X023814Y020484D01*
X023817Y020501D01*
X023673Y020517D01*
Y020514D01*
X023672Y020509D01*
X023669Y020499D01*
X023666Y020488D01*
X023662Y020476D01*
X023655Y020463D01*
X023647Y020451D01*
X023637Y020439D01*
X023636Y020438D01*
X023631Y020435D01*
X023625Y020430D01*
X023616Y020425D01*
X023606Y020419D01*
X023594Y020415D01*
X023580Y020412D01*
X023566Y020411D01*
X023563D01*
X023558Y020412D01*
X023549Y020413D01*
X023538Y020415D01*
X023526Y020419D01*
X023513Y020426D01*
X023500Y020436D01*
X023488Y020448D01*
X023487Y020450D01*
X023483Y020454D01*
X023478Y020463D01*
X023472Y020476D01*
X023466Y020491D01*
X023461Y020510D01*
X023457Y020533D01*
X023456Y020559D01*
Y020560D01*
Y020563D01*
Y020566D01*
Y020571D01*
X023457Y020583D01*
X023461Y020599D01*
X023464Y020616D01*
X023469Y020634D01*
X023477Y020650D01*
X023488Y020664D01*
X023489Y020665D01*
X023493Y020670D01*
X023501Y020675D01*
X023510Y020683D01*
X023522Y020689D01*
X023536Y020695D01*
X023552Y020699D01*
X023570Y020700D01*
X023577D01*
X023581Y020699D01*
X023592Y020697D01*
X023607Y020694D01*
X023625Y020687D01*
X023643Y020677D01*
X023653Y020671D01*
X023663Y020663D01*
X023673Y020654D01*
X023683Y020644D01*
X023800Y020661D01*
X023725Y021055D01*
D02*
G37*
G36*
X017205Y021065D02*
X017052D01*
Y020768D01*
X016754D01*
Y021065D01*
X016601D01*
Y020309D01*
X016754D01*
Y020640D01*
X017052D01*
Y020309D01*
X017205D01*
Y021065D01*
D02*
G37*
G36*
X021729D02*
X021576D01*
Y020768D01*
X021278D01*
Y021065D01*
X021125D01*
Y020309D01*
X021278D01*
Y020640D01*
X021576D01*
Y020309D01*
X021729D01*
Y021065D01*
D02*
G37*
G36*
X019866Y021070D02*
X019748D01*
Y020309D01*
X019893D01*
Y020857D01*
X019894Y020855D01*
X019896Y020853D01*
X019901Y020850D01*
X019907Y020845D01*
X019915Y020838D01*
X019924Y020831D01*
X019935Y020824D01*
X019947Y020815D01*
X019960Y020806D01*
X019974Y020798D01*
X019989Y020788D01*
X020006Y020779D01*
X020041Y020763D01*
X020080Y020747D01*
Y020878D01*
X020079D01*
X020078Y020879D01*
X020075Y020881D01*
X020070Y020882D01*
X020059Y020887D01*
X020044Y020894D01*
X020025Y020902D01*
X020005Y020914D01*
X019982Y020930D01*
X019958Y020947D01*
X019957Y020948D01*
X019954Y020949D01*
X019951Y020953D01*
X019947Y020957D01*
X019935Y020968D01*
X019922Y020982D01*
X019906Y021000D01*
X019891Y021022D01*
X019877Y021045D01*
X019866Y021070D01*
D02*
G37*
G36*
X018912Y020454D02*
X018766D01*
Y020309D01*
X018912D01*
Y020454D01*
D02*
G37*
G36*
X017680Y021079D02*
X017667D01*
X017657Y021078D01*
X017645Y021077D01*
X017631Y021076D01*
X017615Y021075D01*
X017599Y021072D01*
X017564Y021065D01*
X017528Y021054D01*
X017509Y021048D01*
X017492Y021040D01*
X017475Y021031D01*
X017460Y021020D01*
X017459Y021019D01*
X017457Y021018D01*
X017452Y021014D01*
X017447Y021010D01*
X017440Y021004D01*
X017434Y020996D01*
X017426Y020988D01*
X017417Y020978D01*
X017409Y020967D01*
X017400Y020955D01*
X017391Y020942D01*
X017384Y020926D01*
X017375Y020911D01*
X017368Y020895D01*
X017362Y020876D01*
X017357Y020858D01*
X017509Y020829D01*
Y020830D01*
X017510Y020831D01*
X017513Y020838D01*
X017517Y020848D01*
X017524Y020861D01*
X017531Y020875D01*
X017542Y020889D01*
X017555Y020904D01*
X017571Y020917D01*
X017573Y020918D01*
X017578Y020922D01*
X017588Y020928D01*
X017600Y020933D01*
X017616Y020940D01*
X017635Y020944D01*
X017656Y020948D01*
X017680Y020949D01*
X017690D01*
X017696Y020948D01*
X017705Y020947D01*
X017715Y020946D01*
X017726Y020944D01*
X017738Y020942D01*
X017763Y020934D01*
X017776Y020929D01*
X017789Y020922D01*
X017802Y020914D01*
X017815Y020907D01*
X017827Y020896D01*
X017839Y020885D01*
X017840Y020884D01*
X017842Y020882D01*
X017845Y020878D01*
X017848Y020873D01*
X017853Y020866D01*
X017858Y020859D01*
X017863Y020849D01*
X017868Y020838D01*
X017873Y020825D01*
X017879Y020811D01*
X017884Y020795D01*
X017889Y020779D01*
X017892Y020760D01*
X017895Y020740D01*
X017896Y020719D01*
X017897Y020696D01*
Y020695D01*
Y020690D01*
Y020683D01*
X017896Y020674D01*
X017895Y020662D01*
X017894Y020650D01*
X017892Y020635D01*
X017890Y020619D01*
X017883Y020587D01*
X017872Y020553D01*
X017866Y020536D01*
X017858Y020521D01*
X017848Y020506D01*
X017838Y020493D01*
X017837Y020491D01*
X017835Y020489D01*
X017832Y020486D01*
X017827Y020482D01*
X017821Y020477D01*
X017814Y020471D01*
X017806Y020465D01*
X017796Y020459D01*
X017785Y020452D01*
X017774Y020447D01*
X017746Y020436D01*
X017731Y020431D01*
X017716Y020428D01*
X017698Y020426D01*
X017681Y020425D01*
X017672D01*
X017663Y020426D01*
X017650Y020427D01*
X017636Y020429D01*
X017620Y020432D01*
X017602Y020437D01*
X017585Y020443D01*
X017584D01*
X017583Y020444D01*
X017577Y020447D01*
X017567Y020451D01*
X017556Y020456D01*
X017543Y020463D01*
X017529Y020471D01*
X017515Y020479D01*
X017502Y020489D01*
Y020587D01*
X017677D01*
Y020714D01*
X017348D01*
Y020411D01*
X017350Y020408D01*
X017353Y020406D01*
X017356Y020403D01*
X017362Y020399D01*
X017367Y020394D01*
X017383Y020383D01*
X017403Y020371D01*
X017427Y020357D01*
X017455Y020343D01*
X017487Y020330D01*
X017489D01*
X017492Y020329D01*
X017496Y020326D01*
X017503Y020324D01*
X017511Y020322D01*
X017521Y020319D01*
X017532Y020315D01*
X017544Y020312D01*
X017572Y020306D01*
X017603Y020300D01*
X017636Y020296D01*
X017671Y020295D01*
X017683D01*
X017691Y020296D01*
X017702D01*
X017714Y020297D01*
X017727Y020299D01*
X017742Y020301D01*
X017774Y020307D01*
X017809Y020315D01*
X017845Y020328D01*
X017861Y020335D01*
X017879Y020344D01*
X017880Y020345D01*
X017882Y020346D01*
X017887Y020349D01*
X017893Y020354D01*
X017901Y020358D01*
X017908Y020365D01*
X017918Y020372D01*
X017928Y020381D01*
X017950Y020401D01*
X017972Y020426D01*
X017992Y020454D01*
X018011Y020487D01*
Y020488D01*
X018013Y020491D01*
X018015Y020497D01*
X018018Y020503D01*
X018021Y020512D01*
X018025Y020522D01*
X018028Y020534D01*
X018033Y020547D01*
X018037Y020561D01*
X018041Y020578D01*
X018048Y020612D01*
X018053Y020649D01*
X018055Y020689D01*
Y020690D01*
Y020695D01*
Y020701D01*
X018054Y020709D01*
Y020720D01*
X018053Y020732D01*
X018050Y020745D01*
X018048Y020760D01*
X018043Y020792D01*
X018034Y020828D01*
X018022Y020864D01*
X018014Y020882D01*
X018006Y020899D01*
X018004Y020900D01*
X018003Y020904D01*
X018000Y020908D01*
X017997Y020914D01*
X017991Y020922D01*
X017985Y020931D01*
X017977Y020941D01*
X017969Y020952D01*
X017960Y020963D01*
X017949Y020975D01*
X017937Y020987D01*
X017924Y020999D01*
X017909Y021010D01*
X017895Y021022D01*
X017861Y021041D01*
X017860D01*
X017858Y021043D01*
X017854Y021045D01*
X017848Y021048D01*
X017840Y021050D01*
X017833Y021053D01*
X017822Y021057D01*
X017811Y021061D01*
X017799Y021064D01*
X017785Y021067D01*
X017769Y021071D01*
X017754Y021074D01*
X017719Y021078D01*
X017680Y021079D01*
D02*
G37*
G36*
X022986Y021070D02*
X022975D01*
X022968Y021069D01*
X022959Y021067D01*
X022948Y021065D01*
X022937Y021063D01*
X022924Y021060D01*
X022910Y021055D01*
X022897Y021050D01*
X022882Y021045D01*
X022868Y021037D01*
X022854Y021027D01*
X022840Y021017D01*
X022827Y021005D01*
X022815Y020991D01*
X022814Y020990D01*
X022811Y020987D01*
X022808Y020981D01*
X022803Y020973D01*
X022797Y020963D01*
X022791Y020949D01*
X022784Y020935D01*
X022778Y020917D01*
X022771Y020897D01*
X022763Y020874D01*
X022758Y020849D01*
X022752Y020820D01*
X022747Y020790D01*
X022744Y020757D01*
X022741Y020721D01*
X022740Y020682D01*
Y020681D01*
Y020679D01*
Y020676D01*
Y020672D01*
Y020661D01*
X022741Y020647D01*
X022743Y020629D01*
X022745Y020608D01*
X022747Y020587D01*
X022749Y020563D01*
X022754Y020537D01*
X022759Y020511D01*
X022764Y020486D01*
X022772Y020461D01*
X022780Y020436D01*
X022791Y020413D01*
X022802Y020391D01*
X022815Y020372D01*
X022816Y020371D01*
X022818Y020369D01*
X022821Y020365D01*
X022826Y020360D01*
X022832Y020355D01*
X022840Y020348D01*
X022850Y020341D01*
X022860Y020334D01*
X022872Y020326D01*
X022884Y020319D01*
X022898Y020312D01*
X022913Y020307D01*
X022929Y020302D01*
X022948Y020298D01*
X022967Y020296D01*
X022986Y020295D01*
X022991D01*
X022997Y020296D01*
X023005D01*
X023014Y020297D01*
X023025Y020299D01*
X023037Y020301D01*
X023050Y020306D01*
X023064Y020310D01*
X023078Y020315D01*
X023093Y020322D01*
X023108Y020331D01*
X023123Y020340D01*
X023137Y020352D01*
X023151Y020364D01*
X023164Y020379D01*
X023166Y020380D01*
X023168Y020383D01*
X023171Y020389D01*
X023174Y020395D01*
X023180Y020405D01*
X023185Y020417D01*
X023192Y020432D01*
X023197Y020449D01*
X023204Y020468D01*
X023210Y020490D01*
X023216Y020515D01*
X023220Y020543D01*
X023225Y020573D01*
X023228Y020607D01*
X023230Y020643D01*
X023231Y020683D01*
Y020684D01*
Y020685D01*
Y020688D01*
Y020693D01*
Y020703D01*
X023230Y020718D01*
X023229Y020735D01*
X023227Y020756D01*
X023225Y020778D01*
X023222Y020802D01*
X023218Y020827D01*
X023214Y020852D01*
X023207Y020878D01*
X023201Y020904D01*
X023192Y020928D01*
X023182Y020951D01*
X023171Y020972D01*
X023158Y020991D01*
X023157Y020992D01*
X023155Y020994D01*
X023151Y020999D01*
X023146Y021003D01*
X023140Y021010D01*
X023133Y021016D01*
X023123Y021023D01*
X023113Y021030D01*
X023101Y021038D01*
X023089Y021045D01*
X023075Y021051D01*
X023060Y021058D01*
X023043Y021062D01*
X023025Y021066D01*
X023006Y021069D01*
X022986Y021070D01*
D02*
G37*
G36*
X020456Y020656D02*
X020171D01*
Y020511D01*
X020456D01*
Y020656D01*
D02*
G37*
G36*
X016483Y020858D02*
X016029D01*
Y020755D01*
X016239Y020513D01*
X016312Y020434D01*
X016307D01*
X016303Y020435D01*
X016293D01*
X016281Y020436D01*
X016268D01*
X016256Y020437D01*
X016013D01*
Y020309D01*
X016503D01*
Y020424D01*
X016298Y020659D01*
X016297Y020660D01*
X016296Y020661D01*
X016290Y020669D01*
X016281Y020678D01*
X016270Y020690D01*
X016258Y020703D01*
X016245Y020718D01*
X016234Y020730D01*
X016223Y020741D01*
X016227D01*
X016234Y020740D01*
X016250D01*
X016262Y020738D01*
X016290D01*
X016483Y020737D01*
Y020858D01*
D02*
G37*
G36*
X018372Y021070D02*
X018363D01*
X018357Y021069D01*
X018350D01*
X018341Y021067D01*
X018321Y021063D01*
X018300Y021058D01*
X018276Y021049D01*
X018251Y021037D01*
X018241Y021029D01*
X018230Y021020D01*
X018228D01*
X018227Y021018D01*
X018224Y021015D01*
X018221Y021012D01*
X018215Y021006D01*
X018211Y021001D01*
X018199Y020985D01*
X018187Y020965D01*
X018175Y020941D01*
X018164Y020913D01*
X018156Y020881D01*
X018296Y020865D01*
Y020867D01*
X018297Y020872D01*
X018300Y020879D01*
X018302Y020889D01*
X018305Y020899D01*
X018310Y020910D01*
X018316Y020920D01*
X018324Y020929D01*
X018325Y020930D01*
X018328Y020932D01*
X018332Y020935D01*
X018339Y020940D01*
X018347Y020943D01*
X018356Y020946D01*
X018368Y020948D01*
X018380Y020949D01*
X018383D01*
X018388Y020948D01*
X018397Y020947D01*
X018408Y020944D01*
X018420Y020940D01*
X018433Y020932D01*
X018446Y020922D01*
X018458Y020908D01*
X018459Y020906D01*
X018461Y020904D01*
X018463Y020899D01*
X018466Y020895D01*
X018469Y020888D01*
X018471Y020881D01*
X018474Y020871D01*
X018479Y020860D01*
X018482Y020848D01*
X018485Y020834D01*
X018489Y020818D01*
X018492Y020801D01*
X018494Y020781D01*
X018496Y020759D01*
X018498Y020736D01*
X018497Y020737D01*
X018496Y020740D01*
X018493Y020742D01*
X018489Y020746D01*
X018483Y020752D01*
X018477Y020757D01*
X018461Y020769D01*
X018442Y020780D01*
X018419Y020791D01*
X018406Y020795D01*
X018392Y020798D01*
X018378Y020800D01*
X018363Y020801D01*
X018354D01*
X018348Y020800D01*
X018340Y020799D01*
X018331Y020798D01*
X018320Y020795D01*
X018309Y020792D01*
X018285Y020783D01*
X018272Y020778D01*
X018259Y020771D01*
X018246Y020764D01*
X018233Y020754D01*
X018220Y020743D01*
X018208Y020731D01*
X018207Y020730D01*
X018204Y020728D01*
X018201Y020724D01*
X018198Y020719D01*
X018192Y020711D01*
X018187Y020703D01*
X018182Y020694D01*
X018175Y020683D01*
X018168Y020671D01*
X018163Y020656D01*
X018157Y020642D01*
X018152Y020626D01*
X018149Y020610D01*
X018145Y020591D01*
X018143Y020572D01*
X018142Y020552D01*
Y020550D01*
Y020546D01*
Y020541D01*
X018143Y020532D01*
X018144Y020522D01*
X018145Y020511D01*
X018148Y020498D01*
X018151Y020485D01*
X018159Y020454D01*
X018164Y020439D01*
X018172Y020424D01*
X018179Y020408D01*
X018188Y020393D01*
X018199Y020378D01*
X018211Y020365D01*
X018212Y020364D01*
X018214Y020361D01*
X018218Y020358D01*
X018223Y020354D01*
X018230Y020348D01*
X018238Y020343D01*
X018247Y020336D01*
X018258Y020330D01*
X018270Y020323D01*
X018283Y020317D01*
X018297Y020311D01*
X018314Y020306D01*
X018330Y020301D01*
X018348Y020298D01*
X018366Y020296D01*
X018386Y020295D01*
X018391D01*
X018397Y020296D01*
X018404D01*
X018414Y020298D01*
X018426Y020299D01*
X018438Y020302D01*
X018453Y020306D01*
X018467Y020310D01*
X018482Y020317D01*
X018498Y020323D01*
X018514Y020332D01*
X018530Y020342D01*
X018545Y020354D01*
X018561Y020368D01*
X018575Y020383D01*
X018576Y020384D01*
X018578Y020388D01*
X018582Y020393D01*
X018586Y020401D01*
X018592Y020411D01*
X018598Y020423D01*
X018604Y020437D01*
X018611Y020453D01*
X018619Y020473D01*
X018625Y020494D01*
X018631Y020518D01*
X018636Y020545D01*
X018642Y020573D01*
X018645Y020605D01*
X018647Y020639D01*
X018648Y020676D01*
Y020677D01*
Y020678D01*
Y020682D01*
Y020685D01*
Y020696D01*
X018647Y020710D01*
X018646Y020728D01*
X018644Y020747D01*
X018642Y020769D01*
X018638Y020792D01*
X018635Y020816D01*
X018630Y020841D01*
X018623Y020866D01*
X018615Y020891D01*
X018607Y020914D01*
X018597Y020937D01*
X018585Y020958D01*
X018572Y020977D01*
X018571Y020978D01*
X018568Y020981D01*
X018564Y020985D01*
X018557Y020991D01*
X018550Y020999D01*
X018541Y021006D01*
X018530Y021015D01*
X018518Y021024D01*
X018504Y021031D01*
X018490Y021040D01*
X018472Y021048D01*
X018455Y021055D01*
X018436Y021061D01*
X018415Y021065D01*
X018395Y021069D01*
X018372Y021070D01*
D02*
G37*
G36*
X022613Y021065D02*
X022384D01*
X022249Y020548D01*
X022114Y021065D01*
X021885D01*
Y020309D01*
X022026D01*
X022027Y020904D01*
X022175Y020309D01*
X022323D01*
X022472Y020904D01*
Y020309D01*
X022613D01*
Y021065D01*
D02*
G37*
G36*
X021007Y020858D02*
X020553D01*
Y020755D01*
X020763Y020513D01*
X020836Y020434D01*
X020831D01*
X020827Y020435D01*
X020817D01*
X020805Y020436D01*
X020792D01*
X020780Y020437D01*
X020537D01*
Y020309D01*
X021027D01*
Y020424D01*
X020822Y020659D01*
X020821Y020660D01*
X020820Y020661D01*
X020813Y020669D01*
X020805Y020678D01*
X020794Y020690D01*
X020782Y020703D01*
X020769Y020718D01*
X020758Y020730D01*
X020747Y020741D01*
X020751D01*
X020758Y020740D01*
X020774D01*
X020786Y020738D01*
X020813D01*
X021007Y020737D01*
Y020858D01*
D02*
G37*
%LPD*%
G36*
X022996Y020948D02*
X023002Y020947D01*
X023009Y020945D01*
X023017Y020942D01*
X023026Y020937D01*
X023033Y020932D01*
X023034Y020931D01*
X023037Y020929D01*
X023040Y020924D01*
X023044Y020919D01*
X023050Y020910D01*
X023054Y020900D01*
X023060Y020887D01*
X023064Y020872D01*
Y020871D01*
X023065Y020870D01*
Y020865D01*
X023066Y020861D01*
X023067Y020854D01*
X023068Y020847D01*
X023069Y020838D01*
X023070Y020827D01*
X023073Y020814D01*
X023074Y020801D01*
X023075Y020784D01*
X023076Y020768D01*
X023077Y020748D01*
Y020729D01*
X023078Y020706D01*
Y020682D01*
Y020681D01*
Y020676D01*
Y020669D01*
Y020660D01*
Y020649D01*
X023077Y020637D01*
Y020623D01*
X023076Y020608D01*
X023075Y020578D01*
X023073Y020547D01*
X023072Y020533D01*
X023069Y020520D01*
X023067Y020508D01*
X023065Y020497D01*
X023064Y020495D01*
X023063Y020489D01*
X023060Y020481D01*
X023056Y020471D01*
X023051Y020460D01*
X023045Y020449D01*
X023039Y020439D01*
X023032Y020431D01*
X023031Y020430D01*
X023029Y020429D01*
X023025Y020426D01*
X023019Y020424D01*
X023013Y020420D01*
X023005Y020417D01*
X022996Y020416D01*
X022986Y020415D01*
X022982D01*
X022976Y020416D01*
X022971Y020417D01*
X022963Y020419D01*
X022956Y020422D01*
X022948Y020426D01*
X022940Y020431D01*
X022939Y020432D01*
X022937Y020435D01*
X022933Y020439D01*
X022928Y020446D01*
X022924Y020453D01*
X022919Y020464D01*
X022913Y020476D01*
X022909Y020491D01*
Y020493D01*
X022908Y020494D01*
Y020498D01*
X022907Y020502D01*
X022905Y020509D01*
X022904Y020517D01*
X022902Y020525D01*
X022901Y020536D01*
X022900Y020548D01*
X022898Y020563D01*
X022897Y020578D01*
X022896Y020595D01*
X022895Y020614D01*
Y020635D01*
X022893Y020658D01*
Y020682D01*
Y020683D01*
Y020687D01*
Y020695D01*
Y020703D01*
Y020714D01*
X022895Y020726D01*
Y020741D01*
X022896Y020755D01*
X022897Y020785D01*
X022899Y020815D01*
X022901Y020829D01*
X022903Y020843D01*
X022905Y020855D01*
X022908Y020865D01*
Y020866D01*
X022909Y020867D01*
X022910Y020873D01*
X022913Y020882D01*
X022916Y020893D01*
X022922Y020904D01*
X022927Y020914D01*
X022934Y020924D01*
X022940Y020932D01*
X022942Y020933D01*
X022944Y020935D01*
X022948Y020937D01*
X022954Y020941D01*
X022960Y020944D01*
X022968Y020947D01*
X022976Y020948D01*
X022986Y020949D01*
X022991D01*
X022996Y020948D01*
D02*
G37*
G36*
X018401Y020691D02*
X018411Y020689D01*
X018422Y020685D01*
X018434Y020679D01*
X018446Y020671D01*
X018457Y020660D01*
X018458Y020659D01*
X018461Y020653D01*
X018466Y020646D01*
X018471Y020636D01*
X018477Y020622D01*
X018481Y020605D01*
X018484Y020585D01*
X018485Y020563D01*
Y020561D01*
Y020559D01*
Y020556D01*
Y020550D01*
X018483Y020538D01*
X018481Y020522D01*
X018478Y020505D01*
X018472Y020486D01*
X018465Y020468D01*
X018454Y020453D01*
X018453Y020452D01*
X018448Y020448D01*
X018441Y020441D01*
X018432Y020435D01*
X018421Y020427D01*
X018409Y020422D01*
X018395Y020417D01*
X018379Y020415D01*
X018373D01*
X018365Y020417D01*
X018355Y020419D01*
X018345Y020423D01*
X018333Y020428D01*
X018322Y020436D01*
X018312Y020446D01*
X018310Y020447D01*
X018307Y020452D01*
X018303Y020460D01*
X018297Y020471D01*
X018293Y020485D01*
X018289Y020502D01*
X018285Y020524D01*
X018284Y020549D01*
Y020550D01*
Y020553D01*
Y020557D01*
Y020561D01*
X018285Y020575D01*
X018288Y020591D01*
X018292Y020608D01*
X018296Y020627D01*
X018304Y020644D01*
X018314Y020659D01*
X018315Y020660D01*
X018319Y020664D01*
X018325Y020670D01*
X018333Y020676D01*
X018344Y020683D01*
X018356Y020688D01*
X018371Y020693D01*
X018386Y020694D01*
X018392D01*
X018401Y020691D01*
D02*
G37*
%LPC*%
G36*
X018517Y024829D02*
X018509D01*
X018493Y024828D01*
X018479Y024824D01*
X018466Y024818D01*
X018455Y024813D01*
X018446Y024806D01*
X018439Y024801D01*
X018435Y024796D01*
X018434Y024795D01*
X018424Y024782D01*
X018415Y024767D01*
X018410Y024751D01*
X018405Y024735D01*
X018403Y024722D01*
X018402Y024710D01*
X018401Y024706D01*
Y024704D01*
Y024701D01*
Y024700D01*
X018617D01*
X018616Y024721D01*
X018613Y024740D01*
X018609Y024756D01*
X018602Y024769D01*
X018597Y024780D01*
X018591Y024788D01*
X018588Y024793D01*
X018587Y024794D01*
X018575Y024806D01*
X018562Y024815D01*
X018549Y024820D01*
X018537Y024825D01*
X018526Y024827D01*
X018517Y024829D01*
D02*
G37*
G36*
X023452D02*
X023444D01*
X023428Y024828D01*
X023414Y024824D01*
X023400Y024818D01*
X023390Y024813D01*
X023381Y024806D01*
X023374Y024801D01*
X023370Y024796D01*
X023369Y024795D01*
X023359Y024782D01*
X023350Y024767D01*
X023345Y024751D01*
X023340Y024735D01*
X023338Y024722D01*
X023337Y024710D01*
X023336Y024706D01*
Y024704D01*
Y024701D01*
Y024700D01*
X023552D01*
X023551Y024721D01*
X023548Y024740D01*
X023544Y024756D01*
X023537Y024769D01*
X023532Y024780D01*
X023526Y024788D01*
X023523Y024793D01*
X023522Y024794D01*
X023510Y024806D01*
X023497Y024815D01*
X023484Y024820D01*
X023472Y024825D01*
X023461Y024827D01*
X023452Y024829D01*
D02*
G37*
G36*
X023921Y017048D02*
X023752D01*
X023728Y017046D01*
X023706D01*
X023687Y017044D01*
X023671D01*
X023654Y017042D01*
X023641D01*
X023621Y017039D01*
X023606Y017037D01*
X023597Y017035D01*
X023595D01*
X023569Y017028D01*
X023547Y017018D01*
X023526Y017009D01*
X023508Y016998D01*
X023495Y016989D01*
X023484Y016981D01*
X023478Y016976D01*
X023476Y016974D01*
X023460Y016956D01*
X023445Y016935D01*
X023432Y016915D01*
X023421Y016896D01*
X023413Y016878D01*
X023408Y016863D01*
X023404Y016854D01*
X023402Y016852D01*
Y016850D01*
X023393Y016817D01*
X023386Y016782D01*
X023382Y016743D01*
X023378Y016706D01*
X023376Y016674D01*
X023374Y016659D01*
Y016646D01*
Y016637D01*
Y016630D01*
Y016624D01*
Y016622D01*
X023376Y016571D01*
X023378Y016522D01*
X023384Y016484D01*
X023387Y016450D01*
X023393Y016422D01*
X023395Y016411D01*
X023399Y016404D01*
X023400Y016396D01*
Y016391D01*
X023402Y016389D01*
Y016387D01*
X023413Y016358D01*
X023423Y016332D01*
X023436Y016311D01*
X023445Y016295D01*
X023454Y016282D01*
X023461Y016272D01*
X023467Y016267D01*
X023469Y016265D01*
X023486Y016252D01*
X023502Y016241D01*
X023519Y016232D01*
X023535Y016224D01*
X023550Y016219D01*
X023561Y016215D01*
X023569Y016211D01*
X023573D01*
X023593Y016208D01*
X023617Y016206D01*
X023643Y016202D01*
X023669D01*
X023693Y016200D01*
X023921D01*
Y017048D01*
D02*
G37*
G36*
X021435Y017052D02*
X021177D01*
X021157Y017050D01*
X021109D01*
X021098Y017048D01*
X021077D01*
X021070Y017046D01*
X021068D01*
X021046Y017042D01*
X021026Y017037D01*
X021009Y017030D01*
X020994Y017022D01*
X020985Y017015D01*
X020976Y017007D01*
X020972Y017004D01*
X020970Y017002D01*
X020959Y016987D01*
X020951Y016970D01*
X020944Y016956D01*
X020940Y016941D01*
X020939Y016926D01*
X020937Y016915D01*
Y016907D01*
Y016906D01*
X020939Y016883D01*
X020942Y016863D01*
X020950Y016846D01*
X020955Y016831D01*
X020963Y016819D01*
X020970Y016811D01*
X020974Y016806D01*
X020976Y016804D01*
X020990Y016791D01*
X021007Y016782D01*
X021024Y016774D01*
X021040Y016769D01*
X021057Y016763D01*
X021068Y016761D01*
X021076Y016759D01*
X021087D01*
X021098Y016757D01*
X021155D01*
X021187Y016756D01*
X021435D01*
Y017052D01*
D02*
G37*
G36*
Y016543D02*
X021166D01*
X021140Y016541D01*
X021118Y016539D01*
X021096D01*
X021077Y016537D01*
X021061Y016535D01*
X021048Y016533D01*
X021035Y016532D01*
X021026Y016530D01*
X021011Y016528D01*
X021001Y016524D01*
X021000D01*
X020981Y016517D01*
X020964Y016508D01*
X020950Y016498D01*
X020939Y016487D01*
X020929Y016480D01*
X020924Y016472D01*
X020920Y016467D01*
X020918Y016465D01*
X020909Y016448D01*
X020902Y016432D01*
X020896Y016417D01*
X020892Y016400D01*
X020890Y016387D01*
X020889Y016376D01*
Y016369D01*
Y016367D01*
X020890Y016343D01*
X020894Y016321D01*
X020900Y016302D01*
X020907Y016287D01*
X020914Y016274D01*
X020920Y016265D01*
X020924Y016260D01*
X020926Y016258D01*
X020940Y016245D01*
X020955Y016234D01*
X020972Y016224D01*
X020987Y016217D01*
X021000Y016213D01*
X021011Y016210D01*
X021018Y016208D01*
X021020D01*
X021027Y016206D01*
X021038D01*
X021063Y016204D01*
X021092Y016202D01*
X021122D01*
X021150Y016200D01*
X021435D01*
Y016543D01*
D02*
G37*
G36*
X018492Y023435D02*
X018485D01*
X018470Y023434D01*
X018455Y023429D01*
X018443Y023424D01*
X018433Y023417D01*
X018424Y023411D01*
X018418Y023405D01*
X018414Y023401D01*
X018413Y023400D01*
X018403Y023386D01*
X018395Y023368D01*
X018391Y023349D01*
X018387Y023332D01*
X018384Y023316D01*
X018383Y023302D01*
Y023298D01*
Y023294D01*
Y023292D01*
Y023290D01*
X018384Y023265D01*
X018388Y023243D01*
X018392Y023226D01*
X018396Y023212D01*
X018402Y023201D01*
X018406Y023193D01*
X018410Y023188D01*
X018411Y023187D01*
X018422Y023177D01*
X018433Y023169D01*
X018445Y023164D01*
X018454Y023160D01*
X018464Y023158D01*
X018472Y023156D01*
X018478D01*
X018494Y023158D01*
X018508Y023163D01*
X018520Y023168D01*
X018531Y023176D01*
X018540Y023182D01*
X018547Y023189D01*
X018552Y023193D01*
X018553Y023194D01*
X018564Y023210D01*
X018571Y023227D01*
X018577Y023246D01*
X018580Y023263D01*
X018582Y023280D01*
X018584Y023292D01*
Y023297D01*
Y023300D01*
Y023302D01*
Y023304D01*
X018583Y023327D01*
X018580Y023346D01*
X018576Y023363D01*
X018570Y023377D01*
X018565Y023387D01*
X018560Y023394D01*
X018557Y023400D01*
X018556Y023401D01*
X018545Y023412D01*
X018533Y023421D01*
X018521Y023426D01*
X018510Y023430D01*
X018500Y023433D01*
X018492Y023435D01*
D02*
G37*
G36*
X019683Y023691D02*
X019679D01*
X019669Y023689D01*
X019660Y023688D01*
X019652Y023685D01*
X019646Y023682D01*
X019640Y023678D01*
X019636Y023676D01*
X019634Y023674D01*
X019633Y023673D01*
X019626Y023665D01*
X019620Y023656D01*
X019614Y023645D01*
X019609Y023634D01*
X019605Y023623D01*
X019602Y023614D01*
X019601Y023609D01*
X019600Y023607D01*
Y023606D01*
X019598Y023596D01*
X019595Y023584D01*
X019593Y023570D01*
X019591Y023556D01*
X019589Y023527D01*
X019588Y023496D01*
X019587Y023482D01*
Y023468D01*
X019586Y023456D01*
Y023445D01*
Y023436D01*
Y023428D01*
Y023424D01*
Y023423D01*
Y023399D01*
X019587Y023376D01*
Y023355D01*
X019588Y023336D01*
X019589Y023319D01*
X019590Y023304D01*
X019592Y023289D01*
X019593Y023277D01*
X019594Y023266D01*
X019597Y023258D01*
X019598Y023250D01*
X019599Y023243D01*
X019600Y023239D01*
Y023235D01*
X019601Y023234D01*
Y023233D01*
X019605Y023217D01*
X019611Y023205D01*
X019616Y023194D01*
X019621Y023187D01*
X019625Y023180D01*
X019629Y023176D01*
X019632Y023174D01*
X019633Y023172D01*
X019640Y023167D01*
X019648Y023163D01*
X019656Y023160D01*
X019663Y023158D01*
X019669Y023157D01*
X019674Y023156D01*
X019679D01*
X019688Y023157D01*
X019697Y023158D01*
X019705Y023161D01*
X019711Y023165D01*
X019717Y023167D01*
X019721Y023170D01*
X019723Y023171D01*
X019724Y023172D01*
X019731Y023180D01*
X019738Y023190D01*
X019743Y023201D01*
X019749Y023212D01*
X019752Y023222D01*
X019755Y023230D01*
X019756Y023236D01*
X019757Y023238D01*
X019759Y023249D01*
X019762Y023261D01*
X019764Y023274D01*
X019765Y023288D01*
X019767Y023319D01*
X019768Y023349D01*
X019769Y023364D01*
Y023378D01*
X019770Y023390D01*
Y023401D01*
Y023410D01*
Y023417D01*
Y023422D01*
Y023423D01*
Y023447D01*
X019769Y023470D01*
Y023489D01*
X019768Y023509D01*
X019767Y023525D01*
X019766Y023542D01*
X019765Y023555D01*
X019763Y023568D01*
X019762Y023579D01*
X019761Y023588D01*
X019759Y023595D01*
X019758Y023602D01*
X019757Y023606D01*
Y023611D01*
X019756Y023612D01*
Y023613D01*
X019752Y023628D01*
X019746Y023641D01*
X019742Y023651D01*
X019736Y023660D01*
X019732Y023665D01*
X019729Y023670D01*
X019727Y023672D01*
X019726Y023673D01*
X019718Y023678D01*
X019709Y023683D01*
X019702Y023686D01*
X019694Y023688D01*
X019688Y023689D01*
X019683Y023691D01*
D02*
G37*
G36*
X019465Y024826D02*
X019462D01*
X019444Y024824D01*
X019427Y024819D01*
X019413Y024813D01*
X019401Y024805D01*
X019391Y024796D01*
X019384Y024790D01*
X019378Y024785D01*
X019377Y024783D01*
X019365Y024766D01*
X019356Y024746D01*
X019351Y024724D01*
X019347Y024704D01*
X019344Y024685D01*
X019343Y024677D01*
X019342Y024670D01*
Y024664D01*
Y024660D01*
Y024657D01*
Y024655D01*
Y024639D01*
X019343Y024624D01*
X019345Y024610D01*
X019348Y024596D01*
X019350Y024584D01*
X019353Y024573D01*
X019356Y024564D01*
X019359Y024555D01*
X019365Y024541D01*
X019371Y024531D01*
X019375Y024525D01*
X019376Y024523D01*
X019389Y024510D01*
X019403Y024500D01*
X019418Y024493D01*
X019431Y024488D01*
X019443Y024485D01*
X019451Y024484D01*
X019458Y024483D01*
X019460D01*
X019479Y024485D01*
X019496Y024489D01*
X019512Y024497D01*
X019524Y024505D01*
X019535Y024512D01*
X019542Y024520D01*
X019547Y024524D01*
X019549Y024526D01*
X019555Y024535D01*
X019561Y024545D01*
X019569Y024566D01*
X019576Y024589D01*
X019580Y024612D01*
X019583Y024631D01*
X019584Y024640D01*
Y024648D01*
X019585Y024654D01*
Y024659D01*
Y024662D01*
Y024663D01*
X019584Y024692D01*
X019579Y024716D01*
X019574Y024736D01*
X019567Y024754D01*
X019562Y024767D01*
X019556Y024777D01*
X019552Y024782D01*
X019551Y024784D01*
X019537Y024799D01*
X019523Y024808D01*
X019507Y024816D01*
X019493Y024820D01*
X019481Y024824D01*
X019471Y024825D01*
X019465Y024826D01*
D02*
G37*
G36*
X017559Y017048D02*
X017390D01*
X017366Y017046D01*
X017344D01*
X017325Y017044D01*
X017309D01*
X017292Y017042D01*
X017279D01*
X017259Y017039D01*
X017244Y017037D01*
X017235Y017035D01*
X017233D01*
X017207Y017028D01*
X017185Y017018D01*
X017164Y017009D01*
X017146Y016998D01*
X017133Y016989D01*
X017122Y016981D01*
X017116Y016976D01*
X017114Y016974D01*
X017098Y016956D01*
X017083Y016935D01*
X017070Y016915D01*
X017059Y016896D01*
X017051Y016878D01*
X017046Y016863D01*
X017042Y016854D01*
X017040Y016852D01*
Y016850D01*
X017031Y016817D01*
X017024Y016782D01*
X017020Y016743D01*
X017016Y016706D01*
X017014Y016674D01*
X017013Y016659D01*
Y016646D01*
Y016637D01*
Y016630D01*
Y016624D01*
Y016622D01*
X017014Y016571D01*
X017016Y016522D01*
X017022Y016484D01*
X017026Y016450D01*
X017031Y016422D01*
X017033Y016411D01*
X017037Y016404D01*
X017038Y016396D01*
Y016391D01*
X017040Y016389D01*
Y016387D01*
X017051Y016358D01*
X017061Y016332D01*
X017074Y016311D01*
X017083Y016295D01*
X017092Y016282D01*
X017100Y016272D01*
X017105Y016267D01*
X017107Y016265D01*
X017124Y016252D01*
X017140Y016241D01*
X017157Y016232D01*
X017174Y016224D01*
X017188Y016219D01*
X017200Y016215D01*
X017207Y016211D01*
X017211D01*
X017231Y016208D01*
X017255Y016206D01*
X017281Y016202D01*
X017307D01*
X017331Y016200D01*
X017559D01*
Y017048D01*
D02*
G37*
G36*
X015769D02*
X015473D01*
X015456Y017046D01*
X015415D01*
X015398Y017044D01*
X015387D01*
X015382Y017042D01*
X015380D01*
X015358Y017037D01*
X015337Y017030D01*
X015321Y017022D01*
X015308Y017013D01*
X015297Y017004D01*
X015287Y016998D01*
X015284Y016993D01*
X015282Y016991D01*
X015271Y016976D01*
X015262Y016957D01*
X015256Y016941D01*
X015250Y016924D01*
X015249Y016909D01*
X015247Y016898D01*
Y016891D01*
Y016887D01*
X015249Y016867D01*
X015250Y016848D01*
X015256Y016831D01*
X015260Y016817D01*
X015265Y016806D01*
X015271Y016798D01*
X015273Y016793D01*
X015274Y016791D01*
X015286Y016778D01*
X015297Y016767D01*
X015321Y016750D01*
X015330Y016744D01*
X015339Y016741D01*
X015345Y016737D01*
X015347D01*
X015356Y016735D01*
X015371Y016732D01*
X015386Y016730D01*
X015402Y016728D01*
X015441Y016726D01*
X015480Y016724D01*
X015517Y016722D01*
X015769D01*
Y017048D01*
D02*
G37*
G36*
X019902Y016967D02*
X019722Y016491D01*
X020076D01*
X019902Y016967D01*
D02*
G37*
%LPD*%
D47*
X014780Y012550D02*
X015790D01*
X014780Y012090D02*
X015790D01*
X014780D02*
Y012550D01*
X015790Y012090D02*
Y012550D01*
D51*
X014561Y012394D02*
X014542Y012404D01*
X014524Y012423D01*
X014514Y012441D01*
Y012479D01*
X014524Y012498D01*
X014542Y012516D01*
X014561Y012526D01*
X014589Y012535D01*
X014636D01*
X014664Y012526D01*
X014683Y012516D01*
X014702Y012498D01*
X014711Y012479D01*
Y012441D01*
X014702Y012423D01*
X014683Y012404D01*
X014664Y012394D01*
X014561Y012330D02*
X014552D01*
X014533Y012320D01*
X014524Y012311D01*
X014514Y012292D01*
Y012255D01*
X014524Y012236D01*
X014533Y012227D01*
X014552Y012217D01*
X014571D01*
X014589Y012227D01*
X014617Y012245D01*
X014711Y012339D01*
Y012208D01*
X014552Y012164D02*
X014542Y012145D01*
X014514Y012117D01*
X014711D01*
M02*
