G04 Layer_Color=8421504*
%FSAX24Y24*%
%MOIN*%
G70*
G01*
G75*
%ADD12R,0.0300X0.0300*%
%ADD13R,0.0300X0.0300*%
%ADD14R,0.0500X0.0600*%
%ADD15R,0.0709X0.0787*%
%ADD16R,0.0900X0.2000*%
%ADD17R,0.2000X0.0900*%
%ADD18O,0.0256X0.0650*%
%ADD19R,0.1220X0.0949*%
%ADD20O,0.0650X0.0256*%
%ADD21R,0.0949X0.1220*%
%ADD22R,0.0500X0.0400*%
%ADD23R,0.0400X0.0500*%
%ADD24R,0.1437X0.1437*%
%ADD25O,0.0098X0.0374*%
%ADD26O,0.0374X0.0098*%
%ADD27R,0.0228X0.0252*%
D12*
X022250Y019900D02*
D03*
Y020450D02*
D03*
X016830Y024500D02*
D03*
Y023950D02*
D03*
X015396Y023929D02*
D03*
Y024479D02*
D03*
X014000Y024485D02*
D03*
Y023935D02*
D03*
X021750Y019500D02*
D03*
Y020050D02*
D03*
X019260Y020370D02*
D03*
Y019820D02*
D03*
X021250Y020500D02*
D03*
Y019950D02*
D03*
X020580Y020800D02*
D03*
Y020250D02*
D03*
Y022350D02*
D03*
Y021800D02*
D03*
X022480Y023250D02*
D03*
Y023800D02*
D03*
Y024850D02*
D03*
Y024300D02*
D03*
X018290Y024490D02*
D03*
Y023940D02*
D03*
X020080Y020800D02*
D03*
Y020250D02*
D03*
Y022350D02*
D03*
Y021800D02*
D03*
X016535Y012755D02*
D03*
Y012205D02*
D03*
X014880Y015310D02*
D03*
Y014760D02*
D03*
X022835Y012755D02*
D03*
Y012205D02*
D03*
X016810Y016300D02*
D03*
Y015750D02*
D03*
X021160Y013170D02*
D03*
Y012620D02*
D03*
X021760Y013165D02*
D03*
Y012615D02*
D03*
X018130Y013180D02*
D03*
Y012630D02*
D03*
X017660Y013175D02*
D03*
Y012625D02*
D03*
X014670Y018330D02*
D03*
Y017780D02*
D03*
X016380Y017940D02*
D03*
Y018490D02*
D03*
X028320Y021090D02*
D03*
Y020540D02*
D03*
X024380Y017760D02*
D03*
Y018310D02*
D03*
X022030Y017760D02*
D03*
Y018310D02*
D03*
X023930Y017760D02*
D03*
Y018310D02*
D03*
X022480Y017760D02*
D03*
Y018310D02*
D03*
X018860Y017010D02*
D03*
Y016460D02*
D03*
X023090Y017210D02*
D03*
Y016660D02*
D03*
D13*
X022050Y018950D02*
D03*
X022600D02*
D03*
X022250Y019450D02*
D03*
X022800D02*
D03*
X023100Y018950D02*
D03*
X023650D02*
D03*
X020050Y021300D02*
D03*
X020600D02*
D03*
X023250Y024850D02*
D03*
X023800D02*
D03*
X026418Y015945D02*
D03*
X026969D02*
D03*
X014505Y014150D02*
D03*
X013955D02*
D03*
X023000Y023780D02*
D03*
X023550D02*
D03*
X018700Y018800D02*
D03*
X018150D02*
D03*
X018700Y018350D02*
D03*
X018150D02*
D03*
X022020Y017310D02*
D03*
X022570D02*
D03*
X018700Y017450D02*
D03*
X018150D02*
D03*
X018700Y017900D02*
D03*
X018150D02*
D03*
X015230Y022170D02*
D03*
X015780D02*
D03*
X024000Y019780D02*
D03*
X024550D02*
D03*
X023920Y017310D02*
D03*
X024470D02*
D03*
X022930Y018310D02*
D03*
X023480D02*
D03*
X018200Y020480D02*
D03*
X018750D02*
D03*
D14*
X016240Y024360D02*
D03*
Y023460D02*
D03*
X014850Y024370D02*
D03*
Y023470D02*
D03*
X013450Y024385D02*
D03*
Y023485D02*
D03*
X017690Y024340D02*
D03*
Y023440D02*
D03*
D15*
X021780Y024754D02*
D03*
X020780D02*
D03*
X019780D02*
D03*
Y023100D02*
D03*
X020780D02*
D03*
X021780D02*
D03*
D16*
X016535Y010827D02*
D03*
X022835D02*
D03*
D17*
X028543Y015945D02*
D03*
D18*
X015290Y019218D02*
D03*
X015790D02*
D03*
X016290D02*
D03*
X016790D02*
D03*
X015290Y021442D02*
D03*
X015790D02*
D03*
X016290D02*
D03*
X016790D02*
D03*
D19*
X016040Y020330D02*
D03*
D20*
X025338Y021000D02*
D03*
Y020500D02*
D03*
Y020000D02*
D03*
Y019500D02*
D03*
X027562Y021000D02*
D03*
Y020500D02*
D03*
Y020000D02*
D03*
Y019500D02*
D03*
D21*
X026450Y020250D02*
D03*
D22*
X015790Y017630D02*
D03*
Y018430D02*
D03*
X014650Y019880D02*
D03*
Y020680D02*
D03*
D23*
X023680Y020360D02*
D03*
X024480D02*
D03*
X016300Y022270D02*
D03*
X017100D02*
D03*
X028300Y019800D02*
D03*
X029100D02*
D03*
X026020Y021610D02*
D03*
X026820D02*
D03*
D24*
X020450Y018450D02*
D03*
D25*
X019761Y019424D02*
D03*
X019958D02*
D03*
X020155D02*
D03*
X020352D02*
D03*
X020548D02*
D03*
X020745D02*
D03*
X020942D02*
D03*
X021139D02*
D03*
Y017476D02*
D03*
X020942D02*
D03*
X020745D02*
D03*
X020548D02*
D03*
X020352D02*
D03*
X020155D02*
D03*
X019958D02*
D03*
X019761D02*
D03*
D26*
X021424Y019139D02*
D03*
Y018942D02*
D03*
Y018745D02*
D03*
Y018548D02*
D03*
Y018352D02*
D03*
Y018155D02*
D03*
Y017958D02*
D03*
Y017761D02*
D03*
X019476D02*
D03*
Y017958D02*
D03*
Y018155D02*
D03*
Y018352D02*
D03*
Y018548D02*
D03*
Y018745D02*
D03*
Y018942D02*
D03*
Y019139D02*
D03*
D27*
X022377Y013380D02*
D03*
X022763D02*
D03*
X017000Y013450D02*
D03*
X016614D02*
D03*
M02*
