G04 Layer_Color=65535*
%FSAX24Y24*%
%MOIN*%
G70*
G01*
G75*
%ADD10C,0.0100*%
%ADD31C,0.0080*%
%ADD46C,0.0098*%
%ADD47C,0.0050*%
%ADD48C,0.0032*%
%ADD49C,0.0079*%
%ADD50C,0.0040*%
%ADD51C,0.0039*%
%ADD52C,0.0028*%
%ADD53R,0.1000X0.0996*%
G36*
X013657Y020032D02*
X013592Y019988D01*
X013591Y019988D01*
X013590Y019987D01*
X013588Y019986D01*
X013586Y019984D01*
X013583Y019983D01*
X013580Y019980D01*
X013573Y019976D01*
X013565Y019970D01*
X013558Y019965D01*
X013551Y019960D01*
X013549Y019958D01*
X013547Y019956D01*
X013547Y019956D01*
X013546Y019955D01*
X013544Y019953D01*
X013542Y019951D01*
X013540Y019948D01*
X013538Y019945D01*
X013536Y019941D01*
X013534Y019938D01*
Y019937D01*
X013534Y019936D01*
X013533Y019934D01*
X013533Y019930D01*
X013532Y019926D01*
X013531Y019921D01*
X013531Y019914D01*
Y019907D01*
Y019895D01*
X013657D01*
Y019834D01*
X013355D01*
Y019962D01*
Y019963D01*
Y019964D01*
Y019967D01*
Y019970D01*
X013355Y019974D01*
Y019979D01*
X013356Y019984D01*
Y019989D01*
X013357Y020001D01*
X013358Y020012D01*
X013360Y020023D01*
X013362Y020028D01*
X013363Y020032D01*
Y020033D01*
X013364Y020033D01*
X013365Y020036D01*
X013367Y020040D01*
X013370Y020045D01*
X013374Y020051D01*
X013379Y020056D01*
X013385Y020062D01*
X013392Y020067D01*
X013393D01*
X013393Y020068D01*
X013395Y020069D01*
X013396Y020070D01*
X013400Y020072D01*
X013406Y020074D01*
X013413Y020077D01*
X013421Y020079D01*
X013430Y020081D01*
X013440Y020081D01*
X013443D01*
X013445Y020081D01*
X013448D01*
X013451Y020080D01*
X013459Y020078D01*
X013468Y020076D01*
X013478Y020073D01*
X013487Y020067D01*
X013492Y020064D01*
X013496Y020061D01*
X013496Y020060D01*
X013497Y020060D01*
X013498Y020059D01*
X013499Y020057D01*
X013501Y020055D01*
X013503Y020053D01*
X013506Y020049D01*
X013508Y020046D01*
X013510Y020042D01*
X013513Y020037D01*
X013515Y020032D01*
X013517Y020027D01*
X013519Y020021D01*
X013521Y020015D01*
X013523Y020008D01*
X013524Y020001D01*
Y020001D01*
X013524Y020002D01*
X013526Y020004D01*
X013528Y020008D01*
X013531Y020012D01*
X013535Y020018D01*
X013539Y020023D01*
X013544Y020029D01*
X013549Y020033D01*
X013550Y020034D01*
X013552Y020036D01*
X013555Y020039D01*
X013561Y020043D01*
X013567Y020048D01*
X013572Y020050D01*
X013576Y020053D01*
X013581Y020057D01*
X013586Y020060D01*
X013592Y020064D01*
X013598Y020068D01*
X013657Y020105D01*
Y020032D01*
D02*
G37*
G36*
X013654Y018492D02*
X013454Y018369D01*
X013654D01*
Y018313D01*
X013351D01*
Y018372D01*
X013555Y018497D01*
X013351D01*
Y018553D01*
X013654D01*
Y018492D01*
D02*
G37*
G36*
X013617Y020691D02*
X013618Y020690D01*
X013620Y020689D01*
X013621Y020687D01*
X013623Y020684D01*
X013627Y020678D01*
X013632Y020670D01*
X013638Y020660D01*
X013644Y020649D01*
X013649Y020636D01*
Y020636D01*
X013649Y020635D01*
X013650Y020633D01*
X013651Y020630D01*
X013652Y020627D01*
X013653Y020623D01*
X013655Y020618D01*
X013656Y020614D01*
X013659Y020603D01*
X013661Y020590D01*
X013662Y020577D01*
X013663Y020563D01*
Y020563D01*
Y020561D01*
Y020558D01*
X013662Y020555D01*
Y020551D01*
X013662Y020546D01*
X013661Y020541D01*
X013660Y020535D01*
X013658Y020522D01*
X013655Y020508D01*
X013650Y020493D01*
X013647Y020487D01*
X013643Y020480D01*
X013643Y020480D01*
X013642Y020479D01*
X013641Y020476D01*
X013639Y020474D01*
X013638Y020471D01*
X013635Y020468D01*
X013632Y020464D01*
X013628Y020460D01*
X013620Y020452D01*
X013610Y020443D01*
X013599Y020434D01*
X013586Y020427D01*
X013586D01*
X013584Y020426D01*
X013582Y020425D01*
X013579Y020424D01*
X013576Y020423D01*
X013572Y020421D01*
X013567Y020420D01*
X013562Y020418D01*
X013556Y020417D01*
X013550Y020415D01*
X013536Y020412D01*
X013521Y020410D01*
X013505Y020410D01*
X013500D01*
X013497Y020410D01*
X013493D01*
X013488Y020410D01*
X013483Y020411D01*
X013477Y020412D01*
X013464Y020414D01*
X013450Y020418D01*
X013435Y020423D01*
X013428Y020426D01*
X013421Y020429D01*
X013421Y020430D01*
X013419Y020430D01*
X013418Y020431D01*
X013415Y020433D01*
X013412Y020435D01*
X013409Y020438D01*
X013405Y020441D01*
X013400Y020444D01*
X013396Y020448D01*
X013391Y020452D01*
X013386Y020457D01*
X013381Y020462D01*
X013377Y020468D01*
X013372Y020473D01*
X013364Y020487D01*
Y020487D01*
X013364Y020488D01*
X013363Y020490D01*
X013362Y020492D01*
X013361Y020495D01*
X013360Y020498D01*
X013358Y020503D01*
X013357Y020507D01*
X013355Y020512D01*
X013354Y020518D01*
X013353Y020524D01*
X013351Y020530D01*
X013350Y020544D01*
X013349Y020559D01*
Y020560D01*
Y020562D01*
Y020565D01*
X013350Y020569D01*
X013350Y020573D01*
X013350Y020579D01*
X013351Y020585D01*
X013352Y020592D01*
X013355Y020606D01*
X013359Y020620D01*
X013362Y020628D01*
X013365Y020635D01*
X013368Y020641D01*
X013373Y020647D01*
X013373Y020648D01*
X013374Y020649D01*
X013375Y020650D01*
X013377Y020653D01*
X013379Y020655D01*
X013382Y020658D01*
X013386Y020661D01*
X013390Y020664D01*
X013394Y020668D01*
X013399Y020671D01*
X013404Y020675D01*
X013410Y020678D01*
X013416Y020681D01*
X013423Y020684D01*
X013430Y020687D01*
X013438Y020688D01*
X013449Y020628D01*
X013449D01*
X013448Y020627D01*
X013446Y020626D01*
X013442Y020625D01*
X013437Y020622D01*
X013431Y020619D01*
X013425Y020615D01*
X013419Y020609D01*
X013414Y020603D01*
X013414Y020602D01*
X013412Y020600D01*
X013410Y020596D01*
X013408Y020591D01*
X013405Y020585D01*
X013403Y020577D01*
X013402Y020569D01*
X013401Y020559D01*
Y020559D01*
Y020558D01*
Y020556D01*
X013402Y020553D01*
X013402Y020549D01*
X013402Y020545D01*
X013403Y020541D01*
X013404Y020536D01*
X013407Y020526D01*
X013409Y020521D01*
X013412Y020516D01*
X013415Y020511D01*
X013418Y020505D01*
X013423Y020500D01*
X013427Y020496D01*
X013427Y020495D01*
X013428Y020495D01*
X013430Y020493D01*
X013432Y020492D01*
X013434Y020490D01*
X013437Y020488D01*
X013441Y020486D01*
X013446Y020484D01*
X013451Y020482D01*
X013457Y020480D01*
X013463Y020478D01*
X013469Y020476D01*
X013477Y020475D01*
X013485Y020473D01*
X013493Y020473D01*
X013503Y020473D01*
X013508D01*
X013511Y020473D01*
X013516Y020473D01*
X013521Y020474D01*
X013527Y020475D01*
X013533Y020476D01*
X013546Y020478D01*
X013560Y020483D01*
X013566Y020485D01*
X013572Y020488D01*
X013579Y020492D01*
X013584Y020496D01*
X013584Y020497D01*
X013585Y020497D01*
X013586Y020499D01*
X013588Y020500D01*
X013590Y020503D01*
X013593Y020506D01*
X013595Y020509D01*
X013597Y020513D01*
X013600Y020518D01*
X013602Y020522D01*
X013606Y020533D01*
X013608Y020539D01*
X013610Y020545D01*
X013610Y020552D01*
X013611Y020559D01*
Y020559D01*
Y020560D01*
Y020563D01*
X013610Y020566D01*
X013610Y020571D01*
X013609Y020577D01*
X013608Y020584D01*
X013606Y020591D01*
X013603Y020597D01*
Y020598D01*
X013603Y020598D01*
X013602Y020601D01*
X013600Y020604D01*
X013598Y020609D01*
X013596Y020614D01*
X013593Y020620D01*
X013589Y020625D01*
X013585Y020631D01*
X013546D01*
Y020561D01*
X013495D01*
Y020692D01*
X013617D01*
X013617Y020691D01*
D02*
G37*
G36*
X013657Y020139D02*
X013355D01*
Y020363D01*
X013406D01*
Y020200D01*
X013473D01*
Y020351D01*
X013524D01*
Y020200D01*
X013606D01*
Y020368D01*
X013657D01*
Y020139D01*
D02*
G37*
G36*
X013654Y018193D02*
X013351D01*
Y018254D01*
X013654D01*
Y018193D01*
D02*
G37*
G36*
X013451Y017487D02*
X013454D01*
X013460Y017486D01*
X013468Y017485D01*
X013476Y017483D01*
X013484Y017480D01*
X013491Y017477D01*
X013492Y017476D01*
X013494Y017475D01*
X013498Y017473D01*
X013502Y017470D01*
X013507Y017466D01*
X013512Y017461D01*
X013517Y017457D01*
X013521Y017451D01*
X013522Y017450D01*
X013523Y017448D01*
X013525Y017445D01*
X013527Y017441D01*
X013529Y017437D01*
X013532Y017431D01*
X013534Y017426D01*
X013536Y017419D01*
Y017419D01*
Y017419D01*
X013536Y017417D01*
Y017416D01*
X013536Y017413D01*
X013537Y017410D01*
X013537Y017407D01*
Y017403D01*
X013538Y017399D01*
X013538Y017395D01*
X013539Y017389D01*
X013539Y017384D01*
Y017378D01*
X013540Y017371D01*
Y017364D01*
Y017357D01*
Y017317D01*
X013654D01*
Y017256D01*
X013351D01*
Y017354D01*
Y017354D01*
Y017356D01*
Y017359D01*
Y017362D01*
Y017367D01*
X013352Y017372D01*
Y017378D01*
Y017383D01*
X013352Y017395D01*
X013353Y017408D01*
X013354Y017413D01*
X013354Y017418D01*
X013355Y017423D01*
X013356Y017426D01*
Y017426D01*
X013356Y017427D01*
X013357Y017429D01*
X013357Y017430D01*
X013359Y017435D01*
X013362Y017441D01*
X013366Y017448D01*
X013371Y017455D01*
X013378Y017462D01*
X013386Y017469D01*
X013386D01*
X013387Y017470D01*
X013388Y017471D01*
X013390Y017472D01*
X013392Y017474D01*
X013395Y017475D01*
X013398Y017477D01*
X013401Y017478D01*
X013410Y017482D01*
X013420Y017485D01*
X013432Y017486D01*
X013444Y017487D01*
X013449D01*
X013451Y017487D01*
D02*
G37*
G36*
Y017205D02*
X013454D01*
X013460Y017204D01*
X013468Y017203D01*
X013476Y017201D01*
X013484Y017198D01*
X013491Y017195D01*
X013492Y017194D01*
X013494Y017193D01*
X013498Y017191D01*
X013502Y017188D01*
X013507Y017184D01*
X013512Y017180D01*
X013517Y017175D01*
X013521Y017169D01*
X013522Y017168D01*
X013523Y017166D01*
X013525Y017163D01*
X013527Y017159D01*
X013529Y017155D01*
X013532Y017149D01*
X013534Y017144D01*
X013536Y017138D01*
Y017137D01*
Y017137D01*
X013536Y017135D01*
Y017134D01*
X013536Y017132D01*
X013537Y017128D01*
X013537Y017125D01*
Y017121D01*
X013538Y017118D01*
X013538Y017113D01*
X013539Y017107D01*
X013539Y017102D01*
Y017096D01*
X013540Y017089D01*
Y017082D01*
Y017075D01*
Y017035D01*
X013654D01*
Y016974D01*
X013351D01*
Y017072D01*
Y017072D01*
Y017074D01*
Y017077D01*
Y017080D01*
Y017085D01*
X013352Y017090D01*
Y017096D01*
Y017101D01*
X013352Y017114D01*
X013353Y017126D01*
X013354Y017131D01*
X013354Y017136D01*
X013355Y017141D01*
X013356Y017144D01*
Y017145D01*
X013356Y017145D01*
X013357Y017147D01*
X013357Y017149D01*
X013359Y017153D01*
X013362Y017159D01*
X013366Y017166D01*
X013371Y017173D01*
X013378Y017180D01*
X013386Y017187D01*
X013386D01*
X013387Y017188D01*
X013388Y017189D01*
X013390Y017190D01*
X013392Y017192D01*
X013395Y017193D01*
X013398Y017195D01*
X013401Y017197D01*
X013410Y017200D01*
X013420Y017203D01*
X013432Y017204D01*
X013444Y017205D01*
X013449D01*
X013451Y017205D01*
D02*
G37*
G36*
X013527Y017936D02*
X013654D01*
Y017875D01*
X013526D01*
X013351Y017764D01*
Y017836D01*
X013471Y017907D01*
X013351Y017976D01*
Y018047D01*
X013527Y017936D01*
D02*
G37*
G36*
X013654Y017539D02*
X013353D01*
Y017600D01*
X013602D01*
Y017752D01*
X013654D01*
Y017539D01*
D02*
G37*
G36*
X013657Y020748D02*
X013599D01*
Y020806D01*
X013657D01*
Y020748D01*
D02*
G37*
G36*
X014300Y009950D02*
X013220D01*
Y012560D01*
X014300D01*
Y009950D01*
D02*
G37*
G36*
X014250Y024714D02*
X013164D01*
Y025270D01*
X014250D01*
Y024714D01*
D02*
G37*
G36*
X026100Y009950D02*
X025020D01*
Y012560D01*
X026100D01*
Y009950D01*
D02*
G37*
G36*
X029460Y018200D02*
X026850D01*
Y019050D01*
X029460D01*
Y018200D01*
D02*
G37*
G36*
X013300Y018696D02*
Y018090D01*
Y017070D01*
Y016080D01*
Y015080D01*
Y014120D01*
Y013070D01*
X011190D01*
Y014150D01*
X011200D01*
Y015080D01*
Y016080D01*
X011190D01*
Y017110D01*
X011200D01*
Y018090D01*
Y018696D01*
Y019150D01*
X013300D01*
Y018696D01*
D02*
G37*
G36*
X013533Y021553D02*
X013544D01*
X013557Y021552D01*
X013570Y021551D01*
X013575Y021551D01*
X013581Y021550D01*
X013586Y021549D01*
X013591Y021548D01*
X013592D01*
X013592Y021548D01*
X013593D01*
X013595Y021547D01*
X013599Y021546D01*
X013604Y021544D01*
X013610Y021541D01*
X013617Y021538D01*
X013623Y021534D01*
X013629Y021530D01*
X013630Y021529D01*
X013632Y021527D01*
X013634Y021524D01*
X013638Y021520D01*
X013642Y021515D01*
X013646Y021509D01*
X013650Y021502D01*
X013654Y021494D01*
Y021494D01*
X013654Y021493D01*
X013655Y021492D01*
X013655Y021490D01*
X013656Y021488D01*
X013657Y021485D01*
X013658Y021482D01*
X013658Y021478D01*
X013660Y021470D01*
X013662Y021460D01*
X013662Y021449D01*
X013663Y021436D01*
Y021436D01*
Y021434D01*
Y021432D01*
Y021429D01*
X013662Y021425D01*
Y021421D01*
X013662Y021416D01*
X013662Y021412D01*
X013661Y021401D01*
X013659Y021390D01*
X013656Y021379D01*
X013655Y021374D01*
X013653Y021370D01*
Y021370D01*
X013653Y021369D01*
X013652Y021367D01*
X013649Y021362D01*
X013646Y021357D01*
X013642Y021352D01*
X013638Y021346D01*
X013633Y021340D01*
X013627Y021335D01*
X013626Y021334D01*
X013624Y021333D01*
X013621Y021330D01*
X013617Y021328D01*
X013612Y021325D01*
X013606Y021322D01*
X013600Y021320D01*
X013593Y021318D01*
X013593D01*
X013592Y021317D01*
X013591D01*
X013589Y021317D01*
X013586Y021316D01*
X013582Y021316D01*
X013579Y021315D01*
X013574Y021315D01*
X013569Y021314D01*
X013563Y021314D01*
X013557Y021313D01*
X013550Y021313D01*
X013543Y021312D01*
X013534D01*
X013526Y021312D01*
X013355D01*
Y021373D01*
X013532D01*
X013540Y021374D01*
X013549D01*
X013557Y021374D01*
X013561Y021374D01*
X013565D01*
X013567Y021375D01*
X013570Y021375D01*
X013571D01*
X013573Y021376D01*
X013576Y021378D01*
X013581Y021379D01*
X013586Y021381D01*
X013590Y021385D01*
X013596Y021389D01*
X013600Y021394D01*
X013600Y021395D01*
X013602Y021396D01*
X013603Y021400D01*
X013605Y021404D01*
X013607Y021410D01*
X013609Y021417D01*
X013610Y021425D01*
X013611Y021434D01*
Y021435D01*
Y021436D01*
Y021437D01*
Y021439D01*
X013610Y021443D01*
X013610Y021449D01*
X013608Y021455D01*
X013606Y021461D01*
X013604Y021468D01*
X013600Y021473D01*
X013600Y021474D01*
X013599Y021475D01*
X013596Y021478D01*
X013593Y021480D01*
X013589Y021483D01*
X013585Y021485D01*
X013580Y021488D01*
X013575Y021489D01*
X013574D01*
X013572Y021489D01*
X013568Y021490D01*
X013562Y021491D01*
X013559D01*
X013555Y021491D01*
X013551D01*
X013546Y021492D01*
X013541D01*
X013535Y021492D01*
X013355D01*
Y021553D01*
X013527D01*
X013533Y021553D01*
D02*
G37*
G36*
X013513Y021264D02*
X013519D01*
X013525Y021263D01*
X013532Y021263D01*
X013540Y021261D01*
X013548Y021260D01*
X013558Y021258D01*
X013567Y021255D01*
X013577Y021252D01*
X013586Y021248D01*
X013596Y021243D01*
X013605Y021238D01*
X013614Y021232D01*
X013622Y021225D01*
X013622Y021224D01*
X013624Y021223D01*
X013626Y021221D01*
X013628Y021217D01*
X013631Y021213D01*
X013635Y021208D01*
X013638Y021203D01*
X013642Y021197D01*
X013646Y021189D01*
X013650Y021181D01*
X013653Y021173D01*
X013656Y021163D01*
X013659Y021153D01*
X013661Y021142D01*
X013662Y021131D01*
X013663Y021118D01*
Y021118D01*
Y021115D01*
X013662Y021112D01*
X013662Y021107D01*
X013662Y021102D01*
X013661Y021095D01*
X013659Y021088D01*
X013658Y021080D01*
X013655Y021071D01*
X013653Y021063D01*
X013649Y021054D01*
X013645Y021045D01*
X013641Y021036D01*
X013635Y021028D01*
X013629Y021019D01*
X013622Y021011D01*
X013621Y021011D01*
X013620Y021010D01*
X013617Y021008D01*
X013614Y021005D01*
X013610Y021002D01*
X013605Y020999D01*
X013599Y020995D01*
X013592Y020992D01*
X013585Y020988D01*
X013576Y020984D01*
X013567Y020981D01*
X013557Y020978D01*
X013546Y020975D01*
X013534Y020973D01*
X013521Y020972D01*
X013508Y020972D01*
X013504D01*
X013500Y020972D01*
X013496D01*
X013492Y020972D01*
X013487Y020973D01*
X013481Y020973D01*
X013469Y020975D01*
X013456Y020977D01*
X013443Y020981D01*
X013430Y020985D01*
X013430D01*
X013430Y020986D01*
X013428Y020986D01*
X013426Y020987D01*
X013422Y020989D01*
X013416Y020993D01*
X013410Y020996D01*
X013403Y021001D01*
X013396Y021007D01*
X013389Y021013D01*
X013388Y021014D01*
X013388Y021014D01*
X013386Y021016D01*
X013382Y021020D01*
X013378Y021025D01*
X013374Y021031D01*
X013369Y021037D01*
X013365Y021045D01*
X013361Y021052D01*
Y021053D01*
X013361Y021054D01*
X013360Y021055D01*
X013360Y021058D01*
X013358Y021060D01*
X013357Y021063D01*
X013357Y021067D01*
X013355Y021071D01*
X013353Y021081D01*
X013351Y021092D01*
X013350Y021104D01*
X013349Y021118D01*
Y021118D01*
Y021121D01*
X013350Y021124D01*
Y021128D01*
X013350Y021134D01*
X013351Y021141D01*
X013353Y021148D01*
X013354Y021156D01*
X013357Y021164D01*
X013359Y021173D01*
X013363Y021182D01*
X013367Y021191D01*
X013371Y021200D01*
X013377Y021208D01*
X013384Y021217D01*
X013391Y021225D01*
X013391Y021225D01*
X013393Y021226D01*
X013395Y021229D01*
X013398Y021231D01*
X013403Y021234D01*
X013408Y021237D01*
X013414Y021241D01*
X013421Y021245D01*
X013429Y021249D01*
X013437Y021252D01*
X013447Y021256D01*
X013457Y021259D01*
X013468Y021261D01*
X013480Y021263D01*
X013493Y021264D01*
X013506Y021265D01*
X013509D01*
X013513Y021264D01*
D02*
G37*
G36*
X013300Y021344D02*
Y020334D01*
Y019320D01*
X011170D01*
Y020370D01*
X011180D01*
Y021344D01*
X011150D01*
Y022374D01*
X013300D01*
Y021344D01*
D02*
G37*
G36*
X013406Y021747D02*
X013657D01*
Y021686D01*
X013406D01*
Y021596D01*
X013355D01*
Y021836D01*
X013406D01*
Y021747D01*
D02*
G37*
G36*
X013529Y016909D02*
X013540D01*
X013553Y016908D01*
X013566Y016907D01*
X013572Y016906D01*
X013578Y016906D01*
X013583Y016905D01*
X013588Y016904D01*
X013588D01*
X013588Y016903D01*
X013590D01*
X013591Y016903D01*
X013595Y016902D01*
X013601Y016900D01*
X013607Y016897D01*
X013613Y016894D01*
X013619Y016890D01*
X013626Y016885D01*
X013626Y016885D01*
X013628Y016883D01*
X013631Y016880D01*
X013634Y016876D01*
X013638Y016871D01*
X013642Y016865D01*
X013647Y016858D01*
X013650Y016850D01*
Y016850D01*
X013651Y016849D01*
X013651Y016848D01*
X013651Y016846D01*
X013652Y016844D01*
X013653Y016841D01*
X013654Y016838D01*
X013654Y016834D01*
X013656Y016826D01*
X013658Y016816D01*
X013659Y016805D01*
X013659Y016792D01*
Y016792D01*
Y016790D01*
Y016788D01*
Y016785D01*
X013659Y016781D01*
Y016777D01*
X013658Y016772D01*
X013658Y016767D01*
X013657Y016757D01*
X013655Y016746D01*
X013653Y016735D01*
X013651Y016730D01*
X013650Y016726D01*
Y016726D01*
X013649Y016725D01*
X013648Y016722D01*
X013646Y016718D01*
X013643Y016713D01*
X013639Y016708D01*
X013634Y016701D01*
X013629Y016696D01*
X013623Y016691D01*
X013623Y016690D01*
X013621Y016688D01*
X013617Y016686D01*
X013613Y016684D01*
X013608Y016681D01*
X013602Y016678D01*
X013596Y016676D01*
X013590Y016674D01*
X013589D01*
X013588Y016673D01*
X013587D01*
X013585Y016673D01*
X013582Y016672D01*
X013579Y016672D01*
X013575Y016671D01*
X013571Y016671D01*
X013565Y016670D01*
X013560Y016670D01*
X013554Y016669D01*
X013547Y016669D01*
X013539Y016668D01*
X013531D01*
X013522Y016668D01*
X013351D01*
Y016729D01*
X013529D01*
X013536Y016729D01*
X013545D01*
X013554Y016730D01*
X013557Y016730D01*
X013561D01*
X013564Y016731D01*
X013566Y016731D01*
X013567D01*
X013569Y016732D01*
X013573Y016733D01*
X013577Y016735D01*
X013582Y016737D01*
X013587Y016741D01*
X013592Y016745D01*
X013596Y016750D01*
X013597Y016750D01*
X013598Y016752D01*
X013600Y016756D01*
X013602Y016760D01*
X013604Y016766D01*
X013606Y016773D01*
X013607Y016781D01*
X013607Y016790D01*
Y016791D01*
Y016792D01*
Y016793D01*
Y016795D01*
X013607Y016799D01*
X013606Y016805D01*
X013605Y016811D01*
X013603Y016817D01*
X013600Y016824D01*
X013597Y016829D01*
X013596Y016830D01*
X013595Y016831D01*
X013593Y016833D01*
X013590Y016836D01*
X013586Y016839D01*
X013581Y016841D01*
X013577Y016844D01*
X013571Y016845D01*
X013570D01*
X013568Y016845D01*
X013564Y016846D01*
X013559Y016847D01*
X013555D01*
X013551Y016847D01*
X013547D01*
X013543Y016847D01*
X013537D01*
X013532Y016848D01*
X013351D01*
Y016909D01*
X013524D01*
X013529Y016909D01*
D02*
G37*
G36*
X013654Y015153D02*
X013588Y015109D01*
X013588Y015109D01*
X013586Y015109D01*
X013585Y015107D01*
X013582Y015106D01*
X013580Y015104D01*
X013576Y015102D01*
X013569Y015097D01*
X013561Y015091D01*
X013554Y015086D01*
X013548Y015081D01*
X013546Y015079D01*
X013543Y015077D01*
X013543Y015077D01*
X013542Y015076D01*
X013540Y015074D01*
X013538Y015072D01*
X013536Y015069D01*
X013534Y015066D01*
X013533Y015062D01*
X013531Y015059D01*
Y015058D01*
X013530Y015057D01*
X013529Y015055D01*
X013529Y015051D01*
X013528Y015047D01*
X013528Y015042D01*
X013527Y015036D01*
Y015028D01*
Y015016D01*
X013654D01*
Y014955D01*
X013351D01*
Y015083D01*
Y015084D01*
Y015085D01*
Y015088D01*
Y015091D01*
X013352Y015095D01*
Y015100D01*
X013352Y015105D01*
Y015110D01*
X013353Y015122D01*
X013355Y015134D01*
X013357Y015144D01*
X013358Y015149D01*
X013359Y015154D01*
Y015154D01*
X013360Y015155D01*
X013361Y015157D01*
X013363Y015161D01*
X013366Y015166D01*
X013370Y015172D01*
X013375Y015178D01*
X013381Y015183D01*
X013389Y015189D01*
X013389D01*
X013390Y015189D01*
X013391Y015190D01*
X013392Y015191D01*
X013397Y015193D01*
X013402Y015196D01*
X013409Y015198D01*
X013417Y015200D01*
X013426Y015202D01*
X013436Y015202D01*
X013439D01*
X013442Y015202D01*
X013445D01*
X013448Y015201D01*
X013456Y015200D01*
X013465Y015197D01*
X013474Y015194D01*
X013484Y015189D01*
X013488Y015186D01*
X013492Y015182D01*
X013493Y015182D01*
X013493Y015181D01*
X013494Y015180D01*
X013496Y015178D01*
X013498Y015176D01*
X013500Y015174D01*
X013502Y015171D01*
X013504Y015167D01*
X013507Y015163D01*
X013509Y015158D01*
X013511Y015154D01*
X013513Y015148D01*
X013515Y015142D01*
X013517Y015136D01*
X013519Y015130D01*
X013520Y015122D01*
Y015123D01*
X013521Y015123D01*
X013522Y015126D01*
X013525Y015129D01*
X013528Y015134D01*
X013532Y015139D01*
X013536Y015144D01*
X013540Y015150D01*
X013546Y015155D01*
X013546Y015155D01*
X013548Y015157D01*
X013552Y015160D01*
X013557Y015164D01*
X013564Y015169D01*
X013568Y015172D01*
X013572Y015175D01*
X013577Y015178D01*
X013582Y015182D01*
X013588Y015186D01*
X013595Y015189D01*
X013654Y015227D01*
Y015153D01*
D02*
G37*
G36*
X017050Y024710D02*
X015960D01*
Y025267D01*
X017050D01*
Y024710D01*
D02*
G37*
G36*
X013563Y014010D02*
X013566Y014009D01*
X013569Y014007D01*
X013573Y014006D01*
X013578Y014004D01*
X013583Y014002D01*
X013589Y013999D01*
X013601Y013993D01*
X013613Y013985D01*
X013625Y013975D01*
X013630Y013970D01*
X013635Y013965D01*
X013635Y013964D01*
X013636Y013963D01*
X013637Y013961D01*
X013639Y013959D01*
X013640Y013956D01*
X013642Y013952D01*
X013644Y013948D01*
X013647Y013943D01*
X013649Y013937D01*
X013651Y013931D01*
X013653Y013924D01*
X013655Y013917D01*
X013657Y013910D01*
X013658Y013902D01*
X013658Y013893D01*
X013659Y013884D01*
Y013883D01*
Y013882D01*
X013658Y013878D01*
X013658Y013874D01*
X013657Y013869D01*
X013657Y013863D01*
X013655Y013857D01*
X013654Y013849D01*
X013651Y013842D01*
X013649Y013834D01*
X013645Y013826D01*
X013641Y013817D01*
X013637Y013809D01*
X013631Y013801D01*
X013625Y013793D01*
X013618Y013785D01*
X013617Y013785D01*
X013616Y013784D01*
X013613Y013782D01*
X013610Y013779D01*
X013606Y013777D01*
X013601Y013773D01*
X013595Y013770D01*
X013588Y013766D01*
X013581Y013763D01*
X013572Y013759D01*
X013563Y013756D01*
X013553Y013753D01*
X013542Y013750D01*
X013530Y013749D01*
X013518Y013747D01*
X013505Y013747D01*
X013501D01*
X013498Y013747D01*
X013492D01*
X013486Y013748D01*
X013479Y013749D01*
X013471Y013750D01*
X013462Y013752D01*
X013453Y013754D01*
X013443Y013757D01*
X013433Y013760D01*
X013423Y013764D01*
X013414Y013768D01*
X013404Y013773D01*
X013396Y013779D01*
X013387Y013786D01*
X013387Y013786D01*
X013386Y013788D01*
X013384Y013790D01*
X013381Y013793D01*
X013378Y013797D01*
X013374Y013802D01*
X013370Y013807D01*
X013366Y013813D01*
X013363Y013820D01*
X013359Y013828D01*
X013355Y013837D01*
X013352Y013845D01*
X013349Y013855D01*
X013347Y013865D01*
X013346Y013877D01*
X013345Y013888D01*
Y013889D01*
Y013891D01*
Y013893D01*
X013346Y013897D01*
X013346Y013902D01*
X013347Y013907D01*
X013348Y013913D01*
X013349Y013920D01*
X013351Y013927D01*
X013353Y013934D01*
X013356Y013942D01*
X013359Y013950D01*
X013363Y013957D01*
X013367Y013964D01*
X013373Y013972D01*
X013378Y013978D01*
Y013979D01*
X013379Y013979D01*
X013380Y013980D01*
X013382Y013982D01*
X013384Y013983D01*
X013387Y013985D01*
X013393Y013990D01*
X013401Y013995D01*
X013410Y014000D01*
X013421Y014005D01*
X013434Y014009D01*
X013448Y013949D01*
X013448D01*
X013447Y013948D01*
X013446D01*
X013444Y013948D01*
X013440Y013946D01*
X013435Y013944D01*
X013429Y013941D01*
X013423Y013937D01*
X013417Y013932D01*
X013411Y013926D01*
X013411Y013925D01*
X013409Y013923D01*
X013407Y013920D01*
X013404Y013915D01*
X013402Y013909D01*
X013400Y013902D01*
X013398Y013894D01*
X013397Y013885D01*
Y013885D01*
Y013884D01*
Y013882D01*
X013398Y013879D01*
X013398Y013877D01*
X013399Y013873D01*
X013401Y013866D01*
X013404Y013857D01*
X013408Y013848D01*
X013411Y013843D01*
X013414Y013839D01*
X013418Y013834D01*
X013422Y013830D01*
X013422D01*
X013423Y013830D01*
X013425Y013829D01*
X013427Y013827D01*
X013429Y013826D01*
X013432Y013824D01*
X013436Y013822D01*
X013441Y013820D01*
X013446Y013818D01*
X013452Y013816D01*
X013458Y013815D01*
X013465Y013813D01*
X013473Y013812D01*
X013481Y013811D01*
X013491Y013810D01*
X013501Y013810D01*
X013506D01*
X013510Y013810D01*
X013515D01*
X013520Y013811D01*
X013526Y013812D01*
X013533Y013812D01*
X013546Y013815D01*
X013560Y013819D01*
X013566Y013821D01*
X013572Y013824D01*
X013578Y013827D01*
X013583Y013830D01*
X013583Y013831D01*
X013584Y013831D01*
X013585Y013833D01*
X013587Y013834D01*
X013590Y013839D01*
X013595Y013845D01*
X013599Y013852D01*
X013603Y013861D01*
X013606Y013872D01*
X013606Y013878D01*
X013607Y013884D01*
Y013884D01*
Y013885D01*
Y013886D01*
X013606Y013888D01*
X013606Y013892D01*
X013605Y013898D01*
X013603Y013904D01*
X013600Y013911D01*
X013597Y013918D01*
X013592Y013925D01*
X013591Y013926D01*
X013588Y013928D01*
X013585Y013931D01*
X013580Y013935D01*
X013573Y013939D01*
X013564Y013943D01*
X013554Y013947D01*
X013543Y013951D01*
X013561Y014010D01*
X013561D01*
X013563Y014010D01*
D02*
G37*
G36*
X013510Y015540D02*
X013515D01*
X013521Y015539D01*
X013528Y015538D01*
X013536Y015537D01*
X013545Y015536D01*
X013554Y015533D01*
X013564Y015531D01*
X013573Y015527D01*
X013583Y015523D01*
X013592Y015519D01*
X013601Y015513D01*
X013610Y015507D01*
X013618Y015500D01*
X013619Y015500D01*
X013620Y015498D01*
X013622Y015496D01*
X013625Y015493D01*
X013628Y015489D01*
X013631Y015484D01*
X013635Y015478D01*
X013639Y015472D01*
X013643Y015465D01*
X013646Y015457D01*
X013650Y015448D01*
X013653Y015439D01*
X013655Y015429D01*
X013657Y015418D01*
X013659Y015406D01*
X013659Y015394D01*
Y015393D01*
Y015391D01*
X013659Y015387D01*
X013658Y015383D01*
X013658Y015377D01*
X013657Y015371D01*
X013656Y015363D01*
X013654Y015356D01*
X013652Y015347D01*
X013649Y015338D01*
X013646Y015329D01*
X013642Y015321D01*
X013637Y015311D01*
X013632Y015303D01*
X013626Y015295D01*
X013618Y015287D01*
X013618Y015286D01*
X013616Y015285D01*
X013614Y015283D01*
X013611Y015281D01*
X013606Y015278D01*
X013601Y015274D01*
X013595Y015271D01*
X013588Y015267D01*
X013581Y015263D01*
X013572Y015260D01*
X013563Y015256D01*
X013553Y015253D01*
X013542Y015251D01*
X013530Y015249D01*
X013518Y015248D01*
X013505Y015247D01*
X013500D01*
X013497Y015248D01*
X013493D01*
X013488Y015248D01*
X013483Y015248D01*
X013477Y015249D01*
X013465Y015251D01*
X013452Y015253D01*
X013439Y015256D01*
X013427Y015261D01*
X013426D01*
X013426Y015261D01*
X013425Y015262D01*
X013423Y015262D01*
X013418Y015265D01*
X013413Y015268D01*
X013406Y015272D01*
X013400Y015277D01*
X013392Y015283D01*
X013385Y015289D01*
X013385Y015289D01*
X013384Y015290D01*
X013382Y015292D01*
X013379Y015296D01*
X013375Y015300D01*
X013370Y015306D01*
X013366Y015313D01*
X013361Y015320D01*
X013358Y015328D01*
Y015328D01*
X013357Y015329D01*
X013356Y015331D01*
X013356Y015333D01*
X013355Y015336D01*
X013354Y015339D01*
X013353Y015343D01*
X013352Y015347D01*
X013349Y015356D01*
X013347Y015367D01*
X013346Y015380D01*
X013345Y015393D01*
Y015394D01*
Y015396D01*
X013346Y015400D01*
Y015404D01*
X013347Y015410D01*
X013348Y015416D01*
X013349Y015424D01*
X013351Y015432D01*
X013353Y015440D01*
X013356Y015449D01*
X013359Y015457D01*
X013363Y015467D01*
X013368Y015475D01*
X013373Y015484D01*
X013380Y015492D01*
X013387Y015500D01*
X013388Y015501D01*
X013389Y015502D01*
X013392Y015504D01*
X013395Y015506D01*
X013399Y015509D01*
X013404Y015513D01*
X013411Y015516D01*
X013418Y015520D01*
X013425Y015524D01*
X013434Y015528D01*
X013443Y015531D01*
X013453Y015534D01*
X013465Y015537D01*
X013477Y015539D01*
X013489Y015540D01*
X013503Y015540D01*
X013506D01*
X013510Y015540D01*
D02*
G37*
G36*
X015650Y024700D02*
X014550D01*
Y025257D01*
X015650D01*
Y024700D01*
D02*
G37*
G36*
X013510Y014343D02*
X013515D01*
X013521Y014342D01*
X013528Y014341D01*
X013536Y014340D01*
X013545Y014339D01*
X013554Y014336D01*
X013564Y014334D01*
X013573Y014330D01*
X013583Y014326D01*
X013592Y014322D01*
X013601Y014316D01*
X013610Y014310D01*
X013618Y014303D01*
X013619Y014303D01*
X013620Y014301D01*
X013622Y014299D01*
X013625Y014296D01*
X013628Y014292D01*
X013631Y014287D01*
X013635Y014281D01*
X013639Y014275D01*
X013643Y014268D01*
X013646Y014260D01*
X013650Y014251D01*
X013653Y014242D01*
X013655Y014232D01*
X013657Y014221D01*
X013659Y014209D01*
X013659Y014197D01*
Y014196D01*
Y014194D01*
X013659Y014190D01*
X013658Y014186D01*
X013658Y014180D01*
X013657Y014174D01*
X013656Y014166D01*
X013654Y014159D01*
X013652Y014150D01*
X013649Y014142D01*
X013646Y014132D01*
X013642Y014124D01*
X013637Y014114D01*
X013632Y014106D01*
X013626Y014098D01*
X013618Y014090D01*
X013618Y014090D01*
X013616Y014088D01*
X013614Y014086D01*
X013611Y014084D01*
X013606Y014081D01*
X013601Y014077D01*
X013595Y014074D01*
X013588Y014070D01*
X013581Y014066D01*
X013572Y014063D01*
X013563Y014059D01*
X013553Y014056D01*
X013542Y014054D01*
X013530Y014052D01*
X013518Y014051D01*
X013505Y014050D01*
X013500D01*
X013497Y014051D01*
X013493D01*
X013488Y014051D01*
X013483Y014052D01*
X013477Y014052D01*
X013465Y014054D01*
X013452Y014056D01*
X013439Y014059D01*
X013427Y014064D01*
X013426D01*
X013426Y014064D01*
X013425Y014065D01*
X013423Y014066D01*
X013418Y014068D01*
X013413Y014071D01*
X013406Y014075D01*
X013400Y014080D01*
X013392Y014086D01*
X013385Y014092D01*
X013385Y014092D01*
X013384Y014093D01*
X013382Y014095D01*
X013379Y014099D01*
X013375Y014104D01*
X013370Y014109D01*
X013366Y014116D01*
X013361Y014123D01*
X013358Y014131D01*
Y014131D01*
X013357Y014132D01*
X013356Y014134D01*
X013356Y014136D01*
X013355Y014139D01*
X013354Y014142D01*
X013353Y014146D01*
X013352Y014150D01*
X013349Y014159D01*
X013347Y014170D01*
X013346Y014183D01*
X013345Y014196D01*
Y014197D01*
Y014199D01*
X013346Y014203D01*
Y014207D01*
X013347Y014213D01*
X013348Y014219D01*
X013349Y014227D01*
X013351Y014235D01*
X013353Y014243D01*
X013356Y014252D01*
X013359Y014260D01*
X013363Y014270D01*
X013368Y014278D01*
X013373Y014287D01*
X013380Y014295D01*
X013387Y014303D01*
X013388Y014304D01*
X013389Y014305D01*
X013392Y014307D01*
X013395Y014309D01*
X013399Y014312D01*
X013404Y014316D01*
X013411Y014319D01*
X013418Y014323D01*
X013425Y014327D01*
X013434Y014331D01*
X013443Y014334D01*
X013453Y014337D01*
X013465Y014340D01*
X013477Y014342D01*
X013489Y014343D01*
X013503Y014343D01*
X013506D01*
X013510Y014343D01*
D02*
G37*
G36*
X013402Y014826D02*
X013654D01*
Y014765D01*
X013402D01*
Y014675D01*
X013351D01*
Y014915D01*
X013402D01*
Y014826D01*
D02*
G37*
G36*
X013654Y014571D02*
X013454Y014448D01*
X013654D01*
Y014392D01*
X013351D01*
Y014451D01*
X013555Y014575D01*
X013351D01*
Y014632D01*
X013654D01*
Y014571D01*
D02*
G37*
G36*
X019748Y010388D02*
X019750D01*
X019752Y010392D01*
X019761Y010399D01*
X019776Y010410D01*
X019794Y010424D01*
X019814Y010439D01*
X019834Y010454D01*
X019854Y010468D01*
X019870Y010479D01*
X019872Y010481D01*
X019879Y010485D01*
X019889Y010490D01*
X019905Y010497D01*
X019923Y010508D01*
X019949Y010523D01*
X019980Y010537D01*
X020014Y010556D01*
Y010490D01*
X020012Y010488D01*
X020009Y010485D01*
X020002Y010479D01*
X019994Y010470D01*
X019983Y010461D01*
X019971Y010450D01*
X019943Y010423D01*
X019912Y010392D01*
X019881Y010359D01*
X019850Y010326D01*
X019823Y010293D01*
Y010291D01*
X019819Y010290D01*
X019812Y010279D01*
X019801Y010262D01*
X019787Y010242D01*
X019772Y010219D01*
X019756Y010191D01*
X019739Y010162D01*
X019726Y010135D01*
X019688D01*
Y010137D01*
X019686Y010138D01*
X019681Y010149D01*
X019672Y010166D01*
X019659Y010188D01*
X019644Y010213D01*
X019626Y010240D01*
X019606Y010270D01*
X019582Y010301D01*
X019579Y010304D01*
X019572Y010315D01*
X019555Y010332D01*
X019535Y010355D01*
X019510Y010383D01*
X019477Y010415D01*
X019439Y010452D01*
X019395Y010492D01*
Y010557D01*
X019397Y010556D01*
X019402Y010554D01*
X019411Y010550D01*
X019424Y010543D01*
X019437Y010536D01*
X019455Y010527D01*
X019473Y010517D01*
X019493Y010506D01*
X019535Y010481D01*
X019579Y010452D01*
X019623Y010421D01*
X019661Y010388D01*
Y011760D01*
X019748D01*
Y010388D01*
D02*
G37*
G36*
X013661Y016196D02*
Y016196D01*
X013661Y016195D01*
X013660Y016194D01*
X013659Y016192D01*
X013658Y016190D01*
X013656Y016187D01*
X013653Y016181D01*
X013648Y016173D01*
X013642Y016164D01*
X013635Y016156D01*
X013627Y016147D01*
X013628Y016146D01*
X013630Y016144D01*
X013633Y016140D01*
X013637Y016135D01*
X013640Y016129D01*
X013644Y016123D01*
X013648Y016115D01*
X013651Y016108D01*
Y016108D01*
X013652Y016107D01*
X013652Y016106D01*
X013653Y016105D01*
X013654Y016100D01*
X013655Y016094D01*
X013657Y016087D01*
X013658Y016079D01*
X013659Y016069D01*
X013659Y016059D01*
Y016058D01*
Y016056D01*
X013659Y016053D01*
Y016049D01*
X013658Y016045D01*
X013657Y016039D01*
X013657Y016033D01*
X013655Y016027D01*
X013654Y016020D01*
X013651Y016013D01*
X013649Y016006D01*
X013646Y015999D01*
X013642Y015992D01*
X013638Y015986D01*
X013633Y015980D01*
X013628Y015974D01*
X013627Y015973D01*
X013626Y015973D01*
X013625Y015972D01*
X013623Y015970D01*
X013621Y015969D01*
X013618Y015967D01*
X013611Y015963D01*
X013603Y015959D01*
X013593Y015956D01*
X013583Y015953D01*
X013577Y015952D01*
X013571Y015952D01*
X013568D01*
X013566Y015952D01*
X013564D01*
X013560Y015953D01*
X013554Y015954D01*
X013545Y015956D01*
X013536Y015959D01*
X013527Y015963D01*
X013519Y015969D01*
X013518D01*
X013518Y015970D01*
X013516Y015971D01*
X013515Y015973D01*
X013510Y015977D01*
X013505Y015982D01*
X013498Y015990D01*
X013491Y015998D01*
X013484Y016009D01*
X013478Y016021D01*
X013477Y016020D01*
X013475Y016018D01*
X013471Y016016D01*
X013467Y016012D01*
X013461Y016008D01*
X013455Y016004D01*
X013449Y016001D01*
X013443Y015997D01*
X013442Y015997D01*
X013440Y015996D01*
X013437Y015995D01*
X013433Y015994D01*
X013428Y015992D01*
X013423Y015991D01*
X013417Y015991D01*
X013411Y015990D01*
X013409D01*
X013407Y015991D01*
X013402Y015991D01*
X013395Y015993D01*
X013388Y015995D01*
X013380Y015999D01*
X013376Y016002D01*
X013372Y016005D01*
X013368Y016008D01*
X013365Y016012D01*
X013364Y016012D01*
X013364Y016013D01*
X013363Y016014D01*
X013362Y016016D01*
X013360Y016018D01*
X013359Y016021D01*
X013357Y016024D01*
X013355Y016028D01*
X013353Y016032D01*
X013352Y016037D01*
X013350Y016042D01*
X013349Y016047D01*
X013347Y016053D01*
X013346Y016060D01*
X013345Y016067D01*
Y016074D01*
Y016075D01*
Y016076D01*
Y016078D01*
X013346Y016081D01*
Y016084D01*
X013346Y016088D01*
X013348Y016097D01*
X013350Y016107D01*
X013354Y016117D01*
X013359Y016127D01*
X013362Y016131D01*
X013366Y016136D01*
X013366Y016136D01*
X013366Y016136D01*
X013368Y016138D01*
X013369Y016139D01*
X013373Y016143D01*
X013379Y016147D01*
X013387Y016151D01*
X013395Y016154D01*
X013404Y016157D01*
X013409Y016157D01*
X013415Y016158D01*
X013418D01*
X013421Y016157D01*
X013426Y016157D01*
X013431Y016155D01*
X013437Y016153D01*
X013443Y016150D01*
X013449Y016147D01*
X013450Y016147D01*
X013452Y016145D01*
X013456Y016142D01*
X013460Y016137D01*
X013466Y016131D01*
X013469Y016128D01*
X013472Y016124D01*
X013475Y016119D01*
X013479Y016114D01*
X013483Y016109D01*
X013487Y016103D01*
X013543Y016145D01*
X013542Y016145D01*
X013540Y016146D01*
X013537Y016147D01*
X013533Y016149D01*
X013529Y016151D01*
X013522Y016153D01*
X013516Y016155D01*
X013508Y016157D01*
X013520Y016209D01*
X013521D01*
X013522Y016209D01*
X013523Y016209D01*
X013525Y016208D01*
X013530Y016207D01*
X013536Y016205D01*
X013543Y016203D01*
X013550Y016200D01*
X013556Y016198D01*
X013561Y016196D01*
X013562Y016195D01*
X013564Y016195D01*
X013566Y016194D01*
X013569Y016192D01*
X013576Y016188D01*
X013583Y016184D01*
X013583Y016184D01*
X013584Y016185D01*
X013586Y016188D01*
X013588Y016190D01*
X013592Y016194D01*
X013595Y016198D01*
X013599Y016203D01*
X013602Y016209D01*
X013603Y016209D01*
X013604Y016211D01*
X013606Y016214D01*
X013608Y016217D01*
X013613Y016225D01*
X013615Y016228D01*
X013617Y016231D01*
X013661Y016196D01*
D02*
G37*
G36*
X028952Y013662D02*
X028955Y013659D01*
X028961Y013652D01*
X028970Y013644D01*
X028979Y013633D01*
X028990Y013621D01*
X029017Y013593D01*
X029048Y013562D01*
X029081Y013531D01*
X029114Y013500D01*
X029147Y013473D01*
X029149D01*
X029150Y013469D01*
X029161Y013462D01*
X029178Y013451D01*
X029198Y013437D01*
X029221Y013422D01*
X029249Y013406D01*
X029278Y013389D01*
X029305Y013376D01*
Y013338D01*
X029303D01*
X029302Y013336D01*
X029291Y013331D01*
X029274Y013322D01*
X029252Y013309D01*
X029227Y013294D01*
X029200Y013276D01*
X029170Y013256D01*
X029139Y013232D01*
X029136Y013229D01*
X029125Y013222D01*
X029108Y013205D01*
X029085Y013185D01*
X029057Y013160D01*
X029025Y013127D01*
X028988Y013089D01*
X028948Y013045D01*
X028883D01*
X028884Y013047D01*
X028886Y013052D01*
X028890Y013061D01*
X028897Y013074D01*
X028904Y013087D01*
X028913Y013105D01*
X028923Y013123D01*
X028934Y013143D01*
X028959Y013185D01*
X028988Y013229D01*
X029019Y013273D01*
X029052Y013311D01*
X027680D01*
Y013398D01*
X029052D01*
Y013400D01*
X029048Y013402D01*
X029041Y013411D01*
X029030Y013426D01*
X029016Y013444D01*
X029001Y013464D01*
X028986Y013484D01*
X028972Y013504D01*
X028961Y013520D01*
X028959Y013522D01*
X028955Y013529D01*
X028950Y013539D01*
X028943Y013555D01*
X028932Y013573D01*
X028917Y013599D01*
X028903Y013630D01*
X028884Y013664D01*
X028950D01*
X028952Y013662D01*
D02*
G37*
G36*
X013572Y016616D02*
X013575Y016616D01*
X013581Y016615D01*
X013589Y016613D01*
X013598Y016611D01*
X013606Y016607D01*
X013615Y016602D01*
X013615D01*
X013616Y016601D01*
X013618Y016599D01*
X013623Y016596D01*
X013627Y016591D01*
X013633Y016586D01*
X013638Y016578D01*
X013644Y016570D01*
X013648Y016561D01*
Y016560D01*
X013649Y016559D01*
X013649Y016558D01*
X013650Y016556D01*
X013651Y016553D01*
X013652Y016550D01*
X013653Y016547D01*
X013654Y016543D01*
X013655Y016538D01*
X013656Y016533D01*
X013657Y016522D01*
X013659Y016509D01*
X013659Y016495D01*
Y016495D01*
Y016493D01*
Y016490D01*
X013659Y016486D01*
X013658Y016481D01*
X013658Y016476D01*
X013657Y016469D01*
X013656Y016463D01*
X013653Y016448D01*
X013651Y016441D01*
X013648Y016434D01*
X013645Y016427D01*
X013642Y016420D01*
X013638Y016413D01*
X013633Y016407D01*
X013633Y016407D01*
X013632Y016406D01*
X013630Y016404D01*
X013628Y016402D01*
X013625Y016400D01*
X013622Y016397D01*
X013618Y016394D01*
X013613Y016391D01*
X013608Y016388D01*
X013602Y016385D01*
X013596Y016382D01*
X013589Y016379D01*
X013581Y016376D01*
X013573Y016374D01*
X013564Y016372D01*
X013555Y016371D01*
X013550Y016430D01*
X013550D01*
X013551Y016431D01*
X013553D01*
X013554Y016431D01*
X013560Y016433D01*
X013566Y016435D01*
X013574Y016438D01*
X013581Y016441D01*
X013588Y016446D01*
X013594Y016452D01*
X013594Y016452D01*
X013596Y016455D01*
X013598Y016458D01*
X013601Y016463D01*
X013603Y016470D01*
X013606Y016477D01*
X013607Y016486D01*
X013608Y016496D01*
Y016497D01*
Y016497D01*
Y016499D01*
Y016501D01*
X013607Y016506D01*
X013606Y016513D01*
X013605Y016520D01*
X013602Y016527D01*
X013599Y016534D01*
X013595Y016540D01*
X013595Y016541D01*
X013593Y016543D01*
X013591Y016545D01*
X013587Y016548D01*
X013583Y016551D01*
X013578Y016553D01*
X013572Y016555D01*
X013566Y016556D01*
X013564D01*
X013562Y016555D01*
X013560Y016555D01*
X013557Y016554D01*
X013554Y016553D01*
X013551Y016551D01*
X013548Y016549D01*
X013547Y016549D01*
X013547Y016548D01*
X013545Y016546D01*
X013543Y016544D01*
X013541Y016541D01*
X013539Y016537D01*
X013537Y016533D01*
X013535Y016527D01*
Y016527D01*
X013534Y016525D01*
X013533Y016522D01*
X013532Y016520D01*
X013532Y016517D01*
X013531Y016514D01*
X013529Y016511D01*
X013529Y016507D01*
X013527Y016502D01*
X013526Y016497D01*
X013525Y016491D01*
X013523Y016485D01*
X013521Y016478D01*
Y016478D01*
X013521Y016476D01*
X013520Y016473D01*
X013519Y016470D01*
X013518Y016466D01*
X013516Y016462D01*
X013515Y016457D01*
X013513Y016451D01*
X013508Y016440D01*
X013503Y016429D01*
X013501Y016423D01*
X013498Y016418D01*
X013494Y016414D01*
X013491Y016410D01*
X013491Y016409D01*
X013490Y016408D01*
X013489Y016407D01*
X013487Y016405D01*
X013484Y016403D01*
X013481Y016401D01*
X013478Y016398D01*
X013474Y016396D01*
X013465Y016391D01*
X013455Y016386D01*
X013449Y016385D01*
X013443Y016383D01*
X013437Y016382D01*
X013430Y016382D01*
X013426D01*
X013422Y016383D01*
X013416Y016384D01*
X013410Y016385D01*
X013402Y016387D01*
X013394Y016390D01*
X013387Y016395D01*
X013387D01*
X013386Y016395D01*
X013384Y016397D01*
X013380Y016400D01*
X013376Y016404D01*
X013371Y016410D01*
X013366Y016416D01*
X013361Y016424D01*
X013356Y016432D01*
Y016433D01*
X013356Y016434D01*
X013356Y016435D01*
X013355Y016437D01*
X013354Y016439D01*
X013353Y016442D01*
X013352Y016445D01*
X013351Y016449D01*
X013349Y016458D01*
X013347Y016468D01*
X013346Y016480D01*
X013345Y016492D01*
Y016493D01*
Y016495D01*
Y016497D01*
X013346Y016501D01*
X013346Y016506D01*
X013347Y016512D01*
X013348Y016518D01*
X013349Y016524D01*
X013352Y016538D01*
X013354Y016545D01*
X013356Y016552D01*
X013359Y016559D01*
X013363Y016566D01*
X013366Y016572D01*
X013371Y016577D01*
X013371Y016578D01*
X013372Y016579D01*
X013373Y016580D01*
X013375Y016582D01*
X013378Y016584D01*
X013381Y016587D01*
X013384Y016589D01*
X013388Y016592D01*
X013393Y016595D01*
X013398Y016597D01*
X013404Y016600D01*
X013410Y016602D01*
X013416Y016604D01*
X013423Y016606D01*
X013430Y016608D01*
X013438Y016608D01*
X013440Y016547D01*
X013439D01*
X013436Y016546D01*
X013432Y016545D01*
X013427Y016543D01*
X013422Y016541D01*
X013416Y016538D01*
X013411Y016534D01*
X013407Y016530D01*
X013406Y016529D01*
X013405Y016528D01*
X013403Y016525D01*
X013401Y016520D01*
X013400Y016515D01*
X013398Y016508D01*
X013397Y016500D01*
X013396Y016491D01*
Y016491D01*
Y016490D01*
Y016489D01*
Y016487D01*
X013397Y016482D01*
X013397Y016476D01*
X013399Y016470D01*
X013401Y016463D01*
X013404Y016456D01*
X013408Y016450D01*
X013408Y016450D01*
X013409Y016449D01*
X013410Y016447D01*
X013412Y016445D01*
X013415Y016444D01*
X013418Y016442D01*
X013422Y016441D01*
X013426Y016441D01*
X013428D01*
X013430Y016441D01*
X013432Y016442D01*
X013436Y016443D01*
X013439Y016444D01*
X013442Y016446D01*
X013445Y016449D01*
X013445Y016450D01*
X013446Y016452D01*
X013447Y016453D01*
X013448Y016455D01*
X013449Y016458D01*
X013451Y016461D01*
X013452Y016464D01*
X013454Y016468D01*
X013456Y016473D01*
X013457Y016478D01*
X013459Y016484D01*
X013461Y016490D01*
X013463Y016497D01*
X013465Y016505D01*
Y016506D01*
X013465Y016507D01*
X013466Y016510D01*
X013467Y016513D01*
X013467Y016516D01*
X013469Y016521D01*
X013470Y016525D01*
X013471Y016530D01*
X013475Y016541D01*
X013478Y016552D01*
X013482Y016562D01*
X013484Y016566D01*
X013487Y016571D01*
Y016571D01*
X013487Y016572D01*
X013489Y016574D01*
X013491Y016578D01*
X013495Y016583D01*
X013499Y016588D01*
X013505Y016594D01*
X013511Y016600D01*
X013518Y016604D01*
X013519Y016605D01*
X013521Y016606D01*
X013525Y016608D01*
X013531Y016611D01*
X013538Y016613D01*
X013546Y016615D01*
X013555Y016616D01*
X013566Y016617D01*
X013570D01*
X013572Y016616D01*
D02*
G37*
G36*
X013654Y015590D02*
X013353D01*
Y015651D01*
X013602D01*
Y015803D01*
X013654D01*
Y015590D01*
D02*
G37*
G36*
X018540Y024700D02*
X017440D01*
Y025257D01*
X018540D01*
Y024700D01*
D02*
G37*
%LPC*%
G36*
X013444Y020018D02*
X013441D01*
X013439Y020018D01*
X013435Y020017D01*
X013431Y020016D01*
X013427Y020015D01*
X013423Y020012D01*
X013419Y020010D01*
X013419Y020009D01*
X013418Y020008D01*
X013416Y020006D01*
X013414Y020004D01*
X013412Y020001D01*
X013410Y019997D01*
X013409Y019992D01*
X013407Y019987D01*
Y019986D01*
X013407Y019985D01*
Y019982D01*
X013406Y019978D01*
Y019976D01*
Y019973D01*
Y019969D01*
X013406Y019965D01*
Y019960D01*
Y019955D01*
Y019949D01*
Y019942D01*
Y019895D01*
X013483D01*
Y019940D01*
Y019940D01*
Y019942D01*
Y019944D01*
Y019947D01*
Y019950D01*
Y019954D01*
X013482Y019963D01*
X013482Y019972D01*
X013482Y019981D01*
X013481Y019985D01*
X013481Y019989D01*
X013480Y019992D01*
X013479Y019994D01*
Y019995D01*
X013478Y019996D01*
X013478Y019998D01*
X013476Y020001D01*
X013472Y020006D01*
X013470Y020009D01*
X013467Y020011D01*
X013466Y020012D01*
X013465Y020012D01*
X013463Y020014D01*
X013461Y020015D01*
X013457Y020016D01*
X013453Y020017D01*
X013449Y020018D01*
X013444Y020018D01*
D02*
G37*
G36*
X013446Y017424D02*
X013443D01*
X013440Y017424D01*
X013436Y017423D01*
X013432Y017422D01*
X013427Y017420D01*
X013422Y017418D01*
X013418Y017414D01*
X013418Y017414D01*
X013416Y017412D01*
X013415Y017410D01*
X013412Y017408D01*
X013410Y017404D01*
X013408Y017400D01*
X013406Y017395D01*
X013404Y017390D01*
Y017389D01*
X013404Y017388D01*
X013404Y017385D01*
X013403Y017380D01*
Y017374D01*
X013403Y017371D01*
Y017367D01*
X013402Y017362D01*
Y017357D01*
Y017352D01*
Y017346D01*
Y017317D01*
X013488D01*
Y017350D01*
Y017350D01*
Y017352D01*
Y017354D01*
Y017356D01*
Y017359D01*
X013488Y017362D01*
Y017370D01*
X013488Y017378D01*
X013487Y017385D01*
X013485Y017392D01*
X013485Y017395D01*
X013484Y017398D01*
X013484Y017399D01*
X013483Y017400D01*
X013482Y017402D01*
X013481Y017405D01*
X013478Y017408D01*
X013476Y017411D01*
X013473Y017415D01*
X013469Y017417D01*
X013469Y017418D01*
X013467Y017419D01*
X013465Y017419D01*
X013462Y017421D01*
X013459Y017422D01*
X013455Y017423D01*
X013450Y017424D01*
X013446Y017424D01*
D02*
G37*
G36*
Y017142D02*
X013443D01*
X013440Y017142D01*
X013436Y017141D01*
X013432Y017140D01*
X013427Y017138D01*
X013422Y017136D01*
X013418Y017132D01*
X013418Y017132D01*
X013416Y017131D01*
X013415Y017128D01*
X013412Y017126D01*
X013410Y017122D01*
X013408Y017118D01*
X013406Y017113D01*
X013404Y017108D01*
Y017107D01*
X013404Y017106D01*
X013404Y017103D01*
X013403Y017098D01*
Y017093D01*
X013403Y017089D01*
Y017085D01*
X013402Y017080D01*
Y017076D01*
Y017070D01*
Y017064D01*
Y017035D01*
X013488D01*
Y017068D01*
Y017069D01*
Y017070D01*
Y017072D01*
Y017074D01*
Y017077D01*
X013488Y017080D01*
Y017088D01*
X013488Y017096D01*
X013487Y017104D01*
X013485Y017111D01*
X013485Y017114D01*
X013484Y017116D01*
X013484Y017117D01*
X013483Y017118D01*
X013482Y017121D01*
X013481Y017123D01*
X013478Y017126D01*
X013476Y017129D01*
X013473Y017133D01*
X013469Y017135D01*
X013469Y017136D01*
X013467Y017137D01*
X013465Y017138D01*
X013462Y017139D01*
X013459Y017140D01*
X013455Y017142D01*
X013450Y017142D01*
X013446Y017142D01*
D02*
G37*
G36*
X013822Y012384D02*
X013707D01*
Y012215D01*
X013542D01*
Y012103D01*
X013707D01*
Y011936D01*
X013822D01*
Y012103D01*
X013988D01*
Y012215D01*
X013822D01*
Y012384D01*
D02*
G37*
G36*
X014080Y011895D02*
X013440Y011638D01*
Y011501D01*
X014080Y011253D01*
Y011390D01*
X013935Y011443D01*
Y011700D01*
X014080Y011755D01*
Y011895D01*
D02*
G37*
G36*
X013548Y011212D02*
X013440D01*
Y010772D01*
X014080D01*
Y010902D01*
X013808D01*
Y011169D01*
X013700D01*
Y010902D01*
X013548D01*
Y011212D01*
D02*
G37*
G36*
X014080Y010702D02*
X013955Y010623D01*
X013942Y010615D01*
X013929Y010607D01*
X013918Y010599D01*
X013908Y010592D01*
X013899Y010585D01*
X013889Y010580D01*
X013876Y010569D01*
X013865Y010560D01*
X013857Y010555D01*
X013852Y010550D01*
X013852Y010549D01*
X013840Y010539D01*
X013830Y010527D01*
X013822Y010516D01*
X013814Y010505D01*
X013807Y010496D01*
X013803Y010488D01*
X013799Y010483D01*
X013798Y010482D01*
Y010481D01*
X013795Y010496D01*
X013791Y010510D01*
X013788Y010523D01*
X013783Y010536D01*
X013779Y010547D01*
X013774Y010558D01*
X013769Y010568D01*
X013764Y010576D01*
X013759Y010583D01*
X013754Y010590D01*
X013750Y010595D01*
X013746Y010599D01*
X013743Y010603D01*
X013741Y010606D01*
X013740Y010607D01*
X013739Y010608D01*
X013729Y010615D01*
X013720Y010621D01*
X013700Y010632D01*
X013680Y010640D01*
X013661Y010645D01*
X013644Y010648D01*
X013638Y010649D01*
X013631D01*
X013627Y010650D01*
X013619D01*
X013599Y010649D01*
X013580Y010645D01*
X013563Y010641D01*
X013548Y010636D01*
X013536Y010631D01*
X013527Y010626D01*
X013524Y010624D01*
X013521Y010622D01*
X013520Y010621D01*
X013520D01*
X013504Y010610D01*
X013491Y010598D01*
X013481Y010586D01*
X013471Y010574D01*
X013466Y010563D01*
X013461Y010555D01*
X013458Y010549D01*
X013458Y010548D01*
Y010547D01*
X013455Y010538D01*
X013452Y010528D01*
X013447Y010505D01*
X013445Y010480D01*
X013442Y010456D01*
Y010444D01*
X013441Y010434D01*
Y010423D01*
X013440Y010415D01*
Y010409D01*
Y010403D01*
Y010399D01*
Y010398D01*
Y010127D01*
X014080D01*
Y010256D01*
X013813D01*
Y010282D01*
Y010298D01*
X013814Y010311D01*
X013815Y010322D01*
X013816Y010331D01*
X013817Y010338D01*
X013819Y010343D01*
X013820Y010346D01*
Y010347D01*
X013824Y010354D01*
X013828Y010361D01*
X013832Y010368D01*
X013836Y010374D01*
X013840Y010379D01*
X013844Y010383D01*
X013846Y010385D01*
X013847Y010386D01*
X013852Y010389D01*
X013856Y010394D01*
X013870Y010404D01*
X013885Y010415D01*
X013902Y010427D01*
X013916Y010437D01*
X013924Y010442D01*
X013929Y010446D01*
X013934Y010449D01*
X013938Y010452D01*
X013940Y010453D01*
X013941Y010454D01*
X014080Y010546D01*
Y010702D01*
D02*
G37*
%LPD*%
G36*
X013827Y011482D02*
X013589Y011569D01*
X013827Y011658D01*
Y011482D01*
D02*
G37*
G36*
X013639Y010516D02*
X013648Y010515D01*
X013656Y010512D01*
X013664Y010510D01*
X013669Y010508D01*
X013673Y010505D01*
X013676Y010504D01*
X013677Y010503D01*
X013683Y010497D01*
X013689Y010492D01*
X013697Y010480D01*
X013700Y010475D01*
X013702Y010471D01*
X013704Y010468D01*
Y010467D01*
X013705Y010462D01*
X013706Y010455D01*
X013707Y010447D01*
X013708Y010439D01*
X013709Y010420D01*
X013710Y010400D01*
X013711Y010382D01*
Y010373D01*
Y010366D01*
Y010360D01*
Y010355D01*
Y010352D01*
Y010351D01*
Y010256D01*
X013548D01*
Y010356D01*
Y010370D01*
Y010383D01*
Y010394D01*
Y010404D01*
X013549Y010412D01*
Y010421D01*
Y010427D01*
Y010433D01*
X013550Y010441D01*
Y010447D01*
X013551Y010449D01*
Y010450D01*
X013554Y010461D01*
X013557Y010472D01*
X013561Y010480D01*
X013566Y010486D01*
X013570Y010492D01*
X013573Y010496D01*
X013576Y010498D01*
X013577Y010499D01*
X013584Y010505D01*
X013593Y010509D01*
X013602Y010512D01*
X013610Y010515D01*
X013618Y010516D01*
X013623Y010517D01*
X013629D01*
X013639Y010516D01*
D02*
G37*
%LPC*%
G36*
X014131Y025184D02*
X014082D01*
Y024882D01*
X013881Y025184D01*
X013828D01*
Y024800D01*
X013877D01*
Y025101D01*
X014078Y024800D01*
X014131D01*
Y025184D01*
D02*
G37*
G36*
X013634D02*
X013582D01*
X013478Y024905D01*
X013473Y024893D01*
X013469Y024882D01*
X013466Y024872D01*
X013463Y024862D01*
X013460Y024854D01*
X013459Y024848D01*
X013458Y024846D01*
X013458Y024844D01*
X013457Y024843D01*
Y024842D01*
X013450Y024864D01*
X013447Y024875D01*
X013444Y024884D01*
X013441Y024893D01*
X013440Y024896D01*
X013439Y024899D01*
X013438Y024902D01*
X013438Y024903D01*
X013437Y024904D01*
Y024905D01*
X013337Y025184D01*
X013282D01*
X013431Y024800D01*
X013484D01*
X013634Y025184D01*
D02*
G37*
G36*
X013739D02*
X013688D01*
Y024800D01*
X013739D01*
Y025184D01*
D02*
G37*
G36*
X025348Y011308D02*
X025240D01*
Y010869D01*
X025880D01*
Y010998D01*
X025608D01*
Y011266D01*
X025500D01*
Y010998D01*
X025348D01*
Y011308D01*
D02*
G37*
G36*
X025880Y010799D02*
X025755Y010720D01*
X025742Y010712D01*
X025729Y010703D01*
X025718Y010696D01*
X025708Y010688D01*
X025699Y010682D01*
X025689Y010676D01*
X025676Y010665D01*
X025665Y010657D01*
X025657Y010651D01*
X025652Y010647D01*
X025652Y010646D01*
X025640Y010636D01*
X025630Y010624D01*
X025622Y010613D01*
X025614Y010601D01*
X025607Y010592D01*
X025603Y010585D01*
X025599Y010579D01*
X025598Y010578D01*
Y010577D01*
X025595Y010593D01*
X025591Y010607D01*
X025588Y010620D01*
X025583Y010633D01*
X025578Y010644D01*
X025574Y010654D01*
X025569Y010664D01*
X025564Y010673D01*
X025559Y010680D01*
X025554Y010687D01*
X025550Y010692D01*
X025546Y010696D01*
X025543Y010700D01*
X025541Y010702D01*
X025540Y010703D01*
X025539Y010704D01*
X025529Y010712D01*
X025520Y010718D01*
X025500Y010729D01*
X025480Y010737D01*
X025461Y010741D01*
X025444Y010745D01*
X025438Y010746D01*
X025431D01*
X025427Y010747D01*
X025419D01*
X025399Y010746D01*
X025380Y010742D01*
X025363Y010737D01*
X025348Y010733D01*
X025336Y010727D01*
X025327Y010723D01*
X025324Y010721D01*
X025321Y010719D01*
X025320Y010718D01*
X025319D01*
X025304Y010707D01*
X025291Y010695D01*
X025281Y010683D01*
X025271Y010671D01*
X025266Y010660D01*
X025261Y010651D01*
X025258Y010646D01*
X025258Y010645D01*
Y010644D01*
X025255Y010635D01*
X025252Y010625D01*
X025247Y010601D01*
X025245Y010577D01*
X025242Y010552D01*
Y010540D01*
X025241Y010530D01*
Y010520D01*
X025240Y010512D01*
Y010505D01*
Y010500D01*
Y010496D01*
Y010495D01*
Y010223D01*
X025880D01*
Y010353D01*
X025613D01*
Y010379D01*
Y010394D01*
X025614Y010407D01*
X025615Y010418D01*
X025616Y010428D01*
X025617Y010435D01*
X025619Y010440D01*
X025620Y010442D01*
Y010443D01*
X025624Y010451D01*
X025628Y010458D01*
X025632Y010465D01*
X025636Y010471D01*
X025640Y010476D01*
X025644Y010479D01*
X025646Y010481D01*
X025647Y010482D01*
X025652Y010486D01*
X025656Y010490D01*
X025670Y010501D01*
X025685Y010512D01*
X025702Y010524D01*
X025716Y010534D01*
X025724Y010539D01*
X025729Y010542D01*
X025734Y010546D01*
X025738Y010549D01*
X025740Y010550D01*
X025741Y010551D01*
X025880Y010643D01*
Y010799D01*
D02*
G37*
G36*
Y011992D02*
X025240Y011735D01*
Y011598D01*
X025880Y011350D01*
Y011487D01*
X025735Y011539D01*
Y011797D01*
X025880Y011852D01*
Y011992D01*
D02*
G37*
G36*
X025709Y012287D02*
X025586D01*
Y012045D01*
X025709D01*
Y012287D01*
D02*
G37*
%LPD*%
G36*
X025439Y010613D02*
X025448Y010612D01*
X025456Y010609D01*
X025464Y010607D01*
X025469Y010604D01*
X025473Y010601D01*
X025476Y010601D01*
X025477Y010600D01*
X025483Y010594D01*
X025489Y010589D01*
X025497Y010577D01*
X025500Y010572D01*
X025502Y010567D01*
X025504Y010564D01*
Y010564D01*
X025505Y010559D01*
X025506Y010552D01*
X025507Y010544D01*
X025508Y010536D01*
X025509Y010516D01*
X025510Y010497D01*
X025511Y010478D01*
Y010470D01*
Y010463D01*
Y010456D01*
Y010452D01*
Y010449D01*
Y010448D01*
Y010353D01*
X025348D01*
Y010453D01*
Y010466D01*
Y010479D01*
Y010490D01*
Y010501D01*
X025349Y010509D01*
Y010517D01*
Y010524D01*
Y010529D01*
X025350Y010538D01*
Y010543D01*
X025351Y010546D01*
Y010547D01*
X025354Y010558D01*
X025357Y010568D01*
X025361Y010577D01*
X025366Y010583D01*
X025370Y010589D01*
X025373Y010593D01*
X025376Y010595D01*
X025377Y010596D01*
X025384Y010601D01*
X025394Y010606D01*
X025402Y010609D01*
X025410Y010612D01*
X025418Y010613D01*
X025423Y010614D01*
X025429D01*
X025439Y010613D01*
D02*
G37*
G36*
X025627Y011578D02*
X025389Y011665D01*
X025627Y011755D01*
Y011578D01*
D02*
G37*
%LPC*%
G36*
X027580Y018945D02*
X027291D01*
Y018305D01*
X027421D01*
Y018572D01*
X027462D01*
X027475Y018571D01*
X027486Y018570D01*
X027495Y018569D01*
X027503Y018568D01*
X027508Y018566D01*
X027510Y018565D01*
X027511D01*
X027519Y018561D01*
X027526Y018557D01*
X027532Y018553D01*
X027539Y018549D01*
X027544Y018545D01*
X027547Y018541D01*
X027549Y018539D01*
X027550Y018538D01*
X027554Y018533D01*
X027558Y018529D01*
X027569Y018515D01*
X027580Y018500D01*
X027592Y018483D01*
X027602Y018469D01*
X027606Y018461D01*
X027610Y018456D01*
X027614Y018451D01*
X027617Y018447D01*
X027618Y018445D01*
X027619Y018444D01*
X027711Y018305D01*
X027866D01*
X027788Y018430D01*
X027779Y018443D01*
X027771Y018456D01*
X027764Y018467D01*
X027756Y018477D01*
X027750Y018486D01*
X027744Y018496D01*
X027733Y018509D01*
X027725Y018520D01*
X027719Y018528D01*
X027715Y018533D01*
X027714Y018533D01*
X027704Y018545D01*
X027692Y018555D01*
X027680Y018563D01*
X027669Y018571D01*
X027660Y018578D01*
X027653Y018582D01*
X027647Y018586D01*
X027646Y018587D01*
X027645D01*
X027661Y018590D01*
X027675Y018594D01*
X027688Y018597D01*
X027701Y018602D01*
X027712Y018606D01*
X027722Y018611D01*
X027732Y018616D01*
X027741Y018621D01*
X027748Y018626D01*
X027754Y018631D01*
X027760Y018635D01*
X027764Y018639D01*
X027767Y018642D01*
X027770Y018644D01*
X027771Y018645D01*
X027772Y018646D01*
X027779Y018656D01*
X027786Y018665D01*
X027797Y018685D01*
X027804Y018705D01*
X027809Y018724D01*
X027813Y018741D01*
X027814Y018747D01*
Y018754D01*
X027815Y018758D01*
Y018763D01*
Y018765D01*
Y018766D01*
X027814Y018786D01*
X027810Y018805D01*
X027805Y018822D01*
X027801Y018837D01*
X027795Y018849D01*
X027791Y018858D01*
X027789Y018861D01*
X027787Y018864D01*
X027786Y018865D01*
Y018865D01*
X027775Y018881D01*
X027763Y018894D01*
X027751Y018904D01*
X027739Y018914D01*
X027728Y018919D01*
X027719Y018924D01*
X027714Y018927D01*
X027713Y018927D01*
X027712D01*
X027703Y018930D01*
X027692Y018933D01*
X027669Y018938D01*
X027644Y018940D01*
X027620Y018943D01*
X027608D01*
X027598Y018944D01*
X027588D01*
X027580Y018945D01*
D02*
G37*
G36*
X028376D02*
X027937D01*
Y018305D01*
X028066D01*
Y018577D01*
X028334D01*
Y018685D01*
X028066D01*
Y018837D01*
X028376D01*
Y018945D01*
D02*
G37*
G36*
X028765D02*
X028483D01*
Y018305D01*
X028761D01*
X028777Y018306D01*
X028804D01*
X028815Y018307D01*
X028833D01*
X028839Y018308D01*
X028849D01*
X028852Y018309D01*
X028856D01*
X028875Y018311D01*
X028891Y018316D01*
X028906Y018321D01*
X028919Y018326D01*
X028929Y018331D01*
X028937Y018335D01*
X028941Y018338D01*
X028943Y018339D01*
X028956Y018349D01*
X028966Y018360D01*
X028976Y018371D01*
X028984Y018382D01*
X028990Y018391D01*
X028995Y018398D01*
X028998Y018403D01*
X028999Y018405D01*
X029005Y018421D01*
X029011Y018435D01*
X029014Y018450D01*
X029016Y018463D01*
X029018Y018474D01*
X029019Y018483D01*
Y018488D01*
Y018489D01*
Y018490D01*
X029018Y018510D01*
X029014Y018529D01*
X029009Y018545D01*
X029003Y018559D01*
X028998Y018570D01*
X028992Y018579D01*
X028988Y018584D01*
X028988Y018586D01*
X028975Y018601D01*
X028961Y018613D01*
X028945Y018623D01*
X028931Y018631D01*
X028918Y018637D01*
X028907Y018642D01*
X028903Y018643D01*
X028901Y018643D01*
X028899Y018644D01*
X028898D01*
X028913Y018653D01*
X028926Y018661D01*
X028937Y018671D01*
X028946Y018680D01*
X028952Y018688D01*
X028958Y018694D01*
X028962Y018699D01*
X028963Y018701D01*
X028971Y018716D01*
X028977Y018730D01*
X028981Y018743D01*
X028985Y018756D01*
X028987Y018767D01*
X028988Y018776D01*
Y018781D01*
Y018782D01*
Y018783D01*
X028987Y018798D01*
X028985Y018813D01*
X028981Y018825D01*
X028977Y018836D01*
X028974Y018845D01*
X028970Y018853D01*
X028968Y018856D01*
X028967Y018858D01*
X028960Y018870D01*
X028951Y018880D01*
X028943Y018890D01*
X028936Y018898D01*
X028928Y018903D01*
X028923Y018908D01*
X028919Y018911D01*
X028918Y018912D01*
X028907Y018919D01*
X028895Y018925D01*
X028884Y018929D01*
X028874Y018933D01*
X028864Y018936D01*
X028858Y018938D01*
X028853Y018939D01*
X028852D01*
X028836Y018940D01*
X028818Y018942D01*
X028800Y018943D01*
X028781Y018944D01*
X028765Y018945D01*
D02*
G37*
%LPD*%
G36*
X027577Y018836D02*
X027597D01*
X027606Y018835D01*
X027611D01*
X027614Y018834D01*
X027615D01*
X027626Y018831D01*
X027636Y018828D01*
X027644Y018824D01*
X027651Y018819D01*
X027656Y018815D01*
X027661Y018812D01*
X027663Y018809D01*
X027664Y018808D01*
X027669Y018801D01*
X027674Y018792D01*
X027677Y018783D01*
X027680Y018775D01*
X027680Y018767D01*
X027681Y018762D01*
Y018758D01*
Y018756D01*
X027680Y018746D01*
X027680Y018737D01*
X027677Y018729D01*
X027675Y018721D01*
X027672Y018716D01*
X027669Y018712D01*
X027668Y018709D01*
X027668Y018708D01*
X027662Y018702D01*
X027656Y018696D01*
X027644Y018688D01*
X027640Y018685D01*
X027635Y018683D01*
X027632Y018681D01*
X027631D01*
X027627Y018680D01*
X027619Y018679D01*
X027612Y018678D01*
X027604Y018677D01*
X027584Y018676D01*
X027565Y018675D01*
X027546Y018674D01*
X027421D01*
Y018837D01*
X027569D01*
X027577Y018836D01*
D02*
G37*
G36*
X028760Y018583D02*
X028771Y018582D01*
X028782D01*
X028791Y018582D01*
X028800Y018581D01*
X028806Y018580D01*
X028813Y018579D01*
X028817Y018578D01*
X028825Y018577D01*
X028829Y018575D01*
X028830D01*
X028839Y018571D01*
X028848Y018567D01*
X028855Y018562D01*
X028861Y018557D01*
X028865Y018553D01*
X028868Y018549D01*
X028870Y018546D01*
X028871Y018545D01*
X028876Y018537D01*
X028879Y018529D01*
X028882Y018521D01*
X028884Y018513D01*
X028885Y018507D01*
X028886Y018501D01*
Y018497D01*
Y018496D01*
X028885Y018484D01*
X028883Y018473D01*
X028880Y018464D01*
X028877Y018457D01*
X028873Y018450D01*
X028870Y018446D01*
X028868Y018443D01*
X028867Y018442D01*
X028860Y018435D01*
X028852Y018430D01*
X028844Y018425D01*
X028837Y018421D01*
X028830Y018420D01*
X028825Y018418D01*
X028821Y018417D01*
X028820D01*
X028816Y018416D01*
X028811D01*
X028799Y018415D01*
X028784Y018414D01*
X028769D01*
X028755Y018413D01*
X028613D01*
Y018584D01*
X028747D01*
X028760Y018583D01*
D02*
G37*
G36*
X028752Y018838D02*
X028776D01*
X028781Y018837D01*
X028791D01*
X028795Y018836D01*
X028796D01*
X028807Y018834D01*
X028817Y018831D01*
X028826Y018828D01*
X028833Y018824D01*
X028838Y018820D01*
X028842Y018816D01*
X028844Y018815D01*
X028845Y018814D01*
X028851Y018806D01*
X028854Y018798D01*
X028858Y018791D01*
X028860Y018783D01*
X028861Y018776D01*
X028862Y018770D01*
Y018767D01*
Y018766D01*
X028861Y018755D01*
X028859Y018744D01*
X028855Y018736D01*
X028852Y018729D01*
X028849Y018722D01*
X028845Y018718D01*
X028843Y018716D01*
X028842Y018715D01*
X028835Y018708D01*
X028827Y018704D01*
X028818Y018700D01*
X028810Y018697D01*
X028802Y018694D01*
X028796Y018693D01*
X028792Y018693D01*
X028787D01*
X028781Y018692D01*
X028753D01*
X028737Y018691D01*
X028613D01*
Y018839D01*
X028741D01*
X028752Y018838D01*
D02*
G37*
%LPC*%
G36*
X011754Y018466D02*
X011640D01*
Y018408D01*
X011754D01*
Y018466D01*
D02*
G37*
G36*
X012509Y018630D02*
X012444D01*
X012370Y018406D01*
X012293Y018630D01*
X012227D01*
X012335Y018327D01*
X012401D01*
X012509Y018630D01*
D02*
G37*
G36*
X012661D02*
X012540D01*
Y018327D01*
X012654D01*
X012666Y018328D01*
X012677Y018328D01*
X012686Y018329D01*
X012694Y018330D01*
X012700Y018331D01*
X012705Y018332D01*
X012706Y018333D01*
X012707D01*
X012708Y018333D01*
X012708D01*
X012718Y018337D01*
X012727Y018341D01*
X012734Y018345D01*
X012740Y018349D01*
X012744Y018352D01*
X012748Y018355D01*
X012750Y018356D01*
X012751Y018357D01*
X012758Y018366D01*
X012765Y018374D01*
X012771Y018384D01*
X012775Y018392D01*
X012779Y018400D01*
X012780Y018403D01*
X012781Y018405D01*
X012782Y018408D01*
X012783Y018410D01*
X012783Y018411D01*
Y018411D01*
X012786Y018422D01*
X012789Y018432D01*
X012791Y018443D01*
X012792Y018453D01*
X012792Y018458D01*
X012793Y018462D01*
Y018466D01*
X012793Y018469D01*
Y018472D01*
Y018474D01*
Y018475D01*
Y018475D01*
X012793Y018491D01*
X012791Y018504D01*
X012791Y018511D01*
X012790Y018516D01*
X012789Y018522D01*
X012788Y018527D01*
X012787Y018531D01*
X012786Y018535D01*
X012785Y018539D01*
X012785Y018541D01*
X012784Y018543D01*
X012783Y018545D01*
X012783Y018546D01*
Y018547D01*
X012779Y018557D01*
X012774Y018567D01*
X012769Y018575D01*
X012765Y018582D01*
X012761Y018588D01*
X012757Y018592D01*
X012755Y018595D01*
X012755Y018595D01*
X012754D01*
X012747Y018602D01*
X012739Y018608D01*
X012731Y018613D01*
X012724Y018617D01*
X012718Y018620D01*
X012713Y018622D01*
X012711Y018623D01*
X012710Y018623D01*
X012709Y018623D01*
X012709D01*
X012700Y018626D01*
X012691Y018627D01*
X012682Y018628D01*
X012672Y018629D01*
X012664Y018629D01*
X012661Y018630D01*
D02*
G37*
G36*
X012980Y018635D02*
X012975D01*
X012964Y018635D01*
X012952Y018633D01*
X012942Y018631D01*
X012932Y018629D01*
X012924Y018626D01*
X012915Y018622D01*
X012907Y018618D01*
X012900Y018614D01*
X012894Y018610D01*
X012889Y018606D01*
X012884Y018603D01*
X012880Y018600D01*
X012877Y018597D01*
X012875Y018595D01*
X012873Y018594D01*
X012873Y018593D01*
X012866Y018585D01*
X012860Y018576D01*
X012855Y018567D01*
X012851Y018557D01*
X012847Y018547D01*
X012844Y018538D01*
X012841Y018528D01*
X012839Y018519D01*
X012837Y018510D01*
X012836Y018502D01*
X012835Y018494D01*
X012834Y018488D01*
Y018483D01*
X012834Y018479D01*
Y018477D01*
Y018476D01*
Y018476D01*
X012834Y018463D01*
X012836Y018450D01*
X012838Y018439D01*
X012840Y018428D01*
X012843Y018418D01*
X012846Y018408D01*
X012850Y018400D01*
X012853Y018393D01*
X012857Y018386D01*
X012860Y018380D01*
X012864Y018375D01*
X012866Y018370D01*
X012869Y018367D01*
X012871Y018365D01*
X012872Y018363D01*
X012873Y018363D01*
X012880Y018356D01*
X012888Y018349D01*
X012896Y018344D01*
X012904Y018339D01*
X012913Y018335D01*
X012921Y018332D01*
X012929Y018329D01*
X012936Y018327D01*
X012944Y018325D01*
X012950Y018324D01*
X012956Y018323D01*
X012961Y018323D01*
X012966Y018322D01*
X012969Y018322D01*
X012971D01*
X012980Y018322D01*
X012989Y018323D01*
X012997Y018324D01*
X013004Y018326D01*
X013011Y018328D01*
X013018Y018329D01*
X013024Y018331D01*
X013030Y018334D01*
X013035Y018336D01*
X013039Y018338D01*
X013043Y018340D01*
X013046Y018342D01*
X013049Y018344D01*
X013050Y018345D01*
X013051Y018345D01*
X013052Y018346D01*
X013057Y018351D01*
X013063Y018356D01*
X013072Y018368D01*
X013080Y018380D01*
X013086Y018392D01*
X013089Y018397D01*
X013091Y018403D01*
X013093Y018408D01*
X013095Y018411D01*
X013096Y018415D01*
X013097Y018418D01*
X013097Y018419D01*
Y018420D01*
X013038Y018438D01*
X013034Y018426D01*
X013030Y018416D01*
X013026Y018408D01*
X013022Y018401D01*
X013018Y018396D01*
X013015Y018392D01*
X013013Y018390D01*
X013012Y018389D01*
X013005Y018384D01*
X012998Y018380D01*
X012991Y018378D01*
X012985Y018376D01*
X012980Y018375D01*
X012975Y018374D01*
X012973Y018374D01*
X012971D01*
X012965Y018374D01*
X012959Y018375D01*
X012949Y018378D01*
X012939Y018381D01*
X012932Y018386D01*
X012926Y018390D01*
X012921Y018394D01*
X012920Y018396D01*
X012918Y018397D01*
X012918Y018397D01*
X012918Y018398D01*
X012914Y018403D01*
X012911Y018408D01*
X012908Y018415D01*
X012906Y018421D01*
X012902Y018435D01*
X012900Y018448D01*
X012899Y018455D01*
X012898Y018460D01*
X012897Y018466D01*
Y018471D01*
X012897Y018474D01*
Y018477D01*
Y018480D01*
Y018480D01*
X012897Y018490D01*
X012898Y018499D01*
X012899Y018508D01*
X012900Y018515D01*
X012902Y018522D01*
X012904Y018529D01*
X012905Y018535D01*
X012907Y018540D01*
X012909Y018544D01*
X012911Y018548D01*
X012913Y018551D01*
X012914Y018554D01*
X012916Y018556D01*
X012917Y018557D01*
X012918Y018558D01*
Y018559D01*
X012921Y018563D01*
X012926Y018567D01*
X012930Y018570D01*
X012935Y018573D01*
X012944Y018577D01*
X012953Y018580D01*
X012960Y018582D01*
X012964Y018582D01*
X012966Y018583D01*
X012969Y018583D01*
X012972D01*
X012981Y018583D01*
X012989Y018581D01*
X012996Y018579D01*
X013002Y018576D01*
X013007Y018574D01*
X013010Y018571D01*
X013012Y018570D01*
X013013Y018569D01*
X013019Y018564D01*
X013024Y018558D01*
X013028Y018552D01*
X013031Y018546D01*
X013033Y018540D01*
X013035Y018536D01*
X013036Y018535D01*
Y018533D01*
X013036Y018533D01*
Y018533D01*
X013096Y018547D01*
X013092Y018560D01*
X013087Y018571D01*
X013082Y018580D01*
X013077Y018588D01*
X013072Y018594D01*
X013070Y018597D01*
X013069Y018599D01*
X013067Y018600D01*
X013066Y018602D01*
X013066Y018602D01*
X013065D01*
X013059Y018608D01*
X013051Y018613D01*
X013044Y018618D01*
X013037Y018621D01*
X013029Y018625D01*
X013022Y018627D01*
X013014Y018630D01*
X013007Y018631D01*
X013001Y018633D01*
X012994Y018633D01*
X012989Y018634D01*
X012984Y018635D01*
X012980Y018635D01*
D02*
G37*
G36*
X011932Y018950D02*
X011879D01*
Y018872D01*
X011800D01*
Y018818D01*
X011879D01*
Y018739D01*
X011932D01*
Y018818D01*
X012011D01*
Y018872D01*
X011932D01*
Y018950D01*
D02*
G37*
G36*
X012401Y018998D02*
X012340D01*
Y018696D01*
X012401D01*
Y018998D01*
D02*
G37*
G36*
X011513Y018631D02*
X011509D01*
X011500Y018631D01*
X011492Y018630D01*
X011484Y018628D01*
X011476Y018626D01*
X011469Y018623D01*
X011462Y018619D01*
X011457Y018616D01*
X011451Y018613D01*
X011446Y018609D01*
X011442Y018606D01*
X011438Y018603D01*
X011435Y018600D01*
X011433Y018598D01*
X011431Y018596D01*
X011430Y018595D01*
X011430Y018594D01*
X011424Y018587D01*
X011419Y018578D01*
X011416Y018569D01*
X011412Y018560D01*
X011409Y018550D01*
X011406Y018540D01*
X011404Y018530D01*
X011403Y018520D01*
X011402Y018511D01*
X011401Y018502D01*
X011400Y018494D01*
X011399Y018487D01*
X011399Y018482D01*
Y018477D01*
Y018476D01*
Y018475D01*
Y018474D01*
Y018474D01*
X011399Y018459D01*
X011400Y018446D01*
X011402Y018433D01*
X011404Y018422D01*
X011406Y018411D01*
X011408Y018401D01*
X011411Y018393D01*
X011414Y018385D01*
X011416Y018378D01*
X011419Y018373D01*
X011421Y018368D01*
X011424Y018364D01*
X011426Y018361D01*
X011427Y018359D01*
X011428Y018357D01*
X011428Y018357D01*
X011434Y018351D01*
X011440Y018345D01*
X011446Y018340D01*
X011453Y018336D01*
X011459Y018333D01*
X011465Y018330D01*
X011471Y018328D01*
X011477Y018326D01*
X011483Y018325D01*
X011488Y018323D01*
X011492Y018323D01*
X011496Y018322D01*
X011499D01*
X011502Y018321D01*
X011504D01*
X011512Y018322D01*
X011519Y018323D01*
X011526Y018324D01*
X011533Y018326D01*
X011539Y018328D01*
X011545Y018330D01*
X011550Y018333D01*
X011555Y018335D01*
X011559Y018338D01*
X011563Y018341D01*
X011566Y018343D01*
X011569Y018345D01*
X011571Y018347D01*
X011572Y018348D01*
X011573Y018349D01*
X011574Y018349D01*
X011579Y018355D01*
X011583Y018361D01*
X011586Y018367D01*
X011589Y018373D01*
X011593Y018379D01*
X011595Y018385D01*
X011598Y018397D01*
X011599Y018403D01*
X011600Y018408D01*
X011600Y018412D01*
X011601Y018416D01*
X011601Y018420D01*
Y018422D01*
Y018424D01*
Y018424D01*
X011601Y018432D01*
X011600Y018440D01*
X011599Y018447D01*
X011597Y018454D01*
X011595Y018460D01*
X011593Y018466D01*
X011591Y018472D01*
X011588Y018477D01*
X011586Y018481D01*
X011583Y018485D01*
X011581Y018488D01*
X011579Y018491D01*
X011578Y018493D01*
X011576Y018494D01*
X011575Y018495D01*
X011575Y018496D01*
X011570Y018501D01*
X011565Y018505D01*
X011560Y018509D01*
X011555Y018512D01*
X011549Y018515D01*
X011544Y018517D01*
X011534Y018520D01*
X011530Y018522D01*
X011526Y018522D01*
X011522Y018523D01*
X011519Y018523D01*
X011516Y018524D01*
X011513D01*
X011507Y018523D01*
X011501Y018522D01*
X011496Y018522D01*
X011491Y018520D01*
X011482Y018515D01*
X011474Y018511D01*
X011468Y018506D01*
X011465Y018504D01*
X011463Y018502D01*
X011461Y018500D01*
X011460Y018499D01*
X011459Y018498D01*
X011459Y018498D01*
X011460Y018507D01*
X011461Y018516D01*
X011461Y018524D01*
X011463Y018531D01*
X011464Y018537D01*
X011465Y018543D01*
X011467Y018547D01*
X011468Y018552D01*
X011470Y018556D01*
X011471Y018559D01*
X011472Y018561D01*
X011473Y018563D01*
X011474Y018565D01*
X011475Y018566D01*
X011475Y018567D01*
X011480Y018572D01*
X011485Y018576D01*
X011490Y018579D01*
X011495Y018581D01*
X011499Y018582D01*
X011503Y018583D01*
X011505Y018583D01*
X011506D01*
X011511Y018583D01*
X011516Y018582D01*
X011520Y018581D01*
X011523Y018579D01*
X011525Y018578D01*
X011527Y018576D01*
X011528Y018575D01*
X011529Y018575D01*
X011532Y018571D01*
X011534Y018567D01*
X011536Y018563D01*
X011537Y018559D01*
X011538Y018555D01*
X011539Y018552D01*
X011540Y018550D01*
Y018550D01*
X011596Y018556D01*
X011593Y018569D01*
X011588Y018580D01*
X011583Y018589D01*
X011579Y018598D01*
X011574Y018604D01*
X011572Y018606D01*
X011570Y018608D01*
X011568Y018609D01*
X011567Y018611D01*
X011567Y018612D01*
X011566D01*
X011562Y018615D01*
X011558Y018618D01*
X011548Y018623D01*
X011538Y018626D01*
X011530Y018629D01*
X011522Y018630D01*
X011518Y018631D01*
X011515D01*
X011513Y018631D01*
D02*
G37*
G36*
X011663Y017917D02*
X011652D01*
X011628Y017916D01*
X011604Y017913D01*
X011583Y017908D01*
X011561Y017903D01*
X011543Y017896D01*
X011524Y017889D01*
X011509Y017881D01*
X011494Y017872D01*
X011480Y017864D01*
X011469Y017856D01*
X011459Y017848D01*
X011450Y017842D01*
X011444Y017836D01*
X011439Y017832D01*
X011436Y017829D01*
X011436Y017828D01*
X011421Y017810D01*
X011409Y017792D01*
X011398Y017772D01*
X011388Y017752D01*
X011380Y017731D01*
X011374Y017710D01*
X011368Y017690D01*
X011363Y017671D01*
X011360Y017651D01*
X011358Y017634D01*
X011356Y017619D01*
X011354Y017606D01*
Y017595D01*
X011353Y017586D01*
Y017581D01*
Y017580D01*
Y017579D01*
X011354Y017551D01*
X011357Y017525D01*
X011361Y017500D01*
X011366Y017478D01*
X011372Y017457D01*
X011379Y017437D01*
X011387Y017419D01*
X011394Y017403D01*
X011401Y017388D01*
X011409Y017375D01*
X011416Y017365D01*
X011422Y017356D01*
X011427Y017350D01*
X011431Y017344D01*
X011434Y017341D01*
X011435Y017340D01*
X011450Y017325D01*
X011467Y017312D01*
X011485Y017300D01*
X011502Y017290D01*
X011520Y017282D01*
X011537Y017275D01*
X011554Y017269D01*
X011570Y017264D01*
X011585Y017261D01*
X011599Y017258D01*
X011612Y017256D01*
X011622Y017255D01*
X011632Y017254D01*
X011638Y017253D01*
X011644D01*
X011663Y017254D01*
X011681Y017255D01*
X011698Y017258D01*
X011714Y017262D01*
X011729Y017265D01*
X011743Y017269D01*
X011756Y017274D01*
X011768Y017279D01*
X011778Y017284D01*
X011787Y017289D01*
X011795Y017292D01*
X011802Y017296D01*
X011807Y017300D01*
X011811Y017302D01*
X011813Y017303D01*
X011814Y017304D01*
X011826Y017314D01*
X011837Y017326D01*
X011857Y017351D01*
X011874Y017376D01*
X011887Y017401D01*
X011892Y017413D01*
X011897Y017425D01*
X011901Y017435D01*
X011905Y017443D01*
X011907Y017450D01*
X011909Y017456D01*
X011910Y017460D01*
Y017461D01*
X011784Y017499D01*
X011777Y017474D01*
X011769Y017453D01*
X011760Y017436D01*
X011751Y017421D01*
X011744Y017410D01*
X011737Y017402D01*
X011732Y017398D01*
X011731Y017396D01*
X011716Y017385D01*
X011701Y017377D01*
X011686Y017372D01*
X011673Y017367D01*
X011661Y017365D01*
X011651Y017364D01*
X011647Y017363D01*
X011643D01*
X011630Y017364D01*
X011618Y017365D01*
X011596Y017372D01*
X011576Y017379D01*
X011560Y017389D01*
X011547Y017399D01*
X011538Y017406D01*
X011535Y017410D01*
X011532Y017412D01*
X011531Y017413D01*
X011530Y017414D01*
X011522Y017425D01*
X011516Y017437D01*
X011510Y017449D01*
X011505Y017463D01*
X011498Y017492D01*
X011492Y017521D01*
X011490Y017535D01*
X011489Y017547D01*
X011487Y017559D01*
Y017569D01*
X011486Y017576D01*
Y017583D01*
Y017587D01*
Y017588D01*
X011487Y017610D01*
X011488Y017629D01*
X011490Y017647D01*
X011493Y017663D01*
X011497Y017678D01*
X011500Y017692D01*
X011504Y017704D01*
X011509Y017715D01*
X011512Y017724D01*
X011516Y017733D01*
X011520Y017739D01*
X011523Y017745D01*
X011526Y017749D01*
X011528Y017752D01*
X011530Y017754D01*
Y017755D01*
X011538Y017764D01*
X011547Y017772D01*
X011557Y017779D01*
X011567Y017784D01*
X011586Y017794D01*
X011605Y017800D01*
X011621Y017804D01*
X011628Y017805D01*
X011633Y017806D01*
X011639Y017807D01*
X011646D01*
X011664Y017806D01*
X011681Y017802D01*
X011695Y017797D01*
X011708Y017792D01*
X011719Y017786D01*
X011726Y017782D01*
X011731Y017778D01*
X011732Y017777D01*
X011744Y017766D01*
X011756Y017753D01*
X011764Y017740D01*
X011770Y017727D01*
X011775Y017716D01*
X011778Y017708D01*
X011780Y017704D01*
Y017701D01*
X011781Y017700D01*
Y017699D01*
X011908Y017730D01*
X011899Y017757D01*
X011889Y017780D01*
X011878Y017800D01*
X011868Y017817D01*
X011857Y017830D01*
X011854Y017835D01*
X011850Y017840D01*
X011847Y017843D01*
X011844Y017845D01*
X011843Y017847D01*
X011843D01*
X011829Y017859D01*
X011813Y017870D01*
X011798Y017880D01*
X011782Y017887D01*
X011766Y017894D01*
X011750Y017900D01*
X011734Y017905D01*
X011720Y017908D01*
X011706Y017911D01*
X011693Y017913D01*
X011682Y017915D01*
X011671Y017916D01*
X011663Y017917D01*
D02*
G37*
G36*
X013135Y017905D02*
X012961D01*
X012698Y017620D01*
Y017905D01*
X012569D01*
Y017264D01*
X012698D01*
Y017458D01*
X012803Y017565D01*
X012979Y017264D01*
X013147D01*
X012892Y017655D01*
X013135Y017905D01*
D02*
G37*
G36*
X012154Y017900D02*
X012025D01*
Y017264D01*
X012476D01*
Y017373D01*
X012154D01*
Y017900D01*
D02*
G37*
G36*
X011374Y018630D02*
X011271D01*
Y018242D01*
X011374D01*
Y018287D01*
X011326D01*
Y018584D01*
X011374D01*
Y018630D01*
D02*
G37*
G36*
X012114Y018631D02*
X012110D01*
X012102Y018631D01*
X012095Y018630D01*
X012082Y018628D01*
X012070Y018625D01*
X012065Y018623D01*
X012060Y018621D01*
X012056Y018619D01*
X012052Y018617D01*
X012049Y018615D01*
X012046Y018614D01*
X012044Y018612D01*
X012043Y018611D01*
X012042Y018611D01*
X012041Y018610D01*
X012037Y018606D01*
X012032Y018602D01*
X012028Y018596D01*
X012025Y018591D01*
X012019Y018579D01*
X012015Y018568D01*
X012014Y018563D01*
X012012Y018558D01*
X012011Y018553D01*
X012011Y018550D01*
X012010Y018546D01*
Y018544D01*
X012009Y018542D01*
Y018542D01*
X012067Y018536D01*
X012068Y018545D01*
X012070Y018552D01*
X012071Y018559D01*
X012074Y018564D01*
X012075Y018567D01*
X012077Y018570D01*
X012078Y018572D01*
X012079Y018572D01*
X012083Y018576D01*
X012088Y018578D01*
X012093Y018581D01*
X012098Y018582D01*
X012102Y018583D01*
X012105Y018583D01*
X012108D01*
X012115Y018583D01*
X012120Y018581D01*
X012125Y018580D01*
X012130Y018578D01*
X012133Y018576D01*
X012135Y018574D01*
X012137Y018573D01*
X012137Y018573D01*
X012141Y018568D01*
X012143Y018564D01*
X012145Y018559D01*
X012146Y018554D01*
X012147Y018550D01*
X012148Y018546D01*
Y018543D01*
Y018543D01*
Y018543D01*
X012147Y018536D01*
X012146Y018530D01*
X012144Y018524D01*
X012141Y018519D01*
X012139Y018514D01*
X012137Y018510D01*
X012136Y018508D01*
X012135Y018507D01*
X012134Y018505D01*
X012131Y018501D01*
X012127Y018498D01*
X012124Y018494D01*
X012116Y018486D01*
X012108Y018477D01*
X012100Y018470D01*
X012097Y018466D01*
X012093Y018463D01*
X012091Y018461D01*
X012089Y018459D01*
X012088Y018458D01*
X012087Y018457D01*
X012078Y018449D01*
X012071Y018441D01*
X012063Y018434D01*
X012057Y018427D01*
X012051Y018421D01*
X012045Y018415D01*
X012040Y018409D01*
X012037Y018404D01*
X012033Y018400D01*
X012030Y018396D01*
X012027Y018393D01*
X012026Y018390D01*
X012024Y018388D01*
X012023Y018386D01*
X012022Y018385D01*
Y018385D01*
X012016Y018375D01*
X012012Y018364D01*
X012009Y018355D01*
X012006Y018346D01*
X012004Y018338D01*
X012004Y018335D01*
X012003Y018332D01*
X012003Y018330D01*
X012002Y018328D01*
Y018328D01*
Y018327D01*
X012206D01*
Y018381D01*
X012090D01*
X012094Y018387D01*
X012098Y018391D01*
X012099Y018394D01*
X012101Y018395D01*
X012102Y018396D01*
X012102Y018397D01*
X012104Y018398D01*
X012106Y018401D01*
X012111Y018405D01*
X012117Y018411D01*
X012122Y018417D01*
X012128Y018422D01*
X012133Y018426D01*
X012134Y018428D01*
X012136Y018429D01*
X012137Y018430D01*
X012137Y018430D01*
X012147Y018439D01*
X012155Y018447D01*
X012161Y018454D01*
X012166Y018459D01*
X012170Y018463D01*
X012173Y018467D01*
X012175Y018469D01*
X012175Y018469D01*
X012181Y018477D01*
X012186Y018484D01*
X012189Y018490D01*
X012193Y018496D01*
X012195Y018501D01*
X012197Y018505D01*
X012198Y018507D01*
X012198Y018508D01*
X012201Y018515D01*
X012203Y018522D01*
X012204Y018528D01*
X012205Y018534D01*
X012205Y018539D01*
X012206Y018543D01*
Y018546D01*
Y018547D01*
X012205Y018553D01*
X012204Y018560D01*
X012203Y018566D01*
X012202Y018571D01*
X012197Y018581D01*
X012193Y018590D01*
X012190Y018594D01*
X012188Y018597D01*
X012186Y018600D01*
X012184Y018602D01*
X012182Y018604D01*
X012181Y018606D01*
X012180Y018606D01*
X012180Y018607D01*
X012175Y018611D01*
X012169Y018615D01*
X012164Y018618D01*
X012158Y018621D01*
X012147Y018625D01*
X012135Y018628D01*
X012130Y018629D01*
X012125Y018630D01*
X012121Y018630D01*
X012117Y018631D01*
X012114Y018631D01*
D02*
G37*
G36*
X011923D02*
X011876D01*
X011871Y018621D01*
X011866Y018612D01*
X011860Y018603D01*
X011853Y018596D01*
X011848Y018591D01*
X011843Y018586D01*
X011842Y018585D01*
X011840Y018583D01*
X011839Y018583D01*
X011839Y018582D01*
X011829Y018575D01*
X011820Y018569D01*
X011812Y018564D01*
X011804Y018561D01*
X011798Y018558D01*
X011794Y018556D01*
X011792Y018556D01*
X011791Y018555D01*
X011790Y018555D01*
X011790D01*
Y018502D01*
X011806Y018508D01*
X011820Y018515D01*
X011826Y018519D01*
X011832Y018522D01*
X011838Y018526D01*
X011843Y018529D01*
X011848Y018533D01*
X011853Y018536D01*
X011856Y018539D01*
X011859Y018541D01*
X011862Y018543D01*
X011863Y018545D01*
X011864Y018546D01*
X011865Y018546D01*
Y018327D01*
X011923D01*
Y018631D01*
D02*
G37*
G36*
X013229Y018630D02*
X013126D01*
Y018585D01*
X013174D01*
Y018287D01*
X013126D01*
Y018242D01*
X013229D01*
Y018630D01*
D02*
G37*
G36*
X012700Y018998D02*
X012644D01*
Y018794D01*
X012519Y018998D01*
X012460D01*
Y018696D01*
X012516D01*
Y018895D01*
X012639Y018696D01*
X012700D01*
Y018998D01*
D02*
G37*
G36*
X012311D02*
X012246D01*
X012172Y018774D01*
X012095Y018998D01*
X012029D01*
X012138Y018696D01*
X012204D01*
X012311Y018998D01*
D02*
G37*
G36*
X012915Y013930D02*
X012659D01*
Y013290D01*
X012902D01*
X012927Y013291D01*
X012950Y013292D01*
X012969Y013294D01*
X012985Y013296D01*
X012998Y013299D01*
X013008Y013301D01*
X013011Y013302D01*
X013014D01*
X013015Y013303D01*
X013016D01*
X013036Y013310D01*
X013054Y013319D01*
X013069Y013327D01*
X013082Y013335D01*
X013092Y013343D01*
X013100Y013348D01*
X013104Y013352D01*
X013106Y013354D01*
X013122Y013371D01*
X013136Y013390D01*
X013148Y013409D01*
X013157Y013427D01*
X013164Y013443D01*
X013168Y013450D01*
X013170Y013456D01*
X013172Y013461D01*
X013174Y013465D01*
X013175Y013467D01*
Y013468D01*
X013181Y013490D01*
X013187Y013513D01*
X013190Y013535D01*
X013192Y013556D01*
X013193Y013567D01*
X013194Y013576D01*
Y013583D01*
X013195Y013591D01*
Y013596D01*
Y013600D01*
Y013603D01*
Y013604D01*
X013194Y013636D01*
X013191Y013665D01*
X013190Y013678D01*
X013189Y013690D01*
X013187Y013702D01*
X013185Y013713D01*
X013182Y013722D01*
X013180Y013730D01*
X013178Y013738D01*
X013177Y013743D01*
X013176Y013748D01*
X013175Y013752D01*
X013174Y013753D01*
Y013754D01*
X013165Y013777D01*
X013155Y013797D01*
X013145Y013814D01*
X013135Y013829D01*
X013127Y013841D01*
X013119Y013851D01*
X013115Y013856D01*
X013114Y013858D01*
X013113D01*
X013097Y013873D01*
X013081Y013885D01*
X013065Y013895D01*
X013050Y013903D01*
X013037Y013910D01*
X013026Y013914D01*
X013022Y013915D01*
X013019Y013916D01*
X013017Y013917D01*
X013016D01*
X012999Y013922D01*
X012979Y013924D01*
X012959Y013927D01*
X012940Y013928D01*
X012922Y013929D01*
X012915Y013930D01*
D02*
G37*
G36*
X011623Y013942D02*
X011612D01*
X011579Y013941D01*
X011549Y013937D01*
X011536Y013935D01*
X011523Y013932D01*
X011511Y013929D01*
X011501Y013926D01*
X011492Y013923D01*
X011483Y013920D01*
X011476Y013917D01*
X011470Y013915D01*
X011465Y013912D01*
X011462Y013912D01*
X011460Y013910D01*
X011459D01*
X011430Y013893D01*
X011418Y013883D01*
X011406Y013874D01*
X011395Y013863D01*
X011385Y013853D01*
X011375Y013843D01*
X011367Y013834D01*
X011361Y013825D01*
X011354Y013816D01*
X011349Y013809D01*
X011344Y013802D01*
X011341Y013797D01*
X011338Y013793D01*
X011338Y013790D01*
X011337Y013789D01*
X011329Y013775D01*
X011323Y013760D01*
X011313Y013729D01*
X011305Y013699D01*
X011301Y013672D01*
X011299Y013659D01*
X011297Y013648D01*
X011296Y013638D01*
Y013628D01*
X011295Y013622D01*
Y013616D01*
Y013613D01*
Y013612D01*
X011297Y013578D01*
X011301Y013546D01*
X011307Y013518D01*
X011310Y013504D01*
X011314Y013492D01*
X011317Y013480D01*
X011320Y013470D01*
X011324Y013462D01*
X011326Y013455D01*
X011328Y013449D01*
X011330Y013444D01*
X011332Y013442D01*
Y013441D01*
X011348Y013413D01*
X011365Y013389D01*
X011384Y013368D01*
X011402Y013351D01*
X011411Y013344D01*
X011419Y013337D01*
X011425Y013332D01*
X011432Y013328D01*
X011437Y013324D01*
X011441Y013321D01*
X011443Y013320D01*
X011444Y013320D01*
X011459Y013312D01*
X011473Y013306D01*
X011503Y013296D01*
X011533Y013288D01*
X011560Y013283D01*
X011573Y013282D01*
X011584Y013280D01*
X011594Y013279D01*
X011603D01*
X011610Y013278D01*
X011620D01*
X011649Y013279D01*
X011677Y013283D01*
X011704Y013287D01*
X011727Y013293D01*
X011737Y013296D01*
X011746Y013298D01*
X011755Y013301D01*
X011762Y013303D01*
X011768Y013305D01*
X011771Y013307D01*
X011774Y013308D01*
X011775D01*
X011803Y013319D01*
X011826Y013331D01*
X011846Y013343D01*
X011864Y013353D01*
X011877Y013362D01*
X011881Y013366D01*
X011886Y013369D01*
X011889Y013372D01*
X011892Y013374D01*
X011894Y013376D01*
Y013633D01*
X011615D01*
Y013525D01*
X011763D01*
Y013443D01*
X011752Y013434D01*
X011740Y013427D01*
X011728Y013420D01*
X011717Y013415D01*
X011708Y013410D01*
X011699Y013406D01*
X011695Y013405D01*
X011694Y013404D01*
X011693D01*
X011678Y013398D01*
X011663Y013394D01*
X011649Y013392D01*
X011637Y013390D01*
X011626Y013389D01*
X011619Y013388D01*
X011611D01*
X011597Y013389D01*
X011582Y013391D01*
X011569Y013394D01*
X011556Y013397D01*
X011533Y013406D01*
X011523Y013411D01*
X011514Y013417D01*
X011506Y013422D01*
X011499Y013427D01*
X011493Y013432D01*
X011487Y013436D01*
X011484Y013440D01*
X011481Y013443D01*
X011479Y013444D01*
X011478Y013445D01*
X011470Y013456D01*
X011462Y013469D01*
X011455Y013482D01*
X011450Y013496D01*
X011440Y013525D01*
X011435Y013553D01*
X011433Y013566D01*
X011431Y013579D01*
X011430Y013589D01*
X011429Y013599D01*
X011428Y013606D01*
Y013613D01*
Y013616D01*
Y013617D01*
X011429Y013637D01*
X011430Y013654D01*
X011433Y013672D01*
X011436Y013688D01*
X011439Y013702D01*
X011444Y013715D01*
X011449Y013727D01*
X011453Y013738D01*
X011457Y013747D01*
X011462Y013755D01*
X011466Y013762D01*
X011470Y013767D01*
X011473Y013772D01*
X011475Y013775D01*
X011476Y013777D01*
X011477Y013777D01*
X011487Y013787D01*
X011498Y013796D01*
X011509Y013802D01*
X011520Y013809D01*
X011531Y013814D01*
X011542Y013819D01*
X011563Y013826D01*
X011573Y013827D01*
X011583Y013829D01*
X011591Y013830D01*
X011598Y013831D01*
X011604Y013832D01*
X011612D01*
X011633Y013831D01*
X011650Y013827D01*
X011666Y013824D01*
X011680Y013818D01*
X011690Y013814D01*
X011698Y013809D01*
X011703Y013805D01*
X011705Y013804D01*
X011718Y013793D01*
X011729Y013781D01*
X011738Y013769D01*
X011745Y013757D01*
X011750Y013746D01*
X011754Y013738D01*
X011756Y013732D01*
X011757Y013731D01*
Y013730D01*
X011885Y013754D01*
X011881Y013770D01*
X011876Y013786D01*
X011870Y013800D01*
X011863Y013813D01*
X011856Y013826D01*
X011849Y013837D01*
X011842Y013847D01*
X011834Y013856D01*
X011827Y013864D01*
X011820Y013872D01*
X011815Y013878D01*
X011809Y013883D01*
X011805Y013887D01*
X011801Y013890D01*
X011799Y013891D01*
X011798Y013892D01*
X011785Y013901D01*
X011771Y013909D01*
X011757Y013915D01*
X011741Y013921D01*
X011710Y013930D01*
X011681Y013936D01*
X011667Y013938D01*
X011654Y013939D01*
X011642Y013940D01*
X011632Y013941D01*
X011623Y013942D01*
D02*
G37*
G36*
X012522Y013930D02*
X012403D01*
Y013499D01*
X012139Y013930D01*
X012014D01*
Y013290D01*
X012133D01*
Y013712D01*
X012393Y013290D01*
X012522D01*
Y013930D01*
D02*
G37*
G36*
X012816Y014955D02*
X012341D01*
Y014314D01*
X012828D01*
Y014423D01*
X012471D01*
Y014597D01*
X012792D01*
Y014705D01*
X012471D01*
Y014846D01*
X012816D01*
Y014955D01*
D02*
G37*
G36*
X011864Y015910D02*
X011735D01*
Y015275D01*
X012186D01*
Y015383D01*
X011864D01*
Y015910D01*
D02*
G37*
G36*
X011623Y016915D02*
X011368D01*
Y016275D01*
X011610D01*
X011635Y016276D01*
X011659Y016277D01*
X011678Y016279D01*
X011694Y016281D01*
X011707Y016284D01*
X011717Y016286D01*
X011720Y016287D01*
X011722D01*
X011723Y016288D01*
X011724D01*
X011745Y016295D01*
X011763Y016304D01*
X011778Y016312D01*
X011791Y016320D01*
X011801Y016328D01*
X011808Y016333D01*
X011813Y016337D01*
X011815Y016339D01*
X011831Y016356D01*
X011844Y016375D01*
X011856Y016394D01*
X011866Y016412D01*
X011873Y016429D01*
X011877Y016435D01*
X011879Y016441D01*
X011881Y016446D01*
X011882Y016450D01*
X011883Y016452D01*
Y016453D01*
X011890Y016475D01*
X011895Y016498D01*
X011899Y016520D01*
X011901Y016541D01*
X011902Y016552D01*
X011903Y016561D01*
Y016568D01*
X011904Y016576D01*
Y016581D01*
Y016585D01*
Y016588D01*
Y016589D01*
X011903Y016621D01*
X011900Y016650D01*
X011899Y016663D01*
X011897Y016675D01*
X011895Y016688D01*
X011894Y016698D01*
X011891Y016707D01*
X011889Y016715D01*
X011887Y016723D01*
X011886Y016728D01*
X011884Y016733D01*
X011883Y016737D01*
X011882Y016738D01*
Y016739D01*
X011874Y016761D01*
X011864Y016782D01*
X011854Y016799D01*
X011844Y016814D01*
X011835Y016826D01*
X011828Y016836D01*
X011823Y016841D01*
X011822Y016843D01*
X011821D01*
X011806Y016858D01*
X011790Y016870D01*
X011773Y016880D01*
X011758Y016888D01*
X011746Y016895D01*
X011734Y016899D01*
X011731Y016900D01*
X011728Y016901D01*
X011726Y016902D01*
X011725D01*
X011708Y016907D01*
X011688Y016910D01*
X011668Y016912D01*
X011648Y016913D01*
X011631Y016914D01*
X011623Y016915D01*
D02*
G37*
G36*
X012753Y015915D02*
X012279D01*
Y015275D01*
X012765D01*
Y015383D01*
X012408D01*
Y015557D01*
X012729D01*
Y015665D01*
X012408D01*
Y015807D01*
X012753D01*
Y015915D01*
D02*
G37*
G36*
X011982Y014967D02*
X011971D01*
X011947Y014966D01*
X011923Y014963D01*
X011902Y014958D01*
X011880Y014953D01*
X011862Y014946D01*
X011843Y014939D01*
X011828Y014931D01*
X011813Y014922D01*
X011799Y014914D01*
X011788Y014906D01*
X011778Y014898D01*
X011769Y014892D01*
X011763Y014886D01*
X011758Y014882D01*
X011756Y014879D01*
X011755Y014878D01*
X011740Y014860D01*
X011728Y014842D01*
X011717Y014822D01*
X011707Y014802D01*
X011699Y014781D01*
X011693Y014760D01*
X011687Y014740D01*
X011683Y014721D01*
X011679Y014701D01*
X011677Y014684D01*
X011675Y014669D01*
X011673Y014656D01*
Y014645D01*
X011672Y014636D01*
Y014631D01*
Y014630D01*
Y014629D01*
X011673Y014601D01*
X011676Y014575D01*
X011680Y014550D01*
X011685Y014528D01*
X011691Y014507D01*
X011698Y014487D01*
X011706Y014469D01*
X011713Y014453D01*
X011720Y014438D01*
X011728Y014425D01*
X011735Y014415D01*
X011741Y014406D01*
X011746Y014400D01*
X011750Y014394D01*
X011753Y014391D01*
X011754Y014390D01*
X011769Y014375D01*
X011786Y014362D01*
X011804Y014350D01*
X011821Y014340D01*
X011839Y014332D01*
X011856Y014325D01*
X011873Y014319D01*
X011889Y014314D01*
X011905Y014311D01*
X011918Y014308D01*
X011931Y014306D01*
X011942Y014305D01*
X011951Y014304D01*
X011957Y014303D01*
X011963D01*
X011982Y014304D01*
X012000Y014305D01*
X012017Y014308D01*
X012033Y014312D01*
X012048Y014315D01*
X012062Y014319D01*
X012075Y014324D01*
X012087Y014329D01*
X012097Y014334D01*
X012106Y014339D01*
X012114Y014342D01*
X012121Y014346D01*
X012127Y014350D01*
X012130Y014352D01*
X012132Y014353D01*
X012133Y014354D01*
X012145Y014364D01*
X012156Y014376D01*
X012176Y014401D01*
X012193Y014426D01*
X012206Y014451D01*
X012212Y014463D01*
X012216Y014475D01*
X012220Y014485D01*
X012224Y014493D01*
X012226Y014500D01*
X012228Y014506D01*
X012229Y014510D01*
Y014511D01*
X012103Y014549D01*
X012096Y014524D01*
X012088Y014503D01*
X012079Y014486D01*
X012070Y014471D01*
X012063Y014460D01*
X012056Y014452D01*
X012052Y014448D01*
X012050Y014446D01*
X012035Y014435D01*
X012020Y014427D01*
X012005Y014422D01*
X011992Y014417D01*
X011980Y014415D01*
X011970Y014414D01*
X011966Y014413D01*
X011962D01*
X011949Y014414D01*
X011937Y014415D01*
X011915Y014422D01*
X011895Y014429D01*
X011880Y014439D01*
X011867Y014449D01*
X011857Y014456D01*
X011854Y014460D01*
X011851Y014462D01*
X011850Y014463D01*
X011849Y014464D01*
X011842Y014475D01*
X011835Y014487D01*
X011829Y014499D01*
X011824Y014513D01*
X011817Y014542D01*
X011811Y014571D01*
X011809Y014585D01*
X011808Y014597D01*
X011806Y014609D01*
Y014619D01*
X011806Y014626D01*
Y014633D01*
Y014637D01*
Y014638D01*
X011806Y014660D01*
X011807Y014679D01*
X011809Y014697D01*
X011812Y014713D01*
X011816Y014728D01*
X011819Y014742D01*
X011823Y014754D01*
X011828Y014765D01*
X011831Y014774D01*
X011835Y014783D01*
X011839Y014789D01*
X011843Y014795D01*
X011845Y014799D01*
X011847Y014802D01*
X011849Y014804D01*
Y014805D01*
X011857Y014814D01*
X011867Y014822D01*
X011876Y014829D01*
X011886Y014834D01*
X011905Y014844D01*
X011924Y014850D01*
X011940Y014854D01*
X011947Y014855D01*
X011953Y014856D01*
X011958Y014857D01*
X011965D01*
X011983Y014856D01*
X012000Y014852D01*
X012015Y014847D01*
X012028Y014842D01*
X012038Y014836D01*
X012045Y014832D01*
X012050Y014828D01*
X012052Y014827D01*
X012064Y014816D01*
X012075Y014803D01*
X012083Y014790D01*
X012090Y014777D01*
X012094Y014766D01*
X012097Y014758D01*
X012099Y014754D01*
Y014751D01*
X012100Y014750D01*
Y014749D01*
X012227Y014780D01*
X012218Y014807D01*
X012208Y014830D01*
X012197Y014850D01*
X012187Y014867D01*
X012176Y014880D01*
X012173Y014885D01*
X012169Y014890D01*
X012166Y014893D01*
X012164Y014895D01*
X012163Y014897D01*
X012162D01*
X012148Y014909D01*
X012132Y014920D01*
X012117Y014930D01*
X012102Y014937D01*
X012085Y014944D01*
X012069Y014950D01*
X012053Y014955D01*
X012039Y014958D01*
X012025Y014961D01*
X012012Y014963D01*
X012001Y014965D01*
X011991Y014966D01*
X011982Y014967D01*
D02*
G37*
G36*
X012333Y016915D02*
X012196D01*
X011948Y016275D01*
X012085D01*
X012138Y016420D01*
X012395D01*
X012450Y016275D01*
X012590D01*
X012333Y016915D01*
D02*
G37*
G36*
X013122D02*
X012614D01*
Y016807D01*
X012804D01*
Y016275D01*
X012933D01*
Y016807D01*
X013122D01*
Y016915D01*
D02*
G37*
%LPD*%
G36*
X012647Y018578D02*
X012652D01*
X012656Y018578D01*
X012660D01*
X012664Y018577D01*
X012667D01*
X012672Y018576D01*
X012675Y018576D01*
X012678Y018575D01*
X012678D01*
X012684Y018574D01*
X012689Y018571D01*
X012694Y018569D01*
X012699Y018567D01*
X012702Y018564D01*
X012704Y018563D01*
X012706Y018561D01*
X012706Y018561D01*
X012710Y018557D01*
X012713Y018552D01*
X012716Y018547D01*
X012719Y018543D01*
X012721Y018538D01*
X012722Y018535D01*
X012723Y018533D01*
X012723Y018532D01*
Y018532D01*
X012726Y018524D01*
X012727Y018515D01*
X012728Y018506D01*
X012729Y018498D01*
X012730Y018490D01*
X012730Y018487D01*
Y018484D01*
Y018481D01*
Y018480D01*
Y018478D01*
Y018478D01*
X012730Y018466D01*
X012729Y018454D01*
X012728Y018445D01*
X012727Y018437D01*
X012726Y018431D01*
X012725Y018428D01*
X012724Y018426D01*
X012724Y018425D01*
Y018423D01*
X012723Y018423D01*
Y018422D01*
X012721Y018415D01*
X012719Y018409D01*
X012716Y018404D01*
X012713Y018401D01*
X012711Y018397D01*
X012710Y018395D01*
X012708Y018394D01*
X012708Y018394D01*
X012704Y018390D01*
X012700Y018388D01*
X012696Y018386D01*
X012692Y018384D01*
X012689Y018383D01*
X012686Y018382D01*
X012684Y018381D01*
X012683D01*
X012678Y018380D01*
X012673Y018380D01*
X012667Y018379D01*
X012661D01*
X012655Y018378D01*
X012601D01*
Y018578D01*
X012641D01*
X012647Y018578D01*
D02*
G37*
G36*
X011510Y018481D02*
X011516Y018479D01*
X011520Y018477D01*
X011525Y018474D01*
X011528Y018471D01*
X011530Y018469D01*
X011532Y018467D01*
X011533Y018467D01*
X011537Y018461D01*
X011540Y018454D01*
X011541Y018447D01*
X011543Y018440D01*
X011544Y018433D01*
X011544Y018428D01*
Y018426D01*
Y018425D01*
Y018424D01*
Y018423D01*
X011544Y018413D01*
X011543Y018404D01*
X011541Y018397D01*
X011539Y018392D01*
X011537Y018387D01*
X011535Y018384D01*
X011534Y018382D01*
X011534Y018382D01*
X011529Y018378D01*
X011525Y018375D01*
X011520Y018373D01*
X011516Y018371D01*
X011512Y018370D01*
X011509Y018370D01*
X011506D01*
X011500Y018370D01*
X011495Y018372D01*
X011490Y018374D01*
X011485Y018377D01*
X011482Y018380D01*
X011479Y018383D01*
X011477Y018384D01*
X011477Y018385D01*
X011472Y018391D01*
X011469Y018398D01*
X011467Y018405D01*
X011466Y018412D01*
X011465Y018419D01*
X011464Y018424D01*
Y018426D01*
Y018427D01*
Y018428D01*
Y018429D01*
X011464Y018438D01*
X011466Y018446D01*
X011468Y018452D01*
X011470Y018458D01*
X011472Y018462D01*
X011474Y018465D01*
X011475Y018467D01*
X011475Y018467D01*
X011480Y018472D01*
X011485Y018475D01*
X011489Y018477D01*
X011494Y018479D01*
X011498Y018480D01*
X011501Y018481D01*
X011504D01*
X011510Y018481D01*
D02*
G37*
G36*
X012885Y013821D02*
X012896D01*
X012905Y013820D01*
X012914D01*
X012922Y013819D01*
X012929D01*
X012939Y013817D01*
X012946Y013816D01*
X012951Y013815D01*
X012952D01*
X012965Y013812D01*
X012976Y013807D01*
X012986Y013802D01*
X012995Y013797D01*
X013002Y013792D01*
X013007Y013789D01*
X013010Y013786D01*
X013011Y013785D01*
X013019Y013776D01*
X013027Y013765D01*
X013033Y013755D01*
X013039Y013746D01*
X013042Y013737D01*
X013045Y013729D01*
X013047Y013725D01*
X013048Y013724D01*
Y013723D01*
X013053Y013706D01*
X013056Y013689D01*
X013058Y013669D01*
X013060Y013651D01*
X013061Y013635D01*
X013062Y013628D01*
Y013621D01*
Y013616D01*
Y013613D01*
Y013610D01*
Y013609D01*
X013061Y013583D01*
X013060Y013559D01*
X013057Y013540D01*
X013055Y013523D01*
X013053Y013509D01*
X013052Y013504D01*
X013050Y013500D01*
X013049Y013496D01*
Y013493D01*
X013048Y013493D01*
Y013492D01*
X013042Y013477D01*
X013038Y013464D01*
X013031Y013454D01*
X013027Y013445D01*
X013022Y013439D01*
X013018Y013434D01*
X013016Y013431D01*
X013015Y013431D01*
X013006Y013424D01*
X012998Y013419D01*
X012990Y013414D01*
X012981Y013410D01*
X012974Y013407D01*
X012968Y013406D01*
X012965Y013404D01*
X012963D01*
X012953Y013402D01*
X012941Y013401D01*
X012928Y013399D01*
X012915D01*
X012903Y013398D01*
X012789D01*
Y013822D01*
X012873D01*
X012885Y013821D01*
D02*
G37*
G36*
X011594Y016806D02*
X011605D01*
X011614Y016805D01*
X011622D01*
X011631Y016804D01*
X011637D01*
X011647Y016802D01*
X011655Y016801D01*
X011659Y016800D01*
X011660D01*
X011673Y016797D01*
X011684Y016792D01*
X011695Y016787D01*
X011704Y016782D01*
X011710Y016777D01*
X011716Y016774D01*
X011719Y016771D01*
X011720Y016770D01*
X011728Y016761D01*
X011735Y016750D01*
X011742Y016740D01*
X011747Y016731D01*
X011751Y016722D01*
X011754Y016714D01*
X011756Y016710D01*
X011757Y016709D01*
Y016708D01*
X011761Y016691D01*
X011765Y016674D01*
X011767Y016654D01*
X011769Y016636D01*
X011770Y016620D01*
X011770Y016613D01*
Y016606D01*
Y016601D01*
Y016598D01*
Y016595D01*
Y016594D01*
X011770Y016568D01*
X011769Y016544D01*
X011766Y016525D01*
X011764Y016508D01*
X011761Y016494D01*
X011760Y016489D01*
X011758Y016485D01*
X011758Y016481D01*
Y016478D01*
X011757Y016478D01*
Y016477D01*
X011751Y016462D01*
X011746Y016449D01*
X011740Y016439D01*
X011735Y016430D01*
X011731Y016424D01*
X011727Y016419D01*
X011724Y016416D01*
X011723Y016416D01*
X011715Y016409D01*
X011707Y016404D01*
X011698Y016399D01*
X011690Y016395D01*
X011683Y016392D01*
X011677Y016391D01*
X011673Y016389D01*
X011672D01*
X011661Y016387D01*
X011649Y016386D01*
X011636Y016384D01*
X011623D01*
X011611Y016383D01*
X011498D01*
Y016807D01*
X011582D01*
X011594Y016806D01*
D02*
G37*
G36*
X012353Y016528D02*
X012177D01*
X012263Y016766D01*
X012353Y016528D01*
D02*
G37*
%LPC*%
G36*
X013505Y021202D02*
X013500D01*
X013496Y021201D01*
X013492Y021201D01*
X013487Y021201D01*
X013482Y021200D01*
X013476Y021199D01*
X013463Y021196D01*
X013450Y021192D01*
X013443Y021190D01*
X013438Y021187D01*
X013432Y021183D01*
X013427Y021179D01*
X013426Y021178D01*
X013426Y021178D01*
X013425Y021177D01*
X013423Y021175D01*
X013421Y021172D01*
X013419Y021170D01*
X013416Y021166D01*
X013414Y021163D01*
X013412Y021159D01*
X013409Y021154D01*
X013405Y021144D01*
X013403Y021138D01*
X013402Y021132D01*
X013402Y021125D01*
X013401Y021118D01*
Y021118D01*
Y021117D01*
Y021115D01*
X013402Y021112D01*
X013402Y021109D01*
X013402Y021105D01*
X013404Y021097D01*
X013408Y021087D01*
X013409Y021082D01*
X013412Y021076D01*
X013415Y021072D01*
X013419Y021066D01*
X013423Y021062D01*
X013427Y021057D01*
X013428Y021057D01*
X013429Y021056D01*
X013430Y021055D01*
X013432Y021054D01*
X013435Y021052D01*
X013438Y021050D01*
X013442Y021048D01*
X013447Y021046D01*
X013452Y021044D01*
X013458Y021041D01*
X013464Y021040D01*
X013471Y021038D01*
X013479Y021037D01*
X013488Y021035D01*
X013496Y021035D01*
X013506Y021034D01*
X013511D01*
X013514Y021035D01*
X013519Y021035D01*
X013524Y021036D01*
X013529Y021037D01*
X013535Y021038D01*
X013548Y021040D01*
X013561Y021045D01*
X013567Y021047D01*
X013573Y021050D01*
X013579Y021054D01*
X013584Y021058D01*
X013585Y021059D01*
X013586Y021059D01*
X013587Y021061D01*
X013588Y021062D01*
X013590Y021065D01*
X013593Y021068D01*
X013595Y021071D01*
X013597Y021075D01*
X013603Y021083D01*
X013606Y021093D01*
X013608Y021099D01*
X013610Y021105D01*
X013610Y021112D01*
X013611Y021118D01*
Y021119D01*
Y021120D01*
Y021122D01*
X013610Y021125D01*
X013610Y021128D01*
X013610Y021131D01*
X013607Y021139D01*
X013604Y021149D01*
X013602Y021154D01*
X013600Y021159D01*
X013597Y021164D01*
X013593Y021169D01*
X013589Y021174D01*
X013585Y021178D01*
X013584Y021179D01*
X013583Y021179D01*
X013582Y021180D01*
X013580Y021182D01*
X013577Y021184D01*
X013573Y021186D01*
X013569Y021188D01*
X013565Y021190D01*
X013559Y021192D01*
X013554Y021194D01*
X013547Y021197D01*
X013540Y021198D01*
X013532Y021200D01*
X013524Y021201D01*
X013515Y021201D01*
X013505Y021202D01*
D02*
G37*
G36*
X013202Y021117D02*
X013088D01*
X012959Y020725D01*
X012824Y021117D01*
X012709D01*
X012898Y020588D01*
X013014D01*
X013202Y021117D01*
D02*
G37*
G36*
X013015Y022185D02*
X012877D01*
X012721Y021711D01*
X012558Y022185D01*
X012418D01*
X012648Y021545D01*
X012787D01*
X013015Y022185D01*
D02*
G37*
G36*
X012363Y022177D02*
X012038D01*
X011975Y021843D01*
X012074Y021829D01*
X012083Y021837D01*
X012091Y021844D01*
X012099Y021851D01*
X012108Y021857D01*
X012123Y021865D01*
X012138Y021870D01*
X012151Y021873D01*
X012160Y021875D01*
X012164Y021876D01*
X012170D01*
X012184Y021875D01*
X012198Y021871D01*
X012210Y021867D01*
X012220Y021861D01*
X012228Y021855D01*
X012234Y021850D01*
X012238Y021846D01*
X012239Y021845D01*
X012248Y021833D01*
X012255Y021820D01*
X012259Y021805D01*
X012262Y021790D01*
X012265Y021777D01*
X012266Y021767D01*
Y021762D01*
Y021759D01*
Y021758D01*
Y021757D01*
X012265Y021734D01*
X012262Y021715D01*
X012257Y021699D01*
X012253Y021686D01*
X012247Y021675D01*
X012243Y021668D01*
X012240Y021664D01*
X012239Y021662D01*
X012229Y021652D01*
X012218Y021644D01*
X012206Y021638D01*
X012196Y021635D01*
X012187Y021633D01*
X012180Y021632D01*
X012175Y021631D01*
X012173D01*
X012161Y021632D01*
X012149Y021635D01*
X012139Y021638D01*
X012131Y021643D01*
X012123Y021647D01*
X012118Y021651D01*
X012114Y021654D01*
X012113Y021655D01*
X012105Y021665D01*
X012097Y021675D01*
X012092Y021686D01*
X012088Y021696D01*
X012085Y021706D01*
X012083Y021714D01*
X012083Y021719D01*
Y021721D01*
X011960Y021708D01*
X011963Y021693D01*
X011966Y021679D01*
X011975Y021654D01*
X011985Y021632D01*
X011991Y021622D01*
X011997Y021613D01*
X012003Y021606D01*
X012008Y021599D01*
X012013Y021594D01*
X012017Y021588D01*
X012021Y021585D01*
X012023Y021582D01*
X012025Y021581D01*
X012026Y021580D01*
X012037Y021572D01*
X012048Y021564D01*
X012060Y021558D01*
X012072Y021553D01*
X012097Y021544D01*
X012120Y021538D01*
X012131Y021536D01*
X012140Y021536D01*
X012149Y021535D01*
X012157Y021534D01*
X012163Y021533D01*
X012171D01*
X012192Y021534D01*
X012211Y021536D01*
X012229Y021540D01*
X012245Y021546D01*
X012261Y021552D01*
X012275Y021560D01*
X012288Y021567D01*
X012300Y021575D01*
X012310Y021583D01*
X012319Y021590D01*
X012328Y021598D01*
X012334Y021604D01*
X012339Y021610D01*
X012342Y021613D01*
X012344Y021616D01*
X012345Y021617D01*
X012354Y021629D01*
X012361Y021641D01*
X012367Y021653D01*
X012372Y021666D01*
X012380Y021690D01*
X012386Y021712D01*
X012388Y021721D01*
X012389Y021731D01*
X012391Y021739D01*
Y021746D01*
X012392Y021752D01*
Y021756D01*
Y021758D01*
Y021759D01*
X012391Y021777D01*
X012389Y021794D01*
X012386Y021809D01*
X012382Y021824D01*
X012379Y021837D01*
X012373Y021850D01*
X012368Y021862D01*
X012363Y021872D01*
X012357Y021881D01*
X012353Y021890D01*
X012347Y021897D01*
X012343Y021903D01*
X012340Y021907D01*
X012337Y021911D01*
X012335Y021913D01*
X012334Y021914D01*
X012323Y021924D01*
X012312Y021933D01*
X012300Y021942D01*
X012288Y021949D01*
X012277Y021955D01*
X012265Y021959D01*
X012243Y021967D01*
X012233Y021969D01*
X012224Y021971D01*
X012216Y021972D01*
X012209Y021973D01*
X012204Y021974D01*
X012195D01*
X012180Y021973D01*
X012164Y021970D01*
X012150Y021968D01*
X012137Y021964D01*
X012127Y021959D01*
X012119Y021956D01*
X012113Y021954D01*
X012112Y021953D01*
X012111D01*
X012131Y022062D01*
X012363D01*
Y022177D01*
D02*
G37*
G36*
X011714Y022083D02*
X011602D01*
Y021918D01*
X011435D01*
Y021803D01*
X011602D01*
Y021637D01*
X011714D01*
Y021803D01*
X011883D01*
Y021918D01*
X011714D01*
Y022083D01*
D02*
G37*
G36*
X011509Y021033D02*
X011416D01*
Y020896D01*
X011278D01*
Y020801D01*
X011416D01*
Y020664D01*
X011509D01*
Y020801D01*
X011648D01*
Y020896D01*
X011509D01*
Y021033D01*
D02*
G37*
G36*
X012246Y020689D02*
X012144D01*
Y020588D01*
X012246D01*
Y020689D01*
D02*
G37*
G36*
X011885Y021120D02*
X011878D01*
X011862Y021119D01*
X011847Y021118D01*
X011833Y021115D01*
X011822Y021112D01*
X011813Y021109D01*
X011805Y021105D01*
X011801Y021104D01*
X011800Y021103D01*
X011799D01*
X011787Y021096D01*
X011775Y021089D01*
X011766Y021081D01*
X011758Y021074D01*
X011752Y021067D01*
X011748Y021062D01*
X011745Y021059D01*
X011744Y021057D01*
X011737Y021046D01*
X011731Y021034D01*
X011726Y021021D01*
X011722Y021008D01*
X011719Y020997D01*
X011716Y020988D01*
X011716Y020985D01*
Y020982D01*
X011715Y020981D01*
Y020980D01*
X011808Y020965D01*
X011810Y020977D01*
X011814Y020988D01*
X011817Y020997D01*
X011820Y021004D01*
X011824Y021010D01*
X011827Y021014D01*
X011830Y021017D01*
X011830Y021017D01*
X011837Y021024D01*
X011845Y021028D01*
X011853Y021031D01*
X011859Y021034D01*
X011866Y021035D01*
X011870Y021036D01*
X011875D01*
X011884Y021035D01*
X011893Y021034D01*
X011900Y021031D01*
X011906Y021028D01*
X011911Y021025D01*
X011914Y021022D01*
X011917Y021021D01*
X011918Y021020D01*
X011923Y021014D01*
X011927Y021006D01*
X011930Y020999D01*
X011931Y020992D01*
X011933Y020986D01*
X011934Y020982D01*
Y020978D01*
Y020977D01*
X011933Y020965D01*
X011931Y020956D01*
X011927Y020947D01*
X011923Y020940D01*
X011918Y020934D01*
X011915Y020930D01*
X011912Y020927D01*
X011911Y020926D01*
X011902Y020920D01*
X011892Y020916D01*
X011882Y020913D01*
X011872Y020910D01*
X011862Y020910D01*
X011855Y020909D01*
X011848D01*
X011837Y020827D01*
X011847Y020829D01*
X011856Y020832D01*
X011864Y020833D01*
X011871Y020834D01*
X011876Y020835D01*
X011884D01*
X011895Y020834D01*
X011904Y020831D01*
X011912Y020828D01*
X011920Y020823D01*
X011925Y020819D01*
X011930Y020816D01*
X011933Y020812D01*
X011934Y020812D01*
X011940Y020803D01*
X011946Y020793D01*
X011950Y020783D01*
X011953Y020773D01*
X011954Y020764D01*
X011955Y020757D01*
Y020752D01*
Y020751D01*
Y020751D01*
X011954Y020736D01*
X011952Y020723D01*
X011948Y020712D01*
X011944Y020702D01*
X011940Y020695D01*
X011937Y020690D01*
X011934Y020686D01*
X011933Y020685D01*
X011924Y020678D01*
X011915Y020672D01*
X011907Y020668D01*
X011898Y020665D01*
X011891Y020663D01*
X011885Y020663D01*
X011882Y020662D01*
X011880D01*
X011869Y020663D01*
X011860Y020665D01*
X011852Y020668D01*
X011844Y020672D01*
X011839Y020675D01*
X011834Y020678D01*
X011831Y020680D01*
X011830Y020681D01*
X011823Y020689D01*
X011817Y020698D01*
X011814Y020708D01*
X011810Y020718D01*
X011807Y020726D01*
X011806Y020733D01*
X011805Y020738D01*
Y020738D01*
Y020739D01*
X011707Y020727D01*
X011709Y020715D01*
X011712Y020703D01*
X011719Y020682D01*
X011727Y020663D01*
X011732Y020656D01*
X011737Y020648D01*
X011742Y020641D01*
X011746Y020636D01*
X011750Y020630D01*
X011754Y020627D01*
X011757Y020624D01*
X011759Y020621D01*
X011761Y020620D01*
X011761Y020619D01*
X011771Y020612D01*
X011781Y020605D01*
X011790Y020600D01*
X011801Y020595D01*
X011820Y020588D01*
X011839Y020583D01*
X011848Y020581D01*
X011856Y020580D01*
X011862Y020579D01*
X011869Y020578D01*
X011874Y020578D01*
X011881D01*
X011895Y020578D01*
X011908Y020580D01*
X011921Y020582D01*
X011933Y020585D01*
X011944Y020589D01*
X011954Y020593D01*
X011964Y020598D01*
X011973Y020602D01*
X011980Y020607D01*
X011988Y020611D01*
X011993Y020615D01*
X011999Y020619D01*
X012002Y020622D01*
X012006Y020624D01*
X012007Y020626D01*
X012008Y020627D01*
X012017Y020636D01*
X012025Y020646D01*
X012032Y020656D01*
X012038Y020666D01*
X012042Y020676D01*
X012047Y020686D01*
X012053Y020705D01*
X012054Y020713D01*
X012056Y020721D01*
X012058Y020728D01*
X012058Y020734D01*
X012059Y020739D01*
Y020743D01*
Y020745D01*
Y020746D01*
X012058Y020764D01*
X012054Y020779D01*
X012051Y020793D01*
X012045Y020805D01*
X012040Y020815D01*
X012036Y020822D01*
X012033Y020826D01*
X012032Y020828D01*
X012021Y020839D01*
X012009Y020849D01*
X011996Y020857D01*
X011985Y020863D01*
X011975Y020868D01*
X011967Y020870D01*
X011963Y020871D01*
X011961D01*
X011960Y020872D01*
X011959D01*
X011973Y020881D01*
X011984Y020889D01*
X011994Y020898D01*
X012003Y020907D01*
X012011Y020917D01*
X012017Y020926D01*
X012022Y020935D01*
X012026Y020943D01*
X012029Y020952D01*
X012032Y020959D01*
X012033Y020966D01*
X012034Y020972D01*
X012035Y020977D01*
X012035Y020981D01*
Y020983D01*
Y020984D01*
X012035Y020993D01*
X012034Y021001D01*
X012029Y021018D01*
X012024Y021034D01*
X012017Y021047D01*
X012010Y021057D01*
X012004Y021065D01*
X012002Y021068D01*
X011999Y021070D01*
X011999Y021071D01*
X011998Y021072D01*
X011989Y021080D01*
X011980Y021088D01*
X011970Y021094D01*
X011960Y021099D01*
X011950Y021105D01*
X011940Y021109D01*
X011921Y021114D01*
X011912Y021116D01*
X011904Y021118D01*
X011897Y021118D01*
X011890Y021119D01*
X011885Y021120D01*
D02*
G37*
G36*
X012502D02*
X012495D01*
X012479Y021119D01*
X012465Y021118D01*
X012451Y021115D01*
X012439Y021112D01*
X012430Y021109D01*
X012422Y021105D01*
X012418Y021104D01*
X012417Y021103D01*
X012416D01*
X012404Y021096D01*
X012393Y021089D01*
X012383Y021081D01*
X012376Y021074D01*
X012370Y021067D01*
X012365Y021062D01*
X012362Y021059D01*
X012361Y021057D01*
X012354Y021046D01*
X012348Y021034D01*
X012344Y021021D01*
X012339Y021008D01*
X012336Y020997D01*
X012334Y020988D01*
X012333Y020985D01*
Y020982D01*
X012332Y020981D01*
Y020980D01*
X012426Y020965D01*
X012428Y020977D01*
X012431Y020988D01*
X012434Y020997D01*
X012438Y021004D01*
X012442Y021010D01*
X012445Y021014D01*
X012447Y021017D01*
X012448Y021017D01*
X012455Y021024D01*
X012462Y021028D01*
X012470Y021031D01*
X012477Y021034D01*
X012483Y021035D01*
X012487Y021036D01*
X012492D01*
X012501Y021035D01*
X012510Y021034D01*
X012517Y021031D01*
X012523Y021028D01*
X012529Y021025D01*
X012532Y021022D01*
X012534Y021021D01*
X012535Y021020D01*
X012540Y021014D01*
X012544Y021006D01*
X012547Y020999D01*
X012549Y020992D01*
X012550Y020986D01*
X012551Y020982D01*
Y020978D01*
Y020977D01*
X012550Y020965D01*
X012548Y020956D01*
X012544Y020947D01*
X012540Y020940D01*
X012536Y020934D01*
X012533Y020930D01*
X012530Y020927D01*
X012529Y020926D01*
X012520Y020920D01*
X012510Y020916D01*
X012499Y020913D01*
X012489Y020910D01*
X012480Y020910D01*
X012472Y020909D01*
X012465D01*
X012455Y020827D01*
X012465Y020829D01*
X012473Y020832D01*
X012481Y020833D01*
X012488Y020834D01*
X012494Y020835D01*
X012501D01*
X012512Y020834D01*
X012521Y020831D01*
X012530Y020828D01*
X012537Y020823D01*
X012543Y020819D01*
X012547Y020816D01*
X012550Y020812D01*
X012551Y020812D01*
X012558Y020803D01*
X012563Y020793D01*
X012567Y020783D01*
X012570Y020773D01*
X012572Y020764D01*
X012572Y020757D01*
Y020752D01*
Y020751D01*
Y020751D01*
X012572Y020736D01*
X012569Y020723D01*
X012566Y020712D01*
X012562Y020702D01*
X012557Y020695D01*
X012554Y020690D01*
X012551Y020686D01*
X012550Y020685D01*
X012542Y020678D01*
X012533Y020672D01*
X012524Y020668D01*
X012516Y020665D01*
X012508Y020663D01*
X012503Y020663D01*
X012499Y020662D01*
X012497D01*
X012487Y020663D01*
X012478Y020665D01*
X012469Y020668D01*
X012461Y020672D01*
X012456Y020675D01*
X012452Y020678D01*
X012448Y020680D01*
X012448Y020681D01*
X012441Y020689D01*
X012435Y020698D01*
X012431Y020708D01*
X012427Y020718D01*
X012425Y020726D01*
X012423Y020733D01*
X012422Y020738D01*
Y020738D01*
Y020739D01*
X012325Y020727D01*
X012326Y020715D01*
X012329Y020703D01*
X012336Y020682D01*
X012344Y020663D01*
X012350Y020656D01*
X012354Y020648D01*
X012359Y020641D01*
X012364Y020636D01*
X012367Y020630D01*
X012371Y020627D01*
X012374Y020624D01*
X012377Y020621D01*
X012378Y020620D01*
X012379Y020619D01*
X012388Y020612D01*
X012398Y020605D01*
X012407Y020600D01*
X012418Y020595D01*
X012438Y020588D01*
X012456Y020583D01*
X012465Y020581D01*
X012473Y020580D01*
X012480Y020579D01*
X012486Y020578D01*
X012491Y020578D01*
X012498D01*
X012512Y020578D01*
X012526Y020580D01*
X012538Y020582D01*
X012550Y020585D01*
X012561Y020589D01*
X012572Y020593D01*
X012582Y020598D01*
X012590Y020602D01*
X012598Y020607D01*
X012605Y020611D01*
X012611Y020615D01*
X012616Y020619D01*
X012620Y020622D01*
X012623Y020624D01*
X012624Y020626D01*
X012625Y020627D01*
X012634Y020636D01*
X012642Y020646D01*
X012649Y020656D01*
X012655Y020666D01*
X012660Y020676D01*
X012664Y020686D01*
X012670Y020705D01*
X012672Y020713D01*
X012673Y020721D01*
X012675Y020728D01*
X012676Y020734D01*
X012676Y020739D01*
Y020743D01*
Y020745D01*
Y020746D01*
X012675Y020764D01*
X012672Y020779D01*
X012668Y020793D01*
X012663Y020805D01*
X012657Y020815D01*
X012653Y020822D01*
X012650Y020826D01*
X012649Y020828D01*
X012638Y020839D01*
X012626Y020849D01*
X012614Y020857D01*
X012602Y020863D01*
X012592Y020868D01*
X012584Y020870D01*
X012581Y020871D01*
X012579D01*
X012577Y020872D01*
X012576D01*
X012590Y020881D01*
X012601Y020889D01*
X012611Y020898D01*
X012621Y020907D01*
X012628Y020917D01*
X012634Y020926D01*
X012639Y020935D01*
X012644Y020943D01*
X012647Y020952D01*
X012649Y020959D01*
X012650Y020966D01*
X012651Y020972D01*
X012652Y020977D01*
X012653Y020981D01*
Y020983D01*
Y020984D01*
X012652Y020993D01*
X012651Y021001D01*
X012647Y021018D01*
X012641Y021034D01*
X012634Y021047D01*
X012627Y021057D01*
X012621Y021065D01*
X012619Y021068D01*
X012617Y021070D01*
X012616Y021071D01*
X012615Y021072D01*
X012607Y021080D01*
X012597Y021088D01*
X012588Y021094D01*
X012578Y021099D01*
X012567Y021105D01*
X012557Y021109D01*
X012538Y021114D01*
X012530Y021116D01*
X012521Y021118D01*
X012514Y021118D01*
X012507Y021119D01*
X012502Y021120D01*
D02*
G37*
G36*
X011613Y020177D02*
X011602D01*
X011569Y020176D01*
X011539Y020172D01*
X011526Y020170D01*
X011514Y020167D01*
X011501Y020164D01*
X011491Y020161D01*
X011482Y020158D01*
X011473Y020155D01*
X011466Y020152D01*
X011460Y020150D01*
X011455Y020147D01*
X011452Y020147D01*
X011450Y020145D01*
X011449D01*
X011420Y020128D01*
X011408Y020118D01*
X011396Y020109D01*
X011385Y020098D01*
X011375Y020088D01*
X011365Y020078D01*
X011357Y020069D01*
X011351Y020060D01*
X011344Y020051D01*
X011339Y020044D01*
X011334Y020037D01*
X011331Y020032D01*
X011329Y020028D01*
X011328Y020025D01*
X011327Y020024D01*
X011319Y020010D01*
X011313Y019995D01*
X011303Y019964D01*
X011295Y019934D01*
X011291Y019907D01*
X011289Y019894D01*
X011287Y019883D01*
X011286Y019873D01*
Y019864D01*
X011285Y019857D01*
Y019851D01*
Y019848D01*
Y019847D01*
X011287Y019813D01*
X011291Y019781D01*
X011297Y019753D01*
X011300Y019739D01*
X011304Y019727D01*
X011307Y019715D01*
X011310Y019705D01*
X011314Y019697D01*
X011316Y019690D01*
X011318Y019684D01*
X011320Y019679D01*
X011322Y019677D01*
Y019676D01*
X011338Y019648D01*
X011355Y019624D01*
X011374Y019603D01*
X011392Y019586D01*
X011401Y019579D01*
X011409Y019572D01*
X011415Y019567D01*
X011422Y019563D01*
X011427Y019559D01*
X011431Y019556D01*
X011433Y019555D01*
X011434Y019555D01*
X011449Y019547D01*
X011463Y019541D01*
X011493Y019531D01*
X011523Y019523D01*
X011550Y019518D01*
X011563Y019517D01*
X011574Y019515D01*
X011584Y019514D01*
X011593D01*
X011600Y019513D01*
X011610D01*
X011639Y019514D01*
X011667Y019518D01*
X011694Y019522D01*
X011717Y019528D01*
X011727Y019531D01*
X011736Y019533D01*
X011745Y019536D01*
X011752Y019538D01*
X011758Y019540D01*
X011761Y019542D01*
X011764Y019543D01*
X011765D01*
X011793Y019554D01*
X011816Y019566D01*
X011836Y019578D01*
X011854Y019588D01*
X011867Y019597D01*
X011871Y019601D01*
X011876Y019605D01*
X011879Y019607D01*
X011882Y019609D01*
X011883Y019611D01*
Y019868D01*
X011605D01*
Y019760D01*
X011753D01*
Y019678D01*
X011742Y019669D01*
X011730Y019662D01*
X011718Y019655D01*
X011707Y019650D01*
X011698Y019645D01*
X011689Y019641D01*
X011685Y019640D01*
X011684Y019639D01*
X011683D01*
X011668Y019633D01*
X011653Y019629D01*
X011639Y019627D01*
X011627Y019625D01*
X011616Y019624D01*
X011609Y019623D01*
X011601D01*
X011587Y019624D01*
X011572Y019626D01*
X011559Y019629D01*
X011546Y019632D01*
X011523Y019641D01*
X011514Y019646D01*
X011504Y019652D01*
X011496Y019657D01*
X011489Y019662D01*
X011483Y019667D01*
X011477Y019671D01*
X011474Y019675D01*
X011471Y019678D01*
X011469Y019679D01*
X011468Y019680D01*
X011460Y019691D01*
X011452Y019704D01*
X011445Y019717D01*
X011439Y019731D01*
X011430Y019760D01*
X011425Y019788D01*
X011423Y019801D01*
X011421Y019814D01*
X011420Y019824D01*
X011419Y019834D01*
X011418Y019841D01*
Y019848D01*
Y019851D01*
Y019852D01*
X011419Y019872D01*
X011420Y019889D01*
X011423Y019907D01*
X011426Y019923D01*
X011429Y019937D01*
X011434Y019950D01*
X011439Y019962D01*
X011443Y019973D01*
X011447Y019982D01*
X011452Y019990D01*
X011456Y019997D01*
X011460Y020002D01*
X011463Y020007D01*
X011465Y020010D01*
X011466Y020011D01*
X011467Y020012D01*
X011477Y020022D01*
X011488Y020031D01*
X011499Y020037D01*
X011510Y020044D01*
X011521Y020049D01*
X011532Y020054D01*
X011553Y020061D01*
X011563Y020062D01*
X011573Y020064D01*
X011581Y020065D01*
X011588Y020066D01*
X011594Y020067D01*
X011602D01*
X011623Y020066D01*
X011640Y020062D01*
X011656Y020059D01*
X011670Y020053D01*
X011680Y020048D01*
X011688Y020044D01*
X011693Y020040D01*
X011695Y020039D01*
X011708Y020028D01*
X011719Y020016D01*
X011728Y020004D01*
X011735Y019992D01*
X011740Y019981D01*
X011744Y019973D01*
X011746Y019967D01*
X011747Y019966D01*
Y019965D01*
X011875Y019989D01*
X011871Y020005D01*
X011866Y020021D01*
X011860Y020035D01*
X011853Y020048D01*
X011846Y020061D01*
X011839Y020072D01*
X011832Y020082D01*
X011824Y020091D01*
X011817Y020099D01*
X011810Y020107D01*
X011805Y020113D01*
X011799Y020118D01*
X011795Y020122D01*
X011791Y020125D01*
X011789Y020126D01*
X011788Y020127D01*
X011775Y020136D01*
X011761Y020144D01*
X011747Y020150D01*
X011731Y020156D01*
X011700Y020165D01*
X011671Y020171D01*
X011657Y020173D01*
X011644Y020174D01*
X011632Y020175D01*
X011622Y020176D01*
X011613Y020177D01*
D02*
G37*
G36*
X012905Y020165D02*
X012649D01*
Y019525D01*
X012892D01*
X012917Y019526D01*
X012940Y019527D01*
X012959Y019529D01*
X012975Y019531D01*
X012988Y019534D01*
X012998Y019536D01*
X013001Y019537D01*
X013004D01*
X013005Y019538D01*
X013006D01*
X013026Y019545D01*
X013044Y019554D01*
X013059Y019562D01*
X013072Y019570D01*
X013082Y019578D01*
X013090Y019583D01*
X013094Y019587D01*
X013096Y019589D01*
X013112Y019606D01*
X013126Y019625D01*
X013138Y019644D01*
X013147Y019662D01*
X013154Y019678D01*
X013158Y019685D01*
X013160Y019691D01*
X013162Y019696D01*
X013164Y019700D01*
X013165Y019702D01*
Y019703D01*
X013171Y019725D01*
X013177Y019748D01*
X013180Y019770D01*
X013182Y019791D01*
X013183Y019802D01*
X013184Y019811D01*
Y019818D01*
X013185Y019826D01*
Y019831D01*
Y019835D01*
Y019838D01*
Y019839D01*
X013184Y019871D01*
X013181Y019900D01*
X013180Y019913D01*
X013178Y019925D01*
X013177Y019937D01*
X013175Y019948D01*
X013172Y019957D01*
X013170Y019965D01*
X013168Y019973D01*
X013167Y019978D01*
X013166Y019983D01*
X013165Y019987D01*
X013164Y019988D01*
Y019989D01*
X013155Y020011D01*
X013145Y020032D01*
X013135Y020049D01*
X013125Y020064D01*
X013117Y020076D01*
X013109Y020085D01*
X013104Y020091D01*
X013104Y020093D01*
X013103D01*
X013087Y020108D01*
X013071Y020120D01*
X013055Y020130D01*
X013040Y020138D01*
X013027Y020145D01*
X013016Y020149D01*
X013012Y020150D01*
X013009Y020151D01*
X013007Y020152D01*
X013006D01*
X012989Y020157D01*
X012969Y020159D01*
X012949Y020162D01*
X012930Y020163D01*
X012912Y020164D01*
X012905Y020165D01*
D02*
G37*
G36*
X012513D02*
X012393D01*
Y019734D01*
X012129Y020165D01*
X012004D01*
Y019525D01*
X012123D01*
Y019947D01*
X012383Y019525D01*
X012513D01*
Y020165D01*
D02*
G37*
%LPD*%
G36*
X012875Y020056D02*
X012886D01*
X012895Y020055D01*
X012904D01*
X012912Y020054D01*
X012919D01*
X012929Y020052D01*
X012936Y020051D01*
X012941Y020050D01*
X012942D01*
X012955Y020047D01*
X012966Y020042D01*
X012976Y020037D01*
X012985Y020032D01*
X012992Y020027D01*
X012997Y020024D01*
X013000Y020021D01*
X013001Y020020D01*
X013009Y020011D01*
X013017Y020000D01*
X013023Y019990D01*
X013029Y019981D01*
X013032Y019972D01*
X013035Y019964D01*
X013037Y019960D01*
X013038Y019959D01*
Y019958D01*
X013043Y019941D01*
X013046Y019924D01*
X013048Y019904D01*
X013050Y019886D01*
X013051Y019870D01*
X013052Y019863D01*
Y019856D01*
Y019851D01*
Y019848D01*
Y019845D01*
Y019844D01*
X013051Y019818D01*
X013050Y019794D01*
X013047Y019775D01*
X013045Y019758D01*
X013043Y019744D01*
X013042Y019739D01*
X013040Y019735D01*
X013039Y019731D01*
Y019728D01*
X013038Y019728D01*
Y019727D01*
X013032Y019712D01*
X013028Y019699D01*
X013021Y019689D01*
X013017Y019680D01*
X013012Y019674D01*
X013008Y019669D01*
X013006Y019666D01*
X013005Y019666D01*
X012996Y019659D01*
X012988Y019654D01*
X012980Y019649D01*
X012971Y019645D01*
X012964Y019642D01*
X012958Y019641D01*
X012955Y019639D01*
X012953D01*
X012943Y019637D01*
X012931Y019636D01*
X012918Y019634D01*
X012905D01*
X012893Y019633D01*
X012779D01*
Y020057D01*
X012863D01*
X012875Y020056D01*
D02*
G37*
%LPC*%
G36*
X013440Y015139D02*
X013438D01*
X013435Y015139D01*
X013432Y015138D01*
X013428Y015137D01*
X013424Y015136D01*
X013419Y015134D01*
X013416Y015131D01*
X013415Y015130D01*
X013414Y015130D01*
X013413Y015127D01*
X013411Y015125D01*
X013408Y015122D01*
X013407Y015118D01*
X013405Y015113D01*
X013404Y015108D01*
Y015107D01*
X013403Y015106D01*
Y015103D01*
X013403Y015099D01*
Y015097D01*
Y015094D01*
Y015090D01*
X013402Y015086D01*
Y015081D01*
Y015076D01*
Y015070D01*
Y015063D01*
Y015016D01*
X013479D01*
Y015061D01*
Y015061D01*
Y015063D01*
Y015065D01*
Y015068D01*
Y015071D01*
Y015075D01*
X013479Y015084D01*
X013478Y015093D01*
X013478Y015103D01*
X013477Y015106D01*
X013477Y015110D01*
X013476Y015113D01*
X013476Y015116D01*
Y015116D01*
X013475Y015117D01*
X013474Y015120D01*
X013473Y015122D01*
X013469Y015127D01*
X013466Y015130D01*
X013463Y015133D01*
X013463Y015133D01*
X013461Y015134D01*
X013460Y015135D01*
X013457Y015136D01*
X013453Y015137D01*
X013449Y015138D01*
X013445Y015139D01*
X013440Y015139D01*
D02*
G37*
G36*
X016309Y025136D02*
X016298D01*
X016293Y025136D01*
X016281Y025134D01*
X016272Y025130D01*
X016263Y025127D01*
X016259Y025125D01*
X016257Y025123D01*
X016254Y025121D01*
X016251Y025120D01*
X016250Y025118D01*
X016249Y025118D01*
X016248Y025117D01*
X016247Y025117D01*
X016239Y025109D01*
X016233Y025100D01*
X016228Y025091D01*
X016224Y025082D01*
X016221Y025074D01*
X016220Y025070D01*
X016219Y025067D01*
X016219Y025065D01*
X016218Y025063D01*
X016218Y025062D01*
Y025061D01*
X016254Y025055D01*
X016255Y025064D01*
X016258Y025072D01*
X016261Y025079D01*
X016264Y025084D01*
X016267Y025089D01*
X016269Y025092D01*
X016271Y025094D01*
X016271Y025094D01*
X016277Y025098D01*
X016283Y025102D01*
X016288Y025104D01*
X016293Y025105D01*
X016298Y025106D01*
X016302Y025107D01*
X016306D01*
X016313Y025107D01*
X016320Y025105D01*
X016326Y025103D01*
X016331Y025101D01*
X016334Y025098D01*
X016337Y025096D01*
X016339Y025095D01*
X016340Y025094D01*
X016345Y025089D01*
X016348Y025084D01*
X016350Y025078D01*
X016352Y025073D01*
X016352Y025069D01*
X016353Y025065D01*
Y025063D01*
Y025062D01*
Y025062D01*
Y025057D01*
X016352Y025053D01*
X016350Y025046D01*
X016347Y025040D01*
X016344Y025034D01*
X016341Y025030D01*
X016338Y025028D01*
X016336Y025026D01*
X016335Y025025D01*
X016335D01*
X016328Y025022D01*
X016321Y025019D01*
X016314Y025017D01*
X016308Y025015D01*
X016302Y025015D01*
X016298Y025014D01*
X016292D01*
X016290Y025014D01*
X016288D01*
X016284Y024983D01*
X016290Y024984D01*
X016295Y024985D01*
X016299Y024986D01*
X016303Y024986D01*
X016306Y024986D01*
X016309D01*
X016318Y024986D01*
X016326Y024984D01*
X016333Y024981D01*
X016339Y024978D01*
X016344Y024976D01*
X016347Y024973D01*
X016349Y024971D01*
X016350Y024971D01*
X016355Y024964D01*
X016360Y024958D01*
X016363Y024951D01*
X016364Y024944D01*
X016365Y024939D01*
X016366Y024934D01*
X016366Y024932D01*
Y024931D01*
Y024930D01*
Y024930D01*
X016365Y024921D01*
X016363Y024912D01*
X016361Y024905D01*
X016358Y024899D01*
X016354Y024894D01*
X016352Y024890D01*
X016350Y024888D01*
X016349Y024887D01*
X016342Y024881D01*
X016335Y024877D01*
X016328Y024874D01*
X016321Y024872D01*
X016315Y024870D01*
X016311Y024870D01*
X016309Y024870D01*
X016306D01*
X016299Y024870D01*
X016292Y024872D01*
X016285Y024874D01*
X016280Y024876D01*
X016276Y024878D01*
X016273Y024880D01*
X016271Y024882D01*
X016270Y024883D01*
X016265Y024888D01*
X016261Y024895D01*
X016257Y024902D01*
X016254Y024910D01*
X016252Y024916D01*
X016251Y024919D01*
X016251Y024922D01*
X016251Y024924D01*
X016250Y024925D01*
X016250Y024926D01*
Y024927D01*
X016214Y024922D01*
X016215Y024915D01*
X016216Y024909D01*
X016220Y024897D01*
X016225Y024887D01*
X016227Y024883D01*
X016230Y024879D01*
X016232Y024875D01*
X016235Y024872D01*
X016237Y024869D01*
X016239Y024867D01*
X016240Y024865D01*
X016241Y024864D01*
X016242Y024863D01*
X016243Y024863D01*
X016248Y024859D01*
X016253Y024855D01*
X016258Y024852D01*
X016263Y024850D01*
X016274Y024846D01*
X016284Y024843D01*
X016288Y024842D01*
X016293Y024841D01*
X016296Y024841D01*
X016300Y024841D01*
X016302Y024840D01*
X016306D01*
X016314Y024841D01*
X016321Y024841D01*
X016328Y024843D01*
X016335Y024844D01*
X016341Y024846D01*
X016347Y024849D01*
X016352Y024851D01*
X016357Y024854D01*
X016361Y024856D01*
X016365Y024858D01*
X016368Y024860D01*
X016371Y024862D01*
X016373Y024864D01*
X016375Y024865D01*
X016376Y024866D01*
X016376Y024867D01*
X016381Y024872D01*
X016385Y024877D01*
X016389Y024883D01*
X016392Y024888D01*
X016395Y024893D01*
X016397Y024898D01*
X016401Y024909D01*
X016402Y024913D01*
X016402Y024917D01*
X016403Y024921D01*
X016404Y024924D01*
X016404Y024927D01*
Y024929D01*
Y024930D01*
Y024931D01*
X016404Y024941D01*
X016402Y024950D01*
X016399Y024958D01*
X016397Y024965D01*
X016394Y024970D01*
X016392Y024974D01*
X016390Y024977D01*
X016390Y024978D01*
X016384Y024984D01*
X016378Y024989D01*
X016371Y024994D01*
X016364Y024997D01*
X016358Y024999D01*
X016354Y025001D01*
X016352Y025002D01*
X016351Y025002D01*
X016350Y025002D01*
X016350D01*
X016357Y025006D01*
X016363Y025010D01*
X016368Y025014D01*
X016372Y025018D01*
X016375Y025021D01*
X016378Y025024D01*
X016379Y025026D01*
X016379Y025027D01*
X016383Y025033D01*
X016385Y025038D01*
X016387Y025044D01*
X016389Y025050D01*
X016389Y025054D01*
X016390Y025058D01*
Y025060D01*
Y025061D01*
X016389Y025068D01*
X016388Y025075D01*
X016386Y025082D01*
X016384Y025087D01*
X016382Y025092D01*
X016381Y025095D01*
X016379Y025097D01*
X016379Y025098D01*
X016375Y025105D01*
X016370Y025110D01*
X016365Y025115D01*
X016360Y025119D01*
X016355Y025122D01*
X016352Y025124D01*
X016349Y025126D01*
X016349Y025126D01*
X016348D01*
X016341Y025129D01*
X016333Y025132D01*
X016326Y025134D01*
X016319Y025135D01*
X016314Y025136D01*
X016309Y025136D01*
D02*
G37*
G36*
X016095Y025084D02*
X016061D01*
Y025005D01*
X015983D01*
Y024972D01*
X016061D01*
Y024892D01*
X016095D01*
Y024972D01*
X016174D01*
Y025005D01*
X016095D01*
Y025084D01*
D02*
G37*
G36*
X017027Y025135D02*
X016989D01*
X016910Y024924D01*
X016906Y024916D01*
X016903Y024907D01*
X016901Y024899D01*
X016899Y024892D01*
X016897Y024886D01*
X016896Y024881D01*
X016895Y024880D01*
X016895Y024878D01*
X016894Y024878D01*
Y024877D01*
X016889Y024894D01*
X016887Y024902D01*
X016884Y024909D01*
X016882Y024915D01*
X016881Y024918D01*
X016881Y024920D01*
X016880Y024922D01*
X016880Y024923D01*
X016879Y024924D01*
Y024924D01*
X016804Y025135D01*
X016762D01*
X016874Y024845D01*
X016914D01*
X017027Y025135D01*
D02*
G37*
G36*
X016647Y025136D02*
X016637D01*
X016631Y025136D01*
X016619Y025134D01*
X016610Y025130D01*
X016601Y025127D01*
X016598Y025125D01*
X016595Y025123D01*
X016592Y025121D01*
X016590Y025120D01*
X016588Y025118D01*
X016587Y025118D01*
X016586Y025117D01*
X016585Y025117D01*
X016577Y025109D01*
X016571Y025100D01*
X016566Y025091D01*
X016562Y025082D01*
X016559Y025074D01*
X016558Y025070D01*
X016557Y025067D01*
X016557Y025065D01*
X016557Y025063D01*
X016556Y025062D01*
Y025061D01*
X016592Y025055D01*
X016593Y025064D01*
X016596Y025072D01*
X016599Y025079D01*
X016602Y025084D01*
X016605Y025089D01*
X016607Y025092D01*
X016609Y025094D01*
X016609Y025094D01*
X016615Y025098D01*
X016621Y025102D01*
X016626Y025104D01*
X016632Y025105D01*
X016637Y025106D01*
X016640Y025107D01*
X016644D01*
X016651Y025107D01*
X016658Y025105D01*
X016664Y025103D01*
X016669Y025101D01*
X016673Y025098D01*
X016676Y025096D01*
X016678Y025095D01*
X016678Y025094D01*
X016683Y025089D01*
X016686Y025084D01*
X016688Y025078D01*
X016690Y025073D01*
X016691Y025069D01*
X016691Y025065D01*
Y025063D01*
Y025062D01*
Y025062D01*
Y025057D01*
X016691Y025053D01*
X016689Y025046D01*
X016686Y025040D01*
X016682Y025034D01*
X016679Y025030D01*
X016676Y025028D01*
X016674Y025026D01*
X016673Y025025D01*
X016673D01*
X016666Y025022D01*
X016659Y025019D01*
X016652Y025017D01*
X016646Y025015D01*
X016640Y025015D01*
X016636Y025014D01*
X016630D01*
X016629Y025014D01*
X016627D01*
X016622Y024983D01*
X016628Y024984D01*
X016633Y024985D01*
X016637Y024986D01*
X016641Y024986D01*
X016644Y024986D01*
X016647D01*
X016656Y024986D01*
X016664Y024984D01*
X016671Y024981D01*
X016677Y024978D01*
X016682Y024976D01*
X016685Y024973D01*
X016687Y024971D01*
X016688Y024971D01*
X016694Y024964D01*
X016698Y024958D01*
X016701Y024951D01*
X016702Y024944D01*
X016704Y024939D01*
X016704Y024934D01*
X016704Y024932D01*
Y024931D01*
Y024930D01*
Y024930D01*
X016704Y024921D01*
X016702Y024912D01*
X016699Y024905D01*
X016696Y024899D01*
X016692Y024894D01*
X016690Y024890D01*
X016688Y024888D01*
X016687Y024887D01*
X016680Y024881D01*
X016673Y024877D01*
X016666Y024874D01*
X016659Y024872D01*
X016653Y024870D01*
X016649Y024870D01*
X016647Y024870D01*
X016645D01*
X016637Y024870D01*
X016630Y024872D01*
X016624Y024874D01*
X016619Y024876D01*
X016614Y024878D01*
X016611Y024880D01*
X016609Y024882D01*
X016608Y024883D01*
X016603Y024888D01*
X016599Y024895D01*
X016595Y024902D01*
X016593Y024910D01*
X016590Y024916D01*
X016590Y024919D01*
X016589Y024922D01*
X016589Y024924D01*
X016588Y024925D01*
X016588Y024926D01*
Y024927D01*
X016552Y024922D01*
X016553Y024915D01*
X016554Y024909D01*
X016558Y024897D01*
X016563Y024887D01*
X016565Y024883D01*
X016568Y024879D01*
X016570Y024875D01*
X016573Y024872D01*
X016575Y024869D01*
X016577Y024867D01*
X016578Y024865D01*
X016580Y024864D01*
X016580Y024863D01*
X016581Y024863D01*
X016586Y024859D01*
X016591Y024855D01*
X016596Y024852D01*
X016601Y024850D01*
X016612Y024846D01*
X016622Y024843D01*
X016627Y024842D01*
X016631Y024841D01*
X016634Y024841D01*
X016638Y024841D01*
X016640Y024840D01*
X016644D01*
X016652Y024841D01*
X016659Y024841D01*
X016666Y024843D01*
X016673Y024844D01*
X016679Y024846D01*
X016685Y024849D01*
X016690Y024851D01*
X016695Y024854D01*
X016699Y024856D01*
X016703Y024858D01*
X016707Y024860D01*
X016709Y024862D01*
X016711Y024864D01*
X016713Y024865D01*
X016714Y024866D01*
X016714Y024867D01*
X016719Y024872D01*
X016723Y024877D01*
X016727Y024883D01*
X016730Y024888D01*
X016733Y024893D01*
X016735Y024898D01*
X016739Y024909D01*
X016740Y024913D01*
X016740Y024917D01*
X016741Y024921D01*
X016742Y024924D01*
X016742Y024927D01*
Y024929D01*
Y024930D01*
Y024931D01*
X016742Y024941D01*
X016740Y024950D01*
X016738Y024958D01*
X016735Y024965D01*
X016733Y024970D01*
X016730Y024974D01*
X016728Y024977D01*
X016728Y024978D01*
X016722Y024984D01*
X016716Y024989D01*
X016709Y024994D01*
X016702Y024997D01*
X016696Y024999D01*
X016692Y025001D01*
X016690Y025002D01*
X016689Y025002D01*
X016688Y025002D01*
X016688D01*
X016695Y025006D01*
X016701Y025010D01*
X016706Y025014D01*
X016710Y025018D01*
X016713Y025021D01*
X016716Y025024D01*
X016717Y025026D01*
X016717Y025027D01*
X016721Y025033D01*
X016723Y025038D01*
X016725Y025044D01*
X016727Y025050D01*
X016727Y025054D01*
X016728Y025058D01*
Y025060D01*
Y025061D01*
X016727Y025068D01*
X016726Y025075D01*
X016725Y025082D01*
X016722Y025087D01*
X016720Y025092D01*
X016719Y025095D01*
X016717Y025097D01*
X016717Y025098D01*
X016713Y025105D01*
X016708Y025110D01*
X016703Y025115D01*
X016698Y025119D01*
X016694Y025122D01*
X016690Y025124D01*
X016687Y025126D01*
X016687Y025126D01*
X016686D01*
X016679Y025129D01*
X016671Y025132D01*
X016664Y025134D01*
X016657Y025135D01*
X016652Y025136D01*
X016647Y025136D01*
D02*
G37*
G36*
X016500Y024886D02*
X016459D01*
Y024845D01*
X016500D01*
Y024886D01*
D02*
G37*
G36*
X013501Y015477D02*
X013497D01*
X013493Y015477D01*
X013488Y015477D01*
X013484Y015476D01*
X013478Y015476D01*
X013472Y015474D01*
X013460Y015472D01*
X013446Y015468D01*
X013440Y015465D01*
X013434Y015462D01*
X013429Y015458D01*
X013423Y015454D01*
X013423Y015454D01*
X013422Y015453D01*
X013421Y015452D01*
X013419Y015450D01*
X013417Y015448D01*
X013415Y015445D01*
X013413Y015442D01*
X013410Y015438D01*
X013408Y015434D01*
X013406Y015429D01*
X013401Y015419D01*
X013400Y015414D01*
X013399Y015408D01*
X013398Y015401D01*
X013397Y015394D01*
Y015394D01*
Y015392D01*
Y015390D01*
X013398Y015388D01*
X013398Y015384D01*
X013399Y015381D01*
X013401Y015372D01*
X013404Y015363D01*
X013406Y015357D01*
X013408Y015352D01*
X013411Y015347D01*
X013415Y015342D01*
X013419Y015337D01*
X013424Y015333D01*
X013424Y015332D01*
X013425Y015332D01*
X013426Y015331D01*
X013429Y015329D01*
X013432Y015328D01*
X013435Y015326D01*
X013439Y015324D01*
X013443Y015321D01*
X013449Y015319D01*
X013454Y015317D01*
X013461Y015315D01*
X013468Y015314D01*
X013476Y015312D01*
X013484Y015311D01*
X013493Y015311D01*
X013502Y015310D01*
X013507D01*
X013511Y015311D01*
X013515Y015311D01*
X013520Y015311D01*
X013526Y015312D01*
X013532Y015313D01*
X013544Y015316D01*
X013557Y015320D01*
X013564Y015323D01*
X013570Y015326D01*
X013575Y015330D01*
X013581Y015334D01*
X013581Y015334D01*
X013582Y015335D01*
X013583Y015336D01*
X013585Y015338D01*
X013587Y015340D01*
X013589Y015343D01*
X013592Y015346D01*
X013594Y015350D01*
X013599Y015359D01*
X013603Y015369D01*
X013605Y015375D01*
X013606Y015381D01*
X013607Y015387D01*
X013607Y015394D01*
Y015394D01*
Y015396D01*
Y015397D01*
X013607Y015400D01*
X013606Y015403D01*
X013606Y015407D01*
X013604Y015415D01*
X013601Y015425D01*
X013599Y015429D01*
X013596Y015435D01*
X013593Y015439D01*
X013590Y015445D01*
X013586Y015449D01*
X013581Y015454D01*
X013581Y015454D01*
X013580Y015455D01*
X013578Y015456D01*
X013576Y015457D01*
X013573Y015460D01*
X013570Y015461D01*
X013566Y015463D01*
X013561Y015466D01*
X013556Y015468D01*
X013550Y015470D01*
X013543Y015472D01*
X013536Y015474D01*
X013529Y015475D01*
X013520Y015477D01*
X013511Y015477D01*
X013501Y015477D01*
D02*
G37*
G36*
X014781Y025105D02*
X014736D01*
Y025001D01*
X014632D01*
Y024957D01*
X014736D01*
Y024852D01*
X014781D01*
Y024957D01*
X014885D01*
Y025001D01*
X014781D01*
Y025105D01*
D02*
G37*
G36*
X015568Y025174D02*
X015517D01*
X015412Y024895D01*
X015408Y024883D01*
X015404Y024872D01*
X015401Y024861D01*
X015398Y024852D01*
X015395Y024843D01*
X015393Y024837D01*
X015393Y024835D01*
X015392Y024833D01*
X015392Y024832D01*
Y024832D01*
X015385Y024854D01*
X015382Y024865D01*
X015378Y024874D01*
X015376Y024882D01*
X015374Y024886D01*
X015374Y024889D01*
X015373Y024891D01*
X015372Y024893D01*
X015372Y024894D01*
Y024895D01*
X015272Y025174D01*
X015216D01*
X015365Y024790D01*
X015418D01*
X015568Y025174D01*
D02*
G37*
G36*
X015175Y025169D02*
X014984D01*
X014947Y024971D01*
X014991Y024965D01*
X014995Y024971D01*
X015000Y024976D01*
X015004Y024981D01*
X015009Y024985D01*
X015013Y024988D01*
X015016Y024991D01*
X015019Y024992D01*
X015019Y024992D01*
X015026Y024996D01*
X015034Y024998D01*
X015040Y025000D01*
X015047Y025002D01*
X015053Y025002D01*
X015057Y025003D01*
X015068D01*
X015074Y025002D01*
X015086Y024999D01*
X015096Y024995D01*
X015105Y024991D01*
X015111Y024987D01*
X015116Y024983D01*
X015119Y024980D01*
X015120Y024979D01*
Y024979D01*
X015128Y024969D01*
X015134Y024959D01*
X015137Y024949D01*
X015140Y024938D01*
X015142Y024929D01*
X015142Y024926D01*
Y024922D01*
X015143Y024920D01*
Y024917D01*
Y024916D01*
Y024916D01*
Y024908D01*
X015142Y024901D01*
X015139Y024887D01*
X015135Y024875D01*
X015131Y024866D01*
X015127Y024858D01*
X015123Y024852D01*
X015121Y024850D01*
X015120Y024848D01*
X015120Y024848D01*
X015119Y024847D01*
X015115Y024843D01*
X015110Y024839D01*
X015100Y024832D01*
X015091Y024828D01*
X015081Y024825D01*
X015074Y024823D01*
X015067Y024822D01*
X015065Y024822D01*
X015061D01*
X015051Y024822D01*
X015041Y024825D01*
X015033Y024827D01*
X015026Y024831D01*
X015020Y024834D01*
X015016Y024837D01*
X015014Y024839D01*
X015013Y024840D01*
X015006Y024847D01*
X015000Y024856D01*
X014996Y024865D01*
X014993Y024873D01*
X014990Y024882D01*
X014989Y024888D01*
X014988Y024891D01*
X014988Y024892D01*
Y024893D01*
Y024894D01*
X014938Y024890D01*
X014939Y024881D01*
X014941Y024873D01*
X014946Y024857D01*
X014952Y024844D01*
X014955Y024838D01*
X014959Y024833D01*
X014962Y024828D01*
X014965Y024823D01*
X014968Y024820D01*
X014970Y024817D01*
X014973Y024815D01*
X014974Y024813D01*
X014975Y024812D01*
X014975Y024812D01*
X014982Y024807D01*
X014989Y024802D01*
X014996Y024799D01*
X015003Y024795D01*
X015017Y024790D01*
X015031Y024787D01*
X015037Y024785D01*
X015043Y024785D01*
X015048Y024784D01*
X015053Y024784D01*
X015056Y024783D01*
X015061D01*
X015073Y024784D01*
X015084Y024785D01*
X015095Y024787D01*
X015104Y024790D01*
X015113Y024794D01*
X015121Y024798D01*
X015129Y024802D01*
X015136Y024806D01*
X015142Y024811D01*
X015147Y024815D01*
X015152Y024819D01*
X015156Y024822D01*
X015159Y024825D01*
X015161Y024827D01*
X015162Y024829D01*
X015162Y024830D01*
X015168Y024837D01*
X015172Y024845D01*
X015177Y024852D01*
X015180Y024860D01*
X015186Y024875D01*
X015189Y024889D01*
X015190Y024895D01*
X015191Y024901D01*
X015192Y024906D01*
X015192Y024911D01*
X015193Y024915D01*
Y024917D01*
Y024919D01*
Y024920D01*
X015192Y024929D01*
X015191Y024939D01*
X015190Y024948D01*
X015187Y024957D01*
X015185Y024964D01*
X015182Y024972D01*
X015179Y024979D01*
X015176Y024985D01*
X015172Y024991D01*
X015169Y024996D01*
X015166Y024999D01*
X015164Y025003D01*
X015161Y025006D01*
X015160Y025008D01*
X015159Y025009D01*
X015158Y025009D01*
X015151Y025016D01*
X015145Y025021D01*
X015137Y025025D01*
X015130Y025029D01*
X015123Y025033D01*
X015116Y025036D01*
X015102Y025040D01*
X015096Y025042D01*
X015091Y025043D01*
X015086Y025043D01*
X015081Y025044D01*
X015078Y025044D01*
X015066D01*
X015059Y025043D01*
X015046Y025040D01*
X015034Y025037D01*
X015023Y025032D01*
X015014Y025028D01*
X015010Y025025D01*
X015006Y025024D01*
X015004Y025022D01*
X015002Y025021D01*
X015001Y025021D01*
X015000Y025020D01*
X015021Y025124D01*
X015175D01*
Y025169D01*
D02*
G37*
G36*
X013501Y014281D02*
X013497D01*
X013493Y014280D01*
X013488Y014280D01*
X013484Y014279D01*
X013478Y014279D01*
X013472Y014277D01*
X013460Y014275D01*
X013446Y014271D01*
X013440Y014268D01*
X013434Y014265D01*
X013429Y014261D01*
X013423Y014257D01*
X013423Y014257D01*
X013422Y014256D01*
X013421Y014255D01*
X013419Y014253D01*
X013417Y014251D01*
X013415Y014248D01*
X013413Y014245D01*
X013410Y014241D01*
X013408Y014237D01*
X013406Y014232D01*
X013401Y014222D01*
X013400Y014217D01*
X013399Y014211D01*
X013398Y014204D01*
X013397Y014197D01*
Y014197D01*
Y014195D01*
Y014194D01*
X013398Y014191D01*
X013398Y014187D01*
X013399Y014184D01*
X013401Y014175D01*
X013404Y014166D01*
X013406Y014160D01*
X013408Y014155D01*
X013411Y014150D01*
X013415Y014145D01*
X013419Y014140D01*
X013424Y014136D01*
X013424Y014135D01*
X013425Y014135D01*
X013426Y014134D01*
X013429Y014132D01*
X013432Y014131D01*
X013435Y014129D01*
X013439Y014127D01*
X013443Y014124D01*
X013449Y014122D01*
X013454Y014120D01*
X013461Y014118D01*
X013468Y014117D01*
X013476Y014115D01*
X013484Y014114D01*
X013493Y014114D01*
X013502Y014113D01*
X013507D01*
X013511Y014114D01*
X013515Y014114D01*
X013520Y014114D01*
X013526Y014115D01*
X013532Y014116D01*
X013544Y014119D01*
X013557Y014123D01*
X013564Y014126D01*
X013570Y014129D01*
X013575Y014133D01*
X013581Y014137D01*
X013581Y014137D01*
X013582Y014138D01*
X013583Y014139D01*
X013585Y014141D01*
X013587Y014143D01*
X013589Y014146D01*
X013592Y014149D01*
X013594Y014153D01*
X013599Y014162D01*
X013603Y014172D01*
X013605Y014178D01*
X013606Y014184D01*
X013607Y014190D01*
X013607Y014197D01*
Y014197D01*
Y014199D01*
Y014201D01*
X013607Y014203D01*
X013606Y014206D01*
X013606Y014210D01*
X013604Y014218D01*
X013601Y014228D01*
X013599Y014232D01*
X013596Y014238D01*
X013593Y014242D01*
X013590Y014248D01*
X013586Y014253D01*
X013581Y014257D01*
X013581Y014257D01*
X013580Y014258D01*
X013578Y014259D01*
X013576Y014260D01*
X013573Y014263D01*
X013570Y014264D01*
X013566Y014267D01*
X013561Y014269D01*
X013556Y014271D01*
X013550Y014273D01*
X013543Y014275D01*
X013536Y014277D01*
X013529Y014278D01*
X013520Y014280D01*
X013511Y014280D01*
X013501Y014281D01*
D02*
G37*
G36*
X013588Y016110D02*
X013515Y016051D01*
X013515Y016050D01*
X013517Y016048D01*
X013519Y016044D01*
X013522Y016040D01*
X013526Y016035D01*
X013529Y016030D01*
X013534Y016025D01*
X013540Y016021D01*
X013540Y016021D01*
X013542Y016020D01*
X013545Y016018D01*
X013549Y016016D01*
X013553Y016015D01*
X013558Y016013D01*
X013563Y016012D01*
X013569Y016011D01*
X013572D01*
X013575Y016012D01*
X013580Y016013D01*
X013585Y016015D01*
X013590Y016017D01*
X013595Y016020D01*
X013599Y016024D01*
X013600Y016024D01*
X013601Y016026D01*
X013603Y016029D01*
X013605Y016032D01*
X013607Y016037D01*
X013609Y016042D01*
X013611Y016049D01*
X013611Y016056D01*
Y016057D01*
Y016059D01*
X013611Y016061D01*
X013610Y016065D01*
X013610Y016069D01*
X013609Y016073D01*
X013608Y016077D01*
X013606Y016082D01*
X013606Y016083D01*
X013605Y016084D01*
X013604Y016087D01*
X013602Y016091D01*
X013599Y016094D01*
X013596Y016099D01*
X013592Y016105D01*
X013588Y016110D01*
D02*
G37*
G36*
X013413Y016107D02*
X013411D01*
X013409Y016106D01*
X013407Y016106D01*
X013404Y016105D01*
X013400Y016103D01*
X013397Y016101D01*
X013394Y016098D01*
X013394Y016098D01*
X013393Y016097D01*
X013391Y016094D01*
X013390Y016092D01*
X013389Y016089D01*
X013387Y016085D01*
X013387Y016081D01*
X013386Y016076D01*
Y016075D01*
Y016074D01*
X013387Y016071D01*
X013387Y016068D01*
X013388Y016064D01*
X013389Y016060D01*
X013391Y016057D01*
X013393Y016054D01*
X013394Y016053D01*
X013394Y016053D01*
X013396Y016052D01*
X013398Y016050D01*
X013403Y016048D01*
X013406Y016047D01*
X013409Y016046D01*
X013410D01*
X013411Y016047D01*
X013414Y016047D01*
X013417Y016048D01*
X013421Y016049D01*
X013425Y016052D01*
X013430Y016055D01*
X013436Y016060D01*
X013452Y016074D01*
X013440Y016089D01*
X013439Y016090D01*
X013438Y016092D01*
X013435Y016095D01*
X013432Y016098D01*
X013427Y016101D01*
X013423Y016104D01*
X013418Y016106D01*
X013413Y016107D01*
D02*
G37*
G36*
X017819Y025122D02*
X017816D01*
X017805Y025121D01*
X017795Y025120D01*
X017785Y025118D01*
X017776Y025116D01*
X017767Y025113D01*
X017759Y025109D01*
X017752Y025106D01*
X017746Y025102D01*
X017740Y025099D01*
X017735Y025095D01*
X017730Y025092D01*
X017727Y025089D01*
X017724Y025086D01*
X017721Y025084D01*
X017720Y025083D01*
X017720Y025083D01*
X017713Y025075D01*
X017708Y025067D01*
X017702Y025058D01*
X017698Y025049D01*
X017695Y025040D01*
X017692Y025031D01*
X017689Y025022D01*
X017688Y025014D01*
X017686Y025006D01*
X017685Y024998D01*
X017684Y024992D01*
X017683Y024986D01*
Y024981D01*
X017683Y024978D01*
Y024975D01*
Y024975D01*
Y024974D01*
X017684Y024961D01*
X017685Y024948D01*
X017688Y024936D01*
X017689Y024931D01*
X017691Y024926D01*
X017692Y024921D01*
X017694Y024917D01*
X017695Y024914D01*
X017696Y024911D01*
X017697Y024908D01*
X017698Y024907D01*
X017698Y024905D01*
Y024905D01*
X017705Y024893D01*
X017713Y024883D01*
X017721Y024874D01*
X017728Y024867D01*
X017735Y024861D01*
X017738Y024859D01*
X017740Y024857D01*
X017743Y024856D01*
X017744Y024854D01*
X017745Y024854D01*
X017745Y024854D01*
X017751Y024850D01*
X017757Y024848D01*
X017769Y024843D01*
X017781Y024840D01*
X017792Y024837D01*
X017797Y024836D01*
X017802Y024836D01*
X017806Y024835D01*
X017809D01*
X017812Y024835D01*
X017816D01*
X017829Y024836D01*
X017841Y024838D01*
X017853Y024840D01*
X017858Y024842D01*
X017863Y024843D01*
X017867Y024845D01*
X017871Y024846D01*
X017875Y024848D01*
X017877Y024849D01*
X017880Y024850D01*
X017882Y024851D01*
X017883Y024852D01*
X017883D01*
X017894Y024859D01*
X017904Y024867D01*
X017912Y024875D01*
X017919Y024883D01*
X017924Y024891D01*
X017926Y024894D01*
X017928Y024897D01*
X017929Y024899D01*
X017930Y024901D01*
X017931Y024902D01*
Y024902D01*
X017934Y024909D01*
X017937Y024915D01*
X017941Y024928D01*
X017944Y024941D01*
X017946Y024952D01*
X017947Y024957D01*
X017947Y024962D01*
X017948Y024967D01*
Y024970D01*
X017948Y024974D01*
Y024976D01*
Y024977D01*
Y024978D01*
X017947Y024993D01*
X017946Y025007D01*
X017945Y025013D01*
X017943Y025020D01*
X017941Y025025D01*
X017940Y025030D01*
X017939Y025035D01*
X017937Y025040D01*
X017936Y025043D01*
X017934Y025047D01*
X017933Y025049D01*
X017933Y025051D01*
X017932Y025052D01*
Y025052D01*
X017925Y025064D01*
X017918Y025074D01*
X017910Y025083D01*
X017903Y025090D01*
X017896Y025096D01*
X017893Y025098D01*
X017890Y025100D01*
X017888Y025101D01*
X017886Y025103D01*
X017885Y025103D01*
X017885Y025103D01*
X017879Y025107D01*
X017873Y025109D01*
X017861Y025114D01*
X017849Y025117D01*
X017839Y025119D01*
X017834Y025120D01*
X017829Y025121D01*
X017826Y025121D01*
X017822D01*
X017819Y025122D01*
D02*
G37*
G36*
X017514Y025117D02*
X017477D01*
Y024840D01*
X017650D01*
Y024872D01*
X017514D01*
Y025117D01*
D02*
G37*
G36*
X018120Y025122D02*
X018116D01*
X018102Y025121D01*
X018089Y025119D01*
X018078Y025117D01*
X018073Y025115D01*
X018068Y025113D01*
X018064Y025112D01*
X018060Y025110D01*
X018057Y025109D01*
X018053Y025108D01*
X018051Y025107D01*
X018050Y025106D01*
X018049Y025105D01*
X018048Y025105D01*
X018037Y025098D01*
X018028Y025090D01*
X018020Y025082D01*
X018013Y025074D01*
X018008Y025067D01*
X018006Y025064D01*
X018004Y025061D01*
X018003Y025059D01*
X018002Y025057D01*
X018002Y025056D01*
X018001Y025056D01*
X017996Y025043D01*
X017992Y025030D01*
X017989Y025018D01*
X017987Y025006D01*
X017986Y025001D01*
X017986Y024996D01*
X017985Y024992D01*
Y024988D01*
X017985Y024985D01*
Y024982D01*
Y024981D01*
Y024980D01*
X017986Y024966D01*
X017987Y024952D01*
X017989Y024939D01*
X017991Y024933D01*
X017992Y024928D01*
X017993Y024923D01*
X017995Y024919D01*
X017996Y024915D01*
X017997Y024912D01*
X017998Y024909D01*
X017998Y024907D01*
X017999Y024906D01*
Y024906D01*
X018005Y024894D01*
X018012Y024883D01*
X018019Y024874D01*
X018023Y024870D01*
X018026Y024866D01*
X018029Y024863D01*
X018033Y024860D01*
X018035Y024858D01*
X018038Y024856D01*
X018039Y024855D01*
X018041Y024854D01*
X018042Y024853D01*
X018042Y024853D01*
X018048Y024850D01*
X018053Y024847D01*
X018065Y024842D01*
X018077Y024839D01*
X018089Y024837D01*
X018095Y024836D01*
X018099Y024836D01*
X018104Y024835D01*
X018107D01*
X018111Y024835D01*
X018115D01*
X018123Y024835D01*
X018131Y024836D01*
X018138Y024837D01*
X018145Y024838D01*
X018151Y024840D01*
X018157Y024842D01*
X018163Y024844D01*
X018168Y024847D01*
X018172Y024849D01*
X018177Y024851D01*
X018180Y024853D01*
X018183Y024855D01*
X018185Y024856D01*
X018187Y024857D01*
X018188Y024858D01*
X018189Y024858D01*
X018194Y024863D01*
X018199Y024868D01*
X018203Y024874D01*
X018208Y024879D01*
X018215Y024891D01*
X018221Y024902D01*
X018223Y024907D01*
X018225Y024912D01*
X018227Y024916D01*
X018228Y024920D01*
X018229Y024923D01*
X018230Y024925D01*
X018230Y024927D01*
Y024927D01*
X018193Y024937D01*
X018192Y024930D01*
X018190Y024924D01*
X018188Y024919D01*
X018186Y024913D01*
X018183Y024909D01*
X018181Y024905D01*
X018178Y024901D01*
X018176Y024897D01*
X018174Y024894D01*
X018171Y024891D01*
X018169Y024889D01*
X018168Y024887D01*
X018166Y024886D01*
X018165Y024885D01*
X018164Y024884D01*
X018164Y024884D01*
X018160Y024880D01*
X018156Y024878D01*
X018147Y024874D01*
X018138Y024870D01*
X018130Y024868D01*
X018123Y024867D01*
X018120Y024866D01*
X018117D01*
X018115Y024866D01*
X018112D01*
X018103Y024866D01*
X018094Y024868D01*
X018086Y024870D01*
X018079Y024872D01*
X018073Y024875D01*
X018071Y024876D01*
X018069Y024877D01*
X018067Y024878D01*
X018066Y024878D01*
X018065Y024879D01*
X018065D01*
X018057Y024885D01*
X018051Y024891D01*
X018045Y024897D01*
X018041Y024904D01*
X018037Y024909D01*
X018035Y024914D01*
X018034Y024916D01*
X018033Y024917D01*
X018033Y024918D01*
Y024919D01*
X018029Y024929D01*
X018027Y024939D01*
X018025Y024950D01*
X018024Y024959D01*
X018023Y024964D01*
X018023Y024968D01*
Y024972D01*
X018022Y024974D01*
Y024977D01*
Y024979D01*
Y024980D01*
Y024980D01*
X018023Y024991D01*
X018024Y025000D01*
X018025Y025009D01*
X018027Y025017D01*
X018028Y025024D01*
X018029Y025027D01*
X018030Y025029D01*
X018030Y025031D01*
X018031Y025032D01*
X018031Y025033D01*
Y025034D01*
X018035Y025043D01*
X018039Y025051D01*
X018044Y025058D01*
X018049Y025064D01*
X018054Y025069D01*
X018057Y025072D01*
X018060Y025074D01*
X018061Y025075D01*
X018061D01*
X018069Y025080D01*
X018079Y025084D01*
X018087Y025087D01*
X018096Y025089D01*
X018103Y025090D01*
X018107Y025090D01*
X018110D01*
X018111Y025091D01*
X018115D01*
X018125Y025090D01*
X018134Y025089D01*
X018142Y025086D01*
X018148Y025084D01*
X018154Y025081D01*
X018158Y025079D01*
X018160Y025077D01*
X018161Y025077D01*
X018167Y025071D01*
X018173Y025064D01*
X018178Y025057D01*
X018182Y025049D01*
X018185Y025043D01*
X018186Y025040D01*
X018187Y025037D01*
X018188Y025035D01*
X018189Y025034D01*
X018189Y025033D01*
Y025032D01*
X018225Y025041D01*
X018223Y025048D01*
X018221Y025055D01*
X018217Y025061D01*
X018215Y025067D01*
X018211Y025072D01*
X018208Y025077D01*
X018205Y025081D01*
X018201Y025085D01*
X018198Y025089D01*
X018195Y025092D01*
X018193Y025095D01*
X018190Y025097D01*
X018189Y025099D01*
X018187Y025100D01*
X018186Y025100D01*
X018186Y025101D01*
X018180Y025104D01*
X018174Y025108D01*
X018169Y025111D01*
X018163Y025113D01*
X018151Y025117D01*
X018140Y025119D01*
X018135Y025120D01*
X018130Y025121D01*
X018126Y025121D01*
X018122Y025121D01*
X018120Y025122D01*
D02*
G37*
G36*
X018498Y025117D02*
X018448D01*
X018311Y024979D01*
Y025117D01*
X018274D01*
Y024840D01*
X018311D01*
Y024936D01*
X018356Y024980D01*
X018455Y024840D01*
X018503D01*
X018382Y025004D01*
X018498Y025117D01*
D02*
G37*
%LPD*%
G36*
X017826Y025090D02*
X017835Y025088D01*
X017844Y025086D01*
X017851Y025083D01*
X017857Y025081D01*
X017859Y025079D01*
X017861Y025079D01*
X017863Y025077D01*
X017864Y025077D01*
X017865Y025076D01*
X017865D01*
X017873Y025071D01*
X017880Y025064D01*
X017886Y025058D01*
X017891Y025051D01*
X017894Y025046D01*
X017897Y025041D01*
X017898Y025039D01*
X017899Y025038D01*
X017899Y025037D01*
Y025037D01*
X017903Y025027D01*
X017906Y025017D01*
X017908Y025007D01*
X017909Y024998D01*
X017910Y024994D01*
X017910Y024990D01*
Y024986D01*
X017911Y024984D01*
Y024981D01*
Y024980D01*
Y024978D01*
Y024978D01*
X017910Y024968D01*
X017909Y024959D01*
X017908Y024950D01*
X017907Y024942D01*
X017904Y024935D01*
X017902Y024928D01*
X017900Y024922D01*
X017897Y024916D01*
X017895Y024911D01*
X017892Y024907D01*
X017890Y024903D01*
X017888Y024901D01*
X017886Y024898D01*
X017885Y024896D01*
X017884Y024895D01*
X017884Y024895D01*
X017879Y024890D01*
X017873Y024885D01*
X017867Y024882D01*
X017862Y024878D01*
X017856Y024875D01*
X017850Y024873D01*
X017845Y024871D01*
X017839Y024870D01*
X017834Y024868D01*
X017830Y024868D01*
X017826Y024867D01*
X017822Y024866D01*
X017819D01*
X017817Y024866D01*
X017815D01*
X017808Y024866D01*
X017800Y024867D01*
X017794Y024869D01*
X017787Y024870D01*
X017781Y024873D01*
X017776Y024875D01*
X017771Y024878D01*
X017766Y024880D01*
X017762Y024883D01*
X017758Y024886D01*
X017755Y024888D01*
X017752Y024891D01*
X017750Y024892D01*
X017749Y024894D01*
X017748Y024895D01*
X017747Y024895D01*
X017743Y024901D01*
X017739Y024907D01*
X017735Y024913D01*
X017732Y024919D01*
X017729Y024926D01*
X017727Y024933D01*
X017724Y024945D01*
X017723Y024951D01*
X017722Y024957D01*
X017721Y024961D01*
X017721Y024966D01*
X017721Y024969D01*
Y024972D01*
Y024974D01*
Y024974D01*
X017721Y024985D01*
X017722Y024996D01*
X017723Y025006D01*
X017725Y025014D01*
X017727Y025022D01*
X017729Y025030D01*
X017732Y025036D01*
X017735Y025042D01*
X017737Y025047D01*
X017740Y025052D01*
X017742Y025055D01*
X017744Y025058D01*
X017746Y025061D01*
X017747Y025062D01*
X017748Y025063D01*
X017749Y025063D01*
X017754Y025068D01*
X017759Y025072D01*
X017765Y025076D01*
X017771Y025079D01*
X017777Y025081D01*
X017782Y025084D01*
X017793Y025087D01*
X017798Y025088D01*
X017802Y025089D01*
X017806Y025089D01*
X017809Y025090D01*
X017812Y025090D01*
X017816D01*
X017826Y025090D01*
D02*
G37*
D10*
X013750Y021970D02*
G03*
X013400Y022320I-000350J000000D01*
G01*
X013390Y019370D02*
G03*
X013750Y019730I000000J000360D01*
G01*
Y018750D02*
G03*
X013400Y019100I-000350J000000D01*
G01*
X013250Y013120D02*
G03*
X013750Y013620I000000J000500D01*
G01*
X022160Y023644D02*
Y024204D01*
X019410Y023654D02*
Y024214D01*
X013150Y025250D02*
X018550D01*
Y023200D02*
Y025250D01*
X018100Y022750D02*
X018550Y023200D01*
X013200Y022750D02*
X018100D01*
X013150Y022800D02*
X013200Y022750D01*
X013150Y022800D02*
Y025250D01*
X013200Y022320D02*
X013400D01*
X013750Y019710D02*
Y022000D01*
X013250Y019100D02*
X013400D01*
X013750Y013620D02*
Y018750D01*
X013250Y019370D02*
X013390D01*
D31*
X010160Y018110D02*
X011160D01*
X010160Y017110D02*
X011160D01*
X010160Y013110D02*
X011160D01*
X010160D02*
X011160D01*
X010160Y014110D02*
X011160D01*
X010160D02*
X011160D01*
X010160Y015110D02*
X011160D01*
X010160D02*
X011160D01*
X010160Y013110D02*
X010160Y019110D01*
X010160Y016110D02*
X011160D01*
X011160Y019110D02*
X011160Y013110D01*
X010160Y019110D02*
X011160Y019110D01*
X010160Y013110D02*
X011160D01*
X010150Y019340D02*
X011150D01*
X010150D02*
X011150D01*
X010150Y021340D02*
X011150D01*
X010150Y020340D02*
X011150D01*
X010150Y019340D02*
X010150Y022340D01*
X011150Y022340D02*
X011150Y019340D01*
X010150Y022340D02*
X011150Y022340D01*
D46*
X014995Y019218D02*
G03*
X014995Y019218I-000049J000000D01*
G01*
X025387Y021344D02*
G03*
X025387Y021344I-000049J000000D01*
G01*
X019180Y019454D02*
G03*
X019180Y019454I-000049J000000D01*
G01*
D47*
X022020Y019670D02*
Y020680D01*
X022480Y019670D02*
Y020680D01*
X022020D02*
X022480D01*
X022020Y019670D02*
X022480D01*
X021820Y019180D02*
X022830D01*
X021820Y018720D02*
X022830D01*
Y019180D01*
X021820Y018720D02*
Y019180D01*
X016600Y023720D02*
X017060D01*
X016600Y024730D02*
X017060D01*
Y023720D02*
Y024730D01*
X016600Y023720D02*
Y024730D01*
X015166Y023699D02*
Y024709D01*
X015626Y023699D02*
Y024709D01*
X015166D02*
X015626D01*
X015166Y023699D02*
X015626D01*
X013770Y023705D02*
X014230D01*
X013770Y024715D02*
X014230D01*
Y023705D02*
Y024715D01*
X013770Y023705D02*
Y024715D01*
X021520Y019270D02*
Y020280D01*
X021980Y019270D02*
Y020280D01*
X021520D02*
X021980D01*
X021520Y019270D02*
X021980D01*
X022020Y019680D02*
X023030D01*
X022020Y019220D02*
X023030D01*
Y019680D01*
X022020Y019220D02*
Y019680D01*
X019490Y019590D02*
Y020600D01*
X019030Y019590D02*
Y020600D01*
Y019590D02*
X019490D01*
X019030Y020600D02*
X019490D01*
X021480Y019720D02*
Y020730D01*
X021020Y019720D02*
Y020730D01*
Y019720D02*
X021480D01*
X021020Y020730D02*
X021480D01*
X020810Y020020D02*
Y021030D01*
X020350Y020020D02*
Y021030D01*
Y020020D02*
X020810D01*
X020350Y021030D02*
X020810D01*
Y021570D02*
Y022580D01*
X020350Y021570D02*
Y022580D01*
Y021570D02*
X020810D01*
X020350Y022580D02*
X020810D01*
X022870Y019180D02*
X023880D01*
X022870Y018720D02*
X023880D01*
Y019180D01*
X022870Y018720D02*
Y019180D01*
X022250Y023020D02*
Y024030D01*
X022710Y023020D02*
Y024030D01*
X022250D02*
X022710D01*
X022250Y023020D02*
X022710D01*
X022250Y024070D02*
X022710D01*
X022250Y025080D02*
X022710D01*
Y024070D02*
Y025080D01*
X022250Y024070D02*
Y025080D01*
X018060Y023710D02*
X018520D01*
X018060Y024720D02*
X018520D01*
Y023710D02*
Y024720D01*
X018060Y023710D02*
Y024720D01*
X020830Y021070D02*
Y021530D01*
X019820Y021070D02*
Y021530D01*
X020830D01*
X019820Y021070D02*
X020830D01*
X024030Y024620D02*
Y025080D01*
X023020Y024620D02*
Y025080D01*
X024030D01*
X023020Y024620D02*
X024030D01*
X020310Y020020D02*
Y021030D01*
X019850Y020020D02*
Y021030D01*
Y020020D02*
X020310D01*
X019850Y021030D02*
X020310D01*
Y021570D02*
Y022580D01*
X019850Y021570D02*
Y022580D01*
Y021570D02*
X020310D01*
X019850Y022580D02*
X020310D01*
X016765Y011975D02*
Y012985D01*
X016305Y011975D02*
Y012985D01*
Y011975D02*
X016765D01*
X016305Y012985D02*
X016765D01*
X015110Y014530D02*
Y015540D01*
X014650Y014530D02*
Y015540D01*
Y014530D02*
X015110D01*
X014650Y015540D02*
X015110D01*
X023065Y011975D02*
Y012985D01*
X022605Y011975D02*
Y012985D01*
Y011975D02*
X023065D01*
X022605Y012985D02*
X023065D01*
X026188Y016175D02*
X027199D01*
X026188Y015715D02*
X027199D01*
Y016175D01*
X026188Y015715D02*
Y016175D01*
X013725Y013920D02*
X014735D01*
X013725Y014380D02*
X014735D01*
X013725Y013920D02*
Y014380D01*
X014735Y013920D02*
Y014380D01*
X017040Y015520D02*
Y016530D01*
X016580Y015520D02*
Y016530D01*
Y015520D02*
X017040D01*
X016580Y016530D02*
X017040D01*
X021390Y012390D02*
Y013400D01*
X020930Y012390D02*
Y013400D01*
Y012390D02*
X021390D01*
X020930Y013400D02*
X021390D01*
X021990Y012385D02*
Y013395D01*
X021530Y012385D02*
Y013395D01*
Y012385D02*
X021990D01*
X021530Y013395D02*
X021990D01*
X018360Y012400D02*
Y013410D01*
X017900Y012400D02*
Y013410D01*
Y012400D02*
X018360D01*
X017900Y013410D02*
X018360D01*
X017890Y012395D02*
Y013405D01*
X017430Y012395D02*
Y013405D01*
Y012395D02*
X017890D01*
X017430Y013405D02*
X017890D01*
X022770Y024010D02*
X023780D01*
X022770Y023550D02*
X023780D01*
Y024010D01*
X022770Y023550D02*
Y024010D01*
X017920Y018570D02*
X018930D01*
X017920Y019030D02*
X018930D01*
X017920Y018570D02*
Y019030D01*
X018930Y018570D02*
Y019030D01*
X017920Y018120D02*
X018930D01*
X017920Y018580D02*
X018930D01*
X017920Y018120D02*
Y018580D01*
X018930Y018120D02*
Y018580D01*
X014900Y017550D02*
Y018560D01*
X014440Y017550D02*
Y018560D01*
Y017550D02*
X014900D01*
X014440Y018560D02*
X014900D01*
X021790Y017540D02*
X022800D01*
X021790Y017080D02*
X022800D01*
Y017540D01*
X021790Y017080D02*
Y017540D01*
X017920Y017220D02*
X018930D01*
X017920Y017680D02*
X018930D01*
X017920Y017220D02*
Y017680D01*
X018930Y017220D02*
Y017680D01*
X017920Y017670D02*
X018930D01*
X017920Y018130D02*
X018930D01*
X017920Y017670D02*
Y018130D01*
X018930Y017670D02*
Y018130D01*
X015440Y017330D02*
X016140Y017330D01*
X015440Y018730D02*
X016140D01*
X016140Y017330D01*
X015440Y017330D02*
Y018730D01*
X023380Y020010D02*
X023380Y020710D01*
X024780Y020010D02*
Y020710D01*
X023380Y020010D02*
X024780Y020010D01*
X023380Y020710D02*
X024780D01*
X016000Y021920D02*
X016000Y022620D01*
X017400Y021920D02*
Y022620D01*
X016000Y021920D02*
X017400Y021920D01*
X016000Y022620D02*
X017400D01*
X028000Y019450D02*
X028000Y020150D01*
X029400Y019450D02*
Y020150D01*
X028000Y019450D02*
X029400Y019450D01*
X028000Y020150D02*
X029400D01*
X015000Y022400D02*
X016010D01*
X015000Y021940D02*
X016010D01*
Y022400D01*
X015000Y021940D02*
Y022400D01*
X016150Y017710D02*
Y018720D01*
X016610Y017710D02*
Y018720D01*
X016150D02*
X016610D01*
X016150Y017710D02*
X016610D01*
X028550Y020310D02*
Y021320D01*
X028090Y020310D02*
Y021320D01*
Y020310D02*
X028550D01*
X028090Y021320D02*
X028550D01*
X023770Y020010D02*
X024780D01*
X023770Y019550D02*
X024780D01*
Y020010D01*
X023770Y019550D02*
Y020010D01*
X014300Y019580D02*
X015000Y019580D01*
X014300Y020980D02*
X015000D01*
X015000Y019580D01*
X014300Y019580D02*
Y020980D01*
X025720Y021260D02*
X025720Y021960D01*
X027120Y021260D02*
Y021960D01*
X025720Y021260D02*
X027120Y021260D01*
X025720Y021960D02*
X027120D01*
X024150Y017530D02*
Y018540D01*
X024610Y017530D02*
Y018540D01*
X024150D02*
X024610D01*
X024150Y017530D02*
X024610D01*
X021800D02*
Y018540D01*
X022260Y017530D02*
Y018540D01*
X021800D02*
X022260D01*
X021800Y017530D02*
X022260D01*
X023700D02*
Y018540D01*
X024160Y017530D02*
Y018540D01*
X023700D02*
X024160D01*
X023700Y017530D02*
X024160D01*
X023690Y017540D02*
X024700D01*
X023690Y017080D02*
X024700D01*
Y017540D01*
X023690Y017080D02*
Y017540D01*
X023710Y018080D02*
Y018540D01*
X022700Y018080D02*
Y018540D01*
X023710D01*
X022700Y018080D02*
X023710D01*
X022250Y017530D02*
Y018540D01*
X022710Y017530D02*
Y018540D01*
X022250D02*
X022710D01*
X022250Y017530D02*
X022710D01*
X017970Y020710D02*
X018980D01*
X017970Y020250D02*
X018980D01*
Y020710D01*
X017970Y020250D02*
Y020710D01*
X019090Y016230D02*
Y017240D01*
X018630Y016230D02*
Y017240D01*
Y016230D02*
X019090D01*
X018630Y017240D02*
X019090D01*
X023320Y016430D02*
Y017440D01*
X022860Y016430D02*
Y017440D01*
Y016430D02*
X023320D01*
X022860Y017440D02*
X023320D01*
D48*
X015990Y023830D02*
Y023990D01*
X016490Y023830D02*
Y023990D01*
X016083Y023982D02*
X016240Y023825D01*
X016083Y023982D02*
X016397D01*
X016240Y023825D02*
X016397Y023982D01*
X016083Y023825D02*
X016397D01*
X014600Y023840D02*
Y024000D01*
X015100Y023840D02*
Y024000D01*
X014693Y023992D02*
X014850Y023835D01*
X014693Y023992D02*
X015007D01*
X014850Y023835D02*
X015007Y023992D01*
X014693Y023835D02*
X015007D01*
X013200Y023855D02*
Y024015D01*
X013700Y023855D02*
Y024015D01*
X013293Y024007D02*
X013450Y023850D01*
X013293Y024007D02*
X013607D01*
X013450Y023850D02*
X013607Y024007D01*
X013293Y023850D02*
X013607D01*
X017440Y023810D02*
Y023970D01*
X017940Y023810D02*
Y023970D01*
X017533Y023962D02*
X017690Y023805D01*
X017533Y023962D02*
X017847D01*
X017690Y023805D02*
X017847Y023962D01*
X017533Y023805D02*
X017847D01*
D49*
X015056Y019700D02*
Y020960D01*
X017024Y019700D02*
Y020960D01*
X025820Y021234D02*
X027080D01*
X025820Y019266D02*
X027080D01*
X019387Y017387D02*
X019554D01*
X019387D02*
Y017554D01*
X021346Y017387D02*
X021513D01*
Y017554D01*
Y019346D02*
Y019513D01*
X021346D02*
X021513D01*
X019387D02*
X019554D01*
X019387Y019346D02*
Y019513D01*
D50*
X023408Y016663D02*
X023389Y016653D01*
X023370Y016634D01*
X023360Y016615D01*
Y016577D01*
X023370Y016558D01*
X023389Y016539D01*
X023408Y016530D01*
X023436Y016520D01*
X023484D01*
X023512Y016530D01*
X023531Y016539D01*
X023550Y016558D01*
X023560Y016577D01*
Y016615D01*
X023550Y016634D01*
X023531Y016653D01*
X023512Y016663D01*
X023360Y016814D02*
X023493Y016719D01*
Y016862D01*
X023360Y016814D02*
X023560D01*
X023427Y017021D02*
X023455Y017011D01*
X023474Y016992D01*
X023484Y016964D01*
Y016954D01*
X023474Y016926D01*
X023455Y016907D01*
X023427Y016897D01*
X023417D01*
X023389Y016907D01*
X023370Y016926D01*
X023360Y016954D01*
Y016964D01*
X023370Y016992D01*
X023389Y017011D01*
X023427Y017021D01*
X023474D01*
X023522Y017011D01*
X023550Y016992D01*
X023560Y016964D01*
Y016945D01*
X023550Y016916D01*
X023531Y016907D01*
X018133Y020962D02*
X018123Y020981D01*
X018104Y021000D01*
X018085Y021010D01*
X018047D01*
X018028Y021000D01*
X018009Y020981D01*
X018000Y020962D01*
X017990Y020934D01*
Y020886D01*
X018000Y020858D01*
X018009Y020839D01*
X018028Y020820D01*
X018047Y020810D01*
X018085D01*
X018104Y020820D01*
X018123Y020839D01*
X018133Y020858D01*
X018284Y021010D02*
X018189Y020877D01*
X018332D01*
X018284Y021010D02*
Y020810D01*
X018415Y021010D02*
X018386Y021000D01*
X018377Y020981D01*
Y020962D01*
X018386Y020943D01*
X018405Y020934D01*
X018443Y020924D01*
X018472Y020915D01*
X018491Y020896D01*
X018500Y020877D01*
Y020848D01*
X018491Y020829D01*
X018481Y020820D01*
X018453Y020810D01*
X018415D01*
X018386Y020820D01*
X018377Y020829D01*
X018367Y020848D01*
Y020877D01*
X018377Y020896D01*
X018396Y020915D01*
X018424Y020924D01*
X018462Y020934D01*
X018481Y020943D01*
X018491Y020962D01*
Y020981D01*
X018481Y021000D01*
X018453Y021010D01*
X018415D01*
X018153Y016792D02*
X018143Y016811D01*
X018124Y016830D01*
X018105Y016840D01*
X018067D01*
X018048Y016830D01*
X018029Y016811D01*
X018020Y016792D01*
X018010Y016764D01*
Y016716D01*
X018020Y016688D01*
X018029Y016669D01*
X018048Y016650D01*
X018067Y016640D01*
X018105D01*
X018124Y016650D01*
X018143Y016669D01*
X018153Y016688D01*
X018304Y016840D02*
X018209Y016707D01*
X018352D01*
X018304Y016840D02*
Y016640D01*
X018520Y016840D02*
X018425Y016640D01*
X018387Y016840D02*
X018520D01*
X010150Y022820D02*
Y022620D01*
X010283Y022820D02*
X010150Y022687D01*
X010198Y022734D02*
X010283Y022620D01*
X010338Y022772D02*
Y022782D01*
X010347Y022801D01*
X010357Y022810D01*
X010376Y022820D01*
X010414D01*
X010433Y022810D01*
X010442Y022801D01*
X010452Y022782D01*
Y022763D01*
X010442Y022744D01*
X010423Y022715D01*
X010328Y022620D01*
X010461D01*
X017140Y013850D02*
Y013650D01*
X017254D01*
X017276Y013812D02*
X017295Y013821D01*
X017324Y013850D01*
Y013650D01*
X021970Y013710D02*
Y013510D01*
X022084D01*
X022116Y013662D02*
Y013672D01*
X022125Y013691D01*
X022135Y013700D01*
X022154Y013710D01*
X022192D01*
X022211Y013700D01*
X022220Y013691D01*
X022230Y013672D01*
Y013653D01*
X022220Y013634D01*
X022201Y013605D01*
X022106Y013510D01*
X022239D01*
D51*
X022175Y022429D02*
X022044Y022626D01*
Y022429D02*
X022175Y022626D01*
X022000Y022467D02*
X021981Y022458D01*
X021953Y022429D01*
Y022626D01*
X014613Y018870D02*
X014754D01*
X014782Y018879D01*
X014801Y018898D01*
X014810Y018926D01*
Y018945D01*
X014801Y018973D01*
X014782Y018992D01*
X014754Y019001D01*
X014613D01*
Y019074D02*
Y019177D01*
X014688Y019121D01*
Y019149D01*
X014698Y019168D01*
X014707Y019177D01*
X014735Y019187D01*
X014754D01*
X014782Y019177D01*
X014801Y019159D01*
X014810Y019131D01*
Y019102D01*
X014801Y019074D01*
X014791Y019065D01*
X014773Y019056D01*
X024846Y021680D02*
Y021539D01*
X024856Y021511D01*
X024874Y021492D01*
X024903Y021483D01*
X024921D01*
X024949Y021492D01*
X024968Y021511D01*
X024978Y021539D01*
Y021680D01*
X025041Y021633D02*
Y021642D01*
X025051Y021661D01*
X025060Y021670D01*
X025079Y021680D01*
X025116D01*
X025135Y021670D01*
X025144Y021661D01*
X025154Y021642D01*
Y021623D01*
X025144Y021605D01*
X025126Y021577D01*
X025032Y021483D01*
X025163D01*
X021450Y017247D02*
Y017106D01*
X021459Y017078D01*
X021478Y017059D01*
X021506Y017050D01*
X021525D01*
X021553Y017059D01*
X021572Y017078D01*
X021581Y017106D01*
Y017247D01*
X021636Y017209D02*
X021654Y017219D01*
X021682Y017247D01*
Y017050D01*
X026641Y013629D02*
X026622Y013647D01*
X026594Y013657D01*
X026557D01*
X026529Y013647D01*
X026510Y013629D01*
Y013610D01*
X026519Y013591D01*
X026529Y013582D01*
X026547Y013572D01*
X026604Y013554D01*
X026622Y013544D01*
X026632Y013535D01*
X026641Y013516D01*
Y013488D01*
X026622Y013469D01*
X026594Y013460D01*
X026557D01*
X026529Y013469D01*
X026510Y013488D01*
X026685Y013657D02*
Y013460D01*
Y013657D02*
X026760Y013460D01*
X026835Y013657D02*
X026760Y013460D01*
X026835Y013657D02*
Y013460D01*
X027041D02*
X026966Y013657D01*
X026891Y013460D01*
X026920Y013526D02*
X027013D01*
X027106Y013657D02*
X027209D01*
X027153Y013582D01*
X027181D01*
X027200Y013572D01*
X027209Y013563D01*
X027219Y013535D01*
Y013516D01*
X027209Y013488D01*
X027190Y013469D01*
X027162Y013460D01*
X027134D01*
X027106Y013469D01*
X027097Y013479D01*
X027087Y013497D01*
X020321Y010531D02*
X020303Y010512D01*
X020293Y010484D01*
Y010447D01*
X020303Y010419D01*
X020321Y010400D01*
X020340D01*
X020359Y010409D01*
X020368Y010419D01*
X020378Y010437D01*
X020396Y010494D01*
X020406Y010512D01*
X020415Y010522D01*
X020434Y010531D01*
X020462D01*
X020481Y010512D01*
X020490Y010484D01*
Y010447D01*
X020481Y010419D01*
X020462Y010400D01*
X020293Y010575D02*
X020490D01*
X020293D02*
X020490Y010650D01*
X020293Y010725D02*
X020490Y010650D01*
X020293Y010725D02*
X020490D01*
Y010931D02*
X020293Y010856D01*
X020490Y010781D01*
X020424Y010810D02*
Y010903D01*
X020340Y010987D02*
X020331D01*
X020312Y010996D01*
X020303Y011005D01*
X020293Y011024D01*
Y011062D01*
X020303Y011080D01*
X020312Y011090D01*
X020331Y011099D01*
X020349D01*
X020368Y011090D01*
X020396Y011071D01*
X020490Y010977D01*
Y011109D01*
X018891Y010521D02*
X018873Y010502D01*
X018863Y010474D01*
Y010437D01*
X018873Y010409D01*
X018891Y010390D01*
X018910D01*
X018929Y010399D01*
X018938Y010409D01*
X018948Y010427D01*
X018966Y010484D01*
X018976Y010502D01*
X018985Y010512D01*
X019004Y010521D01*
X019032D01*
X019051Y010502D01*
X019060Y010474D01*
Y010437D01*
X019051Y010409D01*
X019032Y010390D01*
X018863Y010565D02*
X019060D01*
X018863D02*
X019060Y010640D01*
X018863Y010715D02*
X019060Y010640D01*
X018863Y010715D02*
X019060D01*
Y010921D02*
X018863Y010846D01*
X019060Y010771D01*
X018994Y010800D02*
Y010893D01*
X018901Y010967D02*
X018891Y010986D01*
X018863Y011014D01*
X019060D01*
X018080Y023627D02*
Y023430D01*
Y023627D02*
X018164D01*
X018192Y023617D01*
X018202Y023608D01*
X018211Y023589D01*
Y023571D01*
X018202Y023552D01*
X018192Y023542D01*
X018164Y023533D01*
X018080D01*
X018146D02*
X018211Y023430D01*
X018255Y023589D02*
X018274Y023599D01*
X018302Y023627D01*
Y023430D01*
X018400Y023589D02*
X018418Y023599D01*
X018446Y023627D01*
Y023430D01*
X016610Y023617D02*
Y023420D01*
Y023617D02*
X016694D01*
X016722Y023607D01*
X016732Y023598D01*
X016741Y023579D01*
Y023561D01*
X016732Y023542D01*
X016722Y023532D01*
X016694Y023523D01*
X016610D01*
X016676D02*
X016741Y023420D01*
X016785Y023579D02*
X016804Y023589D01*
X016832Y023617D01*
Y023420D01*
X016986Y023617D02*
X016958Y023607D01*
X016939Y023579D01*
X016930Y023532D01*
Y023504D01*
X016939Y023457D01*
X016958Y023429D01*
X016986Y023420D01*
X017005D01*
X017033Y023429D01*
X017051Y023457D01*
X017061Y023504D01*
Y023532D01*
X017051Y023579D01*
X017033Y023607D01*
X017005Y023617D01*
X016986D01*
X015246Y023626D02*
Y023429D01*
Y023626D02*
X015331D01*
X015359Y023616D01*
X015368Y023607D01*
X015377Y023588D01*
Y023569D01*
X015368Y023551D01*
X015359Y023541D01*
X015331Y023532D01*
X015246D01*
X015312D02*
X015377Y023429D01*
X015543Y023560D02*
X015534Y023532D01*
X015515Y023513D01*
X015487Y023504D01*
X015478D01*
X015450Y023513D01*
X015431Y023532D01*
X015422Y023560D01*
Y023569D01*
X015431Y023597D01*
X015450Y023616D01*
X015478Y023626D01*
X015487D01*
X015515Y023616D01*
X015534Y023597D01*
X015543Y023560D01*
Y023513D01*
X015534Y023466D01*
X015515Y023438D01*
X015487Y023429D01*
X015468D01*
X015440Y023438D01*
X015431Y023457D01*
X013800Y023632D02*
Y023435D01*
Y023632D02*
X013884D01*
X013912Y023622D01*
X013922Y023613D01*
X013931Y023594D01*
Y023576D01*
X013922Y023557D01*
X013912Y023547D01*
X013884Y023538D01*
X013800D01*
X013866D02*
X013931Y023435D01*
X014022Y023632D02*
X013994Y023622D01*
X013985Y023604D01*
Y023585D01*
X013994Y023566D01*
X014013Y023557D01*
X014050Y023547D01*
X014078Y023538D01*
X014097Y023519D01*
X014106Y023501D01*
Y023472D01*
X014097Y023454D01*
X014088Y023444D01*
X014060Y023435D01*
X014022D01*
X013994Y023444D01*
X013985Y023454D01*
X013975Y023472D01*
Y023501D01*
X013985Y023519D01*
X014003Y023538D01*
X014031Y023547D01*
X014069Y023557D01*
X014088Y023566D01*
X014097Y023585D01*
Y023604D01*
X014088Y023622D01*
X014060Y023632D01*
X014022D01*
X015376Y015525D02*
X015179D01*
X015376D02*
Y015441D01*
X015366Y015413D01*
X015357Y015403D01*
X015338Y015394D01*
X015319D01*
X015301Y015403D01*
X015291Y015413D01*
X015282Y015441D01*
Y015525D01*
Y015459D02*
X015179Y015394D01*
X015376Y015219D02*
X015179Y015312D01*
X015376Y015350D02*
Y015219D01*
X023080Y018007D02*
Y017810D01*
Y018007D02*
X023164D01*
X023192Y017997D01*
X023202Y017988D01*
X023211Y017969D01*
Y017951D01*
X023202Y017932D01*
X023192Y017922D01*
X023164Y017913D01*
X023080D01*
X023146D02*
X023211Y017810D01*
X023368Y017979D02*
X023358Y017997D01*
X023330Y018007D01*
X023311D01*
X023283Y017997D01*
X023265Y017969D01*
X023255Y017922D01*
Y017876D01*
X023265Y017838D01*
X023283Y017819D01*
X023311Y017810D01*
X023321D01*
X023349Y017819D01*
X023368Y017838D01*
X023377Y017866D01*
Y017876D01*
X023368Y017904D01*
X023349Y017922D01*
X023321Y017932D01*
X023311D01*
X023283Y017922D01*
X023265Y017904D01*
X023255Y017876D01*
X023350Y025347D02*
Y025150D01*
Y025347D02*
X023434D01*
X023462Y025337D01*
X023472Y025328D01*
X023481Y025309D01*
Y025291D01*
X023472Y025272D01*
X023462Y025262D01*
X023434Y025253D01*
X023350D01*
X023416D02*
X023481Y025150D01*
X023638Y025347D02*
X023544D01*
X023535Y025262D01*
X023544Y025272D01*
X023572Y025281D01*
X023600D01*
X023628Y025272D01*
X023647Y025253D01*
X023656Y025225D01*
Y025206D01*
X023647Y025178D01*
X023628Y025159D01*
X023600Y025150D01*
X023572D01*
X023544Y025159D01*
X023535Y025169D01*
X023525Y025187D01*
X020933Y021200D02*
X021130D01*
X020933D02*
Y021284D01*
X020943Y021312D01*
X020952Y021322D01*
X020971Y021331D01*
X020989D01*
X021008Y021322D01*
X021018Y021312D01*
X021027Y021284D01*
Y021200D01*
Y021266D02*
X021130Y021331D01*
X020933Y021469D02*
X021064Y021375D01*
Y021516D01*
X020933Y021469D02*
X021130D01*
X022803Y024150D02*
X023000D01*
X022803D02*
Y024234D01*
X022813Y024262D01*
X022822Y024272D01*
X022841Y024281D01*
X022859D01*
X022878Y024272D01*
X022888Y024262D01*
X022897Y024234D01*
Y024150D01*
Y024216D02*
X023000Y024281D01*
X022803Y024344D02*
Y024447D01*
X022878Y024391D01*
Y024419D01*
X022888Y024438D01*
X022897Y024447D01*
X022925Y024456D01*
X022944D01*
X022972Y024447D01*
X022991Y024428D01*
X023000Y024400D01*
Y024372D01*
X022991Y024344D01*
X022981Y024335D01*
X022963Y024325D01*
X024820Y017407D02*
Y017210D01*
Y017407D02*
X024904D01*
X024932Y017397D01*
X024942Y017388D01*
X024951Y017369D01*
Y017351D01*
X024942Y017332D01*
X024932Y017322D01*
X024904Y017313D01*
X024820D01*
X024886D02*
X024951Y017210D01*
X025005Y017360D02*
Y017369D01*
X025014Y017388D01*
X025023Y017397D01*
X025042Y017407D01*
X025080D01*
X025098Y017397D01*
X025108Y017388D01*
X025117Y017369D01*
Y017351D01*
X025108Y017332D01*
X025089Y017304D01*
X024995Y017210D01*
X025126D01*
X024003Y018850D02*
X024200D01*
X024003D02*
Y018934D01*
X024013Y018962D01*
X024022Y018972D01*
X024041Y018981D01*
X024059D01*
X024078Y018972D01*
X024088Y018962D01*
X024097Y018934D01*
Y018850D01*
Y018916D02*
X024200Y018981D01*
X024041Y019025D02*
X024031Y019044D01*
X024003Y019072D01*
X024200D01*
X017410Y023057D02*
Y022860D01*
X017522D01*
X017666Y023057D02*
X017544D01*
Y022860D01*
X017666D01*
X017544Y022963D02*
X017619D01*
X017699Y023057D02*
Y022860D01*
Y023057D02*
X017764D01*
X017792Y023047D01*
X017811Y023029D01*
X017820Y023010D01*
X017830Y022982D01*
Y022935D01*
X017820Y022907D01*
X017811Y022888D01*
X017792Y022869D01*
X017764Y022860D01*
X017699D01*
X017968Y023057D02*
X017874Y022926D01*
X018014D01*
X017968Y023057D02*
Y022860D01*
X015930Y023067D02*
Y022870D01*
X016042D01*
X016186Y023067D02*
X016064D01*
Y022870D01*
X016186D01*
X016064Y022973D02*
X016139D01*
X016219Y023067D02*
Y022870D01*
Y023067D02*
X016284D01*
X016312Y023057D01*
X016331Y023039D01*
X016340Y023020D01*
X016350Y022992D01*
Y022945D01*
X016340Y022917D01*
X016331Y022898D01*
X016312Y022879D01*
X016284Y022870D01*
X016219D01*
X016413Y023067D02*
X016516D01*
X016460Y022992D01*
X016488D01*
X016506Y022982D01*
X016516Y022973D01*
X016525Y022945D01*
Y022926D01*
X016516Y022898D01*
X016497Y022879D01*
X016469Y022870D01*
X016441D01*
X016413Y022879D01*
X016403Y022889D01*
X016394Y022907D01*
X014550Y023107D02*
Y022910D01*
X014662D01*
X014806Y023107D02*
X014684D01*
Y022910D01*
X014806D01*
X014684Y023013D02*
X014759D01*
X014839Y023107D02*
Y022910D01*
Y023107D02*
X014904D01*
X014932Y023097D01*
X014951Y023079D01*
X014960Y023060D01*
X014970Y023032D01*
Y022985D01*
X014960Y022957D01*
X014951Y022938D01*
X014932Y022919D01*
X014904Y022910D01*
X014839D01*
X015023Y023060D02*
Y023069D01*
X015033Y023088D01*
X015042Y023097D01*
X015061Y023107D01*
X015098D01*
X015117Y023097D01*
X015126Y023088D01*
X015136Y023069D01*
Y023051D01*
X015126Y023032D01*
X015108Y023004D01*
X015014Y022910D01*
X015145D01*
X013300Y023097D02*
Y022900D01*
X013412D01*
X013556Y023097D02*
X013434D01*
Y022900D01*
X013556D01*
X013434Y023003D02*
X013509D01*
X013589Y023097D02*
Y022900D01*
Y023097D02*
X013654D01*
X013682Y023087D01*
X013701Y023069D01*
X013710Y023050D01*
X013720Y023022D01*
Y022975D01*
X013710Y022947D01*
X013701Y022928D01*
X013682Y022909D01*
X013654Y022900D01*
X013589D01*
X013764Y023059D02*
X013783Y023069D01*
X013811Y023097D01*
Y022900D01*
X010520Y012997D02*
Y012800D01*
X010651Y012997D02*
X010520Y012866D01*
X010567Y012912D02*
X010651Y012800D01*
X010695Y012959D02*
X010714Y012969D01*
X010742Y012997D01*
Y012800D01*
X014070Y020141D02*
X014051Y020131D01*
X014033Y020112D01*
X014023Y020094D01*
Y020056D01*
X014033Y020037D01*
X014051Y020019D01*
X014070Y020009D01*
X014098Y020000D01*
X014145D01*
X014173Y020009D01*
X014192Y020019D01*
X014211Y020037D01*
X014220Y020056D01*
Y020094D01*
X014211Y020112D01*
X014192Y020131D01*
X014173Y020141D01*
X014023Y020290D02*
X014154Y020196D01*
Y020336D01*
X014023Y020290D02*
X014220D01*
X014051Y020484D02*
X014033Y020474D01*
X014023Y020446D01*
Y020427D01*
X014033Y020399D01*
X014061Y020380D01*
X014108Y020371D01*
X014154D01*
X014192Y020380D01*
X014211Y020399D01*
X014220Y020427D01*
Y020437D01*
X014211Y020465D01*
X014192Y020484D01*
X014164Y020493D01*
X014154D01*
X014126Y020484D01*
X014108Y020465D01*
X014098Y020437D01*
Y020427D01*
X014108Y020399D01*
X014126Y020380D01*
X014154Y020371D01*
X014880Y022229D02*
X014899Y022239D01*
X014917Y022258D01*
X014927Y022276D01*
Y022314D01*
X014917Y022333D01*
X014899Y022351D01*
X014880Y022361D01*
X014852Y022370D01*
X014805D01*
X014777Y022361D01*
X014758Y022351D01*
X014739Y022333D01*
X014730Y022314D01*
Y022276D01*
X014739Y022258D01*
X014758Y022239D01*
X014777Y022229D01*
X014927Y022080D02*
X014796Y022174D01*
Y022034D01*
X014927Y022080D02*
X014730D01*
X014927Y021886D02*
Y021980D01*
X014842Y021990D01*
X014852Y021980D01*
X014861Y021952D01*
Y021924D01*
X014852Y021896D01*
X014833Y021877D01*
X014805Y021868D01*
X014786D01*
X014758Y021877D01*
X014739Y021896D01*
X014730Y021924D01*
Y021952D01*
X014739Y021980D01*
X014749Y021990D01*
X014767Y021999D01*
X016321Y017590D02*
X016311Y017609D01*
X016292Y017627D01*
X016274Y017637D01*
X016236D01*
X016217Y017627D01*
X016199Y017609D01*
X016189Y017590D01*
X016180Y017562D01*
Y017515D01*
X016189Y017487D01*
X016199Y017468D01*
X016217Y017449D01*
X016236Y017440D01*
X016274D01*
X016292Y017449D01*
X016311Y017468D01*
X016321Y017487D01*
X016470Y017637D02*
X016376Y017506D01*
X016516D01*
X016470Y017637D02*
Y017440D01*
X016645Y017637D02*
X016551Y017506D01*
X016692D01*
X016645Y017637D02*
Y017440D01*
X017550Y022111D02*
X017531Y022101D01*
X017513Y022082D01*
X017503Y022064D01*
Y022026D01*
X017513Y022007D01*
X017531Y021989D01*
X017550Y021979D01*
X017578Y021970D01*
X017625D01*
X017653Y021979D01*
X017672Y021989D01*
X017691Y022007D01*
X017700Y022026D01*
Y022064D01*
X017691Y022082D01*
X017672Y022101D01*
X017653Y022111D01*
X017503Y022260D02*
X017634Y022166D01*
Y022306D01*
X017503Y022260D02*
X017700D01*
X017503Y022360D02*
Y022463D01*
X017578Y022407D01*
Y022435D01*
X017588Y022454D01*
X017597Y022463D01*
X017625Y022472D01*
X017644D01*
X017672Y022463D01*
X017691Y022444D01*
X017700Y022416D01*
Y022388D01*
X017691Y022360D01*
X017681Y022350D01*
X017663Y022341D01*
X015989Y017115D02*
X015999Y017096D01*
X016017Y017078D01*
X016036Y017068D01*
X016074D01*
X016092Y017078D01*
X016111Y017096D01*
X016120Y017115D01*
X016130Y017143D01*
Y017190D01*
X016120Y017218D01*
X016111Y017237D01*
X016092Y017256D01*
X016074Y017265D01*
X016036D01*
X016017Y017256D01*
X015999Y017237D01*
X015989Y017218D01*
X015840Y017068D02*
X015934Y017199D01*
X015793D01*
X015840Y017068D02*
Y017265D01*
X015749Y017115D02*
Y017106D01*
X015740Y017087D01*
X015731Y017078D01*
X015712Y017068D01*
X015674D01*
X015656Y017078D01*
X015646Y017087D01*
X015637Y017106D01*
Y017124D01*
X015646Y017143D01*
X015665Y017171D01*
X015759Y017265D01*
X015627D01*
X014744Y017331D02*
X014754Y017312D01*
X014773Y017294D01*
X014791Y017284D01*
X014829D01*
X014848Y017294D01*
X014866Y017312D01*
X014876Y017331D01*
X014885Y017359D01*
Y017406D01*
X014876Y017434D01*
X014866Y017453D01*
X014848Y017472D01*
X014829Y017481D01*
X014791D01*
X014773Y017472D01*
X014754Y017453D01*
X014744Y017434D01*
X014595Y017284D02*
X014689Y017416D01*
X014549D01*
X014595Y017284D02*
Y017481D01*
X014514Y017322D02*
X014495Y017312D01*
X014467Y017284D01*
Y017481D01*
X022421Y016980D02*
X022411Y016999D01*
X022392Y017017D01*
X022374Y017027D01*
X022336D01*
X022317Y017017D01*
X022299Y016999D01*
X022289Y016980D01*
X022280Y016952D01*
Y016905D01*
X022289Y016877D01*
X022299Y016858D01*
X022317Y016839D01*
X022336Y016830D01*
X022374D01*
X022392Y016839D01*
X022411Y016858D01*
X022421Y016877D01*
X022495Y017027D02*
X022598D01*
X022541Y016952D01*
X022570D01*
X022588Y016942D01*
X022598Y016933D01*
X022607Y016905D01*
Y016886D01*
X022598Y016858D01*
X022579Y016839D01*
X022551Y016830D01*
X022523D01*
X022495Y016839D01*
X022485Y016849D01*
X022476Y016867D01*
X022773Y016961D02*
X022764Y016933D01*
X022745Y016914D01*
X022717Y016905D01*
X022707D01*
X022679Y016914D01*
X022661Y016933D01*
X022651Y016961D01*
Y016971D01*
X022661Y016999D01*
X022679Y017017D01*
X022707Y017027D01*
X022717D01*
X022745Y017017D01*
X022764Y016999D01*
X022773Y016961D01*
Y016914D01*
X022764Y016867D01*
X022745Y016839D01*
X022717Y016830D01*
X022698D01*
X022670Y016839D01*
X022661Y016858D01*
X017701Y017376D02*
X017682Y017366D01*
X017664Y017347D01*
X017654Y017329D01*
Y017291D01*
X017664Y017272D01*
X017682Y017254D01*
X017701Y017244D01*
X017729Y017235D01*
X017776D01*
X017804Y017244D01*
X017823Y017254D01*
X017842Y017272D01*
X017851Y017291D01*
Y017329D01*
X017842Y017347D01*
X017823Y017366D01*
X017804Y017376D01*
X017654Y017450D02*
Y017553D01*
X017729Y017496D01*
Y017525D01*
X017739Y017543D01*
X017748Y017553D01*
X017776Y017562D01*
X017795D01*
X017823Y017553D01*
X017842Y017534D01*
X017851Y017506D01*
Y017478D01*
X017842Y017450D01*
X017832Y017440D01*
X017814Y017431D01*
X017654Y017719D02*
Y017625D01*
X017739Y017615D01*
X017729Y017625D01*
X017720Y017653D01*
Y017681D01*
X017729Y017709D01*
X017748Y017728D01*
X017776Y017737D01*
X017795D01*
X017823Y017728D01*
X017842Y017709D01*
X017851Y017681D01*
Y017653D01*
X017842Y017625D01*
X017832Y017615D01*
X017814Y017606D01*
X019050Y017791D02*
X019031Y017781D01*
X019013Y017762D01*
X019003Y017744D01*
Y017706D01*
X019013Y017687D01*
X019031Y017669D01*
X019050Y017659D01*
X019078Y017650D01*
X019125D01*
X019153Y017659D01*
X019172Y017669D01*
X019191Y017687D01*
X019200Y017706D01*
Y017744D01*
X019191Y017762D01*
X019172Y017781D01*
X019153Y017791D01*
X019003Y017865D02*
Y017968D01*
X019078Y017911D01*
Y017940D01*
X019088Y017958D01*
X019097Y017968D01*
X019125Y017977D01*
X019144D01*
X019172Y017968D01*
X019191Y017949D01*
X019200Y017921D01*
Y017893D01*
X019191Y017865D01*
X019181Y017855D01*
X019163Y017846D01*
X019003Y018115D02*
X019134Y018021D01*
Y018162D01*
X019003Y018115D02*
X019200D01*
X027370Y021769D02*
X027389Y021779D01*
X027407Y021798D01*
X027417Y021816D01*
Y021854D01*
X027407Y021873D01*
X027389Y021891D01*
X027370Y021901D01*
X027342Y021910D01*
X027295D01*
X027267Y021901D01*
X027248Y021891D01*
X027229Y021873D01*
X027220Y021854D01*
Y021816D01*
X027229Y021798D01*
X027248Y021779D01*
X027267Y021769D01*
X027417Y021695D02*
Y021592D01*
X027342Y021649D01*
Y021620D01*
X027332Y021602D01*
X027323Y021592D01*
X027295Y021583D01*
X027276D01*
X027248Y021592D01*
X027229Y021611D01*
X027220Y021639D01*
Y021667D01*
X027229Y021695D01*
X027239Y021705D01*
X027257Y021714D01*
X027417Y021520D02*
Y021417D01*
X027342Y021473D01*
Y021445D01*
X027332Y021426D01*
X027323Y021417D01*
X027295Y021408D01*
X027276D01*
X027248Y021417D01*
X027229Y021436D01*
X027220Y021464D01*
Y021492D01*
X027229Y021520D01*
X027239Y021530D01*
X027257Y021539D01*
X028251Y021560D02*
X028241Y021579D01*
X028222Y021597D01*
X028204Y021607D01*
X028166D01*
X028147Y021597D01*
X028129Y021579D01*
X028119Y021560D01*
X028110Y021532D01*
Y021485D01*
X028119Y021457D01*
X028129Y021438D01*
X028147Y021419D01*
X028166Y021410D01*
X028204D01*
X028222Y021419D01*
X028241Y021438D01*
X028251Y021457D01*
X028325Y021607D02*
X028428D01*
X028371Y021532D01*
X028400D01*
X028418Y021522D01*
X028428Y021513D01*
X028437Y021485D01*
Y021466D01*
X028428Y021438D01*
X028409Y021419D01*
X028381Y021410D01*
X028353D01*
X028325Y021419D01*
X028315Y021429D01*
X028306Y021447D01*
X028491Y021560D02*
Y021569D01*
X028500Y021588D01*
X028509Y021597D01*
X028528Y021607D01*
X028565D01*
X028584Y021597D01*
X028594Y021588D01*
X028603Y021569D01*
Y021551D01*
X028594Y021532D01*
X028575Y021504D01*
X028481Y021410D01*
X028612D01*
X023550Y019721D02*
X023531Y019711D01*
X023513Y019692D01*
X023503Y019674D01*
Y019636D01*
X023513Y019617D01*
X023531Y019599D01*
X023550Y019589D01*
X023578Y019580D01*
X023625D01*
X023653Y019589D01*
X023672Y019599D01*
X023691Y019617D01*
X023700Y019636D01*
Y019674D01*
X023691Y019692D01*
X023672Y019711D01*
X023653Y019721D01*
X023503Y019795D02*
Y019898D01*
X023578Y019841D01*
Y019870D01*
X023588Y019888D01*
X023597Y019898D01*
X023625Y019907D01*
X023644D01*
X023672Y019898D01*
X023691Y019879D01*
X023700Y019851D01*
Y019823D01*
X023691Y019795D01*
X023681Y019785D01*
X023663Y019776D01*
X023541Y019951D02*
X023531Y019970D01*
X023503Y019998D01*
X023700D01*
X028841Y020400D02*
X028831Y020419D01*
X028812Y020437D01*
X028794Y020447D01*
X028756D01*
X028737Y020437D01*
X028719Y020419D01*
X028709Y020400D01*
X028700Y020372D01*
Y020325D01*
X028709Y020297D01*
X028719Y020278D01*
X028737Y020259D01*
X028756Y020250D01*
X028794D01*
X028812Y020259D01*
X028831Y020278D01*
X028841Y020297D01*
X028915Y020447D02*
X029018D01*
X028961Y020372D01*
X028990D01*
X029008Y020362D01*
X029018Y020353D01*
X029027Y020325D01*
Y020306D01*
X029018Y020278D01*
X028999Y020259D01*
X028971Y020250D01*
X028943D01*
X028915Y020259D01*
X028905Y020269D01*
X028896Y020287D01*
X029127Y020447D02*
X029099Y020437D01*
X029081Y020409D01*
X029071Y020362D01*
Y020334D01*
X029081Y020287D01*
X029099Y020259D01*
X029127Y020250D01*
X029146D01*
X029174Y020259D01*
X029193Y020287D01*
X029202Y020334D01*
Y020362D01*
X029193Y020409D01*
X029174Y020437D01*
X029146Y020447D01*
X029127D01*
X023165Y020161D02*
X023146Y020151D01*
X023128Y020133D01*
X023118Y020114D01*
Y020076D01*
X023128Y020058D01*
X023146Y020039D01*
X023165Y020030D01*
X023193Y020020D01*
X023240D01*
X023268Y020030D01*
X023287Y020039D01*
X023306Y020058D01*
X023315Y020076D01*
Y020114D01*
X023306Y020133D01*
X023287Y020151D01*
X023268Y020161D01*
X023165Y020225D02*
X023156D01*
X023137Y020235D01*
X023128Y020244D01*
X023118Y020263D01*
Y020300D01*
X023128Y020319D01*
X023137Y020329D01*
X023156Y020338D01*
X023174D01*
X023193Y020329D01*
X023221Y020310D01*
X023315Y020216D01*
Y020347D01*
X023184Y020513D02*
X023212Y020504D01*
X023231Y020485D01*
X023240Y020457D01*
Y020448D01*
X023231Y020419D01*
X023212Y020401D01*
X023184Y020391D01*
X023174D01*
X023146Y020401D01*
X023128Y020419D01*
X023118Y020448D01*
Y020457D01*
X023128Y020485D01*
X023146Y020504D01*
X023184Y020513D01*
X023231D01*
X023278Y020504D01*
X023306Y020485D01*
X023315Y020457D01*
Y020438D01*
X023306Y020410D01*
X023287Y020401D01*
X014880Y014021D02*
X014861Y014011D01*
X014843Y013992D01*
X014833Y013974D01*
Y013936D01*
X014843Y013917D01*
X014861Y013899D01*
X014880Y013889D01*
X014908Y013880D01*
X014955D01*
X014983Y013889D01*
X015002Y013899D01*
X015021Y013917D01*
X015030Y013936D01*
Y013974D01*
X015021Y013992D01*
X015002Y014011D01*
X014983Y014021D01*
X014880Y014085D02*
X014871D01*
X014852Y014095D01*
X014843Y014104D01*
X014833Y014123D01*
Y014160D01*
X014843Y014179D01*
X014852Y014188D01*
X014871Y014198D01*
X014889D01*
X014908Y014188D01*
X014936Y014170D01*
X015030Y014076D01*
Y014207D01*
X014833Y014298D02*
X014843Y014270D01*
X014861Y014260D01*
X014880D01*
X014899Y014270D01*
X014908Y014289D01*
X014918Y014326D01*
X014927Y014354D01*
X014946Y014373D01*
X014964Y014382D01*
X014993D01*
X015011Y014373D01*
X015021Y014364D01*
X015030Y014335D01*
Y014298D01*
X015021Y014270D01*
X015011Y014260D01*
X014993Y014251D01*
X014964D01*
X014946Y014260D01*
X014927Y014279D01*
X014918Y014307D01*
X014908Y014345D01*
X014899Y014364D01*
X014880Y014373D01*
X014861D01*
X014843Y014364D01*
X014833Y014335D01*
Y014298D01*
X016889Y015305D02*
X016899Y015286D01*
X016917Y015268D01*
X016936Y015258D01*
X016974D01*
X016992Y015268D01*
X017011Y015286D01*
X017020Y015305D01*
X017030Y015333D01*
Y015380D01*
X017020Y015408D01*
X017011Y015427D01*
X016992Y015446D01*
X016974Y015455D01*
X016936D01*
X016917Y015446D01*
X016899Y015427D01*
X016889Y015408D01*
X016825Y015305D02*
Y015296D01*
X016815Y015277D01*
X016806Y015268D01*
X016787Y015258D01*
X016750D01*
X016731Y015268D01*
X016721Y015277D01*
X016712Y015296D01*
Y015314D01*
X016721Y015333D01*
X016740Y015361D01*
X016834Y015455D01*
X016703D01*
X016527Y015258D02*
X016621Y015455D01*
X016659Y015258D02*
X016527D01*
X021031Y012270D02*
X021021Y012289D01*
X021002Y012307D01*
X020984Y012317D01*
X020946D01*
X020927Y012307D01*
X020909Y012289D01*
X020899Y012270D01*
X020890Y012242D01*
Y012195D01*
X020899Y012167D01*
X020909Y012148D01*
X020927Y012129D01*
X020946Y012120D01*
X020984D01*
X021002Y012129D01*
X021021Y012148D01*
X021031Y012167D01*
X021095Y012270D02*
Y012279D01*
X021105Y012298D01*
X021114Y012307D01*
X021133Y012317D01*
X021170D01*
X021189Y012307D01*
X021198Y012298D01*
X021208Y012279D01*
Y012261D01*
X021198Y012242D01*
X021180Y012214D01*
X021086Y012120D01*
X021217D01*
X021374Y012289D02*
X021364Y012307D01*
X021336Y012317D01*
X021317D01*
X021289Y012307D01*
X021270Y012279D01*
X021261Y012232D01*
Y012186D01*
X021270Y012148D01*
X021289Y012129D01*
X021317Y012120D01*
X021327D01*
X021355Y012129D01*
X021374Y012148D01*
X021383Y012176D01*
Y012186D01*
X021374Y012214D01*
X021355Y012232D01*
X021327Y012242D01*
X021317D01*
X021289Y012232D01*
X021270Y012214D01*
X021261Y012186D01*
X021681Y012270D02*
X021671Y012289D01*
X021652Y012307D01*
X021634Y012317D01*
X021596D01*
X021577Y012307D01*
X021559Y012289D01*
X021549Y012270D01*
X021540Y012242D01*
Y012195D01*
X021549Y012167D01*
X021559Y012148D01*
X021577Y012129D01*
X021596Y012120D01*
X021634D01*
X021652Y012129D01*
X021671Y012148D01*
X021681Y012167D01*
X021745Y012270D02*
Y012279D01*
X021755Y012298D01*
X021764Y012307D01*
X021783Y012317D01*
X021820D01*
X021839Y012307D01*
X021848Y012298D01*
X021858Y012279D01*
Y012261D01*
X021848Y012242D01*
X021830Y012214D01*
X021736Y012120D01*
X021867D01*
X022024Y012317D02*
X021930D01*
X021920Y012232D01*
X021930Y012242D01*
X021958Y012251D01*
X021986D01*
X022014Y012242D01*
X022033Y012223D01*
X022042Y012195D01*
Y012176D01*
X022033Y012148D01*
X022014Y012129D01*
X021986Y012120D01*
X021958D01*
X021930Y012129D01*
X021920Y012139D01*
X021911Y012157D01*
X018490Y012741D02*
X018471Y012731D01*
X018453Y012712D01*
X018443Y012694D01*
Y012656D01*
X018453Y012637D01*
X018471Y012619D01*
X018490Y012609D01*
X018518Y012600D01*
X018565D01*
X018593Y012609D01*
X018612Y012619D01*
X018631Y012637D01*
X018640Y012656D01*
Y012694D01*
X018631Y012712D01*
X018612Y012731D01*
X018593Y012741D01*
X018490Y012805D02*
X018481D01*
X018462Y012815D01*
X018453Y012824D01*
X018443Y012843D01*
Y012880D01*
X018453Y012899D01*
X018462Y012908D01*
X018481Y012918D01*
X018499D01*
X018518Y012908D01*
X018546Y012890D01*
X018640Y012796D01*
Y012927D01*
X018443Y013065D02*
X018574Y012971D01*
Y013112D01*
X018443Y013065D02*
X018640D01*
X017631Y012270D02*
X017621Y012289D01*
X017602Y012307D01*
X017584Y012317D01*
X017546D01*
X017527Y012307D01*
X017509Y012289D01*
X017499Y012270D01*
X017490Y012242D01*
Y012195D01*
X017499Y012167D01*
X017509Y012148D01*
X017527Y012129D01*
X017546Y012120D01*
X017584D01*
X017602Y012129D01*
X017621Y012148D01*
X017631Y012167D01*
X017695Y012270D02*
Y012279D01*
X017705Y012298D01*
X017714Y012307D01*
X017733Y012317D01*
X017770D01*
X017789Y012307D01*
X017798Y012298D01*
X017808Y012279D01*
Y012261D01*
X017798Y012242D01*
X017780Y012214D01*
X017686Y012120D01*
X017817D01*
X017880Y012317D02*
X017983D01*
X017927Y012242D01*
X017955D01*
X017974Y012232D01*
X017983Y012223D01*
X017992Y012195D01*
Y012176D01*
X017983Y012148D01*
X017964Y012129D01*
X017936Y012120D01*
X017908D01*
X017880Y012129D01*
X017871Y012139D01*
X017861Y012157D01*
X023999Y023854D02*
X024018Y023864D01*
X024036Y023883D01*
X024046Y023901D01*
Y023939D01*
X024036Y023958D01*
X024018Y023976D01*
X023999Y023986D01*
X023971Y023995D01*
X023924D01*
X023896Y023986D01*
X023877Y023976D01*
X023858Y023958D01*
X023849Y023939D01*
Y023901D01*
X023858Y023883D01*
X023877Y023864D01*
X023896Y023854D01*
X023999Y023790D02*
X024008D01*
X024027Y023780D01*
X024036Y023771D01*
X024046Y023752D01*
Y023715D01*
X024036Y023696D01*
X024027Y023687D01*
X024008Y023677D01*
X023989D01*
X023971Y023687D01*
X023943Y023705D01*
X023849Y023799D01*
Y023668D01*
X023999Y023614D02*
X024008D01*
X024027Y023605D01*
X024036Y023596D01*
X024046Y023577D01*
Y023540D01*
X024036Y023521D01*
X024027Y023511D01*
X024008Y023502D01*
X023989D01*
X023971Y023511D01*
X023943Y023530D01*
X023849Y023624D01*
Y023493D01*
X017700Y018791D02*
X017681Y018781D01*
X017663Y018762D01*
X017653Y018744D01*
Y018706D01*
X017663Y018687D01*
X017681Y018669D01*
X017700Y018659D01*
X017728Y018650D01*
X017775D01*
X017803Y018659D01*
X017822Y018669D01*
X017841Y018687D01*
X017850Y018706D01*
Y018744D01*
X017841Y018762D01*
X017822Y018781D01*
X017803Y018791D01*
X017700Y018855D02*
X017691D01*
X017672Y018865D01*
X017663Y018874D01*
X017653Y018893D01*
Y018930D01*
X017663Y018949D01*
X017672Y018958D01*
X017691Y018968D01*
X017709D01*
X017728Y018958D01*
X017756Y018940D01*
X017850Y018846D01*
Y018977D01*
X017653Y019077D02*
X017663Y019049D01*
X017691Y019030D01*
X017738Y019021D01*
X017766D01*
X017813Y019030D01*
X017841Y019049D01*
X017850Y019077D01*
Y019096D01*
X017841Y019124D01*
X017813Y019143D01*
X017766Y019152D01*
X017738D01*
X017691Y019143D01*
X017663Y019124D01*
X017653Y019096D01*
Y019077D01*
X017700Y018191D02*
X017681Y018181D01*
X017663Y018162D01*
X017653Y018144D01*
Y018106D01*
X017663Y018087D01*
X017681Y018069D01*
X017700Y018059D01*
X017728Y018050D01*
X017775D01*
X017803Y018059D01*
X017822Y018069D01*
X017841Y018087D01*
X017850Y018106D01*
Y018144D01*
X017841Y018162D01*
X017822Y018181D01*
X017803Y018191D01*
X017691Y018246D02*
X017681Y018265D01*
X017653Y018293D01*
X017850D01*
X017719Y018512D02*
X017747Y018503D01*
X017766Y018484D01*
X017775Y018456D01*
Y018446D01*
X017766Y018418D01*
X017747Y018400D01*
X017719Y018390D01*
X017709D01*
X017681Y018400D01*
X017663Y018418D01*
X017653Y018446D01*
Y018456D01*
X017663Y018484D01*
X017681Y018503D01*
X017719Y018512D01*
X017766D01*
X017813Y018503D01*
X017841Y018484D01*
X017850Y018456D01*
Y018437D01*
X017841Y018409D01*
X017822Y018400D01*
X025919Y015835D02*
X025900Y015826D01*
X025881Y015807D01*
X025872Y015789D01*
Y015751D01*
X025881Y015732D01*
X025900Y015714D01*
X025919Y015704D01*
X025947Y015695D01*
X025994D01*
X026022Y015704D01*
X026040Y015714D01*
X026059Y015732D01*
X026068Y015751D01*
Y015789D01*
X026059Y015807D01*
X026040Y015826D01*
X026022Y015835D01*
X025909Y015891D02*
X025900Y015910D01*
X025872Y015938D01*
X026068D01*
X025872Y016082D02*
X025881Y016054D01*
X025900Y016044D01*
X025919D01*
X025937Y016054D01*
X025947Y016073D01*
X025956Y016110D01*
X025965Y016138D01*
X025984Y016157D01*
X026003Y016166D01*
X026031D01*
X026050Y016157D01*
X026059Y016148D01*
X026068Y016119D01*
Y016082D01*
X026059Y016054D01*
X026050Y016044D01*
X026031Y016035D01*
X026003D01*
X025984Y016044D01*
X025965Y016063D01*
X025956Y016091D01*
X025947Y016129D01*
X025937Y016148D01*
X025919Y016157D01*
X025900D01*
X025881Y016148D01*
X025872Y016119D01*
Y016082D01*
X022191Y012020D02*
X022181Y012039D01*
X022162Y012057D01*
X022144Y012067D01*
X022106D01*
X022087Y012057D01*
X022069Y012039D01*
X022059Y012020D01*
X022050Y011992D01*
Y011945D01*
X022059Y011917D01*
X022069Y011898D01*
X022087Y011879D01*
X022106Y011870D01*
X022144D01*
X022162Y011879D01*
X022181Y011898D01*
X022191Y011917D01*
X022246Y012029D02*
X022265Y012039D01*
X022293Y012067D01*
Y011870D01*
X022521Y012067D02*
X022428Y011870D01*
X022390Y012067D02*
X022521D01*
X017021Y012510D02*
X017011Y012529D01*
X016992Y012547D01*
X016974Y012557D01*
X016936D01*
X016917Y012547D01*
X016899Y012529D01*
X016889Y012510D01*
X016880Y012482D01*
Y012435D01*
X016889Y012407D01*
X016899Y012388D01*
X016917Y012369D01*
X016936Y012360D01*
X016974D01*
X016992Y012369D01*
X017011Y012388D01*
X017021Y012407D01*
X017076Y012519D02*
X017095Y012529D01*
X017123Y012557D01*
Y012360D01*
X017333Y012529D02*
X017323Y012547D01*
X017295Y012557D01*
X017276D01*
X017248Y012547D01*
X017230Y012519D01*
X017220Y012472D01*
Y012426D01*
X017230Y012388D01*
X017248Y012369D01*
X017276Y012360D01*
X017286D01*
X017314Y012369D01*
X017333Y012388D01*
X017342Y012416D01*
Y012426D01*
X017333Y012454D01*
X017314Y012472D01*
X017286Y012482D01*
X017276D01*
X017248Y012472D01*
X017230Y012454D01*
X017220Y012426D01*
X021801Y016960D02*
X021791Y016979D01*
X021772Y016997D01*
X021754Y017007D01*
X021716D01*
X021697Y016997D01*
X021679Y016979D01*
X021669Y016960D01*
X021660Y016932D01*
Y016885D01*
X021669Y016857D01*
X021679Y016838D01*
X021697Y016819D01*
X021716Y016810D01*
X021754D01*
X021772Y016819D01*
X021791Y016838D01*
X021801Y016857D01*
X021856Y016969D02*
X021875Y016979D01*
X021903Y017007D01*
Y016810D01*
X022113Y017007D02*
X022019D01*
X022010Y016922D01*
X022019Y016932D01*
X022047Y016941D01*
X022075D01*
X022103Y016932D01*
X022122Y016913D01*
X022131Y016885D01*
Y016866D01*
X022122Y016838D01*
X022103Y016819D01*
X022075Y016810D01*
X022047D01*
X022019Y016819D01*
X022010Y016829D01*
X022000Y016847D01*
X022941Y017690D02*
X022931Y017709D01*
X022912Y017727D01*
X022894Y017737D01*
X022856D01*
X022837Y017727D01*
X022819Y017709D01*
X022809Y017690D01*
X022800Y017662D01*
Y017615D01*
X022809Y017587D01*
X022819Y017568D01*
X022837Y017549D01*
X022856Y017540D01*
X022894D01*
X022912Y017549D01*
X022931Y017568D01*
X022941Y017587D01*
X022996Y017699D02*
X023015Y017709D01*
X023043Y017737D01*
Y017540D01*
X023234Y017737D02*
X023140Y017606D01*
X023281D01*
X023234Y017737D02*
Y017540D01*
X023971Y018760D02*
X023961Y018779D01*
X023942Y018797D01*
X023924Y018807D01*
X023886D01*
X023867Y018797D01*
X023849Y018779D01*
X023839Y018760D01*
X023830Y018732D01*
Y018685D01*
X023839Y018657D01*
X023849Y018638D01*
X023867Y018619D01*
X023886Y018610D01*
X023924D01*
X023942Y018619D01*
X023961Y018638D01*
X023971Y018657D01*
X024026Y018769D02*
X024045Y018779D01*
X024073Y018807D01*
Y018610D01*
X024189Y018807D02*
X024292D01*
X024236Y018732D01*
X024264D01*
X024283Y018722D01*
X024292Y018713D01*
X024301Y018685D01*
Y018666D01*
X024292Y018638D01*
X024273Y018619D01*
X024245Y018610D01*
X024217D01*
X024189Y018619D01*
X024180Y018629D01*
X024170Y018647D01*
X024730Y017901D02*
X024711Y017891D01*
X024693Y017872D01*
X024683Y017854D01*
Y017816D01*
X024693Y017797D01*
X024711Y017779D01*
X024730Y017769D01*
X024758Y017760D01*
X024805D01*
X024833Y017769D01*
X024852Y017779D01*
X024871Y017797D01*
X024880Y017816D01*
Y017854D01*
X024871Y017872D01*
X024852Y017891D01*
X024833Y017901D01*
X024721Y017956D02*
X024711Y017975D01*
X024683Y018003D01*
X024880D01*
X024730Y018110D02*
X024721D01*
X024702Y018119D01*
X024693Y018128D01*
X024683Y018147D01*
Y018185D01*
X024693Y018203D01*
X024702Y018213D01*
X024721Y018222D01*
X024739D01*
X024758Y018213D01*
X024786Y018194D01*
X024880Y018100D01*
Y018231D01*
X019630Y020541D02*
X019611Y020531D01*
X019593Y020512D01*
X019583Y020494D01*
Y020456D01*
X019593Y020437D01*
X019611Y020419D01*
X019630Y020409D01*
X019658Y020400D01*
X019705D01*
X019733Y020409D01*
X019752Y020419D01*
X019771Y020437D01*
X019780Y020456D01*
Y020494D01*
X019771Y020512D01*
X019752Y020531D01*
X019733Y020541D01*
X019621Y020596D02*
X019611Y020615D01*
X019583Y020643D01*
X019780D01*
X019621Y020740D02*
X019611Y020759D01*
X019583Y020787D01*
X019780D01*
X019630Y021941D02*
X019611Y021931D01*
X019593Y021912D01*
X019583Y021894D01*
Y021856D01*
X019593Y021837D01*
X019611Y021819D01*
X019630Y021809D01*
X019658Y021800D01*
X019705D01*
X019733Y021809D01*
X019752Y021819D01*
X019771Y021837D01*
X019780Y021856D01*
Y021894D01*
X019771Y021912D01*
X019752Y021931D01*
X019733Y021941D01*
X019621Y021996D02*
X019611Y022015D01*
X019583Y022043D01*
X019780D01*
X019583Y022196D02*
X019593Y022168D01*
X019621Y022150D01*
X019668Y022140D01*
X019696D01*
X019743Y022150D01*
X019771Y022168D01*
X019780Y022196D01*
Y022215D01*
X019771Y022243D01*
X019743Y022262D01*
X019696Y022271D01*
X019668D01*
X019621Y022262D01*
X019593Y022243D01*
X019583Y022215D01*
Y022196D01*
X022830Y023241D02*
X022811Y023231D01*
X022793Y023212D01*
X022783Y023194D01*
Y023156D01*
X022793Y023137D01*
X022811Y023119D01*
X022830Y023109D01*
X022858Y023100D01*
X022905D01*
X022933Y023109D01*
X022952Y023119D01*
X022971Y023137D01*
X022980Y023156D01*
Y023194D01*
X022971Y023212D01*
X022952Y023231D01*
X022933Y023241D01*
X022849Y023418D02*
X022877Y023408D01*
X022896Y023390D01*
X022905Y023361D01*
Y023352D01*
X022896Y023324D01*
X022877Y023305D01*
X022849Y023296D01*
X022839D01*
X022811Y023305D01*
X022793Y023324D01*
X022783Y023352D01*
Y023361D01*
X022793Y023390D01*
X022811Y023408D01*
X022849Y023418D01*
X022896D01*
X022943Y023408D01*
X022971Y023390D01*
X022980Y023361D01*
Y023343D01*
X022971Y023315D01*
X022952Y023305D01*
X020551Y019890D02*
X020541Y019909D01*
X020522Y019927D01*
X020504Y019937D01*
X020466D01*
X020447Y019927D01*
X020429Y019909D01*
X020419Y019890D01*
X020410Y019862D01*
Y019815D01*
X020419Y019787D01*
X020429Y019768D01*
X020447Y019749D01*
X020466Y019740D01*
X020504D01*
X020522Y019749D01*
X020541Y019768D01*
X020551Y019787D01*
X020653Y019937D02*
X020625Y019927D01*
X020615Y019909D01*
Y019890D01*
X020625Y019871D01*
X020643Y019862D01*
X020681Y019852D01*
X020709Y019843D01*
X020728Y019824D01*
X020737Y019806D01*
Y019777D01*
X020728Y019759D01*
X020718Y019749D01*
X020690Y019740D01*
X020653D01*
X020625Y019749D01*
X020615Y019759D01*
X020606Y019777D01*
Y019806D01*
X020615Y019824D01*
X020634Y019843D01*
X020662Y019852D01*
X020700Y019862D01*
X020718Y019871D01*
X020728Y019890D01*
Y019909D01*
X020718Y019927D01*
X020690Y019937D01*
X020653D01*
X020930Y022041D02*
X020911Y022031D01*
X020893Y022012D01*
X020883Y021994D01*
Y021956D01*
X020893Y021937D01*
X020911Y021919D01*
X020930Y021909D01*
X020958Y021900D01*
X021005D01*
X021033Y021909D01*
X021052Y021919D01*
X021071Y021937D01*
X021080Y021956D01*
Y021994D01*
X021071Y022012D01*
X021052Y022031D01*
X021033Y022041D01*
X020883Y022227D02*
X021080Y022133D01*
X020883Y022096D02*
Y022227D01*
X021291Y021000D02*
X021281Y021019D01*
X021262Y021037D01*
X021244Y021047D01*
X021206D01*
X021187Y021037D01*
X021169Y021019D01*
X021159Y021000D01*
X021150Y020972D01*
Y020925D01*
X021159Y020897D01*
X021169Y020878D01*
X021187Y020859D01*
X021206Y020850D01*
X021244D01*
X021262Y020859D01*
X021281Y020878D01*
X021291Y020897D01*
X021458Y021019D02*
X021449Y021037D01*
X021421Y021047D01*
X021402D01*
X021374Y021037D01*
X021355Y021009D01*
X021346Y020962D01*
Y020916D01*
X021355Y020878D01*
X021374Y020859D01*
X021402Y020850D01*
X021411D01*
X021440Y020859D01*
X021458Y020878D01*
X021468Y020906D01*
Y020916D01*
X021458Y020944D01*
X021440Y020962D01*
X021411Y020972D01*
X021402D01*
X021374Y020962D01*
X021355Y020944D01*
X021346Y020916D01*
X019709Y020444D02*
X019728Y020454D01*
X019746Y020473D01*
X019756Y020491D01*
Y020529D01*
X019746Y020548D01*
X019728Y020566D01*
X019709Y020576D01*
X019681Y020585D01*
X019634D01*
X019606Y020576D01*
X019587Y020566D01*
X019568Y020548D01*
X019559Y020529D01*
Y020491D01*
X019568Y020473D01*
X019587Y020454D01*
X019606Y020444D01*
X019756Y020277D02*
Y020370D01*
X019671Y020380D01*
X019681Y020370D01*
X019690Y020342D01*
Y020314D01*
X019681Y020286D01*
X019662Y020267D01*
X019634Y020258D01*
X019615D01*
X019587Y020267D01*
X019568Y020286D01*
X019559Y020314D01*
Y020342D01*
X019568Y020370D01*
X019578Y020380D01*
X019596Y020389D01*
X021709Y020450D02*
X021719Y020431D01*
X021738Y020413D01*
X021756Y020403D01*
X021794D01*
X021813Y020413D01*
X021831Y020431D01*
X021841Y020450D01*
X021850Y020478D01*
Y020525D01*
X021841Y020553D01*
X021831Y020572D01*
X021813Y020591D01*
X021794Y020600D01*
X021756D01*
X021738Y020591D01*
X021719Y020572D01*
X021709Y020553D01*
X021560Y020403D02*
X021654Y020534D01*
X021514D01*
X021560Y020403D02*
Y020600D01*
X023200Y019391D02*
X023181Y019381D01*
X023163Y019362D01*
X023153Y019344D01*
Y019306D01*
X023163Y019287D01*
X023181Y019269D01*
X023200Y019259D01*
X023228Y019250D01*
X023275D01*
X023303Y019259D01*
X023322Y019269D01*
X023341Y019287D01*
X023350Y019306D01*
Y019344D01*
X023341Y019362D01*
X023322Y019381D01*
X023303Y019391D01*
X023153Y019465D02*
Y019568D01*
X023228Y019511D01*
Y019540D01*
X023238Y019558D01*
X023247Y019568D01*
X023275Y019577D01*
X023294D01*
X023322Y019568D01*
X023341Y019549D01*
X023350Y019521D01*
Y019493D01*
X023341Y019465D01*
X023331Y019455D01*
X023313Y019446D01*
X022209Y020850D02*
X022219Y020831D01*
X022238Y020813D01*
X022256Y020803D01*
X022294D01*
X022313Y020813D01*
X022331Y020831D01*
X022341Y020850D01*
X022350Y020878D01*
Y020925D01*
X022341Y020953D01*
X022331Y020972D01*
X022313Y020991D01*
X022294Y021000D01*
X022256D01*
X022238Y020991D01*
X022219Y020972D01*
X022209Y020953D01*
X022145Y020850D02*
Y020841D01*
X022135Y020822D01*
X022126Y020813D01*
X022107Y020803D01*
X022070D01*
X022051Y020813D01*
X022042Y020822D01*
X022032Y020841D01*
Y020859D01*
X022042Y020878D01*
X022060Y020906D01*
X022154Y021000D01*
X022023D01*
D52*
X021690Y018954D02*
X021679Y018949D01*
X021668Y018937D01*
X021662Y018926D01*
Y018904D01*
X021668Y018892D01*
X021679Y018881D01*
X021690Y018876D01*
X021707Y018870D01*
X021735D01*
X021752Y018876D01*
X021763Y018881D01*
X021774Y018892D01*
X021780Y018904D01*
Y018926D01*
X021774Y018937D01*
X021763Y018949D01*
X021752Y018954D01*
X021684Y018988D02*
X021679Y018999D01*
X021662Y019016D01*
X021780D01*
D53*
X010660Y018612D02*
D03*
X010650Y021842D02*
D03*
M02*
