G04 Layer_Color=8388736*
%FSAX24Y24*%
%MOIN*%
G70*
G01*
G75*
%ADD54R,0.0380X0.0380*%
%ADD55R,0.0380X0.0380*%
%ADD56R,0.0580X0.0680*%
%ADD57R,0.0789X0.0867*%
%ADD58R,0.0980X0.2080*%
%ADD59R,0.2080X0.0980*%
%ADD60O,0.0336X0.0730*%
%ADD61R,0.1300X0.1029*%
%ADD62O,0.0730X0.0336*%
%ADD63R,0.1029X0.1300*%
%ADD64R,0.0580X0.0480*%
%ADD65R,0.0480X0.0580*%
%ADD66R,0.1517X0.1517*%
%ADD67O,0.0178X0.0454*%
%ADD68O,0.0454X0.0178*%
%ADD69R,0.0308X0.0332*%
%ADD70C,0.2442*%
%ADD71R,0.1030X0.2080*%
%ADD72C,0.0780*%
%ADD73R,0.0780X0.0780*%
%ADD74R,0.2080X0.1030*%
G36*
X029321Y013806D02*
X029321Y013799D01*
X029318Y013786D01*
X029313Y013774D01*
X029305Y013762D01*
X029301Y013758D01*
X029298Y013760D01*
X029293Y013764D01*
X029286Y013766D01*
X029280Y013768D01*
X029276Y013768D01*
X029276Y013768D01*
X027491D01*
X026583Y014675D01*
X026511Y014741D01*
X026348Y014850D01*
X026167Y014925D01*
X025974Y014963D01*
X025876Y014968D01*
X025876Y014968D01*
X023291D01*
X023768Y014491D01*
X023837Y014421D01*
X023947Y014257D01*
X024022Y014075D01*
X024061Y013882D01*
X024061Y013783D01*
X024061Y013783D01*
Y013428D01*
X024062Y013390D01*
X024077Y013316D01*
X024106Y013246D01*
X024148Y013183D01*
X024174Y013155D01*
X024174D01*
X024801Y012528D01*
X024843Y012485D01*
X024911Y012384D01*
X024957Y012272D01*
X024981Y012154D01*
X024981Y012093D01*
X024981Y012093D01*
Y010058D01*
X020635Y010058D01*
X020631Y010058D01*
X020625Y010056D01*
X020619Y010054D01*
X020613Y010050D01*
X020611Y010048D01*
X020613Y010050D01*
X020617Y010056D01*
X020619Y010062D01*
X020620Y010069D01*
X020621Y010072D01*
X020621Y010072D01*
Y011798D01*
Y011888D01*
X020656Y012065D01*
X020725Y012232D01*
X020825Y012383D01*
X020889Y012446D01*
X020889Y012446D01*
X021431Y012988D01*
X021478Y013040D01*
X021556Y013157D01*
X021610Y013287D01*
X021637Y013424D01*
X021641Y013495D01*
X021641Y013495D01*
Y013598D01*
X020018Y015221D01*
X020016Y015222D01*
X020012Y015225D01*
X020008Y015227D01*
X020003Y015228D01*
X020001Y015228D01*
X019970Y015226D01*
X019909Y015214D01*
X019853Y015191D01*
X019801Y015156D01*
X019779Y015136D01*
Y015136D01*
X018241Y013598D01*
Y012995D01*
X018245Y012908D01*
X018279Y012738D01*
X018345Y012577D01*
X018442Y012432D01*
X018501Y012368D01*
X018553Y012315D01*
X018635Y012192D01*
X018692Y012056D01*
X018721Y011911D01*
X018721Y011837D01*
X018721Y011837D01*
Y009948D01*
X014311Y010038D01*
X014410Y012300D01*
X014425Y012379D01*
X014469Y012533D01*
X014528Y012683D01*
X014602Y012825D01*
X014689Y012960D01*
X014789Y013086D01*
X014901Y013201D01*
X015024Y013304D01*
X015090Y013350D01*
X015090Y013350D01*
X018574Y016726D01*
X018617Y016801D01*
X018719Y016941D01*
X018834Y017071D01*
X018962Y017188D01*
X019100Y017293D01*
X019248Y017383D01*
X019404Y017458D01*
X019566Y017518D01*
X019650Y017540D01*
X019650Y017540D01*
X021240Y017540D01*
X021274Y017521D01*
X021326Y017464D01*
X021360Y017395D01*
X021371Y017318D01*
X021366Y017280D01*
X021377Y017264D01*
X021388Y017226D01*
Y017187D01*
X021377Y017149D01*
X021366Y017133D01*
X021374Y017127D01*
X021390Y017113D01*
X021402Y017097D01*
X021411Y017078D01*
X021414Y017068D01*
X021416Y017069D01*
X021420Y017069D01*
X021424Y017069D01*
X021429Y017069D01*
X021431Y017068D01*
X021436Y017060D01*
X021441Y017044D01*
X021441Y017026D01*
X021436Y017009D01*
X021431Y017002D01*
X021431D01*
X021443Y016974D01*
X021475Y016922D01*
X021517Y016877D01*
X021567Y016841D01*
X021594Y016827D01*
X021594D01*
X023360Y016770D01*
X023544Y016766D01*
X023913Y016773D01*
X024280Y016797D01*
X024647Y016839D01*
X025010Y016899D01*
X025370Y016977D01*
X025726Y017072D01*
X026077Y017185D01*
X026251Y017248D01*
X026262Y017256D01*
X026283Y017273D01*
X026303Y017293D01*
X026320Y017314D01*
X026328Y017325D01*
X026328Y017325D01*
X026991Y017988D01*
X027032Y018031D01*
X027131Y018101D01*
X027242Y018150D01*
X027360Y018176D01*
X027421Y018178D01*
X027421Y018178D01*
X029321D01*
X029321Y013806D01*
D02*
G37*
D54*
X022250Y019900D02*
D03*
Y020450D02*
D03*
X016830Y024500D02*
D03*
Y023950D02*
D03*
X015396Y023929D02*
D03*
Y024479D02*
D03*
X014000Y024485D02*
D03*
Y023935D02*
D03*
X021750Y019500D02*
D03*
Y020050D02*
D03*
X019260Y020370D02*
D03*
Y019820D02*
D03*
X021250Y020500D02*
D03*
Y019950D02*
D03*
X020580Y020800D02*
D03*
Y020250D02*
D03*
Y022350D02*
D03*
Y021800D02*
D03*
X022480Y023250D02*
D03*
Y023800D02*
D03*
Y024850D02*
D03*
Y024300D02*
D03*
X018290Y024490D02*
D03*
Y023940D02*
D03*
X020080Y020800D02*
D03*
Y020250D02*
D03*
Y022350D02*
D03*
Y021800D02*
D03*
X016535Y012755D02*
D03*
Y012205D02*
D03*
X014880Y015310D02*
D03*
Y014760D02*
D03*
X022835Y012755D02*
D03*
Y012205D02*
D03*
X016810Y016300D02*
D03*
Y015750D02*
D03*
X021160Y013170D02*
D03*
Y012620D02*
D03*
X021760Y013165D02*
D03*
Y012615D02*
D03*
X018130Y013180D02*
D03*
Y012630D02*
D03*
X017660Y013175D02*
D03*
Y012625D02*
D03*
X014670Y018330D02*
D03*
Y017780D02*
D03*
X016380Y017940D02*
D03*
Y018490D02*
D03*
X028320Y021090D02*
D03*
Y020540D02*
D03*
X024380Y017760D02*
D03*
Y018310D02*
D03*
X022030Y017760D02*
D03*
Y018310D02*
D03*
X023930Y017760D02*
D03*
Y018310D02*
D03*
X022480Y017760D02*
D03*
Y018310D02*
D03*
X018860Y017010D02*
D03*
Y016460D02*
D03*
X023090Y017210D02*
D03*
Y016660D02*
D03*
D55*
X022050Y018950D02*
D03*
X022600D02*
D03*
X022250Y019450D02*
D03*
X022800D02*
D03*
X023100Y018950D02*
D03*
X023650D02*
D03*
X020050Y021300D02*
D03*
X020600D02*
D03*
X023250Y024850D02*
D03*
X023800D02*
D03*
X026418Y015945D02*
D03*
X026969D02*
D03*
X014505Y014150D02*
D03*
X013955D02*
D03*
X023000Y023780D02*
D03*
X023550D02*
D03*
X018700Y018800D02*
D03*
X018150D02*
D03*
X018700Y018350D02*
D03*
X018150D02*
D03*
X022020Y017310D02*
D03*
X022570D02*
D03*
X018700Y017450D02*
D03*
X018150D02*
D03*
X018700Y017900D02*
D03*
X018150D02*
D03*
X015230Y022170D02*
D03*
X015780D02*
D03*
X024000Y019780D02*
D03*
X024550D02*
D03*
X023920Y017310D02*
D03*
X024470D02*
D03*
X022930Y018310D02*
D03*
X023480D02*
D03*
X018200Y020480D02*
D03*
X018750D02*
D03*
D56*
X016240Y024360D02*
D03*
Y023460D02*
D03*
X014850Y024370D02*
D03*
Y023470D02*
D03*
X013450Y024385D02*
D03*
Y023485D02*
D03*
X017690Y024340D02*
D03*
Y023440D02*
D03*
D57*
X021780Y024754D02*
D03*
X020780D02*
D03*
X019780D02*
D03*
Y023100D02*
D03*
X020780D02*
D03*
X021780D02*
D03*
D58*
X016535Y010827D02*
D03*
X022835D02*
D03*
D59*
X028543Y015945D02*
D03*
D60*
X015290Y019218D02*
D03*
X015790D02*
D03*
X016290D02*
D03*
X016790D02*
D03*
X015290Y021442D02*
D03*
X015790D02*
D03*
X016290D02*
D03*
X016790D02*
D03*
D61*
X016040Y020330D02*
D03*
D62*
X025338Y021000D02*
D03*
Y020500D02*
D03*
Y020000D02*
D03*
Y019500D02*
D03*
X027562Y021000D02*
D03*
Y020500D02*
D03*
Y020000D02*
D03*
Y019500D02*
D03*
D63*
X026450Y020250D02*
D03*
D64*
X015790Y017630D02*
D03*
Y018430D02*
D03*
X014650Y019880D02*
D03*
Y020680D02*
D03*
D65*
X023680Y020360D02*
D03*
X024480D02*
D03*
X016300Y022270D02*
D03*
X017100D02*
D03*
X028300Y019800D02*
D03*
X029100D02*
D03*
X026020Y021610D02*
D03*
X026820D02*
D03*
D66*
X020450Y018450D02*
D03*
D67*
X019761Y019424D02*
D03*
X019958D02*
D03*
X020155D02*
D03*
X020352D02*
D03*
X020548D02*
D03*
X020745D02*
D03*
X020942D02*
D03*
X021139D02*
D03*
Y017476D02*
D03*
X020942D02*
D03*
X020745D02*
D03*
X020548D02*
D03*
X020352D02*
D03*
X020155D02*
D03*
X019958D02*
D03*
X019761D02*
D03*
D68*
X021424Y019139D02*
D03*
Y018942D02*
D03*
Y018745D02*
D03*
Y018548D02*
D03*
Y018352D02*
D03*
Y018155D02*
D03*
Y017958D02*
D03*
Y017761D02*
D03*
X019476D02*
D03*
Y017958D02*
D03*
Y018155D02*
D03*
Y018352D02*
D03*
Y018548D02*
D03*
Y018745D02*
D03*
Y018942D02*
D03*
Y019139D02*
D03*
D69*
X022377Y013380D02*
D03*
X022763D02*
D03*
X017000Y013450D02*
D03*
X016614D02*
D03*
D70*
X011811Y023622D02*
D03*
Y011811D02*
D03*
X027559D02*
D03*
Y023622D02*
D03*
D71*
X014835Y010827D02*
D03*
X018235D02*
D03*
X021135D02*
D03*
X024535D02*
D03*
D72*
X010660Y013610D02*
D03*
X010660Y014610D02*
D03*
X010660Y015610D02*
D03*
X010660Y017610D02*
D03*
X010660Y016610D02*
D03*
X010650Y020840D02*
D03*
X010650Y019840D02*
D03*
D73*
X010660Y018610D02*
D03*
X010650Y021840D02*
D03*
D74*
X028543Y014245D02*
D03*
Y017645D02*
D03*
M02*
