G04 Layer_Physical_Order=2*
G04 Layer_Color=16711680*
%FSAX24Y24*%
%MOIN*%
G70*
G01*
G75*
%ADD10C,0.0100*%
%ADD13R,0.0300X0.0300*%
%ADD28C,0.0200*%
%ADD29C,0.0276*%
%ADD30C,0.0300*%
%ADD32C,0.0060*%
%ADD35C,0.2362*%
%ADD36R,0.0950X0.2000*%
%ADD37C,0.0700*%
%ADD38R,0.0700X0.0700*%
%ADD39R,0.2000X0.0950*%
%ADD40C,0.0200*%
%ADD41C,0.0250*%
%ADD42C,0.0500*%
%ADD43C,0.0280*%
%ADD44C,0.0197*%
%ADD45C,0.0150*%
G36*
X012008Y025394D02*
X012008Y025394D01*
X027559Y025394D01*
X027672Y025391D01*
X027896Y025355D01*
X028113Y025291D01*
X028319Y025199D01*
X028512Y025080D01*
X028688Y024938D01*
X028844Y024774D01*
X028977Y024591D01*
X029085Y024392D01*
X029166Y024180D01*
X029218Y023960D01*
X029242Y023735D01*
X029239Y023622D01*
X029239Y023622D01*
X029239Y023622D01*
X029239Y020632D01*
X029192Y020621D01*
X029161Y020696D01*
X029111Y020761D01*
X029046Y020811D01*
X028971Y020842D01*
X028890Y020853D01*
X028809Y020842D01*
X028734Y020811D01*
X028669Y020761D01*
X028619Y020696D01*
X028588Y020621D01*
X028577Y020540D01*
X028588Y020459D01*
X028619Y020384D01*
X028669Y020319D01*
X028676Y020314D01*
Y019759D01*
X027941Y019024D01*
X027812D01*
X027791Y019051D01*
X027726Y019101D01*
X027651Y019132D01*
X027570Y019143D01*
X027489Y019132D01*
X027414Y019101D01*
X027349Y019051D01*
X027299Y018986D01*
X027268Y018911D01*
X027257Y018830D01*
X027268Y018749D01*
X027299Y018674D01*
X027349Y018609D01*
X027414Y018559D01*
X027489Y018528D01*
X027570Y018517D01*
X027651Y018528D01*
X027726Y018559D01*
X027774Y018596D01*
X028030D01*
X028112Y018612D01*
X028181Y018659D01*
X029041Y019519D01*
X029088Y019588D01*
X029104Y019670D01*
Y020314D01*
X029111Y020319D01*
X029161Y020384D01*
X029192Y020459D01*
X029239Y020448D01*
X029239Y012008D01*
X029239Y011882D01*
X029206Y011634D01*
X029141Y011391D01*
X029045Y011159D01*
X028920Y010942D01*
X028767Y010743D01*
X028589Y010565D01*
X028390Y010413D01*
X028173Y010287D01*
X027941Y010191D01*
X027699Y010126D01*
X027450Y010093D01*
X027324Y010093D01*
X012008Y010093D01*
X011882Y010093D01*
X011634Y010126D01*
X011391Y010191D01*
X011159Y010287D01*
X010942Y010413D01*
X010743Y010565D01*
X010565Y010743D01*
X010413Y010942D01*
X010287Y011159D01*
X010191Y011391D01*
X010126Y011634D01*
X010093Y011882D01*
X010093Y012008D01*
X010093Y023622D01*
X010098Y023743D01*
X010139Y023981D01*
X010210Y024212D01*
X010312Y024432D01*
X010440Y024636D01*
X010595Y024822D01*
X010772Y024987D01*
X010970Y025126D01*
X011184Y025239D01*
X011411Y025323D01*
X011646Y025376D01*
X011887Y025398D01*
X012008Y025394D01*
D02*
G37*
%LPC*%
G36*
X010660Y017024D02*
X010553Y017009D01*
X010453Y016968D01*
X010368Y016902D01*
X010302Y016817D01*
X010261Y016717D01*
X010246Y016610D01*
X010261Y016503D01*
X010302Y016403D01*
X010368Y016318D01*
X010453Y016252D01*
X010553Y016211D01*
X010660Y016196D01*
X010767Y016211D01*
X010867Y016252D01*
X010952Y016318D01*
X011018Y016403D01*
X011059Y016503D01*
X011074Y016610D01*
X011059Y016717D01*
X011018Y016817D01*
X010952Y016902D01*
X010867Y016968D01*
X010767Y017009D01*
X010660Y017024D01*
D02*
G37*
G36*
X015160Y018643D02*
X015079Y018632D01*
X015004Y018601D01*
X014939Y018551D01*
X014889Y018486D01*
X014858Y018411D01*
X014847Y018330D01*
X014858Y018249D01*
X014889Y018174D01*
X014939Y018109D01*
X015004Y018059D01*
X015079Y018028D01*
X015160Y018017D01*
X015241Y018028D01*
X015316Y018059D01*
X015381Y018109D01*
X015396Y018128D01*
X018046D01*
X018879Y017295D01*
X018886Y017286D01*
X018952Y017242D01*
X019030Y017226D01*
X019108Y017242D01*
X019174Y017286D01*
X019218Y017352D01*
X019234Y017430D01*
X019218Y017508D01*
X019216Y017511D01*
X019347Y017642D01*
X021113D01*
X021317Y017438D01*
X021321Y017415D01*
X021357Y017362D01*
X021410Y017327D01*
X021472Y017315D01*
X021476D01*
X021514Y017289D01*
X021592Y017274D01*
X021670Y017289D01*
X021736Y017334D01*
X021781Y017400D01*
X021796Y017478D01*
X021781Y017556D01*
X021736Y017622D01*
X021670Y017666D01*
X021592Y017682D01*
X021514Y017666D01*
X021493Y017652D01*
X021277Y017868D01*
X021287Y017905D01*
X021296Y017918D01*
X023353D01*
X023355Y017915D01*
X023408Y017879D01*
X023470Y017867D01*
X023532Y017879D01*
X023585Y017915D01*
X023621Y017968D01*
X023633Y018030D01*
X023621Y018092D01*
X023585Y018145D01*
X023532Y018181D01*
X023470Y018193D01*
X023408Y018181D01*
X023355Y018145D01*
X023353Y018142D01*
X021211D01*
X021049Y018305D01*
X021012Y018329D01*
X020969Y018338D01*
X020969Y018338D01*
X019457D01*
X019427Y018332D01*
X019397Y018338D01*
X019355Y018329D01*
X019318Y018305D01*
X019104Y018090D01*
X019100Y018091D01*
X019038Y018079D01*
X018985Y018043D01*
X018949Y017990D01*
X018937Y017928D01*
X018949Y017865D01*
X018908Y017837D01*
X018273Y018473D01*
X018207Y018516D01*
X018130Y018532D01*
X015396D01*
X015381Y018551D01*
X015316Y018601D01*
X015241Y018632D01*
X015160Y018643D01*
D02*
G37*
G36*
X010660Y018024D02*
X010553Y018009D01*
X010453Y017968D01*
X010368Y017902D01*
X010302Y017817D01*
X010261Y017717D01*
X010246Y017610D01*
X010261Y017503D01*
X010302Y017403D01*
X010368Y017318D01*
X010453Y017252D01*
X010553Y017211D01*
X010660Y017196D01*
X010767Y017211D01*
X010867Y017252D01*
X010952Y017318D01*
X011018Y017403D01*
X011059Y017503D01*
X011074Y017610D01*
X011059Y017717D01*
X011018Y017817D01*
X010952Y017902D01*
X010867Y017968D01*
X010767Y018009D01*
X010660Y018024D01*
D02*
G37*
G36*
X014510Y013783D02*
X014429Y013772D01*
X014354Y013741D01*
X014289Y013691D01*
X014239Y013626D01*
X014208Y013551D01*
X014197Y013470D01*
X014208Y013389D01*
X014239Y013314D01*
X014289Y013249D01*
X014354Y013199D01*
X014429Y013168D01*
X014510Y013157D01*
X014582Y013167D01*
X015350Y012399D01*
Y012110D01*
X015770D01*
Y012317D01*
X015800D01*
X015862Y012329D01*
X015915Y012365D01*
X015917Y012368D01*
X017220D01*
X017263Y012376D01*
X017299Y012401D01*
X017324Y012437D01*
X017332Y012480D01*
Y012584D01*
X017449Y012701D01*
X017474Y012737D01*
X017482Y012780D01*
X017482Y012780D01*
Y013053D01*
X017485Y013055D01*
X017521Y013108D01*
X017533Y013170D01*
X017521Y013232D01*
X017485Y013285D01*
X017432Y013321D01*
X017370Y013333D01*
X017308Y013321D01*
X017255Y013285D01*
X017219Y013232D01*
X017207Y013170D01*
X017219Y013108D01*
X017255Y013055D01*
X017258Y013053D01*
Y012826D01*
X017141Y012709D01*
X017116Y012673D01*
X017108Y012630D01*
X017078Y012592D01*
X015917D01*
X015915Y012595D01*
X015862Y012631D01*
X015800Y012643D01*
X015568D01*
X014813Y013398D01*
X014823Y013470D01*
X014812Y013551D01*
X014781Y013626D01*
X014731Y013691D01*
X014666Y013741D01*
X014591Y013772D01*
X014510Y013783D01*
D02*
G37*
G36*
X027559Y013056D02*
X027364Y013041D01*
X027174Y012995D01*
X026994Y012920D01*
X026827Y012818D01*
X026679Y012691D01*
X026552Y012543D01*
X026450Y012376D01*
X026375Y012196D01*
X026329Y012006D01*
X026314Y011811D01*
X026329Y011616D01*
X026375Y011426D01*
X026450Y011246D01*
X026552Y011079D01*
X026679Y010931D01*
X026827Y010804D01*
X026994Y010702D01*
X027174Y010627D01*
X027364Y010581D01*
X027559Y010566D01*
X027754Y010581D01*
X027944Y010627D01*
X028124Y010702D01*
X028291Y010804D01*
X028439Y010931D01*
X028566Y011079D01*
X028668Y011246D01*
X028743Y011426D01*
X028789Y011616D01*
X028804Y011811D01*
X028789Y012006D01*
X028743Y012196D01*
X028668Y012376D01*
X028566Y012543D01*
X028439Y012691D01*
X028291Y012818D01*
X028124Y012920D01*
X027944Y012995D01*
X027754Y013041D01*
X027559Y013056D01*
D02*
G37*
G36*
X010660Y016024D02*
X010553Y016009D01*
X010453Y015968D01*
X010368Y015902D01*
X010302Y015817D01*
X010261Y015717D01*
X010246Y015610D01*
X010261Y015503D01*
X010302Y015403D01*
X010368Y015318D01*
X010453Y015252D01*
X010553Y015211D01*
X010660Y015196D01*
X010767Y015211D01*
X010867Y015252D01*
X010952Y015318D01*
X011018Y015403D01*
X011059Y015503D01*
X011074Y015610D01*
X011059Y015717D01*
X011018Y015817D01*
X010952Y015902D01*
X010867Y015968D01*
X010767Y016009D01*
X010660Y016024D01*
D02*
G37*
G36*
X010660Y015024D02*
X010553Y015009D01*
X010453Y014968D01*
X010368Y014902D01*
X010302Y014817D01*
X010261Y014717D01*
X010246Y014610D01*
X010261Y014503D01*
X010302Y014403D01*
X010368Y014318D01*
X010453Y014252D01*
X010553Y014211D01*
X010660Y014196D01*
X010767Y014211D01*
X010867Y014252D01*
X010952Y014318D01*
X011018Y014403D01*
X011059Y014503D01*
X011074Y014610D01*
X011059Y014717D01*
X011018Y014817D01*
X010952Y014902D01*
X010867Y014968D01*
X010767Y015009D01*
X010660Y015024D01*
D02*
G37*
G36*
X011811Y013056D02*
X011616Y013041D01*
X011426Y012995D01*
X011246Y012920D01*
X011079Y012818D01*
X010931Y012691D01*
X010804Y012543D01*
X010702Y012376D01*
X010627Y012196D01*
X010581Y012006D01*
X010566Y011811D01*
X010581Y011616D01*
X010627Y011426D01*
X010702Y011246D01*
X010804Y011079D01*
X010931Y010931D01*
X011079Y010804D01*
X011246Y010702D01*
X011426Y010627D01*
X011616Y010581D01*
X011811Y010566D01*
X012006Y010581D01*
X012196Y010627D01*
X012376Y010702D01*
X012543Y010804D01*
X012691Y010931D01*
X012818Y011079D01*
X012920Y011246D01*
X012995Y011426D01*
X013041Y011616D01*
X013056Y011811D01*
X013041Y012006D01*
X012995Y012196D01*
X012920Y012376D01*
X012818Y012543D01*
X012691Y012691D01*
X012543Y012818D01*
X012376Y012920D01*
X012196Y012995D01*
X012006Y013041D01*
X011811Y013056D01*
D02*
G37*
G36*
Y024867D02*
X011616Y024852D01*
X011426Y024806D01*
X011246Y024731D01*
X011079Y024629D01*
X010931Y024502D01*
X010804Y024354D01*
X010702Y024187D01*
X010627Y024007D01*
X010581Y023817D01*
X010566Y023622D01*
X010581Y023427D01*
X010627Y023237D01*
X010702Y023057D01*
X010804Y022890D01*
X010931Y022742D01*
X011079Y022615D01*
X011246Y022513D01*
X011426Y022438D01*
X011616Y022392D01*
X011811Y022377D01*
X012006Y022392D01*
X012196Y022438D01*
X012376Y022513D01*
X012543Y022615D01*
X012691Y022742D01*
X012818Y022890D01*
X012920Y023057D01*
X012995Y023237D01*
X013041Y023427D01*
X013056Y023622D01*
X013041Y023817D01*
X012995Y024007D01*
X012920Y024187D01*
X012818Y024354D01*
X012691Y024502D01*
X012543Y024629D01*
X012376Y024731D01*
X012196Y024806D01*
X012006Y024852D01*
X011811Y024867D01*
D02*
G37*
G36*
X027559D02*
X027364Y024852D01*
X027174Y024806D01*
X026994Y024731D01*
X026827Y024629D01*
X026679Y024502D01*
X026552Y024354D01*
X026450Y024187D01*
X026375Y024007D01*
X026329Y023817D01*
X026314Y023622D01*
X026329Y023427D01*
X026375Y023237D01*
X026450Y023057D01*
X026552Y022890D01*
X026679Y022742D01*
X026827Y022615D01*
X026994Y022513D01*
X027174Y022438D01*
X027364Y022392D01*
X027559Y022377D01*
X027754Y022392D01*
X027944Y022438D01*
X028124Y022513D01*
X028291Y022615D01*
X028439Y022742D01*
X028566Y022890D01*
X028668Y023057D01*
X028743Y023237D01*
X028789Y023427D01*
X028804Y023622D01*
X028789Y023817D01*
X028743Y024007D01*
X028668Y024187D01*
X028566Y024354D01*
X028439Y024502D01*
X028291Y024629D01*
X028124Y024731D01*
X027944Y024806D01*
X027754Y024852D01*
X027559Y024867D01*
D02*
G37*
G36*
X022580Y022613D02*
X022499Y022602D01*
X022424Y022571D01*
X022359Y022521D01*
X022354Y022514D01*
X018826D01*
X018821Y022521D01*
X018756Y022571D01*
X018681Y022602D01*
X018600Y022613D01*
X018519Y022602D01*
X018444Y022571D01*
X018379Y022521D01*
X018374Y022514D01*
X013626D01*
X013621Y022521D01*
X013556Y022571D01*
X013481Y022602D01*
X013400Y022613D01*
X013319Y022602D01*
X013244Y022571D01*
X013179Y022521D01*
X013129Y022456D01*
X013098Y022381D01*
X013087Y022300D01*
X013098Y022219D01*
X013129Y022144D01*
X013179Y022079D01*
X013244Y022029D01*
X013319Y021998D01*
X013400Y021987D01*
X013481Y021998D01*
X013556Y022029D01*
X013621Y022079D01*
X013626Y022086D01*
X018374D01*
X018379Y022079D01*
X018444Y022029D01*
X018519Y021998D01*
X018600Y021987D01*
X018681Y021998D01*
X018756Y022029D01*
X018821Y022079D01*
X018826Y022086D01*
X022354D01*
X022359Y022079D01*
X022424Y022029D01*
X022499Y021998D01*
X022580Y021987D01*
X022661Y021998D01*
X022736Y022029D01*
X022801Y022079D01*
X022851Y022144D01*
X022882Y022219D01*
X022893Y022300D01*
X022882Y022381D01*
X022851Y022456D01*
X022801Y022521D01*
X022736Y022571D01*
X022661Y022602D01*
X022580Y022613D01*
D02*
G37*
G36*
X023580Y022063D02*
X023499Y022052D01*
X023424Y022021D01*
X023359Y021971D01*
X023309Y021906D01*
X023278Y021831D01*
X023267Y021750D01*
X023268Y021741D01*
X023171Y021644D01*
X017656D01*
X017651Y021651D01*
X017586Y021701D01*
X017511Y021732D01*
X017430Y021743D01*
X017349Y021732D01*
X017274Y021701D01*
X017209Y021651D01*
X017204Y021644D01*
X015210D01*
X015128Y021628D01*
X015059Y021581D01*
X012301Y018824D01*
X011070D01*
Y019020D01*
X010250D01*
Y018200D01*
X011070D01*
Y018396D01*
X012390D01*
X012472Y018412D01*
X012541Y018459D01*
X015299Y021216D01*
X017204D01*
X017209Y021209D01*
X017274Y021159D01*
X017349Y021128D01*
X017430Y021117D01*
X017511Y021128D01*
X017586Y021159D01*
X017651Y021209D01*
X017656Y021216D01*
X023260D01*
X023342Y021232D01*
X023411Y021279D01*
X023571Y021438D01*
X023580Y021437D01*
X023661Y021448D01*
X023736Y021479D01*
X023801Y021529D01*
X023851Y021594D01*
X023882Y021669D01*
X023893Y021750D01*
X023882Y021831D01*
X023851Y021906D01*
X023801Y021971D01*
X023736Y022021D01*
X023661Y022052D01*
X023580Y022063D01*
D02*
G37*
G36*
X011060Y022250D02*
X010240D01*
Y021430D01*
X011060D01*
Y021626D01*
X011201D01*
X012678Y020149D01*
X012677Y020140D01*
X012688Y020059D01*
X012719Y019984D01*
X012769Y019919D01*
X012834Y019869D01*
X012909Y019838D01*
X012990Y019827D01*
X013071Y019838D01*
X013146Y019869D01*
X013211Y019919D01*
X013261Y019984D01*
X013292Y020059D01*
X013303Y020140D01*
X013292Y020221D01*
X013261Y020296D01*
X013211Y020361D01*
X013146Y020411D01*
X013071Y020442D01*
X012990Y020453D01*
X012981Y020452D01*
X011441Y021991D01*
X011372Y022038D01*
X011290Y022054D01*
X011060D01*
Y022250D01*
D02*
G37*
G36*
X017900Y020333D02*
X017838Y020321D01*
X017785Y020285D01*
X017749Y020232D01*
X017737Y020170D01*
X017749Y020108D01*
X017750Y020106D01*
X017736Y020047D01*
X017705Y020025D01*
X017669Y019972D01*
X017657Y019910D01*
X017658Y019906D01*
X017622Y019871D01*
X017610Y019873D01*
X017548Y019861D01*
X017495Y019825D01*
X017459Y019772D01*
X017447Y019710D01*
X017459Y019648D01*
X017470Y019632D01*
X017468Y019581D01*
X017415Y019545D01*
X017379Y019492D01*
X017367Y019430D01*
X017379Y019368D01*
X017415Y019315D01*
X017468Y019279D01*
X017530Y019267D01*
X017558Y019272D01*
X018325Y018505D01*
X018355Y018485D01*
X018390Y018478D01*
X018902D01*
X018925Y018445D01*
X018978Y018409D01*
X019040Y018397D01*
X019102Y018409D01*
X019155Y018445D01*
X019191Y018498D01*
X019203Y018560D01*
X019191Y018622D01*
X019163Y018663D01*
X019165Y018722D01*
X019167Y018728D01*
X019201Y018778D01*
X019213Y018840D01*
X019201Y018902D01*
X019165Y018955D01*
X019151Y018965D01*
Y019015D01*
X019165Y019025D01*
X019201Y019078D01*
X019213Y019140D01*
X019201Y019202D01*
X019178Y019236D01*
X019176Y019286D01*
X019182Y019304D01*
X019211Y019348D01*
X019223Y019410D01*
X019211Y019472D01*
X019175Y019525D01*
X019122Y019561D01*
X019060Y019573D01*
X018998Y019561D01*
X018945Y019525D01*
X018922Y019492D01*
X018708D01*
X018058Y020142D01*
X018063Y020170D01*
X018051Y020232D01*
X018015Y020285D01*
X017962Y020321D01*
X017900Y020333D01*
D02*
G37*
G36*
X010650Y021254D02*
X010543Y021239D01*
X010443Y021198D01*
X010358Y021132D01*
X010292Y021047D01*
X010251Y020947D01*
X010236Y020840D01*
X010251Y020733D01*
X010292Y020633D01*
X010358Y020548D01*
X010443Y020482D01*
X010543Y020441D01*
X010650Y020426D01*
X010757Y020441D01*
X010857Y020482D01*
X010942Y020548D01*
X011008Y020633D01*
X011049Y020733D01*
X011064Y020840D01*
X011049Y020947D01*
X011008Y021047D01*
X010942Y021132D01*
X010857Y021198D01*
X010757Y021239D01*
X010650Y021254D01*
D02*
G37*
%LPD*%
G36*
X019457Y018113D02*
X020923D01*
X021068Y017968D01*
X021048Y017918D01*
X019330D01*
X019299Y017955D01*
X019298Y017968D01*
X019446Y018115D01*
X019457Y018113D01*
D02*
G37*
D10*
Y018225D02*
X020969D01*
X019130Y017958D02*
X019397Y018225D01*
X019128Y017900D02*
X019186Y017958D01*
X021165Y018030D02*
X023470D01*
X020969Y018225D02*
X021165Y018030D01*
X017370Y012780D02*
Y013170D01*
X015800Y012480D02*
X017220D01*
Y012630D01*
X017370Y012780D01*
D13*
X015560Y012320D02*
D03*
X015010D02*
D03*
D28*
X015500Y012480D02*
X015800D01*
X014510Y013470D02*
X015500Y012480D01*
X021472Y017478D02*
X021592D01*
D29*
X018130Y018330D02*
X019030Y017430D01*
X015290Y018330D02*
X018130D01*
D30*
X015210Y021430D02*
X017430D01*
X012390Y018610D02*
X015210Y021430D01*
X027570Y018810D02*
Y018830D01*
Y018810D02*
X028030D01*
X028890Y019670D01*
Y020540D01*
X023260Y021430D02*
X023580Y021750D01*
X017430Y021430D02*
X023260D01*
X018600Y022300D02*
X022580D01*
X013400D02*
X018600D01*
X011290Y021840D02*
X012990Y020140D01*
X010650Y021840D02*
X011290D01*
X010660Y018610D02*
X012390D01*
D32*
X018390Y018570D02*
X019010D01*
X017530Y019430D02*
X018390Y018570D01*
X018470Y018850D02*
X019010D01*
X017610Y019710D02*
X018470Y018850D01*
X018590Y019140D02*
X019010D01*
X017820Y019910D02*
X018590Y019140D01*
X018670Y019400D02*
X019010D01*
X017900Y020170D02*
X018670Y019400D01*
D35*
X011811Y023622D02*
D03*
Y011811D02*
D03*
X027559D02*
D03*
Y023622D02*
D03*
D36*
X014835Y010827D02*
D03*
X018235D02*
D03*
X021135D02*
D03*
X024535D02*
D03*
D37*
X010660Y013610D02*
D03*
X010660Y014610D02*
D03*
X010660Y015610D02*
D03*
X010660Y017610D02*
D03*
X010660Y016610D02*
D03*
X010650Y020840D02*
D03*
X010650Y019840D02*
D03*
D38*
X010660Y018610D02*
D03*
X010650Y021840D02*
D03*
D39*
X028543Y014245D02*
D03*
Y017645D02*
D03*
D40*
X019100Y017928D02*
D03*
X019060Y019410D02*
D03*
X019050Y019140D02*
D03*
Y018840D02*
D03*
X019040Y018560D02*
D03*
X017900Y020170D02*
D03*
X017820Y019910D02*
D03*
X017610Y019710D02*
D03*
X017530Y019430D02*
D03*
X023470Y018030D02*
D03*
X017370Y013170D02*
D03*
X019905Y016090D02*
D03*
X019728Y015913D02*
D03*
X019549Y015739D02*
D03*
X019358Y015577D02*
D03*
X019168Y015415D02*
D03*
X018977Y015254D02*
D03*
X018786Y015092D02*
D03*
X018595Y014931D02*
D03*
X018405Y014769D02*
D03*
X018214Y014607D02*
D03*
X018023Y014446D02*
D03*
X017833Y014284D02*
D03*
X017642Y014122D02*
D03*
X017451Y013961D02*
D03*
X017260Y013799D02*
D03*
X016935Y012927D02*
D03*
X016136Y012887D02*
D03*
Y013137D02*
D03*
Y013387D02*
D03*
X016145Y013637D02*
D03*
X016210Y013878D02*
D03*
X016358Y014080D02*
D03*
X016547Y014243D02*
D03*
X016738Y014404D02*
D03*
X016929Y014566D02*
D03*
X017120Y014727D02*
D03*
X017310Y014889D02*
D03*
X017501Y015051D02*
D03*
X017692Y015212D02*
D03*
X017883Y015374D02*
D03*
X018073Y015535D02*
D03*
X018264Y015697D02*
D03*
X018455Y015859D02*
D03*
X018646Y016020D02*
D03*
X018836Y016182D02*
D03*
X019205Y016520D02*
D03*
X019381Y016696D02*
D03*
X019558Y016873D02*
D03*
X020175Y016000D02*
D03*
X019997Y015821D02*
D03*
X019818Y015645D02*
D03*
X019625Y015469D02*
D03*
X019428Y015302D02*
D03*
X019237Y015140D02*
D03*
X019046Y014979D02*
D03*
X018856Y014817D02*
D03*
X018665Y014655D02*
D03*
X018474Y014494D02*
D03*
X018283Y014332D02*
D03*
X018093Y014170D02*
D03*
X017902Y014009D02*
D03*
X017711Y013847D02*
D03*
X017557Y013644D02*
D03*
X016950Y012110D02*
D03*
X016000Y012100D02*
D03*
X015884Y012986D02*
D03*
X015881Y013262D02*
D03*
X015885Y013516D02*
D03*
X015927Y013795D02*
D03*
X016058Y014087D02*
D03*
X016267Y014333D02*
D03*
X016477Y014517D02*
D03*
X016669Y014679D02*
D03*
X016860Y014841D02*
D03*
X017050Y015003D02*
D03*
X017241Y015164D02*
D03*
X017432Y015326D02*
D03*
X017622Y015488D02*
D03*
X017813Y015649D02*
D03*
X018004Y015811D02*
D03*
X018195Y015972D02*
D03*
X018385Y016134D02*
D03*
X018576Y016296D02*
D03*
X019201Y016877D02*
D03*
X021187Y016128D02*
D03*
X021364Y015951D02*
D03*
X021540Y015775D02*
D03*
X021717Y015598D02*
D03*
X021894Y015421D02*
D03*
X022071Y015244D02*
D03*
X022248Y015067D02*
D03*
X022424Y014891D02*
D03*
X022601Y014714D02*
D03*
X022778Y014537D02*
D03*
X022948Y014354D02*
D03*
X023087Y014146D02*
D03*
X023180Y013914D02*
D03*
X023224Y013668D02*
D03*
X023230Y013418D02*
D03*
Y013168D02*
D03*
Y012918D02*
D03*
X023197Y012670D02*
D03*
X022474Y012646D02*
D03*
X022431Y012893D02*
D03*
X022317Y013868D02*
D03*
X022141Y014044D02*
D03*
X021964Y014221D02*
D03*
X021787Y014398D02*
D03*
X021610Y014575D02*
D03*
X021433Y014752D02*
D03*
X021257Y014928D02*
D03*
X021080Y015105D02*
D03*
X020903Y015282D02*
D03*
X020726Y015459D02*
D03*
X020550Y015635D02*
D03*
X020373Y015812D02*
D03*
X020197Y015990D02*
D03*
X021986Y015690D02*
D03*
X022163Y015513D02*
D03*
X022339Y015336D02*
D03*
X022516Y015159D02*
D03*
X022693Y014983D02*
D03*
X022870Y014806D02*
D03*
X023046Y014623D02*
D03*
X023217Y014408D02*
D03*
X023358Y014149D02*
D03*
X023446Y013861D02*
D03*
X023480Y013569D02*
D03*
X023485Y013296D02*
D03*
X023485Y013043D02*
D03*
X023467Y012777D02*
D03*
X023388Y012487D02*
D03*
X023219Y012263D02*
D03*
X022309Y012503D02*
D03*
X022170Y012860D02*
D03*
X022066Y013724D02*
D03*
X021783Y014041D02*
D03*
X021518Y014306D02*
D03*
X021342Y014483D02*
D03*
X021165Y014660D02*
D03*
X020988Y014836D02*
D03*
X020811Y015013D02*
D03*
X020634Y015190D02*
D03*
X020458Y015367D02*
D03*
X020281Y015544D02*
D03*
X021259Y017038D02*
D03*
X021420Y016860D02*
D03*
X021651Y016729D02*
D03*
X021870Y016608D02*
D03*
X022100Y016509D02*
D03*
X022338Y016433D02*
D03*
X022582Y016380D02*
D03*
X022830Y016351D02*
D03*
X023080Y016344D02*
D03*
X023330D02*
D03*
X023580D02*
D03*
X023830D02*
D03*
X024080D02*
D03*
X024330D02*
D03*
X024580D02*
D03*
X024830D02*
D03*
X025080D02*
D03*
X025330D02*
D03*
X025580D02*
D03*
X025830D02*
D03*
X026080D02*
D03*
X026330D02*
D03*
X026577Y016307D02*
D03*
X026716Y015664D02*
D03*
X026491Y015556D02*
D03*
X026241Y015545D02*
D03*
X025991D02*
D03*
X025741D02*
D03*
X025491D02*
D03*
X025241D02*
D03*
X024991D02*
D03*
X024741D02*
D03*
X024491D02*
D03*
X024241D02*
D03*
X023991D02*
D03*
X023741D02*
D03*
X023491D02*
D03*
X023241D02*
D03*
X022991Y015545D02*
D03*
X022741Y015558D02*
D03*
X022493Y015587D02*
D03*
X022247Y015630D02*
D03*
X022193Y016758D02*
D03*
X022626Y016642D02*
D03*
X023455Y016599D02*
D03*
X023705D02*
D03*
X023955D02*
D03*
X024205D02*
D03*
X024455D02*
D03*
X024705D02*
D03*
X024955D02*
D03*
X025205D02*
D03*
X025455D02*
D03*
X025705D02*
D03*
X025955D02*
D03*
X026205D02*
D03*
X026473Y016579D02*
D03*
X026720Y016464D02*
D03*
X026923Y015597D02*
D03*
X026742Y015401D02*
D03*
X026427Y015308D02*
D03*
X026121Y015291D02*
D03*
X025866Y015290D02*
D03*
X025616D02*
D03*
X025366D02*
D03*
X025116D02*
D03*
X024866D02*
D03*
X024616D02*
D03*
X024366D02*
D03*
X024116D02*
D03*
X023866D02*
D03*
X023616D02*
D03*
X023366D02*
D03*
X023116Y015290D02*
D03*
X022859Y015297D02*
D03*
D41*
X027730Y015080D02*
D03*
X026730Y021080D02*
D03*
Y019080D02*
D03*
X027230Y018080D02*
D03*
X026730Y017080D02*
D03*
Y015080D02*
D03*
X027230Y014080D02*
D03*
X026730Y013080D02*
D03*
X026230Y024080D02*
D03*
X025730Y023080D02*
D03*
X026230Y018080D02*
D03*
X025730Y017080D02*
D03*
X026230Y014080D02*
D03*
X025730Y013080D02*
D03*
Y011080D02*
D03*
X025230Y024080D02*
D03*
X024730Y023080D02*
D03*
Y021080D02*
D03*
Y019080D02*
D03*
X025230Y018080D02*
D03*
Y014080D02*
D03*
X024730Y013080D02*
D03*
X025230Y012080D02*
D03*
X024230Y024080D02*
D03*
X023730Y023080D02*
D03*
X024230Y014080D02*
D03*
Y012080D02*
D03*
X023730Y011080D02*
D03*
X023230Y022080D02*
D03*
Y020080D02*
D03*
X022230Y012080D02*
D03*
X021230Y024080D02*
D03*
Y014080D02*
D03*
Y012080D02*
D03*
X020230Y024080D02*
D03*
X019730Y015080D02*
D03*
X020230Y014080D02*
D03*
Y012080D02*
D03*
X019730Y011080D02*
D03*
X019230Y024080D02*
D03*
X018730Y023080D02*
D03*
Y021080D02*
D03*
X019230Y014080D02*
D03*
Y012080D02*
D03*
X017730Y021080D02*
D03*
X018230Y012080D02*
D03*
X017230Y024080D02*
D03*
X016730Y023080D02*
D03*
X017230Y016080D02*
D03*
X016730Y015080D02*
D03*
X017230Y012080D02*
D03*
X015730Y023080D02*
D03*
Y011080D02*
D03*
X014730Y019080D02*
D03*
X015230Y016080D02*
D03*
Y014080D02*
D03*
X013730Y021080D02*
D03*
X014230Y018080D02*
D03*
Y016080D02*
D03*
X013730Y013080D02*
D03*
X014230Y012080D02*
D03*
X013730Y011080D02*
D03*
X012730Y021080D02*
D03*
X013230Y018080D02*
D03*
Y016080D02*
D03*
X012730Y015080D02*
D03*
X013230Y014080D02*
D03*
X012730Y013080D02*
D03*
X013230Y012080D02*
D03*
X012230Y022080D02*
D03*
X011730Y019080D02*
D03*
X012230Y018080D02*
D03*
Y016080D02*
D03*
Y014080D02*
D03*
X011230Y020080D02*
D03*
Y018080D02*
D03*
Y016080D02*
D03*
Y014080D02*
D03*
X010730Y013080D02*
D03*
D42*
X014510Y013470D02*
D03*
X027570Y018830D02*
D03*
X028890Y020540D02*
D03*
X023580Y021750D02*
D03*
X022580Y022300D02*
D03*
X018600D02*
D03*
X013400D02*
D03*
X012990Y020140D02*
D03*
X017430Y021430D02*
D03*
X015160Y018330D02*
D03*
D43*
X019030Y017430D02*
D03*
X021592Y017478D02*
D03*
X018140Y017040D02*
D03*
X022890Y017780D02*
D03*
X023540Y017290D02*
D03*
X017750Y017890D02*
D03*
D44*
X020017Y018450D02*
D03*
Y018017D02*
D03*
X015607Y020113D02*
D03*
Y020547D02*
D03*
X016040Y020113D02*
D03*
Y020547D02*
D03*
X016473Y020113D02*
D03*
Y020547D02*
D03*
X026233Y020683D02*
D03*
X026667D02*
D03*
X026233Y020250D02*
D03*
X026667D02*
D03*
X026233Y019817D02*
D03*
X026667D02*
D03*
X020883Y018017D02*
D03*
X020450D02*
D03*
X020883Y018450D02*
D03*
X020450D02*
D03*
X020883Y018883D02*
D03*
X020450D02*
D03*
X020017D02*
D03*
D45*
X019060Y017400D02*
Y017550D01*
X019290Y017780D02*
X021170D01*
X019060Y017550D02*
X019290Y017780D01*
X021170D02*
X021472Y017478D01*
M02*
